<?xml version="1.0" standalone="no"?>
<!DOCTYPE svg PUBLIC "-//W3C//DTD SVG 1.1//EN" "http://www.w3.org/Graphics/SVG/1.1/DTD/svg11.dtd" >
<svg xmlns="http://www.w3.org/2000/svg">
<metadata></metadata>
<defs>
<font id="cleanhousemedium" horiz-adv-x="1161" >
<font-face units-per-em="2048" ascent="1638" descent="-410" />
<missing-glyph horiz-adv-x="563" />
<glyph horiz-adv-x="2048" />
<glyph horiz-adv-x="2048" />
<glyph unicode="&#xd;" horiz-adv-x="0" />
<glyph d="M102 811q0 96 36.5 183.5t103.5 154.5t153.5 104t184.5 37q99 0 185.5 -37t153 -103.5t103.5 -153t37 -185.5t-36.5 -184.5t-103 -152.5t-153.5 -103.5t-184 -36.5q-98 0 -184 36t-155 104.5t-105 154.5t-36 182zM246 811q0 -138 98 -236t236 -98q89 0 167 44.5t123 122 t45 167.5t-45 167.5t-123 122t-167 44.5t-166.5 -44.5t-122.5 -122t-45 -167.5z" />
<glyph d="M102 811q0 96 36.5 183.5t103.5 154.5t153.5 104t184.5 37q99 0 185.5 -37t153 -103.5t103.5 -153t37 -185.5t-36.5 -184.5t-103 -152.5t-153.5 -103.5t-184 -36.5q-98 0 -184 36t-155 104.5t-105 154.5t-36 182zM246 811q0 -138 98 -236t236 -98q89 0 167 44.5t123 122 t45 167.5t-45 167.5t-123 122t-167 44.5t-166.5 -44.5t-122.5 -122t-45 -167.5z" />
<glyph d="M102 811q0 96 36.5 183.5t103.5 154.5t153.5 104t184.5 37q99 0 185.5 -37t153 -103.5t103.5 -153t37 -185.5t-36.5 -184.5t-103 -152.5t-153.5 -103.5t-184 -36.5q-98 0 -184 36t-155 104.5t-105 154.5t-36 182zM246 811q0 -138 98 -236t236 -98q89 0 167 44.5t123 122 t45 167.5t-45 167.5t-123 122t-167 44.5t-166.5 -44.5t-122.5 -122t-45 -167.5z" />
<glyph d="M102 811q0 96 36.5 183.5t103.5 154.5t153.5 104t184.5 37q99 0 185.5 -37t153 -103.5t103.5 -153t37 -185.5t-36.5 -184.5t-103 -152.5t-153.5 -103.5t-184 -36.5q-98 0 -184 36t-155 104.5t-105 154.5t-36 182zM246 811q0 -138 98 -236t236 -98q89 0 167 44.5t123 122 t45 167.5t-45 167.5t-123 122t-167 44.5t-166.5 -44.5t-122.5 -122t-45 -167.5z" />
<glyph d="M102 811q0 96 36.5 183.5t103.5 154.5t153.5 104t184.5 37q99 0 185.5 -37t153 -103.5t103.5 -153t37 -185.5t-36.5 -184.5t-103 -152.5t-153.5 -103.5t-184 -36.5q-98 0 -184 36t-155 104.5t-105 154.5t-36 182zM246 811q0 -138 98 -236t236 -98q89 0 167 44.5t123 122 t45 167.5t-45 167.5t-123 122t-167 44.5t-166.5 -44.5t-122.5 -122t-45 -167.5z" />
<glyph d="M102 811q0 96 36.5 183.5t103.5 154.5t153.5 104t184.5 37q99 0 185.5 -37t153 -103.5t103.5 -153t37 -185.5t-36.5 -184.5t-103 -152.5t-153.5 -103.5t-184 -36.5q-98 0 -184 36t-155 104.5t-105 154.5t-36 182zM246 811q0 -138 98 -236t236 -98q89 0 167 44.5t123 122 t45 167.5t-45 167.5t-123 122t-167 44.5t-166.5 -44.5t-122.5 -122t-45 -167.5z" />
<glyph d="M102 811q0 96 36.5 183.5t103.5 154.5t153.5 104t184.5 37q99 0 185.5 -37t153 -103.5t103.5 -153t37 -185.5t-36.5 -184.5t-103 -152.5t-153.5 -103.5t-184 -36.5q-98 0 -184 36t-155 104.5t-105 154.5t-36 182zM246 811q0 -138 98 -236t236 -98q89 0 167 44.5t123 122 t45 167.5t-45 167.5t-123 122t-167 44.5t-166.5 -44.5t-122.5 -122t-45 -167.5z" />
<glyph d="M102 811q0 96 36.5 183.5t103.5 154.5t153.5 104t184.5 37q99 0 185.5 -37t153 -103.5t103.5 -153t37 -185.5t-36.5 -184.5t-103 -152.5t-153.5 -103.5t-184 -36.5q-98 0 -184 36t-155 104.5t-105 154.5t-36 182zM246 811q0 -138 98 -236t236 -98q89 0 167 44.5t123 122 t45 167.5t-45 167.5t-123 122t-167 44.5t-166.5 -44.5t-122.5 -122t-45 -167.5z" />
<glyph d="M102 811q0 96 36.5 183.5t103.5 154.5t153.5 104t184.5 37q99 0 185.5 -37t153 -103.5t103.5 -153t37 -185.5t-36.5 -184.5t-103 -152.5t-153.5 -103.5t-184 -36.5q-98 0 -184 36t-155 104.5t-105 154.5t-36 182zM246 811q0 -138 98 -236t236 -98q89 0 167 44.5t123 122 t45 167.5t-45 167.5t-123 122t-167 44.5t-166.5 -44.5t-122.5 -122t-45 -167.5z" />
<glyph d="M102 811q0 96 36.5 183.5t103.5 154.5t153.5 104t184.5 37q99 0 185.5 -37t153 -103.5t103.5 -153t37 -185.5t-36.5 -184.5t-103 -152.5t-153.5 -103.5t-184 -36.5q-98 0 -184 36t-155 104.5t-105 154.5t-36 182zM246 811q0 -138 98 -236t236 -98q89 0 167 44.5t123 122 t45 167.5t-45 167.5t-123 122t-167 44.5t-166.5 -44.5t-122.5 -122t-45 -167.5z" />
<glyph d="M102 811q0 96 36.5 183.5t103.5 154.5t153.5 104t184.5 37q99 0 185.5 -37t153 -103.5t103.5 -153t37 -185.5t-36.5 -184.5t-103 -152.5t-153.5 -103.5t-184 -36.5q-98 0 -184 36t-155 104.5t-105 154.5t-36 182zM246 811q0 -138 98 -236t236 -98q89 0 167 44.5t123 122 t45 167.5t-45 167.5t-123 122t-167 44.5t-166.5 -44.5t-122.5 -122t-45 -167.5z" />
<glyph d="M102 811q0 96 36.5 183.5t103.5 154.5t153.5 104t184.5 37q99 0 185.5 -37t153 -103.5t103.5 -153t37 -185.5t-36.5 -184.5t-103 -152.5t-153.5 -103.5t-184 -36.5q-98 0 -184 36t-155 104.5t-105 154.5t-36 182zM246 811q0 -138 98 -236t236 -98q89 0 167 44.5t123 122 t45 167.5t-45 167.5t-123 122t-167 44.5t-166.5 -44.5t-122.5 -122t-45 -167.5z" />
<glyph d="M102 811q0 96 36.5 183.5t103.5 154.5t153.5 104t184.5 37q99 0 185.5 -37t153 -103.5t103.5 -153t37 -185.5t-36.5 -184.5t-103 -152.5t-153.5 -103.5t-184 -36.5q-98 0 -184 36t-155 104.5t-105 154.5t-36 182zM246 811q0 -138 98 -236t236 -98q89 0 167 44.5t123 122 t45 167.5t-45 167.5t-123 122t-167 44.5t-166.5 -44.5t-122.5 -122t-45 -167.5z" />
<glyph d="M102 811q0 96 36.5 183.5t103.5 154.5t153.5 104t184.5 37q99 0 185.5 -37t153 -103.5t103.5 -153t37 -185.5t-36.5 -184.5t-103 -152.5t-153.5 -103.5t-184 -36.5q-98 0 -184 36t-155 104.5t-105 154.5t-36 182zM246 811q0 -138 98 -236t236 -98q89 0 167 44.5t123 122 t45 167.5t-45 167.5t-123 122t-167 44.5t-166.5 -44.5t-122.5 -122t-45 -167.5z" />
<glyph d="M102 811q0 96 36.5 183.5t103.5 154.5t153.5 104t184.5 37q99 0 185.5 -37t153 -103.5t103.5 -153t37 -185.5t-36.5 -184.5t-103 -152.5t-153.5 -103.5t-184 -36.5q-98 0 -184 36t-155 104.5t-105 154.5t-36 182zM246 811q0 -138 98 -236t236 -98q89 0 167 44.5t123 122 t45 167.5t-45 167.5t-123 122t-167 44.5t-166.5 -44.5t-122.5 -122t-45 -167.5z" />
<glyph d="M102 811q0 96 36.5 183.5t103.5 154.5t153.5 104t184.5 37q99 0 185.5 -37t153 -103.5t103.5 -153t37 -185.5t-36.5 -184.5t-103 -152.5t-153.5 -103.5t-184 -36.5q-98 0 -184 36t-155 104.5t-105 154.5t-36 182zM246 811q0 -138 98 -236t236 -98q89 0 167 44.5t123 122 t45 167.5t-45 167.5t-123 122t-167 44.5t-166.5 -44.5t-122.5 -122t-45 -167.5z" />
<glyph d="M102 811q0 96 36.5 183.5t103.5 154.5t153.5 104t184.5 37q99 0 185.5 -37t153 -103.5t103.5 -153t37 -185.5t-36.5 -184.5t-103 -152.5t-153.5 -103.5t-184 -36.5q-98 0 -184 36t-155 104.5t-105 154.5t-36 182zM246 811q0 -138 98 -236t236 -98q89 0 167 44.5t123 122 t45 167.5t-45 167.5t-123 122t-167 44.5t-166.5 -44.5t-122.5 -122t-45 -167.5z" />
<glyph d="M102 811q0 96 36.5 183.5t103.5 154.5t153.5 104t184.5 37q99 0 185.5 -37t153 -103.5t103.5 -153t37 -185.5t-36.5 -184.5t-103 -152.5t-153.5 -103.5t-184 -36.5q-98 0 -184 36t-155 104.5t-105 154.5t-36 182zM246 811q0 -138 98 -236t236 -98q89 0 167 44.5t123 122 t45 167.5t-45 167.5t-123 122t-167 44.5t-166.5 -44.5t-122.5 -122t-45 -167.5z" />
<glyph d="M102 811q0 96 36.5 183.5t103.5 154.5t153.5 104t184.5 37q99 0 185.5 -37t153 -103.5t103.5 -153t37 -185.5t-36.5 -184.5t-103 -152.5t-153.5 -103.5t-184 -36.5q-98 0 -184 36t-155 104.5t-105 154.5t-36 182zM246 811q0 -138 98 -236t236 -98q89 0 167 44.5t123 122 t45 167.5t-45 167.5t-123 122t-167 44.5t-166.5 -44.5t-122.5 -122t-45 -167.5z" />
<glyph d="M102 811q0 96 36.5 183.5t103.5 154.5t153.5 104t184.5 37q99 0 185.5 -37t153 -103.5t103.5 -153t37 -185.5t-36.5 -184.5t-103 -152.5t-153.5 -103.5t-184 -36.5q-98 0 -184 36t-155 104.5t-105 154.5t-36 182zM246 811q0 -138 98 -236t236 -98q89 0 167 44.5t123 122 t45 167.5t-45 167.5t-123 122t-167 44.5t-166.5 -44.5t-122.5 -122t-45 -167.5z" />
<glyph d="M102 811q0 96 36.5 183.5t103.5 154.5t153.5 104t184.5 37q99 0 185.5 -37t153 -103.5t103.5 -153t37 -185.5t-36.5 -184.5t-103 -152.5t-153.5 -103.5t-184 -36.5q-98 0 -184 36t-155 104.5t-105 154.5t-36 182zM246 811q0 -138 98 -236t236 -98q89 0 167 44.5t123 122 t45 167.5t-45 167.5t-123 122t-167 44.5t-166.5 -44.5t-122.5 -122t-45 -167.5z" />
<glyph unicode=" "  horiz-adv-x="563" />
<glyph unicode="&#x09;" horiz-adv-x="563" />
<glyph unicode="&#xa0;" horiz-adv-x="563" />
<glyph unicode="!" horiz-adv-x="465" d="M123 100q0 72 31 121q29 39 84 39q53 0 81 -41q18 -13 27.5 -40.5t17.5 -48.5t29 -30q-4 -4 -4 -16q0 -5 -8 -8l6 -82q-37 -48 -58.5 -69t-56.5 -21q-8 0 -24 4q-28 1 -47.5 17t-53.5 55q-24 51 -24 120zM145 698q0 179 58 373q-21 124 -51 172q0 86 24 117q47 35 105 35 q46 0 73 -27q41 -41 41 -106q0 -41 -12 -74q-18 -27 -18 -70q1 -15 1.5 -28t0.5 -33q0 -25 -7 -45q-16 -57 -16 -131q0 -49 10.5 -141t10.5 -148q0 -43 -11 -107q-4 -5 -11.5 -23.5t-16 -28.5t-23.5 -11q-79 0 -127 86l-22 61q-9 55 -9 129z" />
<glyph unicode="&#x22;" horiz-adv-x="707" d="M70 1159q2 13 6.5 77t13 102.5t31.5 72.5q20 14 41 14q36 0 61 -36q4 -22 31 -80.5t27 -87.5q0 -24 -19 -54q-4 -31 -4 -89t-13 -91.5t-59 -71.5q-43 0 -88 43q-26 38 -26 70q0 13 6 36t6 38q0 29 -14 57zM356 983q0 15 17.5 58.5t17.5 72.5q10 26 10 66q0 11 -1.5 32.5 t-3 42.5t-1.5 33q0 70 33 105q31 24 70 24q20 0 37 -8q70 -23 77 -66q25 -106 25 -186q0 -132 -76 -199q-46 -38 -110 -38q-40 0 -68 14q-27 21 -27 49z" />
<glyph unicode="#" horiz-adv-x="1087" d="M72 465q32 27 65 38t113 32q2 16 22.5 113.5t20.5 166.5q-17 25 -63 35.5t-62.5 19.5t-20.5 48q23 30 50.5 38t73 12t73.5 17q30 34 35.5 85.5t11 108t31.5 89.5q25 25 35 69q-19 37 -19 97q28 56 74 65q81 0 109 -39q32 -42 32 -98q0 -35 -18 -64q-42 -35 -69 -82.5 t-38.5 -100t-11.5 -114.5q27 -18 66 -18q10 0 23 1.5t25 2.5t19 1.5t21 0.5q21 0 41 -6q39 35 52.5 85t18.5 123.5t19 121t57 82.5q20 36 51 59t66 23q18 -16 18 -35q0 -9 -8 -25q-8 -11 -33.5 -29.5t-31.5 -33.5q7 -13 24 -13q8 1 14.5 1.5t16.5 0.5q19 0 24 -16 q7 -14 7 -31q0 -31 -29 -77q-23 -10 -30.5 -24.5t-18.5 -47.5t-25 -47q0 -13 -8 -38t-8 -38t8 -25q13 -2 42 -4.5t48.5 -11t30.5 -27.5q0 -56 -41 -84q-24 -7 -57 -10.5t-47.5 -8t-30.5 -15.5q-1 -23 -14 -79t-13 -91q0 -27 4 -41q0 -20 -7 -44.5t-7 -27.5q0 -12 10 -20 q32 4 51 4q15 0 44 -2t49.5 -4.5t52.5 -4.5q12 -2 12 -20q0 -13 -4 -29q-25 -42 -52 -47.5t-102 -12t-104 -30.5q0 -29 2 -74t2 -71q4 -34 4 -45q0 -71 -52 -175.5t-63 -144.5q-6 -13 -18.5 -16.5t-32.5 -5.5q-55 10 -74 77q0 33 14.5 68.5t29 70.5t14.5 68q0 20 -6 41 q38 57 38 133q0 16 -4 50q-75 32 -165 32q-46 0 -78 -8l-29 -31q-66 -192 -111 -376q1 -11 9 -31t8 -29q0 -10 -6 -22q-18 -22 -47 -25q-9 0 -25 4q-37 32 -37 92q0 20 6 60.5t8 54.5q61 188 78 270q0 25 -28 25q-66 0 -88 12q-12 14 -24.5 31t-12.5 41zM387 553l8 -8 q19 -1 54 -2.5t69.5 -3.5t52.5 -2q39 0 58 2q1 7 11 58t14.5 77.5t4.5 60.5q0 30 -6 62q-5 37 -59 41q-19 -11 -35 -11q-14 0 -40.5 8.5t-43.5 8.5q-14 0 -29 -8q-12 -52 -59 -283z" />
<glyph unicode="$" horiz-adv-x="850" d="M70 866q23 194 143 264q20 20 70.5 32.5t74.5 25.5t29 53q-4 20 -4 33q0 21 4 40t11.5 44.5t13.5 46.5q0 5 -2 14t-2 15q0 16 6 22q7 2 34.5 14.5t43.5 12.5q20 -16 25.5 -44t10.5 -57.5t23 -46.5q0 -30 -3.5 -48t-15.5 -32l-18 -16q55 -3 78.5 -6t42.5 -21 q10 -24 28.5 -38.5t44 -26.5t44.5 -21q0 -65 -25 -77q-9 1 -36 9.5t-38 8.5q-17 0 -30 -18l-97 -2q-4 -9 -4 -25q0 -9 2 -34t2 -46q-2 -38 -3 -65t-4 -54t-13 -51q0 -11 4 -18.5t10 -12t15.5 -8t17.5 -6.5q77 -15 141 -73t86 -134q2 -18 3.5 -35.5t2 -23.5t0.5 -25 q0 -55 -14 -98q-28 -85 -52 -131t-77 -72q-7 -11 -35 -23t-40.5 -21t-12.5 -32q-8 -16 -8 -41q0 -17 6 -53t6 -53q0 -48 -47 -62q-35 7 -49.5 14t-26.5 25q-18 24 -18 58q1 9 2 20.5t2 21t1.5 15t0.5 16.5q0 44 -31 66q-107 31 -203 166q-38 23 -51 100q16 12 33 24.5 t35 12.5q44 -61 82.5 -97.5t93.5 -51.5q4 32 4 51q0 26 -6 96t-6 125q-7 19 -8 67.5t-11 69.5q-10 5 -101 41t-134.5 73t-50.5 103zM242 874q5 -18 17 -28t31.5 -21.5t31.5 -21.5q5 -1 20.5 -8t24.5 -7q10 0 20 13q0 125 -2 186q-20 27 -37 27q-46 -10 -73.5 -50.5 t-32.5 -89.5zM508 590q0 -47 4 -139t4 -138q0 -52 -6 -108q10 -29 29 -29q75 23 86 72q2 30 17 88t15 88q0 32 -10 57q-18 59 -90 113q-16 12 -31 12t-18 -16z" />
<glyph unicode="%" horiz-adv-x="1184" d="M70 1094q0 83 59 184q62 108 221 133q31 -18 86.5 -39.5t105.5 -38t107 -35.5l254 52q12 9 18.5 22t14 35.5t15 34t24.5 18.5q19 13 41 13q28 0 54 -18t36 -44q8 -19 8 -41q0 -30 -15.5 -56.5t-45.5 -64.5t-41 -61q-18 -36 -40.5 -95t-40 -95t-44.5 -66q-10 -51 -29 -93 t-45.5 -89t-56.5 -101q-12 -22 -36.5 -55.5t-37 -54.5t-16.5 -47q-146 -207 -201 -386q-5 -27 -18.5 -53.5t-36.5 -64.5t-34 -64t-11 -57q0 -11 4 -31q-21 -31 -54 -31q-46 12 -74.5 28t-39 33.5t-14 33.5t-5.5 20l4 43q20 33 36.5 51t29.5 33.5t30.5 61t47.5 149.5 q34 46 62.5 109.5t56.5 124t61 102.5q19 38 45 71t82 101t83 115.5t28 93.5q9 29 38 78.5t44.5 81.5t19.5 71q-59 -69 -135 -69q-38 0 -73 13.5t-75 34.5t-49 21q-8 0 -8 -12q8 -40 8 -64q0 -64 -29 -163q-14 -56 -63 -87.5t-115 -41.5q-110 0 -219 163q-22 40 -22 93z M197 1098q1 -44 27.5 -78t76.5 -78q6 -4 18 -4q17 0 39.5 17.5t34.5 19.5q3 20 18.5 66.5t16.5 74.5q0 37 -22 66q-6 7 -6.5 16.5t-2 18t-8.5 12.5q-14 1 -30 19.5t-23.5 25t-28.5 6.5q-46 -22 -74 -72.5t-36 -109.5zM571 53q0 35 19 102t22 99q26 79 90 137t146 74 q13 0 22.5 -5t17.5 -14.5t11 -13.5q12 1 22 1.5t27 0.5q28 0 33 -22q3 -14 24 -31t27 -29q14 -24 19.5 -48.5t14 -78.5t17.5 -75q0 -36 -6 -67.5t-19 -73.5t-16 -52q-20 -73 -80.5 -99t-164.5 -42q-126 29 -201 153q-25 37 -25 84zM705 78q21 -26 41.5 -51.5t44.5 -44.5 t51 -23q7 3 12.5 9t9.5 13t8 13q3 22 25 59t23 60q4 18 33.5 57.5t29.5 65.5q0 14 -6 26l-66 72q-22 0 -48.5 -8t-35.5 -9q-42 -23 -64 -59.5t-39 -105.5t-19 -74z" />
<glyph unicode="&#x26;" horiz-adv-x="1098" d="M70 285q0 48 16 84q40 73 119 102q76 105 157 160q7 11 7 20q0 17 -30.5 38.5t-35.5 35.5q-72 114 -72 299q0 47 5 104q18 62 60 86.5t118.5 41t109.5 34.5q62 -15 122 -56t102 -98t55 -118q6 -25 6 -49q0 -48 -19 -90.5t-50.5 -86.5t-67.5 -96q-4 -4 -28.5 -25 t-35.5 -36q0 -26 7 -45t24.5 -47.5t27.5 -48.5t11 -41l110 -142q10 -6 19 -6q8 0 14 6q52 98 76 209q9 31 66 70q38 -15 38 -72q0 -22 -0.5 -42.5t-1.5 -47.5q-11 -99 -84 -248q7 -19 21.5 -50t29.5 -57t33.5 -56t28.5 -48q4 -8 4 -26q0 -29 -22 -56q-19 -18 -45 -18 q-17 0 -70 16q-30 9 -46.5 28.5t-43.5 65.5t-47 67.5t-47 21.5q-21 0 -56 -21q-63 -41 -126 -64.5t-138 -23.5q-24 -16 -55 -16q-23 0 -41 8t-57 29t-62 26q-19 8 -29 24.5t-20.5 37.5t-26.5 32q-5 30 -17.5 89.5t-12.5 95.5zM254 231q32 -87 131 -137q38 -28 82 -28 q32 0 68.5 15t70.5 36.5t70 44.5l4 16q-5 31 -22.5 65.5t-46.5 79t-38.5 63t-15.5 52.5q-12 15 -26.5 44t-27 44.5t-36.5 16.5q-104 -89 -157 -155.5t-56 -156.5zM340 973q11 -24 14 -55.5t8 -69.5q6 -8 23.5 -40t33.5 -50.5t40 -26.5q27 0 41.5 8t34.5 23q104 116 104 209 q0 39 -12 65q-8 18 -20.5 27t-35 19.5t-32.5 17.5q-5 1 -14.5 4.5t-20 5.5t-19.5 2q-33 -16 -67 -32.5t-56 -41t-22 -65.5z" />
<glyph unicode="'" horiz-adv-x="375" d="M59 1364q0 33 19 66q19 19 61 34q29 0 65 -13t48 -13q8 0 24 4q29 -13 29 -39q0 -9 -6 -35t-6 -47q0 -134 -47 -234q0 -15 10 -50t10 -52q0 -36 -47 -49q-16 -4 -24 -4q-43 0 -89 35q-30 39 -30 106v37q0 33 -4 49q16 20 16 49q0 20 -9 56t-9 51q-11 25 -11 49z" />
<glyph unicode="(" horiz-adv-x="662" d="M70 639q0 29 12 53q17 227 65 393q17 36 30 64.5t32 54.5q-8 17 -8 41q78 43 100 113q7 24 24.5 41t46 34t40.5 27q11 24 32.5 37.5t54.5 24t54 20.5q14 0 21 -14t12 -27q6 -18 6 -35q0 -32 -16.5 -54.5t-56 -64.5t-48.5 -69q-8 -40 -51 -72t-79 -61.5t-40 -75.5 q-17 -22 -26 -50.5t-14.5 -60.5t-12 -71t-17.5 -64q-8 -16 -8 -53q0 -13 4 -48t4 -60q-10 -28 -10 -50q0 -33 18 -66.5t43 -63t54 -64.5q48 -65 110.5 -179.5t104.5 -172.5q1 -5 11.5 -29.5t10.5 -38.5q0 -17 -12 -29q-8 -12 -57 -12q-73 47 -96 102q-20 26 -67.5 61.5 t-66.5 52t-43 56.5q-2 19 -26.5 47.5t-28.5 42.5q-26 28 -36.5 58t-25.5 85t-30 83q0 13 -6.5 49t-7.5 45z" />
<glyph unicode=")" horiz-adv-x="604" d="M70 -57q0 32 13 56t43.5 68.5t37.5 63.5q29 68 61 105q10 56 33 125t50 147t38 133q25 58 25 109q0 48 -16 99.5t-45 115.5t-44 108q-18 105 -40 162.5t-89 87.5q-27 30 -37 80q0 28 13 41t51 41q9 6 20 6q14 0 30 -9.5t32 -17.5q5 -9 31 -37.5t28 -50.5q27 -22 42.5 -53 t23.5 -61.5t16 -70t14 -61.5q57 -98 86 -176.5t29 -189.5q21 -34 21 -64q0 -19 -5 -35.5t-13 -39.5t-14.5 -50.5t-6.5 -44.5q6 -21 6 -38t-3.5 -30.5t-9.5 -35.5t-12 -46t-6 -46q-10 -16 -26.5 -38.5t-25.5 -41.5t-9 -41q-5 -6 -38.5 -30t-35.5 -50q-10 -18 -33.5 -26.5 t-40.5 -15.5t-22 -30q-11 -46 -47 -89t-78 -54q-32 4 -47 25z" />
<glyph unicode="*" horiz-adv-x="872" d="M70 1200q0 50 51 82q27 18 57 18q28 0 79.5 -18t64.5 -20q14 22 14 49q0 19 -11.5 66t-11.5 69q27 41 54 43q33 0 61 -16q17 -13 24 -34t11.5 -57.5t7.5 -46.5q9 -20 18.5 -41.5t22.5 -35t33 -17.5q23 12 64.5 47.5t68.5 44.5q5 31 49 31q41 -16 41 -59q-7 -26 -29 -43.5 t-49 -38t-37 -45.5q-6 -6 -6 -15q0 -5 2.5 -10t7 -11.5t7.5 -11.5q16 -11 57.5 -28.5t61.5 -36t20 -59.5q-3 -29 -23 -45q-32 0 -80 10t-65 10q-25 0 -41.5 -13t-24.5 -46q0 -32 17.5 -80.5t17.5 -67.5q0 -31 -24 -55q-35 2 -69 25t-48 55q-6 47 -41 84q-22 -15 -62 -51 t-63 -52q-18 0 -33 5.5t-33 17t-28 18.5q-13 13 -13 31q0 5 5 20q10 11 68 53.5t69 78.5q-21 23 -52 40t-73 35.5t-68.5 34t-50.5 39.5q-18 21 -18 47z" />
<glyph unicode="+" horiz-adv-x="1087" d="M70 655q5 28 25.5 40.5t51.5 18.5t60 11q24 4 35 4q26 0 92 -12t112 -12q13 23 13 49q0 19 -5 52.5t-5 41.5q0 24 8 43q18 35 18 98q0 26 -1 40t-2 34.5t-3 46.5q4 18 43 33q51 0 76 -19q20 -69 25.5 -144t7.5 -187q0 -13 -6.5 -34.5t-6.5 -31.5q0 -20 21 -29q35 0 107 4 t108 5q87 0 164 -17q14 -8 14 -28q0 -9 -4 -17q-9 -16 -23.5 -26.5t-27.5 -14t-29.5 -6t-38.5 -6.5q-24 0 -74 -2t-75 -2q-86 0 -146 18q-31 -26 -31 -90q1 -20 1.5 -36.5t0.5 -41.5q0 -15 -4 -41q4 -7 5.5 -15t2 -23t1.5 -21q7 -10 24.5 -29.5t27 -36.5t9.5 -36 q0 -7 -4 -23q-3 -18 -23.5 -49.5t-21.5 -38.5q0 4 -2 4q-4 -5 -11.5 -13.5t-16 -17t-20.5 -14.5t-24 -6q-51 17 -71.5 66.5t-24.5 117.5l14 33q-6 32 -8 85.5t-3.5 116t-6.5 93.5q-21 20 -56 20h-110q-73 0 -107 29q-64 0 -75 16z" />
<glyph unicode="," horiz-adv-x="487" d="M102 182q0 9 4 25q31 52 99 55q43 0 75 -22t76 -64q60 -89 60 -164q0 -57 -33 -116q-77 -140 -225 -177q-41 11 -49 48q4 34 23.5 65.5t33.5 63.5q40 37 48.5 48.5t8.5 47.5q-11 16 -46.5 56t-55 71.5t-19.5 62.5z" />
<glyph unicode="-" horiz-adv-x="1071" d="M68 647q0 27 2 41q42 82 143 82q59 0 139 -33q20 0 35 4t35 11.5t29 7.5q17 0 36 -8q146 0 474 -21q37 -27 40 -65q-11 -34 -40 -59t-64 -25q-212 -4 -297 -13q-48 11 -100 11q-37 0 -93.5 -7.5t-99.5 -9.5q-13 0 -30 -3t-40.5 -8t-41.5 -8t-37 -3q-31 0 -58 14 q-32 28 -32 92z" />
<glyph unicode="." horiz-adv-x="440" d="M70 129q0 42 20 55q50 78 148 78q15 0 53 -4q41 -31 60.5 -57t19.5 -54q0 -23 -9 -45q-10 -34 -36.5 -53t-71 -34t-57.5 -21q-48 0 -77 8t-40 41q-10 50 -10 86z" />
<glyph unicode="/" horiz-adv-x="1266" d="M70 6q0 7 6 21q7 21 19 28.5t34.5 14t34.5 14.5q35 37 53 71t50.5 97.5t56.5 95.5q48 65 89.5 134t111.5 193.5t99.5 174.5t75.5 115q35 48 73.5 131t76.5 164t76 133q1 20 9.5 33t29 35.5t30 40t9.5 40.5q26 27 73 43q46 -2 70.5 -9t34.5 -34q14 -43 14 -92 q0 -112 -72 -240q-32 -60 -77.5 -110.5t-127 -132t-127 -140t-69.5 -125.5q-35 -39 -100 -155q-29 -52 -73.5 -113.5t-92 -128.5t-79.5 -129.5t-46 -130.5q-17 -12 -45.5 -48.5t-50.5 -55.5t-48 -19q-10 0 -30 8q-6 8 -47 31.5t-41 44.5z" />
<glyph unicode="0" horiz-adv-x="1036" d="M70 772q0 133 71 207q16 28 44.5 85.5t52.5 92t59 64.5q9 8 45.5 42.5t62 55t54.5 33.5q22 6 45 14.5t46 17.5t46 14t47 5q21 0 45 -6q20 -6 42.5 -13.5t38 -17.5t26.5 -27q53 -55 71.5 -130t20.5 -179q80 -96 80 -219q0 -58 -21 -106q0 -97 -12 -140q0 -93 -3 -154.5 t-18 -117.5q-18 -72 -44.5 -142.5t-70.5 -128.5t-104 -94q-32 -4 -96 -4q-83 0 -147 17q-16 16 -43.5 18t-53 4t-41.5 21q-12 12 -47 32t-52.5 35t-25.5 41q-19 36 -30 71t-31.5 105.5t-32.5 100.5q0 123 17 215q-41 84 -41 188zM256 729q0 -28 10 -51q12 -55 14.5 -124.5 t4.5 -147t12 -136.5q0 -52 45 -90q10 -10 25 -10q8 0 31.5 9t35.5 9q14 0 29 -12q0 -16 10 -24.5t29 -15t26 -11.5q15 1 43 3t41.5 3t33.5 2.5t46 1.5q18 0 60 -4l10 8q43 102 43 289q0 121 -2 180q-12 34 -12 70q0 51 24 98q0 76 -65 162q-21 20 -21 49q0 5 5 32.5t5 45.5 q0 24 -10 39q-17 43 -63 53q-13 0 -34.5 1.5t-43.5 3t-35 1.5q-68 0 -92 -55q-39 -25 -64 -52t-58.5 -71t-49.5 -63q4 -22 4 -31q0 -32 -18.5 -82.5t-18.5 -79.5z" />
<glyph unicode="1" horiz-adv-x="911" d="M72 61q34 33 94 33q28 0 74 -8q22 -2 39 -4t30 -2q70 0 105 45q1 22 1.5 40.5t0.5 47.5q0 25 -10 43q4 36 4 55q0 37 -6.5 91.5t-6.5 82.5q0 48 13 88q2 43 2 134q0 235 -25 485q-17 -1 -38.5 -11.5t-38 -20t-42 -21t-43.5 -11.5q-20 0 -37 9q-45 29 -53 51 q12 29 38.5 41.5t69 29.5t60.5 37q36 13 96 58t101 45q27 0 61 -17q8 -27 10.5 -79.5t3.5 -63.5q4 -72 7.5 -116t5.5 -99q0 -60 -6 -119q8 -35 8 -80q0 -23 -4 -84t-4 -104q-7 -37 -7 -62q0 -29 11.5 -102.5t11.5 -110.5q0 -34 -4 -53q-14 -25 -14 -59q0 -9 1.5 -21.5 t2.5 -24t1.5 -20.5t0.5 -28q27 -14 54 -21t63.5 -13.5t70.5 -12.5q8 -9 28 -26t30 -30.5t10 -29.5q-11 -16 -37.5 -23t-36.5 -16q-65 -47 -178 -47q-28 0 -55 20q-163 14 -211 14q-39 0 -58 -2q-12 -10 -47 -10q-33 0 -47 2q-24 8 -36 18t-32 17q-17 20 -24.5 33t-7.5 32z " />
<glyph unicode="2" horiz-adv-x="954" d="M70 0q8 23 8 78q0 9 4 31q18 35 75 79t104 81t61 79q30 35 82.5 108t73 101.5t61.5 73.5q59 65 93 131.5t34 146.5q0 27 -7 52.5t-17 52.5t-20 57.5t-10 48.5q0 24 9 39q0 21 -29 37t-29 29q0 8 6 20q2 0 4 2l2 2q-16 13 -28 13q-14 0 -43 -13t-39 -14q-11 -18 -26.5 -30 t-48.5 -34t-49 -36.5t-28 -40.5q0 -43 -25.5 -80.5t-66.5 -55.5q-10 -4 -28 -4q-33 0 -62 27q-3 11 -10 17.5t-19.5 18t-17 17.5t-4.5 15q0 12 4 18q4 9 13 25.5t14.5 30.5t5.5 28q25 47 62 81t78.5 58.5t104 56t84.5 44.5q33 8 74 8q23 0 34 -0.5t28.5 -1.5t40 -2t43.5 -2 q37 -5 74.5 -26.5t78.5 -55.5q42 -90 60 -209q-24 -197 -136 -336l-36 -68q10 -25 10 -59q0 -39 -17 -76.5t-38.5 -64.5t-69 -79.5t-57.5 -64.5q-32 -28 -80.5 -89t-57.5 -70q27 -13 70 -13q17 1 47 4t68 7q58 -13 141.5 -38.5t122.5 -35.5q0 -13 10 -25t19.5 -24t9.5 -25 q0 -16 -12 -33t-25 -24q-13 -4 -41.5 -14t-39.5 -13t-30 -4q-53 16 -111.5 22t-121.5 8t-123 3q-28 -21 -70 -21q-10 0 -26 1.5t-33.5 3t-26.5 1.5q-38 0 -59 -14q-78 4 -96 39z" />
<glyph unicode="3" horiz-adv-x="1102" d="M72 127q41 74 161 78q18 0 56 -4q81 0 135 -76q15 -7 35.5 -8t41 -2.5t36.5 -10.5q1 -1 5 -16.5t9 -23.5t14 -11q53 0 91 28.5t75 78.5l96 125q25 83 25 143q0 87 -43 141q-25 36 -44 64.5t-43.5 49.5t-59.5 24q-22 6 -41 6q-34 0 -81.5 -22.5t-72.5 -26.5q-26 0 -39 9 t-45 38q0 14 -5 38t-5 27q0 22 16 35q14 6 23.5 30t15.5 31q19 22 63.5 70.5t69 77t56 70t51.5 77.5q11 14 19.5 32t14.5 28q-81 0 -116 -13q0 -34 -7 -56t-32 -30q-31 -5 -100 -10t-115.5 -16t-81.5 -35q-12 -6 -23 -6q-16 0 -45 20t-37 23q-7 14 -8 48t-4 44q6 56 44 103 t93 59q32 -7 58.5 -12t42.5 -19q106 0 201 10.5t278 36.5q60 0 143 -22q37 -19 37 -62q0 -20 -7 -36.5t-19 -31t-25 -30.5q-96 -88 -169 -166.5t-124 -155.5q-12 -1 -21.5 -16.5t-13.5 -17.5l13 -11q125 -31 196.5 -64t110.5 -110q53 -71 53 -170q0 -54 -18 -104 q-4 -24 -13.5 -76.5t-19.5 -83.5t-34 -60t-65 -46q-59 -70 -119.5 -118.5t-131.5 -62.5q-23 0 -125.5 5.5t-147.5 5.5q-28 23 -62 32t-91 19t-82 20q-43 37 -43 115z" />
<glyph unicode="4" horiz-adv-x="1028" d="M70 334q0 20 8 37q89 195 125 364q-2 19 -2 58q0 71 19.5 195t23.5 171q0 43 18 73.5t53.5 69t46.5 58.5q19 6 61.5 38t68.5 32q17 0 43 -15q39 -32 59 -57q0 -94 -21 -156t-69 -104q-17 -39 -84 -90q-41 -64 -54.5 -148t-28 -187t-46.5 -169q0 -11 -5 -27.5t-5 -19.5 q0 -18 18 -23q37 -7 71.5 -8t82 -2.5t73.5 -5.5l131 -2l17 28q-15 157 -60 293q0 163 25 299q0 65 31 92q27 25 61 25q31 -42 46.5 -106t15.5 -134q0 -49 -2 -71q7 -38 19 -92.5t19 -101t7 -91.5q0 -48 -9 -88q11 -13 33 -14t45.5 -2.5t36.5 -14.5q21 -18 21 -51 q0 -16 -5 -31q-13 -18 -30.5 -25t-53 -15.5t-51.5 -20.5q-17 -47 -20.5 -92.5t-4 -133t-5.5 -124.5q-16 -34 -62 -41q-16 4 -37.5 10t-35.5 15.5t-19 27.5q0 32 2.5 55t6 42.5t5.5 47.5q13 36 13 78q0 60 -31 105h-207q-83 0 -143 -9q-85 -26 -123 -26q-27 0 -39 4 q-25 13 -39 34.5t-14 45.5z" />
<glyph unicode="5" horiz-adv-x="1024" d="M72 10q0 31 15 60t32 41q32 10 71 10q31 0 78.5 -11.5t65.5 -11.5q24 0 37 4q34 9 105.5 12.5t116 15.5t79.5 52q31 27 45.5 62t24.5 88t20 80q0 63 -16.5 106.5t-55.5 69.5q-54 28 -182 65q-25 -12 -73.5 -20.5t-72.5 -15t-49 -27.5q-4 -17 -31 -22.5t-30 -6.5 q-54 19 -88 74q6 9 6 20t-9 33.5t-9 34.5q-1 26 -2 45.5t-2.5 50t-2.5 55.5q0 37 2 62q-6 12 -6 20q0 19 11 45.5t14 26.5q8 37 11.5 72.5t5 68t3.5 80.5q0 15 8.5 30.5t21.5 29t24 24.5q11 0 22 -12t21 -12q36 -4 53 -4q45 0 131 16q36 -10 78 -10q17 0 46.5 4t57.5 8.5 t51 8t50 3.5q25 -16 74.5 -16.5t75 -5.5t42.5 -37q0 -60 -20 -84q-25 -23 -55 -30.5t-86 -9.5t-81 -9q-32 -8 -69 -8q-29 0 -79 6t-73 6q-83 0 -129 -74q1 -26 1.5 -51t0.5 -74q0 -27 -4 -39q3 -11 5.5 -32t11.5 -43q12 4 20 4q20 0 66.5 -17.5t64.5 -17.5q15 0 27 6 q16 -7 55 -13.5t56.5 -10.5t37.5 -17q25 -28 63 -52t66.5 -44t46.5 -49q50 -80 50 -222q0 -78 -16.5 -153.5t-47.5 -124.5q-19 -50 -56 -75t-79.5 -33.5t-110.5 -14.5q-55 -35 -88.5 -48t-99 -22.5t-88.5 -13.5q-27 2 -63.5 9t-81.5 21.5t-75 30.5t-40 33z" />
<glyph unicode="6" horiz-adv-x="956" d="M68 578q0 58 8 178q-8 21 -8 51q0 21 6 61t6 62q0 25 -6 49q0 110 45 160q32 18 48 37t53.5 67t58.5 66q21 26 53.5 33.5t72 16t60.5 30.5q20 1 53 10.5t53 9.5q18 0 33 -6q71 -40 125 -55q27 -23 46 -47t22 -54q-20 -54 -39 -82.5t-56 -31.5q-97 0 -159 53 q-10 1 -27 6.5t-29 5.5q-15 0 -30 -6q-43 -18 -69 -54.5t-43.5 -84t-39.5 -105.5q0 -24 -16 -68t-17 -67q28 0 67.5 8t77 17.5t68.5 15.5t58 6q58 0 108 -33q21 -2 35.5 -14.5t35 -39t36.5 -36.5q3 -5 42.5 -53.5t55.5 -82.5t16 -75q0 -22 7.5 -81.5t7.5 -86.5q0 -12 -4 -36 q-6 -12 -19 -34.5t-18.5 -42.5t-5.5 -46q-24 -90 -41 -138.5t-55.5 -90t-104.5 -48.5q-52 -10 -92 -10q-59 0 -116.5 15t-115.5 44.5t-100 63.5q-41 58 -59 107.5t-56 176.5q-32 112 -32 259zM299 348q0 -85 76 -176q38 -28 84 -35.5t121 -7.5q23 8 45.5 26t48 43.5 t39.5 37.5q1 34 18 117.5t17 129.5q0 63 -31 115q-19 9 -47 35t-46 39.5t-44 17.5q-160 -17 -250 -94q-8 -31 -9 -94.5t-8 -87.5q-14 -32 -14 -66z" />
<glyph unicode="7" horiz-adv-x="971" d="M70 1260q4 65 24 94q46 37 78 43q35 0 66.5 -17t62.5 -34t66 -17q84 21 104 21q25 0 43 -9q18 3 69 18t83 15q16 0 39 -6h57q78 0 119 -20q20 -19 20 -78q-3 -6 -37.5 -72.5t-44.5 -107.5q-19 -92 -42.5 -156.5t-71.5 -114.5q-7 -49 -29.5 -103t-46 -111.5t-29.5 -102.5 q-19 -29 -31 -53t-40.5 -87.5t-39.5 -87t-34 -59.5q6 -12 6 -22q0 -9 -5.5 -20.5t-13.5 -21.5t-13 -16t-15 -16q-21 -27 -43.5 -72t-43.5 -79.5t-53.5 -56.5t-78.5 -22q-17 -16 -48 -16q-12 0 -28 4q-25 8 -25 45q0 24 6 39q8 14 15.5 34t17.5 48l-8 6q20 104 47.5 176.5 t85.5 128.5q21 27 65 67.5t68.5 69t36.5 64.5q30 62 45 131l86 213q0 23 6 43.5t17 42t16 31.5q0 31 23 96q4 15 24.5 53t24.5 62q-4 4 -13 4t-23.5 -6t-27.5 -11q-42 -4 -107 -13t-153 -21q-7 -3 -39.5 -19.5t-52 -23.5t-43.5 -7q-26 0 -53 15q-33 17 -57.5 47.5 t-30.5 67.5z" />
<glyph unicode="8" horiz-adv-x="942" d="M76 332q0 88 42.5 189t127.5 145q-33 17 -51.5 49t-32.5 96q-23 39 -25.5 59.5t-5 75t-16.5 94.5q0 63 6 100t18.5 81t20.5 75q18 28 54 32t70 8.5t50 33.5q100 51 170 51q34 0 67 -12q9 -9 25 -18.5t28.5 -16t30.5 -16.5q80 -69 96 -84.5t68 -81.5q14 -39 27.5 -118 t13.5 -148q0 -56 -12 -86q-12 -12 -48.5 -66t-62 -84t-51.5 -37q27 -18 51 -34.5t39 -24.5q25 -32 46 -105.5t34.5 -163t13.5 -137.5q0 -51 -30.5 -83.5t-79 -56t-88.5 -42.5q-12 -6 -54.5 -34t-71 -40.5t-67.5 -15.5q-24 0 -48.5 7.5t-51.5 20.5t-37 17q-24 10 -40 14 t-45.5 10t-41.5 11q-55 47 -95 133t-40 162q-4 20 -4 41zM250 1012q0 -51 39.5 -104t97.5 -89q67 -41 141 -41q57 0 99 23q27 13 46.5 48.5t29.5 81.5t10 99q0 68 -19 121t-57 70q-8 6 -30.5 24t-40.5 28t-31 13q-22 6 -39 6q-67 0 -152 -65q-4 -114 -76 -154 q-18 -30 -18 -61zM283 242q0 -5 18 -58q24 -36 52.5 -43.5t101.5 -15.5q58 8 98 13.5t78 20t61 44.5q20 35 22.5 55.5t6.5 103.5q-4 74 -46 110t-151 103q-17 0 -53.5 7.5t-44.5 7.5q-47 0 -66 -37q-9 -17 -19.5 -36.5t-10.5 -33.5q-11 -21 -14 -46.5t-4 -56t-5 -54.5 q-6 -25 -15 -52t-9 -32z" />
<glyph unicode="9" horiz-adv-x="993" d="M70 1049q0 82 20 120q71 68 106.5 96t90.5 33q27 3 72 30.5t75 27.5q8 -13 58 -13q83 29 145 29q69 0 113 -33q16 -30 55.5 -81.5t58.5 -86.5t19 -79q0 -25 -4 -39q21 -100 33 -176t12 -144q0 -64 -9 -110q5 -37 5 -109q0 -108 -21.5 -212t-64.5 -189q-24 -52 -70.5 -107 t-97.5 -90q-42 0 -92 -17.5t-64 -19.5q-101 15 -223 98q-38 16 -69.5 50t-43.5 73q0 45 25 68q22 22 53 22q12 0 24 -6q19 -11 63 -47t63.5 -49t46.5 -20q7 -25 43 -25q9 0 30 2t37 2q74 45 119.5 124t48.5 167q12 18 16.5 68.5t6.5 60.5q-3 9 -11.5 36.5t-21.5 39.5 q-24 -7 -91 -34.5t-92.5 -37.5t-68.5 -22q-40 7 -85.5 16.5t-80.5 21.5t-65 33t-54 55q-1 1 -26 33.5t-37 54t-13 46.5q4 43 4 127.5t3 124.5q-20 22 -41 88zM238 899q0 -50 22 -111q9 -12 27.5 -40t43.5 -61t45 -51t46 -30q42 -31 76 -31q31 0 55.5 12t75 43t76.5 40 q38 33 38 92q0 22 -7 63t-9 60q-11 39 -15.5 99.5t-14 101.5t-35.5 73q-45 88 -193 88q-63 -3 -113 -37t-80 -94q-12 -17 -12 -45q1 -16 1.5 -30.5t0.5 -47.5q-28 -36 -28 -94z" />
<glyph unicode=":" horiz-adv-x="459" d="M102 930q0 27 9 45q25 5 47.5 23t45 42.5t43.5 40t44 15.5q31 0 65 -31q33 -30 33 -88q0 -30 -10 -62q-9 -27 -28 -40t-46.5 -32t-38.5 -38q-15 -10 -37 -10q-14 0 -27.5 4.5t-33.5 14t-29 13.5q-34 55 -37 103zM111 246q25 81 63 106q39 0 58 -16t53.5 -53.5t58.5 -42.5 q39 -50 39 -109q0 -51 -41 -68q-22 -14 -43 -14q-24 0 -68 26.5t-69 28.5q-23 30 -31.5 58.5t-19.5 83.5z" />
<glyph unicode=";" horiz-adv-x="492" d="M102 913q0 22 11 52q14 27 36 43.5t48 24.5t50 13.5t54 14.5q48 -2 79.5 -13.5t41.5 -46.5q0 -41 -6 -64.5t-31 -35.5q-40 -52 -81 -79t-91 -27q-11 0 -35 4q-43 39 -59.5 62t-16.5 52zM129 -147q0 13 21 51.5t36 80t15 95.5q-4 13 -32 67.5t-28 83.5q0 39 35 68 q29 37 82 37q15 0 68 -10q27 -25 71 -29q13 -19 13 -51q0 -10 -2 -32t-2 -32q0 -26 6 -39q0 -85 -17 -145t-69 -100q-17 -1 -33.5 -12.5t-43.5 -33t-39.5 -29t-29.5 -7.5q-24 0 -47 24q-4 4 -4 13z" />
<glyph unicode="&#x3c;" horiz-adv-x="1055" d="M70 580q0 19 8 32q5 12 16.5 24.5t20.5 18.5t27.5 18t33.5 21q106 5 191 34t149 93q45 7 85 27t94.5 57.5t74.5 48.5q52 29 84 37q56 0 109 -33q26 -18 26 -55q0 -20 -4 -33q-18 -32 -76 -36q-12 -2 -32.5 -4t-36.5 -5t-31 -12q-79 -55 -117 -76q-75 -39 -127 -47 q-10 -26 -41 -39q-6 -3 -26 -10t-33 -14q-43 -19 -43 -45q0 -25 33 -58q25 -37 92 -49q69 -10 88 -22q34 -32 100 -62q99 -43 111 -49q46 -23 71 -52.5t25 -74.5q0 -11 -4 -39q-34 -39 -76 -39q-30 0 -61 17q-17 7 -74 41q-43 24 -76 32q-147 34 -280 106.5t-275 180.5 q-26 29 -26 66z" />
<glyph unicode="=" horiz-adv-x="1184" d="M70 367q7 49 47 73q304 23 528 23q24 10 43 10q12 0 44 -13.5t65 -13.5q83 37 157 37q111 0 160 -90q2 -14 2 -47q0 -71 -35 -102q-29 -17 -67 -17q-30 0 -87 13t-79 14q-31 1 -102.5 9.5t-112.5 8.5q-48 0 -113 -12q-92 8 -334 12q-37 1 -70.5 30t-45.5 65zM117 817 q13 12 33 15t48 5t42 9q19 1 50 8t58 15.5t58 17.5q46 -9 92.5 -12t95.5 -3q38 0 102.5 2.5t120.5 2.5q104 0 195 -17q50 -23 57 -84q-9 -35 -36 -48.5t-77.5 -20t-66.5 -11.5q-80 0 -232 -10t-231 -10h-49q-26 12 -104.5 22t-117 31.5t-38.5 87.5z" />
<glyph unicode="&#x3e;" horiz-adv-x="1255" d="M72 907q6 20 26.5 36.5t44.5 21.5q34 4 45 4q51 0 100 -16t110.5 -46t107.5 -49t92 -27q34 -20 72.5 -34.5t92 -29t81.5 -22.5q75 -17 134 -38t103 -52q13 -8 35.5 -20.5t40.5 -26t29 -30.5q0 -69 -45 -76q-67 -9 -168 -47q-52 -22 -85 -36t-71 -28q-38 -22 -105 -79 t-102 -83q-98 -77 -192 -77q-13 0 -45 4q-26 -17 -47 -17q-34 0 -72 31q-25 11 -25 63q14 80 142 142q109 0 193 48.5t141 131.5v27q-77 31 -162 71.5t-121 55.5q-162 68 -295 71q-30 17 -42.5 46t-12.5 81z" />
<glyph unicode="?" horiz-adv-x="983" d="M123 1044q12 21 17 58.5t11 60.5t25 41q55 79 137 131t172 64q40 12 80 12q56 0 108.5 -20.5t119.5 -57.5q16 -17 42.5 -64t49.5 -71q28 -52 28 -123q0 -83 -36 -182q-33 -56 -124 -129t-130.5 -115t-51.5 -119q-4 -17 -7.5 -35t-12.5 -30.5t-27 -18.5q-28 0 -59 23 q-27 32 -27 86q0 19 3.5 42t6.5 38.5t5 32.5q30 53 42.5 73t41.5 51.5t57 65.5q6 24 70.5 124.5t64.5 139.5q-48 48 -76.5 69t-70.5 21q-33 -12 -76.5 -18.5t-71.5 -11.5q-15 -4 -24 -16.5t-34 -54t-38.5 -56.5t-32.5 -15q-8 -5 -25.5 -21t-33.5 -25t-33 -9q-27 0 -57 29 q-1 1 -16.5 10.5t-16.5 19.5zM375 180q35 95 80 129q14 0 32.5 -11t24.5 -13q8 1 26 8.5t31 7.5q5 0 17 -4q26 -33 26 -68q0 -31 -22 -87t-25 -70q-12 -25 -41 -49l-75 2q-4 8 -36 36.5t-32 53.5q-6 16 -6 65z" />
<glyph unicode="@" horiz-adv-x="1210" d="M70 467v121q0 128 18 221t72 174q111 83 186.5 116.5t163.5 33.5q45 0 98 -9q28 -9 89.5 -19.5t101.5 -20t69 -25.5q113 -87 169.5 -141.5t76.5 -131.5q2 -25 14.5 -102t12.5 -119q0 -95 -62 -164q-86 -92 -266 -92q-93 17 -149 62q-21 -6 -67 -31t-77 -25q-10 0 -26 4 q-40 11 -78.5 37t-67.5 60q-39 76 -39 166q0 111 62 213q5 11 12 49.5t18.5 58t40.5 27.5q75 -7 113.5 -16.5t65.5 -41.5q20 -15 74 -23t80.5 -20t31.5 -51q-7 -23 -8 -72t-4 -65q3 -29 5.5 -60t12 -55.5t33.5 -40.5q52 0 69 50l62 100q0 79 -33.5 143.5t-88 112 t-126.5 86.5q-119 47 -235 47q-108 0 -168 -47q-38 -29 -58 -66.5t-26.5 -80.5t-10 -105t-6.5 -82q0 -24 -11.5 -59t-12.5 -43q10 -122 45 -184.5t79.5 -85.5t116.5 -42q25 -2 85.5 -15.5t97.5 -14.5q68 22 118 22q26 0 52 -6q35 -19 54 -33t23 -35q0 -3 3.5 -14.5 t3.5 -15.5t-13 -15q-11 -4 -56 -11t-122 -7q-31 4 -110 4q-56 0 -82 18q-230 11 -326 173q-25 24 -37 49t-29 70t-34 69zM438 610l19 -108q24 -49 65 -49q7 0 23 4q96 50 96 188q0 41 -4 62q-19 38 -68 38q-25 0 -61 -16q-20 -9 -33 -29t-22 -46.5t-15 -43.5z" />
<glyph unicode="A" horiz-adv-x="1065" d="M74 412q15 59 45 69q12 6 44 11t46 9.5t27 18.5q19 65 56.5 181t72 223.5t59.5 200t35 167.5q65 115 155 115q60 0 103 -37q28 -26 32.5 -90t10.5 -82q11 -80 23.5 -164.5t45.5 -144.5q25 -82 42.5 -175t33 -196.5t29.5 -194t35 -184.5q0 -29 13 -82.5t13 -81.5 q0 -38 -28 -69q-19 -17 -31 -17q-6 0 -12 7q-28 19 -40 46.5t-26 77.5q-23 45 -30 78t-23 123.5t-31 130.5q-22 23 -51 23q-20 0 -52 -9.5t-46 -11.5q-28 -9 -96.5 -18t-99 -14t-60.5 -19q-23 -79 -41.5 -143.5t-44.5 -110.5q-39 -37 -88 -37q-14 0 -27 13.5t-24.5 36 t-16.5 30.5q1 31 9.5 59t20.5 61.5t19 66.5q-10 19 -40 40t-46 39t-16 54zM410 532q22 -22 63 -22q15 0 53 4t64 4q20 4 28 4q9 0 27 -2t27 -2q32 0 53 17q-19 134 -33 206q-71 184 -102 336q-12 -16 -24 -35.5t-26 -37t-34 -29.5q-19 -66 -35 -139.5t-33.5 -166.5 t-27.5 -137z" />
<glyph unicode="B" horiz-adv-x="1079" d="M70 1270q4 53 20 69q16 17 51 17h31q7 0 29 4q84 22 188 22q83 0 152 -14q35 0 87.5 -28.5t63.5 -32.5q18 -22 63.5 -60.5t65.5 -57.5t39 -56t19 -82q0 -102 -20 -165.5t-71 -107.5q-37 -11 -55 -28q19 -41 64.5 -69.5t91.5 -57t67 -68.5q19 -23 25.5 -51.5t13 -77 t15.5 -74.5q0 -78 -21.5 -136t-62.5 -116q-74 -78 -135 -118.5t-140 -40.5q-11 0 -41 4q-24 -6 -47 -6q-31 0 -84 9.5t-65 10.5q-38 2 -106.5 2.5t-115 9t-88.5 33.5q-23 19 -26 43q0 12 6 23q14 20 56 37t61 30t20 47q2 82 2 242q0 39 3 117t7 116l-12 15l19 112 q-21 33 -21 88q1 17 1.5 31.5t0.5 36.5q0 57 -20 92q-38 58 -45 158q-39 22 -58.5 37.5t-27.5 40.5zM350 356q0 -24 21 -45q6 -6 6 -12q0 -7 -11.5 -24t-11.5 -31q2 -19 2 -62q0 -48 35 -57q66 -16 125 -16q152 0 238 92q40 36 60 79t28 95q-10 17 -12.5 43.5t-4.5 38.5 q-26 24 -71.5 47.5t-86 44.5t-69.5 49q-40 7 -85 11.5t-89 8.5q-32 -7 -43.5 -30.5t-16 -73.5t-4.5 -51q0 -33 -5 -68.5t-5 -38.5zM385 831q0 -15 10 -32q78 14 130 27.5t102 39t90 68.5q1 10 7 38.5t7 41.5q0 26 -8 43q-28 63 -88.5 108t-130.5 45q-13 0 -37 -4 q-24 -29 -27 -82q-6 -28 -6 -94q0 -84 -33 -121q-1 -11 -8.5 -40t-7.5 -38z" />
<glyph unicode="C" horiz-adv-x="893" d="M70 684q0 28 4 86q-4 32 -4 49q0 42 9.5 84t28 103.5t23.5 89.5q11 15 29.5 46.5t35 50t40.5 28.5q84 66 149.5 100.5t159.5 34.5q20 10 37 10q31 0 78 -37.5t59 -42.5q13 -13 42 -37t43.5 -45.5t14.5 -50.5q-15 -75 -63 -104q-39 -19 -70 -21q-16 0 -33 6 q-15 4 -45.5 31t-48.5 27q-12 0 -22 -9q-16 0 -28 9.5t-13 23.5l10 33q-17 0 -38 -5.5t-45 -17t-26 -12.5q-58 -55 -87 -123t-34 -151q-6 -41 -6 -131q0 -67 4 -195q0 -58 45 -156q0 -1 6 -47.5t14 -72t26 -45t47 -29.5q49 -23 104 -23q68 0 115 37q28 18 49 32t41.5 25 t38.5 17q39 -5 63 -57q6 -22 6 -39q0 -18 -8 -60q-111 -139 -233 -139q-15 0 -41.5 -1.5t-53.5 -3t-42 -1.5q-77 0 -123 31q-33 5 -56 26.5t-51.5 64.5t-34.5 50q-6 22 -37.5 62.5t-31.5 64.5q0 14 6 31q8 19 8 38q0 15 -5.5 32.5t-16.5 42.5t-13 34q-26 136 -26 256z" />
<glyph unicode="D" horiz-adv-x="1104" d="M70 1288q0 7 3 15.5t9.5 19t7.5 12.5q18 16 41.5 22t62.5 9.5t48 5.5q97 27 192 27q83 0 154 -21q98 -38 172 -71q82 -52 129 -119q16 -39 52.5 -114t58 -125.5t34.5 -112.5q-4 -35 -20 -95.5t-24.5 -107t-8.5 -96.5q1 -28 16 -89.5t15 -95.5q0 -40 -17 -71 q0 -58 -30.5 -120t-59.5 -118q-26 -34 -58 -54.5t-86 -47t-81 -45.5q-21 0 -53 4t-49 4q-15 -3 -47 -12.5t-54 -10.5q-31 0 -51 10q-36 17 -114 29.5t-120 24.5t-77 49q0 34 24 60.5t56 39.5l67 -8q4 7 5 15.5t5 11.5l19 2q-4 48 -4 75q1 25 2 53.5t2 54t1.5 42.5t0.5 51 q4 24 4 33q0 32 -21.5 105t-21.5 124q-12 32 -12 80q0 27 2.5 49.5t6 49.5t5.5 65q-14 82 -14 272q-7 16 -20 19.5t-40.5 4.5t-34.5 5q-25 4 -45 27t-28 47q-4 12 -4 16zM358 788q0 -28 2 -89t2 -93l25 -78q10 -33 11.5 -76t2.5 -84t11 -71q22 -26 35 -81.5t23.5 -95 t41.5 -61.5q0 4 5 9t9 8q23 0 25 -2q9 -9 17.5 -13t9.5 -8l30 2q15 18 37.5 27.5t45.5 20t40 28.5q80 129 80 223q0 26 -6 58q0 30 -0.5 49.5t-1.5 42.5q0 43 8 76q0 33 18.5 106t18.5 115q0 59 -43 102q-24 98 -53 162t-93 102q-26 7 -90 22.5t-114 27.5q-26 8 -47 8 q-28 0 -37 -13q-9 -115 -9 -168q0 -59 9 -112q-13 -56 -13 -144z" />
<glyph unicode="E" horiz-adv-x="1145" d="M70 1266q0 49 24 102q18 12 30 20.5t28.5 15.5t35.5 7q35 -3 66 -20q31 7 99.5 15t107 16.5t74.5 29.5q22 4 67 4q116 -4 180 -55q93 -4 148 -21q6 -8 6 -22q0 -21 -12 -41q-14 -19 -35.5 -28t-51.5 -14.5t-46 -10.5q-34 2 -60 3t-42.5 2t-49.5 1q-31 0 -61 -6 q-13 -24 -35 -32t-59 -12.5t-56 -13.5q-9 0 -32 2t-36 2q-41 0 -63 -22q25 -73 39 -128t14 -110q0 -33 -6 -63q3 -13 4 -30t4 -30t13 -19q55 0 134 7.5t111 7.5q55 0 101 -14q49 -7 77 -17.5t37 -39.5q0 -25 -14 -58q-41 -25 -128.5 -28.5t-107.5 -6.5q-136 -19 -213 -32 q-10 -7 -13 -30t-7 -30q-3 -30 -4.5 -74.5t-2 -104.5t-1.5 -91q7 -18 18.5 -59t20.5 -60q34 0 97 7.5t91 7.5q186 -11 352 -31q12 0 39 7t43 7q4 -10 16 -29t17.5 -31t5.5 -26q0 -6 -4 -22q1 -10 8.5 -18.5t16 -17.5t13.5 -17t5 -23l-4 -8q1 -4 1.5 -6.5t0.5 -8.5 q-1 -10 -10 -15t-12 -7q-8 -21 -29 -25q-11 -19 -16 -22q-22 -13 -43 -13q-19 0 -38.5 9.5t-21.5 15.5q-6 11 -6 12.5t-6 9.5q0 1 -8 9q0 12 2 26t2 19q0 12 -17 20q-85 6 -184 6q-96 0 -182 -6q-37 -11 -90.5 -13t-98.5 -4t-84 -16q-12 -1 -40 -6.5t-35 -5.5q-22 0 -35 8 q-25 22 -25 43q0 13 4 19q19 6 36.5 22t40.5 44t30 34q0 39 16 105q-2 17 -4 90.5t-6 105.5q-25 197 -27 287q-14 9 -14 27q0 5 2 18t2 18q0 7 -4 19q-6 61 -6 125q0 66 4 184v53q-3 20 -15 29.5t-35.5 21t-34 21t-13.5 29.5z" />
<glyph unicode="F" horiz-adv-x="1040" d="M70 715q22 25 48 42t53.5 30t64.5 30q12 37 12 74q0 47 -25 138.5t-26 137.5q2 18 3 31.5t2 22.5t1 26t-6 35q6 14 6 41t4 42t24 26q28 16 66 16q31 0 57 -8.5t84 -30.5q42 3 115.5 8.5t140 13.5t117.5 20q18 0 40 -2t39.5 -5t40 -7t30.5 -5q16 -40 16 -52q0 -16 -6 -28 q-13 -38 -53 -51q-29 1 -56.5 2t-46 2t-29 1.5t-32.5 0.5q-64 -8 -150.5 -10t-130.5 -5q-40 -9 -55 -51q-8 -39 -8 -88q0 -40 8 -120t8 -122q-1 -3 -6.5 -17t-5.5 -19q0 -9 4 -13l20 -10l277 2q42 37 102 37q27 0 51 -12q33 -12 53.5 -38t20.5 -57q0 -12 -6 -28t-6 -17 q-36 -43 -92 -43q-23 0 -43 7q-42 -23 -99 -23q-23 0 -85 9t-97 9q-15 -7 -53 -13t-59.5 -14t-36.5 -32q10 -31 10 -78q0 -24 -0.5 -39.5t-1.5 -34.5q0 -38 4 -57q8 -181 45 -278q0 -59 -5 -92t-18 -54q-27 -24 -71 -24q-48 23 -70.5 60.5t-29.5 77.5t-11.5 113.5 t-11.5 104.5q1 43 1.5 78.5t0.5 91.5q0 76 -14 139q-13 15 -49.5 30.5t-55 31t-18.5 47.5z" />
<glyph unicode="G" horiz-adv-x="967" d="M66 594q0 28 4 87t4 95q10 138 26 229.5t58 165.5q18 76 78 140q36 19 65.5 28.5t73.5 20t80 19.5t73 20q47 0 82.5 -13.5t83 -45t54.5 -35.5q36 -54 36 -113q0 -22 -6 -43l-26 -21q-20 7 -74 12.5t-84.5 15t-54.5 38.5q-22 -8 -73 -18t-81 -26t-49 -52 q-80 -124 -80 -277q0 -21 4 -61q-14 -38 -14 -82q0 -63 26 -139q-4 -22 -4 -27q0 -19 17.5 -66.5t17.5 -80.5q19 -62 63 -119t102.5 -100t117.5 -64q60 0 127 24q39 51 39 144q0 55 -7 98q-5 28 -29 107t-24 123q0 13 4 43l-8 6q-47 0 -93.5 -4.5t-64.5 -4.5q-69 0 -98 50 q0 31 12 46t30 22t40 16q53 26 123 26t168 -28q31 -27 31 -86q0 -21 -2.5 -46.5t-2.5 -37.5l19 -150q17 -48 22.5 -93.5t9.5 -130.5t15 -140q0 -37 -35 -60q-127 0 -196 -41q-59 -18 -105 -18q-47 0 -80 16q-3 2 -45 19t-63 32q-46 40 -78.5 68.5t-66 64t-55.5 72t-34 80.5 q-32 20 -43.5 54t-15.5 75t-10 96q-4 50 -4 70z" />
<glyph unicode="H" horiz-adv-x="1108" d="M70 1032q0 156 41 275q14 24 28 50t32 45.5t42 27.5q51 0 70 -19q32 -75 32 -158q0 -68 -22 -129q-8 -24 -8 -51q0 -26 19.5 -100t19.5 -127q0 -35 -0.5 -57.5t-1.5 -49.5q5 -41 8 -51q17 -12 47 -12q8 0 24.5 2t27 3.5t22.5 2.5q21 2 85 14.5t103 12.5q15 0 43 -4 q18 1 27 11t14.5 25.5t9.5 30.5q-1 24 -12.5 106.5t-11.5 125.5q-19 35 -19 86q2 32 6.5 56t15 59.5t17.5 60.5q8 58 45 75q36 19 66 19q95 -67 127 -195q-3 -30 -5 -99t-4.5 -104.5t-13.5 -74.5l21 -129q8 -3 27 -5t30 -6t16 -16q0 -57 -12 -80q-7 -12 -31.5 -22t-34.5 -18 t-10 -31q-3 -26 -25 -119t-22 -148q0 -13 4 -47q-28 -86 -28 -157q0 -39 4 -58q-29 -92 -66 -133q-50 0 -86 55q-18 61 -18 127q0 86 35 152q18 76 18 152q0 81 -23 165l-26 15q-50 -11 -140 -17.5t-144 -14t-105 -32.5q-22 -21 -30 -49t-13 -72q2 -16 2 -53q0 -34 -4 -106 t-4 -109q0 -48 6 -98q11 -20 16 -84q-12 -31 -59 -31q-68 25 -80 125q5 15 5 44.5t5 43.5q0 23 -14.5 59t-14.5 54q0 8 4 24l7 82q-6 73 -35 251.5t-39 254.5t-10 174z" />
<glyph unicode="I" horiz-adv-x="633" d="M102 -2q7 14 19 48t31 51t71 38q16 8 26.5 24t17 37.5t9.5 32.5q0 75 -0.5 125.5t-1.5 110.5q0 124 21 203q-5 21 -13 49.5t-13 55.5t-5 50q0 31 8 56q0 33 -10.5 83.5t-15 73t-4.5 66.5q-59 39 -95 86q-4 9 -16.5 25.5t-18.5 30t-6 36.5q10 6 25 19.5t22.5 18.5t32.5 9 q4 1 41 10t52 9q20 0 40 -13q26 1 59 5.5t56.5 7t52.5 2.5q36 0 68 -7q18 -10 18 -41q0 -27 -10 -49q-14 -28 -41 -36.5t-65 -10.5q-6 -15 -6 -35q0 -19 3 -53q12 -31 16.5 -95t10.5 -89q-4 -24 -4 -37q0 -30 12.5 -85t12.5 -87q0 -48 -29 -88q-1 -36 -6.5 -121t-5.5 -102 q0 -46 6 -88q-10 -18 -10 -31q0 -11 6 -36t6 -42q-1 -11 -1 -35t-1 -35q9 -8 27 -12t29 -9t18 -20q0 -6 1.5 -17l3 -22t1.5 -18q0 -26 -17 -39q-24 -16 -61 -16q-13 0 -48 4t-59 4q-38 -3 -111 -16t-110 -19q-14 0 -39 33z" />
<glyph unicode="J" horiz-adv-x="899" d="M70 289q0 34 16 61q31 40 86 49q27 -3 46.5 -17.5t33.5 -35.5t23.5 -42.5t23.5 -51.5q17 -14 44.5 -50.5t48 -55.5t50.5 -23q15 -19 39 -19q18 1 46.5 13t37.5 14q29 8 36 30t15 70l-4.5 27l-3.5 21t-3 19t-1 15q-2 11 -2 58l-2 141l-59 117q-6 31 -10 92t-13 90 q0 35 1.5 95.5t3 122t1.5 93.5q-6 26 -7.5 63.5t-2.5 69t-8 54.5q0 16 7.5 25t21 17t18.5 11q79 27 178 27q45 0 74 -37q0 -8 11 -23.5t11 -30.5q-5 -47 -21 -152t-23 -168.5t-7 -146.5q-6 -8 -6 -24q0 -19 8 -47q30 -319 37 -545q-4 -22 -6.5 -41.5t-7.5 -33.5t-15 -25 q-17 -18 -40.5 -68.5t-44 -76t-60.5 -31.5q-106 -56 -195 -56q-51 0 -92 21q-27 8 -52 31.5t-53.5 54.5t-53.5 43q-7 9 -18.5 20t-17 19t-5.5 20q0 13 -11.5 17t-13.5 10q-4 15 -21.5 53t-27.5 65t-10 52z" />
<glyph unicode="K" horiz-adv-x="1036" d="M70 686q0 21 14 73t14 89q0 54 -7 145t-7 119q0 88 14 143q5 18 9.5 73.5t18 86t50.5 45.5q10 1 20.5 2t20.5 2t16 1.5t19 0.5q39 0 59 -22q45 -54 45 -123q-1 -22 -15.5 -59.5t-14.5 -59.5q1 -24 1.5 -44.5t0.5 -53.5q0 -74 -35 -109l14 -143l15 -14q26 30 85 113 t99 128l231 264q66 62 150 74q29 0 33 -35q0 -22 -25.5 -53.5t-32.5 -48.5q-10 -60 -46 -108t-102 -108t-89 -85q-36 -31 -60 -62t-69.5 -98.5t-77.5 -105.5q0 -63 74 -113q11 -21 41 -51t38 -47q62 -46 93.5 -74.5t50.5 -69.5q7 -32 37.5 -64t59 -62t34.5 -64 q11 -10 31.5 -35.5t37 -38t39.5 -12.5q17 -23 17 -41q0 -12 -4 -18q-18 -33 -62 -33q-16 0 -29.5 2.5t-32 6t-40.5 5.5q-37 22 -63 67.5t-51 89t-66 66.5q-22 42 -96 93t-87 63l-24 24t-23.5 24t-26 23.5t-28.5 18.5q-27 -9 -27 -45q1 -8 1.5 -15.5t0.5 -19.5q0 -16 -4 -24 q0 -27 1.5 -59t2.5 -59.5t1.5 -47t0.5 -56.5q0 -76 -11 -124q-18 -39 -46 -39q-48 0 -84 32q-21 21 -28.5 45.5t-13 68.5t-13.5 63q-6 36 -6 73q0 34 6 104t6 103q0 105 -45 168q-10 20 -10 45z" />
<glyph unicode="L" horiz-adv-x="866" d="M70 367q0 36 10 69t23.5 63t33.5 74q0 37 -11 103t-11 90q0 26 6 53q0 143 -21 242q0 37 -7 89.5t-7 76.5q10 52 16.5 120t12.5 130q0 9 4.5 18.5t12.5 16.5t15.5 12t16 9.5t24.5 4.5q24 0 46.5 -12t44.5 -23l45 -61q18 -43 18 -92q0 -39 -10 -82q4 -26 4 -39 q0 -11 -2 -29t-4.5 -36t-3.5 -27q4 -90 4 -136q0 -173 -49 -284q4 -17 4 -49q0 -26 -0.5 -42t-1.5 -36q0 -43 10 -74q-2 -34 -13.5 -99.5t-11.5 -105.5q0 -67 29 -114q5 -52 39 -60q44 -12 110 -12q18 0 91 5t120 5q39 0 60 -2q48 0 80 -45q6 -18 6 -37q0 -29 -12 -47 q-17 -27 -40 -33t-79 -14q-64 -7 -127.5 -11t-139.5 -9t-120 -9q-53 0 -91 12.5t-61 43.5q-14 17 -14 34q0 12 6 35t6 35q0 14 -4 23q4 20 4 32q0 37 -26 97t-29 73q-6 28 -6 54z" />
<glyph unicode="M" horiz-adv-x="1104" d="M70 829q0 31 4 48q0 49 8.5 92t25.5 98.5t21 69.5q-29 94 -29 131q0 36 17 67q11 5 55 27.5t66 26.5q68 -23 109 -71t59 -95.5t43.5 -133.5t46.5 -131q11 -12 15.5 -34.5t10.5 -39.5t23 -24q44 5 67 36.5t33 74t21 88.5q7 24 27.5 104t36.5 127.5t40 89.5q36 43 94 43 q63 0 74 -63q2 -18 12.5 -65.5t16.5 -81t6 -64.5q0 -30 -6 -62q28 -98 28 -204q0 -86 -20 -150q0 -116 16 -244q5 -40 9 -99t7 -119.5t7 -141.5q24 -34 24 -76q0 -10 -4 -30q-6 -23 -26 -37.5t-45 -16.5q-4 2 -45 13.5t-52 35.5q-5 12 -15.5 35t-17 49t-6.5 52 q-14 64 -18 141t-4 186q10 65 10 117q0 155 -74 373q-5 0 -9.5 -7.5t-8.5 -11.5q-37 -31 -37 -100v-39q0 -58 -22 -88q-13 -25 -19.5 -86t-23 -93t-68.5 -32q-16 2 -29 13t-22 26l-21 35q-14 22 -21.5 33t-20.5 36t-18 43.5t-5 47.5q-15 16 -37 53.5t-40 59.5t-44 32 q-9 -1 -13.5 -7t-7 -16t-4.5 -16q0 -168 21 -305q-4 -58 -7.5 -133.5t-8 -122.5t-15.5 -92q0 -14 2 -43t2 -41q0 -51 -37 -68q-41 0 -59 23q-19 44 -23.5 95.5t-5 123t-6.5 117.5q-7 81 -13 120t-20 72q0 43 -15 119t-15 110z" />
<glyph unicode="N" horiz-adv-x="948" d="M70 1341q0 92 51 113q8 4 26 4q28 0 68 -20q11 -8 19.5 -19.5t14 -23t15.5 -27.5q55 -30 90 -66.5t35 -95.5q4 -40 15 -72t34.5 -84.5t36 -83.5t17.5 -65q12 -21 27.5 -65.5t28 -82t30.5 -71.5q6 -12 29.5 -66.5t43.5 -91.5q7 5 16 23.5t15 28.5t20 14q9 63 9 149 q0 41 -2.5 94t-9 133t-11.5 140q0 45 7 89.5t24.5 111t21.5 84.5q42 22 88 22q50 -29 50 -92q-29 -119 -29 -260q0 -87 10 -207q1 -39 1.5 -72.5t0.5 -87.5q0 -59 -10 -98q-2 -40 -2 -121.5t-2 -120.5q4 -25 8.5 -107t13.5 -118q0 -12 2 -34.5t3.5 -45.5t1.5 -35 q0 -82 -66 -104q-15 -6 -33 -6q-32 0 -53 18l-59 101q-19 199 -105 313q-16 31 -36 74.5t-46 106.5t-47 112q0 21 -17 39t-20 28q-10 23 -35.5 89.5t-47 109t-50.5 76.5h-4q0 -7 5 -54.5t5 -78.5q0 -33 -8 -58q-6 -19 -14.5 -81.5t-16.5 -82.5l-2 -309q4 -32 4 -51 q0 -16 -2 -53t-2 -56q0 -28 2 -43q8 -19 15.5 -39.5t7.5 -39.5q0 -16 -6 -31q-5 -7 -22.5 -13t-24.5 -14q-61 8 -103 90q-14 38 -14 103q0 20 2 60t2 61q0 60 -12 100q6 40 6 80q0 20 -2 61t-2 62q0 64 14 121q0 39 8 93t8 76q0 41 -16 70q-4 46 -4 70q1 22 2 47t2 48 t1.5 38.5t0.5 44.5q0 87 -22 149z" />
<glyph unicode="O" horiz-adv-x="1055" d="M70 733q2 21 4 115.5t13 151t46 104.5q10 12 15.5 22.5t14.5 32.5t15 35q0 37 17.5 65.5t48 50.5t68 39.5t61.5 28.5q104 50 233 56q23 0 39 -9t38.5 -27t33.5 -22q25 -39 98 -71q17 -31 58 -78t61 -80t20 -80q27 -98 31 -252q0 -14 -5.5 -25t-15 -24t-18.5 -25 q4 -60 4 -90q0 -143 -43 -268q-18 -135 -56 -228.5t-130 -140.5q-24 -25 -51 -51.5t-56 -32.5q-27 0 -46.5 8t-38.5 24t-35 30q-42 4 -82 23.5t-81.5 48.5t-92.5 63q-97 127 -103 268q-22 47 -33 96.5t-17.5 106.5t-14.5 135zM231 705q0 -79 19 -146q0 -33 11.5 -66.5 t22.5 -67.5t11 -67q3 -43 21 -73.5t46.5 -55.5t59.5 -44.5t67 -43.5q16 0 55.5 -7t47.5 -7q45 0 63 35q11 19 16 27.5t10 19t5 22.5q11 24 14.5 43t5.5 56.5t5 56.5q37 142 37 315q1 26 8.5 64t7.5 63q0 21 -6 39q-4 43 -7.5 97t-8 87.5t-15.5 65.5q-22 37 -51.5 45.5 t-102.5 16.5q-44 -8 -115.5 -54t-109.5 -55q-11 -18 -41.5 -51.5t-46 -56.5t-16.5 -48q-2 -38 -7.5 -101t-5.5 -109z" />
<glyph unicode="P" horiz-adv-x="1073" d="M70 1313l6 33l131 65q12 0 63.5 7t98.5 7q4 -1 27 -7.5t40 -9.5t27 -3q33 0 53 20q40 5 47 5q53 0 98.5 -14.5t143.5 -53.5q40 -47 74 -86t61 -76.5t45.5 -84.5t18.5 -103q-4 -84 -16.5 -138t-51.5 -92q-78 -84 -128 -124t-118 -40q-6 0 -39 5q-3 -1 -16 -6.5 t-28.5 -14.5t-18.5 -10q-20 0 -64 -6t-65 -6q-36 0 -64 16l-9 -16q0 -20 -2.5 -59t-2.5 -58q0 -79 22 -127q0 -64 -41 -90q0 -26 -11.5 -67t-12.5 -66q3 -11 10.5 -34t12 -42.5t4.5 -36.5q0 -42 -33 -68q-12 -4 -19 -4q-8 0 -24 7t-25 10q-69 79 -69 180q0 33 4 49 q19 45 28.5 138.5t12.5 115.5q-35 222 -72 322q-8 26 -9.5 48t-3 68.5t-5.5 65.5q0 23 -1 61.5t-2 71.5q0 59 19 102q-13 16 -34.5 43t-37 51t-24.5 52zM336 1087q0 -29 14 -61q10 -49 10 -152q0 -114 31 -174q8 -4 15 -4q1 0 20.5 5.5t36.5 5.5q22 7 91.5 21.5t113.5 29.5 t77 43q11 16 32.5 43t38 52t26.5 56.5t10 69.5q-26 70 -91.5 134t-144.5 106q-27 1 -54.5 17t-65.5 38q-38 0 -52.5 -3.5t-21.5 -17.5q-6 -25 -46 -95.5t-40 -113.5z" />
<glyph unicode="Q" horiz-adv-x="1032" d="M70 725q1 31 16 102.5t22 113.5t7 95q3 59 6 84.5t20 50.5q0 9 -0.5 14t-1.5 11.5t-2.5 15.5t-1.5 15q0 27 12 43q35 30 72.5 62t76 54.5t77.5 30.5q49 41 125 47q73 -11 127.5 -27.5t103.5 -51t78 -89.5q15 -28 44.5 -79t44.5 -98.5t15 -100.5q-16 -75 -16 -146 q0 -99 29 -192q0 -227 -15 -414q-14 -21 -14 -57q0 -9 2 -26.5t3 -30.5t3 -33q60 -50 60 -109q-2 -31 -39 -57q-63 0 -101.5 20t-95.5 66q-26 -8 -86 -12.5t-82 -8.5q-24 -6 -49 -6q-28 0 -56.5 5.5t-63 14.5t-52.5 13q-39 22 -68.5 58.5t-65 87t-69.5 79.5 q-31 60 -37.5 119t-10.5 169.5t-17 166.5zM272 621q0 -86 17 -191q0 -116 84 -184q58 -103 211 -103q34 0 53 2q8 7 8 15q0 9 -3 22.5t-3 14.5q-42 40 -59.5 59t-80.5 90.5t-73 81.5q-20 38 -43 131q1 13 9.5 23t23.5 20.5t22 18.5q6 2 16 7t15 5q11 0 18 -12 q17 -37 71.5 -88.5t64.5 -65.5q13 -3 37 -20t34 -17t19 6q8 60 16.5 186t13.5 166q7 35 21 91t14 92q0 26 -6 53l-170 223q-44 16 -117 23q-70 -34 -113.5 -66t-64.5 -84q-2 -42 -2 -130.5t-2 -131.5q-31 -115 -31 -237z" />
<glyph unicode="R" horiz-adv-x="1130" d="M70 1300q0 5 7 24t7 32q12 17 40 24.5t48 15t29 31.5q9 3 29 10.5t34 8.5q20 0 33 -10q31 -19 115 -19q51 15 102 15q73 0 148 -24t159 -65q63 -61 98 -132t35 -173q-3 -33 -15.5 -62.5t-33 -69.5t-30 -66.5t-9.5 -61.5q0 -33 12.5 -93t12.5 -97q0 -31 -4 -47 q5 -28 11 -87t16 -96t34 -67q16 -53 27.5 -81t33 -57t50.5 -44q10 -22 10 -41q0 -22 -8 -35q-8 -14 -23.5 -17.5t-50.5 -3.5q-23 5 -46 11t-40 18.5t-24 34.5q-22 86 -50 156t-71 126q-30 71 -51 118t-35 93q-32 49 -58 49q-2 0 -14 -4q-33 -14 -111 -14q-8 -10 -27.5 -42.5 t-27.5 -41.5q0 -10 9.5 -40t9.5 -44q0 -11 -7 -22q-49 -60 -49 -138q0 -38 17 -75q49 -77 49 -166q0 -31 -6 -60q-13 -24 -52 -28q-40 5 -73 31t-45 63q-19 47 -19 108q0 17 2 52t2 53q0 55 -8 82q17 50 17 108q0 89 -41 158q-13 39 -13 98q0 29 4 85t4 83q0 55 -10 90 q-10 45 -11 95.5t-2.5 110t-10.5 106.5q-47 -9 -64 -9q-36 0 -55 19q-10 10 -10 24zM414 686l8 -10q26 -2 46.5 -4t33.5 -2q125 0 166 82q9 20 42 79.5t49 97.5t17 83q-10 43 -47 79.5t-82 57.5q-29 19 -62.5 27.5t-88.5 16t-70 11.5l-8 -2q0 -73 -0.5 -118t-1.5 -99 q39 -57 39 -139q0 -89 -41 -160z" />
<glyph unicode="S" horiz-adv-x="969" d="M70 340q0 28 18 43q12 3 40 25t50 22q6 16 25 16q10 0 16 -6q0 -27 24.5 -71t24.5 -72q-10 0 -10 -8q0 1 3 -8t3 -15q4 -12 18 -29.5t19.5 -27.5t5.5 -25q11 -22 32 -38t50.5 -29t44.5 -19q63 20 96.5 28.5t73.5 8.5q122 50 156 146q-1 71 -38.5 123t-111.5 124 q-80 58 -252 152q-79 70 -104.5 93.5t-67 73.5t-64 99.5t-22.5 106.5q0 13 4 47q-4 20 -4 28q0 34 17.5 61t52 62.5t49.5 59.5l86 80q21 0 35 21t27 22q16 0 29.5 -5t40.5 -18.5t40.5 -17.5t30.5 -4q55 0 95.5 -15t88.5 -45q51 0 72 -18q31 -39 102 -152q0 -25 2 -57t2 -41 q0 -58 -55 -68q-18 0 -28.5 6.5t-26 24t-30.5 26.5t-34 9q-33 17 -82.5 58t-85.5 61t-79 20q-13 0 -37 -4q-15 -5 -48.5 -11.5t-53 -16.5t-34.5 -36q-6 -27 -6 -51q0 -87 60.5 -155.5t163.5 -143.5q127 -70 212.5 -137.5t133.5 -165.5q59 -64 59 -174q0 -72 -25 -147 q-26 -38 -62 -63.5t-94 -54.5t-85 -46q-57 -21 -123 -21q-169 0 -320 131l-110 158q0 18 -5 45.5t-5 34.5z" />
<glyph unicode="T" horiz-adv-x="1065" d="M70 1337q0 51 43 76q78 35 172 35l22 -23q11 -3 27.5 -19.5t27.5 -16.5q7 0 15 4q54 10 129 10q60 -1 115.5 -6t146.5 -13q17 -20 53 -20q10 0 28 2t28 2q60 0 83 -4t35 -21q0 -36 -20 -69q-45 -33 -133 -33q-21 1 -40.5 1.5t-64.5 0.5q-14 -6 -55 -6q-22 0 -34 -7 t-15 -28q0 -29 -10.5 -79t-10.5 -74q4 -45 23 -70q0 -44 -5 -76t-12.5 -66t-16 -72.5t-9.5 -66.5q-6 -36 -6 -71q0 -48 7 -91t22.5 -117.5t19.5 -105.5q19 -24 21 -45.5t5 -71.5t15 -75q0 -49 -8.5 -97.5t-8.5 -66.5q-11 -23 -41 -23q-9 0 -17.5 2.5t-16.5 4.5 q-6 7 -38.5 24t-33.5 39q-31 58 -31 148q0 22 2 67t2 68q0 48 -8 84q0 42 -14.5 120t-16.5 125q-6 19 -6 39q0 17 7 49t10 48q-27 85 -27 129q0 26 4 39q-16 23 -27 75.5t-16.5 73t-28.5 43.5q-9 40 -40 94q-34 4 -71 8t-65.5 13t-52.5 30q-31 11 -59 54q-4 16 -4 26z" />
<glyph unicode="U" horiz-adv-x="954" d="M70 1135q0 22 3.5 44t8 45t7.5 44t3 35q60 96 162 96q17 -15 31 -55.5t24 -53.5q6 -21 6 -43q0 -18 -4 -52t-4 -50q20 -31 33.5 -63.5t13.5 -77.5q-4 -68 -9 -145.5t-13 -135.5t-29 -121q-1 -44 -6.5 -135t-5.5 -117q10 -5 10 -10q-1 -2 -6.5 -11.5t-5.5 -13.5 q0 -38 18.5 -70.5t47 -57.5t69.5 -54q23 0 55 -14.5t49 -14.5q18 0 33 9q24 10 44 24.5t46.5 37t40.5 32.5q13 18 13 51q1 12 1.5 22.5t0.5 41.5q1 16 1.5 29.5t0.5 37.5q0 67 -21 105q0 60 4 173t4 169q0 59 -2 90q1 38 1.5 70t0.5 85q0 20 -4 62q7 36 15 75t8 68 q0 39 -8 72q0 52 43 69q17 13 38 13q27 0 51 -19.5t38 -46.5l8 -53l-45 -211q0 -104 -11 -143q7 -49 7 -105q0 -32 -3.5 -91t-7.5 -117t-4 -91q0 -72 13 -137q4 -23 4 -64q0 -26 -4 -76.5t-5 -72.5l-51 -119q-20 -14 -60 -47.5t-71 -51t-67 -20.5q-31 -16 -68 -16 q-33 0 -92.5 22.5t-93.5 26.5q-9 9 -41.5 33.5t-49.5 39t-30 38.5q0 13 -10.5 26.5t-10.5 22.5q-3 78 -55 127q0 16 3 65.5t3 73.5t-6 45q-39 76 -39 160q0 43 4 63q-4 17 -4 48q4 52 4 94q0 18 2 57t2 60q0 73 -20 114q-8 28 -8 60z" />
<glyph unicode="V" horiz-adv-x="1030" d="M55 1307q0 30 17 55q32 39 86 39q67 0 98 -49q7 -12 15 -40t14 -40q24 -27 42 -75t35 -92.5t44 -72.5q51 -113 51 -239q0 -66 -17 -129q-10 -45 -10 -80q0 -47 9.5 -93t32.5 -126t24 -84l10 -11q43 50 43 142q0 21 -0.5 32t-1.5 26t-2.5 34.5t-1.5 34.5q0 71 22 116 q13 41 51 107.5t50 99.5q2 48 27 123t30 100q5 3 5 14.5t5 14.5q34 99 53.5 147.5t57.5 102.5q9 1 32 14t35 13q16 0 25 -23q0 -18 11 -81.5t11 -110.5q-11 -63 -48.5 -163.5t-47.5 -138.5q-14 -20 -24 -34.5t-23 -16.5q-36 -43 -48.5 -90.5t-23.5 -131.5t-26 -124 q0 -39 -9 -66.5t-34 -87.5t-31 -85q0 -36 -19.5 -84.5t-21.5 -69.5q0 -82 -18 -113q-23 -22 -58 -22q-11 0 -37 4q-18 6 -32.5 21.5t-31 34t-34.5 24.5q-35 43 -51 92.5t-33.5 127t-36.5 120.5q-16 72 -16 141q0 60 10 125q15 10 15 41q0 14 -5 59q0 38 -4.5 68.5t-10.5 59 t-11 59.5q-7 31 -34 84t-38.5 82.5t-11.5 70.5q-6 25 -45.5 51t-48.5 43q-15 20 -15 50z" />
<glyph unicode="W" horiz-adv-x="1141" d="M70 1296q0 70 47 93q18 18 49 18q15 0 65 -10q33 -26 52 -76q-2 -44 -19 -155t-18 -165q0 -92 26 -161q25 -45 34.5 -96t15.5 -130t14 -116q8 -21 18 -25q22 26 32.5 58t21.5 90.5t12 62.5q8 10 9.5 29t3 38.5t9.5 30.5q14 72 45 133q14 6 46 30t53 24q15 0 26 -8 q29 -37 36 -85t9 -135q11 -24 43.5 -82t44.5 -92q5 2 8 9.5t4 12.5t3 13q6 34 15.5 91t19.5 113t22 106.5t21 78.5q8 25 8 58q0 38 -15.5 115.5t-15.5 105.5q0 91 88 133q38 22 78 22q39 0 61 -22q31 -36 31 -86q0 -17 -4.5 -40t-9.5 -36t-14 -37.5t-19 -50.5l8 -172 q-10 -25 -20 -65t-21.5 -92.5t-24 -87t-34.5 -66.5q0 -76 -29 -127q10 -38 10 -72q0 -60 -26 -98q0 -35 -2 -54q0 -51 18 -79q6 -19 6 -35q0 -25 -11 -64.5t-11 -56.5q0 -21 4 -33q-5 -39 -53 -63q-9 -4 -31 -4q-28 0 -43 10q-42 53 -66.5 143.5t-44.5 173.5q0 154 -90 236 q-24 -40 -42 -91.5t-35 -120t-29 -106.5q-11 -22 -22.5 -45.5t-19 -51t-7.5 -62.5q-10 -18 -17 -32.5t-15.5 -25t-21.5 -14.5q-45 0 -96 33q-20 17 -31 41.5t-15.5 59.5t-9 62.5t-11.5 45.5q-18 88 -25.5 163t-7.5 156q0 80 2 117q-13 40 -18 97t-10.5 107t-22.5 91v131 q0 50 6 94q-13 9 -19.5 23t-12.5 39.5t-15 37.5z" />
<glyph unicode="X" horiz-adv-x="1077" d="M70 -51q6 39 19.5 74t35 74t46.5 77t46 74q0 5 -1.5 14.5t-3 20t-1.5 16.5q0 18 10 29q63 45 76.5 103.5t26.5 195.5q2 15 8.5 24t18 23t16.5 26q-18 38 -35 103t-21 76q-19 52 -41 108.5t-49.5 100.5t-68.5 77q-15 12 -18.5 25.5t-8 40.5t-12.5 39q0 16 9 28t21 21.5 t29 21.5q15 9 43 9q27 0 41 -13q18 -11 29.5 -26t32.5 -47.5t34 -46.5q89 -103 117 -250q13 -45 61 -86l17 6l106 174q16 58 32 117t47 104t89 64q36 45 72 45q83 -4 104 -60q11 -20 11 -49q0 -30 -12.5 -61t-36 -70t-33.5 -61q-34 -49 -63.5 -92.5t-73 -104.5t-83 -108 t-81.5 -87q-25 -21 -25 -57q0 -10 9 -50.5t9 -72.5q42 -153 170 -254q14 -22 28.5 -58t26.5 -76t27 -85q31 -11 31 -59q-13 -42 -43 -47q-123 16 -158 90q-6 53 -29 95t-79 130q-91 13 -125 31q-10 -8 -33.5 -18t-43 -16.5t-35 -18t-25.5 -31.5q-15 -31 -35.5 -90.5 t-37.5 -97.5t-44 -70q-31 -31 -102 -31q-39 11 -41 37z" />
<glyph unicode="Y" horiz-adv-x="1061" d="M70 1272q0 8 4 28q15 35 63 52q70 0 103 -37q45 -134 106 -199q6 -9 32 -67t48 -89t59 -49q75 0 125 33q11 44 29 101t25 90q1 9 5.5 22.5t13 30.5t11.5 24q0 56 25 129q16 19 37.5 27.5t49.5 19.5t44 27q10 4 31 4q17 0 67 -10l15 -16q0 -15 12 -31t14 -23 q0 -131 -65 -288q-34 -21 -54 -87t-30 -83q-14 -41 -68 -100t-70 -83q-24 -27 -32 -52.5t-20 -90.5t-25 -94q0 -148 -2 -221q0 -20 6 -69t6 -75q0 -83 -64 -119q-5 -36 -61 -53q-21 5 -32.5 10.5t-14.5 22.5q4 16 4 27q0 18 -10 56.5t-11 45.5q0 30 -0.5 46t-1.5 40 t-2.5 53.5t-1.5 53.5q0 30 2 45q-3 10 -4 22t-1.5 20.5t-2.5 32.5q-6 9 -6 74q0 20 -6.5 42t-7.5 34q-3 17 -29.5 47.5t-26.5 52.5q-20 26 -26 52t-15.5 82t-23.5 85q-31 101 -47.5 142t-61.5 77q-13 19 -46 56.5t-50.5 66t-17.5 62.5z" />
<glyph unicode="Z" horiz-adv-x="1030" d="M61 1313q0 27 11 43q25 41 88 41q12 0 38 -2t38 -2q32 0 47 6q20 0 62 4t63 4q35 0 65 -6q32 1 69 8t73.5 13.5t77 12t85.5 5.5q54 16 86 16q52 0 74 -29q23 -29 23 -94q-8 -21 -35.5 -61t-36.5 -62q-79 -107 -125 -239q-7 -20 -41.5 -65.5t-52 -74.5t-17.5 -61 q0 -18 9 -35q-11 -75 -40 -122t-96 -119q-26 -46 -37 -88.5t-30 -125.5t-37 -124q-2 -14 -4 -23.5t-2 -15.5q0 -8 4 -13q9 0 19 -3.5t18 -4.5q10 0 18 8q22 17 51 17q50 0 138 -47q21 0 34 -0.5t29 -1.5q24 0 39 12q17 0 51 4t51 4q72 0 95 -57q0 -44 -14.5 -58.5 t-61.5 -39.5q-30 -17 -74 -17q-21 0 -40 2.5t-38.5 6.5t-50.5 8q-49 -19 -117 -19q-24 0 -86 4t-104 4q-12 4 -39 4q-28 0 -75 -7t-60 -7q-32 0 -57 15t-40 51q0 34 22 78t24 55q0 36 12 65t34 72.5t29 71.5q0 9 9.5 29.5t9.5 29.5q0 7 -6 16q17 22 40.5 66.5t45.5 66.5 l94 123q60 47 90.5 100.5t40 99t21 139.5t26.5 155q0 22 -10 27q-48 0 -109 10t-86 10q-36 0 -67 -14q-30 0 -99 5t-104 5q-14 12 -27.5 35t-25.5 35q-9 21 -9 51z" />
<glyph unicode="[" horiz-adv-x="604" d="M70 72q12 96 12 295v217q0 120 6 207q-4 26 -4 90q0 36 4.5 110.5t11 151.5t10 130.5t3.5 100.5q0 30 -4 76q-21 20 -21 55q0 42 21 80q15 17 36 17h23q18 0 29 4q18 5 39 18q4 0 63.5 -5t81.5 -9q79 -10 117 -56q0 -26 -11 -35.5t-37.5 -23t-37.5 -27.5q-6 -7 -36 -15 t-34 -15q-18 -11 -26.5 -40t-13 -68t-9.5 -70q-10 -68 -14.5 -188t-4.5 -222q0 -40 -4 -111.5t-8 -128t-7 -102.5t-5 -88q0 -46 14 -166t15 -166q0 -36 43 -47q35 -10 43 -16q38 0 84 12q20 4 28 4q21 0 37 -16q23 -56 23 -91q0 -54 -52 -84q-38 -12 -96 -12q-24 0 -74 4 q-28 3 -79 11t-95 12q-28 7 -40 27t-17 55q-1 16 -1.5 29.5t-2.5 35.5q-4 41 -10 60z" />
<glyph unicode="\" horiz-adv-x="1153" d="M66 1493q0 9 2 27t2 26q6 23 25.5 43.5t43.5 26.5q23 -4 74 -4t84 -9.5t57 -39.5q35 -64 35 -99q0 -25 -8 -45q12 -36 31.5 -110t35.5 -121.5t41 -91.5q66 -114 106 -179.5t93 -155t101.5 -177t82.5 -162.5q15 -21 30 -62.5t27.5 -65.5t41.5 -44q0 -36 10.5 -58.5 t41.5 -71t44.5 -79.5t13.5 -70q-19 -34 -45 -34q-52 7 -88 40t-57.5 73t-54.5 108q-25 40 -66.5 130t-73.5 140q-14 12 -22.5 32t-16.5 37.5t-24 28.5q-26 57 -88.5 160.5t-93.5 165.5q-79 90 -143 212.5t-124 238.5q-19 58 -34 86.5t-50 44.5q-18 8 -25 23t-9 36z" />
<glyph unicode="]" horiz-adv-x="721" d="M72 -139q0 104 65 133q24 14 103 14q20 -2 35.5 -4t25.5 -2q29 0 59 12q13 49 13 138q0 86 2 131q22 53 30.5 142t8.5 218q0 283 4 369q0 37 -0.5 55t-1.5 45.5t-2.5 60t-1.5 60.5l-23 121q-38 14 -67 24.5t-55 16.5t-56 8q-18 9 -44 18.5t-44 18.5q-44 23 -51 63 q0 54 51 80q9 6 20 6t24.5 -6.5t25.5 -13.5q26 -13 36 -13q25 0 45 29q21 21 52 21q10 0 34 -4q12 -3 28 -8.5t38.5 -12.5t40.5 -10l104 -2q71 -52 80 -82q-5 -84 -8 -98q-7 -58 -39 -93q0 -40 2 -91t4 -115q0 -123 -14 -193q10 -20 10 -45q0 -19 -12 -59q-27 -83 -27 -123 q13 -32 13 -109q0 -15 -1.5 -40t-5 -58.5t-4.5 -50.5q-10 -140 -10 -156q0 -70 16 -102l-4 -222q15 -19 15 -38q0 -21 -13 -41q-41 -20 -88.5 -25.5t-124.5 -5.5q-43 2 -120 10q-82 0 -119 -4q-32 0 -49 33z" />
<glyph unicode="^" horiz-adv-x="729" d="M70 1176q0 9 9 18.5t17 17.5q0 62 25 86q40 11 59.5 35t43.5 68t50.5 66t73.5 22l43 -8q24 -38 54.5 -68t81 -68.5t78.5 -61.5t48 -46q3 -9 6 -15.5t5 -17.5q0 -10 -5 -20q-11 -14 -29.5 -17.5t-62.5 -3.5q-23 9 -61 46.5t-58 53t-49 15.5q-16 0 -34 -6 q-24 -10 -41.5 -28.5t-35.5 -36.5t-42 -27q-67 -16 -111 -43q-9 4 -23.5 5t-24 5t-13.5 14q-4 8 -4 15z" />
<glyph unicode="_" horiz-adv-x="1878" d="M70 -229q0 49 21.5 92t64.5 57q15 10 34 10q13 0 48 -10t61 -10q38 -57 131 -57q14 0 49 2t58 2q105 19 215 27.5t230 13t288 10.5q33 4 108.5 26.5t120.5 22.5q28 0 60 -6q47 20 102 20q77 0 115 -41q21 -24 26.5 -54.5t5.5 -78.5q-9 -14 -23 -38t-30.5 -38t-38.5 -14 q-36 -14 -80 -14q-35 0 -70.5 9.5t-88 30.5t-72.5 27q-95 -4 -159 -8.5t-124.5 -15.5t-122.5 -35q-76 20 -118 20q-61 0 -105 -34q-78 2 -129 4l-102 4t-129 4q-104 0 -187 -8q-19 7 -58 16t-62 21.5t-39 42.5z" />
<glyph unicode="`" horiz-adv-x="500" d="M70 1339q0 32 24 70q5 2 27 20t43 21q19 0 31.5 -13t27 -37.5t23.5 -33.5q7 -12 21 -31t19.5 -34t8.5 -35q15 -24 47 -34t55.5 -19t32.5 -37q4 -9 4 -23q0 -26 -14 -43q-14 -24 -46 -31.5t-63 -13.5l-86 37q-12 27 -62 83t-71.5 86t-21.5 68z" />
<glyph unicode="a" horiz-adv-x="895" d="M66 608q0 20 4 66q16 41 24 79t8 93q0 32 30.5 70.5t33.5 58.5q69 102 205 102q45 13 90 13q91 0 180 -37q8 -2 21 -2q14 0 22 2q3 4 6.5 27.5t18.5 27.5q28 0 51 -13.5t33 -39.5q-5 -103 -5 -123q0 -64 3.5 -140t6.5 -129.5t5 -117.5q0 -16 -2 -49t-2 -52q0 -32 4 -49 q-4 -28 -4 -41q0 -30 6.5 -59t19.5 -80q-14 -36 -14 -94q0 -14 2 -47t1 -49q-9 -27 -32 -45t-53 -19q-30 13 -42.5 66.5t-14.5 56.5q-28 -12 -76.5 -48t-80.5 -55.5t-69 -23.5q-18 0 -58 -4t-62 -4q-51 0 -88 20q-123 117 -152 303q2 17 2 52q0 49 -12 151q-10 113 -10 133z M238 741q0 -23 22 -71q5 -15 8 -35q-4 -24 -4 -35q0 -13 2 -37t2 -35q0 -40 -16 -69q0 -85 6.5 -153t28.5 -126q9 -25 32.5 -39t51.5 -14q16 -4 24 -4q19 0 39 9t43.5 26t44.5 29.5t41 15.5q17 6 53 6q33 0 43 16q13 78 13 197q0 54 -4 164t-4 164q0 79 4 120q-34 10 -60 43 q-21 6 -49 17t-49.5 16.5t-42.5 5.5q-13 0 -33 -4q-8 -6 -27.5 -12t-25.5 -12q-18 -13 -28 -26t-19 -29t-17 -31q-18 -32 -33.5 -48.5t-41.5 -23.5q-4 -8 -4 -25z" />
<glyph unicode="b" horiz-adv-x="952" d="M61 41q2 22 5 46.5t4 39.5l43 436q-2 23 -2 66q0 52 2.5 94.5t7 94t8.5 103t8 117.5q-17 59 -37 232q-6 18 -6 33q0 44 58 110q-5 17 -5 45q8 23 13 47q19 0 37 4q12 4 16 4q12 0 20 -10l31 -35q0 -8 -2 -29t-2 -30q0 -36 23 -53q-9 -72 -9 -162q0 -86 11 -150q26 0 34 7 q28 21 39 22q30 -4 41 -4q24 0 115 14q32 4 47 4q55 0 96 -30q101 -80 189 -256q7 -34 15.5 -99.5t21.5 -103.5v-57q-2 -10 -3 -19t-3 -18.5t-3 -18.5q-6 -39 -6 -108q0 -211 -157 -344q-34 -29 -76.5 -36.5t-103 -7.5t-89.5 -3h-96q-74 0 -119 22q-31 -28 -67 -28 q-7 0 -23 4q-4 4 -12 4q-5 0 -19 -4q-30 0 -36 8q-9 18 -9 49zM254 293q6 -17 20 -28t41 -24.5t39 -25.5q13 -4 37.5 -30.5t48.5 -26.5q17 -2 31 -7t28 -12.5t27 -13.5q25 -10 41 -10q22 0 39 14q60 55 89.5 123.5t29.5 165.5q33 62 33 129q0 49 -17 100q-15 58 -90 219 q-2 14 -24 29l-9 6q-14 14 -16 23l-31 24h-100q-52 -6 -104 -6q-54 -34 -70 -94q2 -14 2 -41q0 -45 -10 -98q-13 -102 -13 -140q0 -152 -22 -276z" />
<glyph unicode="c" horiz-adv-x="938" d="M70 449q0 32 8 57q13 335 162 559q98 113 196 113q21 0 53 -9q21 -11 50.5 -15t59 -7t52.5 -14q50 -36 90 -75.5t115 -119.5q16 -43 16 -55q0 -13 -4 -19q-17 -41 -75 -41q-31 0 -48 2h-47q-13 14 -34.5 51t-35.5 54t-38 31q-13 21 -35 30t-48.5 11.5t-51.5 5.5 q-13 14 -45 14q-9 -2 -26 -8t-26 -8q-31 -25 -51 -48t-28 -53q-26 -43 -37.5 -89.5t-24.5 -121.5q0 -35 -5 -92.5t-5 -71.5q0 -41 8 -73q19 -29 31 -98t21 -98.5t42 -57.5q27 -18 58.5 -27t76 -17.5t78.5 -17.5q25 1 50 13.5t54 27.5t52 17q9 11 23 45t32 47 q25 -10 37.5 -18t17.5 -25q5 -10 5 -19t-4 -16t-13 -20t-10 -15q10 -15 10 -37q0 -24 -14 -49q-149 -131 -303 -131q-39 0 -82 10q-27 21 -74.5 60t-79.5 62t-69 44q-33 18 -33 64q1 11 1.5 20.5t0.5 24.5q0 35 -19 55q-18 57 -26 87.5t-8 60.5z" />
<glyph unicode="d" horiz-adv-x="893" d="M70 420q6 207 57 440q19 27 37 76l61 90q34 19 58 32.5t52 24.5t54 11q23 0 33 -4q12 -5 35 -5q27 0 67 11q25 6 49 6q32 0 52 -12q8 12 8 45v55q0 112 22 168q-1 15 -10.5 58t-9.5 69q8 8 20 8h9q12 0 12 14q3 7 4 17t4 16.5t10 7.5q15 0 19 6l2 7q6 9 14 12 q23 0 38.5 -11.5t24 -27t16 -35t15.5 -43.5q0 -74 -4 -110q-1 -7 -10.5 -76.5t-15 -114.5t-5.5 -92q0 -31 3 -47q0 -32 11 -111.5t11 -140.5q-1 -49 -7 -147t-7 -146q0 -96 10 -162q0 -33 8 -57q0 -12 -1 -32t-3 -25q-23 -42 -31 -92t-8 -115q-11 -20 -24 -29q-42 0 -62 41 q-2 7 -3.5 13t-6.5 10q-29 -8 -72 -43t-63 -46q-89 -53 -162 -53q-35 0 -68 13q-10 10 -59.5 55t-77 74t-50.5 66t-34 81q0 52 -11 132.5t-11 117.5zM207 582q1 -8 16 -56q4 -24 4 -59q17 -27 17 -66q0 -20 -9 -63t-12 -59q-2 -23 -2 -62q7 -44 35.5 -64.5t79.5 -36 t74 -28.5q15 -6 30 -6q30 0 55.5 20t61.5 58q35 7 63 36t33 62q-10 48 -10 88q0 33 5 73t13 78.5t15 75.5q24 37 24 103q0 24 -0.5 36.5t-1.5 32t-2 48.5t-2 57q-23 39 -26 98l-9 8q-28 7 -59 7q-36 0 -95.5 -10.5t-96.5 -10.5q-69 -26 -111.5 -82t-61.5 -123.5t-28 -154.5z " />
<glyph unicode="e" horiz-adv-x="977" d="M70 516q4 55 34 88q14 77 22 120.5t27.5 91t51.5 83.5q19 0 26.5 7.5t26.5 31.5q11 15 16 18q11 9 52 46t73 59t68 33q126 -5 224 -48t138 -145q36 -51 50 -76q16 -32 16 -90q0 -30 2 -47q10 -60 10 -74q0 -40 -28 -63q-28 -20 -95 -26t-69 -7q-17 2 -49 2q-15 0 -56 -2 t-73 -2q-38 0 -61.5 -0.5t-51.5 -1.5q-35 0 -51 4q-27 0 -47 -14q5 -42 5 -106.5t4 -111.5t19 -87q42 -42 82 -64t94 -22q122 21 166 106q42 35 72 35q13 0 27 -6q50 -22 65 -64q6 -12 6 -22q0 -12 -6 -32t-6 -32q-12 -21 -30 -37.5t-42.5 -33t-48.5 -33.5 q-115 -35 -215 -35q-140 0 -242 66q-27 13 -45.5 36t-35.5 61.5t-25 53.5q-14 33 -35 53q-11 31 -21 106t-16.5 110t-27.5 71zM326 666q0 -20 10 -43q78 -5 94 -5q57 0 98.5 3t100.5 9t110 11l17 10q4 13 4 35q0 50 -31 92q-12 21 -36.5 52.5l-45.5 58.5q-20 16 -42 21.5 t-75 13.5q-29 0 -55 -11.5t-44.5 -28t-41 -42t-37.5 -43.5q-1 -27 -13.5 -69t-12.5 -64z" />
<glyph unicode="f" horiz-adv-x="1049" d="M70 707q3 30 19.5 51.5t41.5 37.5t48 25.5t52 22.5q14 -1 27.5 -2.5t29 -3.5t23.5 -2q11 0 31 4q0 33 -4 74t-4 57q0 20 6 43q9 131 43 225.5t123 157.5q29 26 59 31t91 7t92 15q40 0 106.5 -29.5t95.5 -34.5q11 -8 16.5 -20.5t7.5 -32.5t5 -28q-18 -40 -66 -52 q-18 -5 -88 -10q-94 23 -139 23q-89 0 -137 -56q-13 -15 -19 -34.5t-8.5 -44t-5.5 -46.5q0 -22 -6 -45v2l-12 -200q0 -8 9 -11t13 -4h-2q57 2 81.5 4.5t105 12.5t112.5 12q6 -8 23 -8q18 0 28 2q7 0 19 -4q28 -27 28 -101q-33 -24 -73 -35t-99 -21t-88 -17h-73 q-45 0 -66 -13q3 -48 19 -180q0 -17 2 -44.5t4 -63.5q0 -52 -4 -76q4 -32 4 -51v-64q0 -57 12 -94l-2 -143q-10 -35 -47 -39q-70 0 -86 39q0 31 -8 51t-31 31q-17 24 -17 55q0 16 7 35q28 47 28 168q-9 49 -12 95.5t-4.5 98.5t-3.5 103q-7 8 -9 30t-5.5 32t-16.5 11 q-37 15 -80 15q-36 0 -78 -11q-11 -15 -36 -22l-15 -2q-19 1 -31 12.5t-21.5 31.5t-14.5 30z" />
<glyph unicode="g" horiz-adv-x="1006" d="M70 500q0 52 30 94q30 31 39 72q17 18 87 94t114 112q105 86 211 86q15 0 47 -4q24 -14 50.5 -29t47.5 -29.5t35 -31.5q13 0 23 19q9 23 18 30q44 29 74 29q13 0 28 -6q40 -18 51 -58t11 -124q-8 -31 -8 -92q0 -23 -2 -33q4 -40 6 -86.5t4 -73.5q-16 -18 -16 -59 q0 -43 -7 -66q7 -22 7 -68q0 -53 -2 -79q12 -58 12 -115q0 -166 -111 -295q0 -57 -18 -78l-107 -53q-140 -21 -203.5 -28t-123.5 -7q-19 15 -40 20.5t-58.5 11.5t-39.5 7l-20 10q-16 28 -25.5 47t-16.5 43t-7 52q29 26 50.5 38.5t57.5 12.5q21 -4 42 -18.5t40 -28.5 q43 0 127 -37q44 -21 76 -21q25 0 51 13q96 16 158 96q24 29 24 84q0 46 -16 110l-6 5q-160 -54 -289 -54q-123 0 -209 54q-39 31 -71 106q-35 81 -60 109q-10 32 -27.5 75.5t-27.5 77t-10 66.5zM272 418q0 -71 37 -109q22 -16 34.5 -60t16.5 -50q17 -43 49.5 -56.5 t84.5 -15.5q19 0 57 -4q38 9 102.5 47t89.5 49q11 21 11 57q0 30 -4 74v47q14 20 14 84q-14 68 -14 88q-19 27 -19 66q0 10 2 34t2 36l-51 43q-10 12 -27 12q-12 0 -31 -5t-24 -5q-4 0 -16 4q-15 4 -45 4q-20 0 -38.5 -3t-35.5 -7.5t-39 -11.5t-43 -13q-44 -13 -63 -46.5 t-25 -77.5t-14 -93q-11 -46 -11 -88z" />
<glyph unicode="h" horiz-adv-x="944" d="M70 707q13 70 36 120v76q0 121 -30 182q0 30 5.5 50.5t15 42.5t18.5 41q-4 14 -9.5 32.5t-9.5 40.5t-4 33q0 47 37 76q21 12 49 12q45 0 72 -27q31 -89 31 -131q0 -36 -15 -69q0 -91 8 -162q25 9 41 32.5t33.5 49t42.5 35.5q58 12 121 12q104 0 168 -43q25 -21 41 -56.5 t34.5 -76t39.5 -62.5q49 -192 49 -344q0 -75 -8 -135q4 -14 11 -61t23 -68v-16q0 -10 4 -12q-3 -16 -10 -43.5t-14 -51.5q-14 -42 -19 -96q11 -35 11 -72q0 -57 -37 -84q-23 0 -49 7.5t-29 7.5q-4 14 -20.5 49t-22.5 51q-10 27 -10 49q0 27 18 56q2 14 6 74.5t17 95.5 q0 12 2 36t2 35q0 30 -21 47q11 24 11 39q0 19 -9 51q-4 26 -4 35q0 29 21 49q-10 27 -10 84q-4 59 -19 82q-2 26 -28.5 70t-30.5 61q-40 25 -80 25q-51 0 -96.5 -24t-110.5 -70q-19 -19 -49 -77.5t-64 -80.5q0 -88 7 -168q6 -49 6 -98q0 -38 -6 -76q-11 -125 -15 -317 q-9 -12 -12 -27t-5 -31.5t-8.5 -28.5t-21.5 -22q-55 0 -65 23q-7 32 -7 100q0 31 3 90.5t4 91.5q-5 23 -5 66q5 88 5 127q-5 154 -39 293z" />
<glyph unicode="i" horiz-adv-x="676" d="M70 41q6 2 20 13t19 14q16 8 22 8q9 0 21 -8q21 1 75 12t88 12q7 33 7 55q0 42 -14.5 111.5t-16.5 97.5q0 60 2 93q0 24 -2 72t-2 71q0 75 14 121q-5 51 -10 69q-10 37 -37 52q-14 -7 -33 -7q-13 0 -45.5 10.5t-42.5 12.5q-53 41 -53 121q18 14 38 28.5t43.5 24.5 t53.5 10q29 9 68 12.5t86 8.5q45 0 69 -45q0 -27 10.5 -88.5t10.5 -114.5q10 -29 10 -66q0 -36 -15 -102.5t-16 -95.5q-4 -4 -4 -15q0 -10 4 -26q0 -10 -2 -17q-6 -14 -6 -43q1 -21 1.5 -39.5t0.5 -66.5q15 -68 15 -84q0 -23 -5 -35l19 -131q18 -8 67 -8q52 0 76 -4 q10 -10 10 -25q0 -13 -10 -43q-9 -7 -20 -19t-19 -18q-19 -16 -47 -16q-78 8 -121 8q-58 0 -104 -14q-24 16 -70 16q-22 0 -36 -0.5t-31 -1.5q-45 0 -70 23q-18 16 -18 57zM233 1257q31 53 61 84.5t73 47.5q15 6 55 6q2 -13 18 -23l6 -4q12 -7 15 -18q12 -31 12 -66 q0 -52 -33 -80q-15 -15 -37 -22.5t-49 -12l-51 -8.5q-18 5 -30 20t-23.5 41.5t-16.5 34.5z" />
<glyph unicode="j" horiz-adv-x="684" d="M70 -270q0 12 12 18l4 4q12 9 12 25q6 5 19 16t25 17t26 6q41 -43 78 -43h-2q12 4 33 7.5t42 8t34.5 11.5t23.5 22q16 32 35.5 64.5t31 59t11.5 58.5q0 26 -9 47l13 53q-20 34 -26.5 76t-12.5 82q-8 36 -17 51q15 17 15 47q0 11 -4 41t-4 52q14 39 14 86q0 37 -9 102 t-9 88q0 17 4 45q11 59 17 81t36 38q9 9 33 20q28 10 41 17l10 -19q-8 -21 -8 -49q0 -18 2.5 -36t6 -33t7.5 -39q4 -17 4 -54q22 -36 29 -72.5t12.5 -99.5t13.5 -98q4 -16 4 -47q-4 -54 -10 -82q-24 -86 -26 -127q-4 -82 -26 -175.5t-52 -193.5q-5 -25 -22.5 -42.5 t-52 -38.5t-42.5 -27q-86 -49 -170 -49q-50 0 -94 20q-9 9 -23 18t-22 20t-8 24zM350 1210q0 11 4 17q22 32 76 51q105 -12 141 -66q17 -34 17 -77q0 -30 -6 -56q-10 -7 -17 -20q-9 -15 -14.5 -23.5t-10.5 -14.5t-11.5 -10.5t-18.5 -9.5q-16 -4 -25 -4q-24 0 -75 23 q-15 36 -32.5 84t-23.5 61q0 12 -2 26t-2 19z" />
<glyph unicode="k" horiz-adv-x="881" d="M70 1094q0 21 4 64t4 65q0 28 -6 55q0 23 10 39.5t35 44.5q24 0 54 6t40 6q19 0 35 -10q18 -30 18 -74q0 -21 -8 -65q-23 -108 -23 -146q0 -18 -1.5 -48t-3 -60.5t-1.5 -48.5q0 -41 11 -82l6 -92q36 0 59 32q34 44 59 58q26 10 43 48t23 46q54 65 119 137q72 79 131 123 q29 18 63 18q19 0 29 -4q37 -20 37 -69q0 -12 -5 -38t-7 -38l-27 -45q-11 -13 -68 -72t-85.5 -92.5t-51.5 -71.5q-8 -10 -18.5 -19t-22.5 -20q-34 -29 -43 -41q-33 -41 -33 -65q0 -16 9 -31q12 -37 47.5 -105t48.5 -108q41 -29 74.5 -62.5t89 -99t67.5 -77.5q4 -13 16 -33.5 t13 -24.5q10 -17 10 -33q0 -13 -10 -30q-8 -14 -27 -21q-5 -2 -12.5 -3t-19.5 -3q-61 19 -110 68.5t-56 107.5q-12 28 -33 46t-54.5 40t-49.5 35q-22 20 -52 70q-27 46 -51 63q-25 37 -43 37q-15 0 -18 -12q10 -36 10 -86q0 -24 -4 -70q0 -4 -10 -61t-13 -90 q-2 -18 -2 -59.5t-2 -61.5q-7 -72 -61 -92q-73 0 -105 51q-8 35 -8 80q3 87 25 166q6 39 6 79q0 51 -10 113q-6 42 -10 68.5t-9.5 71t-5.5 48.5q2 25 2 74q0 76 -5 194t-5 146q-8 28 -8 64z" />
<glyph unicode="l" horiz-adv-x="389" d="M70 88q0 32 28 43q20 6 39 279q0 26 -2 94t-2 119q16 169 29 215q-14 51 -23.5 120.5t-9.5 122.5q0 50 8 74q0 10 -8 82t-8 80q5 35 24 72q11 16 34 31.5t42 15.5q4 0 12 -4q54 0 54 -134v-38q0 -41 4 -52q12 -32 16 -96t10 -88q-12 -56 -12 -334q0 -333 12 -420 q-6 -10 -6 -51q8 -36 8 -57q-11 -57 -41 -135.5t-67 -81.5q-43 0 -92 51t-49 92z" />
<glyph unicode="m" horiz-adv-x="1130" d="M66 696q0 72 24 129q19 42 19 97q0 49 -19 127v69q19 0 49 17q16 8 23 8q11 0 20 -13q20 0 29.5 -3.5t9.5 -22.5q2 -10 3 -19.5t3 -15.5q6 -16 21 -18q16 0 41.5 6.5t50 14.5t42.5 13t40 5q30 0 53 -13q43 -22 92 -22t143 30.5t134 34.5q55 0 92 -8t59 -35 q66 -100 66 -184q0 -38 -17 -80q8 -24 8 -73.5t7 -73.5l-12 -68q-3 -29 -3 -66q0 -36 6.5 -68t6.5 -79q-7 -102 -9.5 -125.5t-3.5 -23.5q0 -28 -15 -70t-15 -57t4 -39q4 -7 4 -21q0 -11 -4 -37q-19 -22 -62 -22q-52 0 -57 18q-6 6 -6 19q1 5 1.5 9.5t0.5 10.5q0 23 -14 27 q8 13 8 35q0 31 -27 96q-4 66 -4 106q0 13 4 41q6 16 12.5 31t9.5 23t3 18t4 30t6 38q14 24 14 59q0 13 -0.5 19t-1.5 14.5t-2.5 16.5t-1.5 15q0 26 13 48q-9 26 -9 69v74q-7 84 -59 113q-20 4 -27 4q-22 0 -64 -14.5t-61 -16.5q-62 -49 -65 -154q1 -25 1.5 -46t0.5 -56 q0 -51 -6 -76q-3 -202 -7 -296t-22 -187v2q0 -8 2 -25t2 -26q0 -33 -14 -45q-19 -27 -49 -27q-15 0 -23 4q-23 7 -41 47q0 61 4 87.5t15.5 94t11.5 101.5q0 45 -12 80q1 11 5 30t6.5 37t2.5 35q0 20 -6 41l2 55q-25 125 -25 185q0 26 2 41q-4 72 -47 98q-5 -1 -51 -8 t-66 -13q-65 -22 -75 -73q-1 -12 -8.5 -21t-18.5 -18.5t-18 -14.5q2 -37 4.5 -77t15.5 -70q-6 -39 -6 -115q0 -31 2 -93t2 -93q0 -91 -14 -152v2q0 -15 8 -53q20 -70 20 -86q0 -45 -38 -65q-78 0 -99 45q-24 60 -24 143q0 38 6 111t6 106q8 39 8 84q-2 51 -14 158 q-10 58 -10 106z" />
<glyph unicode="n" horiz-adv-x="922" d="M70 975q0 9 15 25t19 24v25q3 8 5 14.5t4 14.5t4 18q10 28 37 39q31 -20 43 -28t20 -28q0 -26 2 -41q5 -16 17 -41q6 -4 24 -26q7 -10 27 -10q44 44 91.5 62.5t153.5 49.5q15 -4 46 -6t45 -4q51 -4 77 -41q67 -27 89 -89t30 -163q25 -51 25 -121q0 -40 -6 -84 q-9 -88 -9 -119q0 -42 13 -92q-3 -76 -6 -144.5t-11 -109.5q0 -24 13.5 -67t13.5 -62q0 -25 -21 -49q-27 -18 -49 -18q-16 0 -24 4q-11 1 -33 10.5t-45 9.5q-2 2 -2 19l2 2q4 4 4 10q-4 18 -7.5 29.5t-6 24.5t-2.5 28q0 13 6 33q-12 33 -12 65q0 16 3.5 40t9 48t11.5 56 q2 24 2 73q-8 60 -8 133q1 34 1.5 63.5t0.5 94.5q-8 21 -17.5 86.5t-21.5 103t-43 66.5q-27 10 -51 10q-13 0 -30.5 -3t-41.5 -8.5t-39 -8.5q-27 -6 -55 -6q-23 -21 -61 -29q-3 -17 -23 -57t-29.5 -66.5t-9.5 -64.5q0 -28 2.5 -55.5t6 -57.5t5.5 -72q0 -61 -12 -98 q-3 -54 -7.5 -110t-4.5 -105q0 -46 6 -96q-9 -12 -12 -30t-5.5 -36t-11 -30.5t-28.5 -16.5q-37 0 -52 21t-30 63q-15 30 -19 35q-10 58 -10 106q0 53 12 103q0 33 -4 51q0 10 1.5 27t4.5 22q-4 27 -4 78q2 46 2.5 71.5t1.5 57.5v23q0 73 -12 120q-16 66 -16 129q0 42 6 84 q-10 15 -10 21z" />
<glyph unicode="o" horiz-adv-x="993" d="M70 504q0 19 9 100t9 148q7 40 25.5 73t43 61t58.5 68q33 42 41 68q25 22 57 22q14 0 40 -4t38 -4q34 0 55 25q79 22 132 22q62 0 110 -30q15 -17 40 -38t34 -30q25 -29 40 -67.5t29 -96.5q7 -29 13.5 -58.5t15 -57t21.5 -52.5q3 -23 7.5 -67t13.5 -77t22 -58 q2 -17 2 -48q0 -94 -31 -178q-7 -56 -47 -119q-26 -34 -41 -53t-35 -49q-36 -25 -118.5 -29.5t-94.5 -7.5q-29 -24 -76 -24q-9 0 -39 4q-47 9 -116 41q-114 51 -180 177t-66 259q-12 40 -12 80zM264 616q0 -23 2 -56t4 -75q6 -22 8 -70t5 -71q7 -84 57 -129q90 -86 172 -86 q21 0 39 6q84 26 144 82t81 135q-14 52 -14 113q0 16 2 41t4 59q0 47 -9.5 96.5t-30 110.5t-26.5 84q-35 40 -50.5 55.5t-37.5 26.5q-29 16 -67 16q-47 0 -129 -36q-23 -108 -103 -138q-30 -30 -39.5 -69t-11.5 -95z" />
<glyph unicode="p" horiz-adv-x="1006" d="M70 932q0 63 32 104q2 25 36.5 37.5t39.5 16.5q13 0 31 -9.5t31 -9.5q12 -18 12 -65q0 -48 20 -60q12 6 32.5 24.5t32.5 27.5t30 10q60 16 143 16q76 0 164 -10q116 -114 143 -238q55 -90 87 -169.5t32 -157.5q0 -61 -21 -113q-18 -48 -31 -83.5t-30 -68.5 q-43 -83 -109 -123q-12 -16 -31 -30t-47 -30t-34 -21l-146 -5l-172 35l-12 -18q4 -58 4 -82q0 -84 -28 -139q18 -41 18 -78q0 -46 -27 -76q-20 -10 -71 -10q-62 30 -62 104q0 23 8.5 73.5t8.5 84.5q-6 43 -8.5 88.5t-3 98t-1.5 81.5q-3 156 -26 264q0 45 -11 80 q-10 43 -10 51q0 7 4 27q-10 34 -10 82q0 15 1.5 41.5t3 52.5t1.5 41q0 39 -8 70q-16 42 -16 86zM305 823v2q0 -39 8 -125q2 -18 3.5 -35t2 -22.5t0.5 -24.5q0 -30 -2 -47q-6 -59 -6 -180q2 -61 2 -184q34 -58 113 -76q30 -6 76.5 -8t68.5 -4q32 8 66.5 55t44.5 57 q8 26 57 131q33 76 33 140q4 20 4 28q0 28 -18 66q-11 19 -64 82v12q-16 8 -28 22.5t-28 39t-32.5 41t-36.5 22.5q-44 2 -65.5 5t-89.5 12t-82 10q-8 -3 -17 -7.5t-10 -11.5z" />
<glyph unicode="q" horiz-adv-x="934" d="M70 582q7 81 23 146t53.5 120.5t99.5 87.5q43 35 87 52.5t126 43.5q39 0 88 -18.5t86 -18.5q10 14 10 33q0 7 -2 22t-2 21q0 28 20 43q32 30 52.5 43.5t46.5 13.5q17 -6 33.5 -33t25.5 -32q4 -10 4 -31q0 -22 -7.5 -52t-8.5 -48q12 -43 16 -131q4 -83 23 -127 q0 -51 -5.5 -74t-21.5 -37q10 -40 14.5 -89t7 -111.5t5.5 -94.5q6 -42 6 -84q0 -31 -4 -94t-4 -94q-21 -46 -21 -109q0 -51 15 -88q28 -14 28 -41q0 -71 -47 -102q-76 0 -115 76q-3 17 -18 54t-18 50q9 29 13 78t11 74q-17 0 -28 -8q-24 -24 -33 -27q-110 -57 -197 -57 q-176 0 -258 141q-9 14 -27.5 38t-29.5 42q-41 52 -41 139q0 43 14 90q-18 30 -18 72q0 14 2 39t2 37q0 22 -6 45zM240 580q0 -94 16 -177.5t55 -150.5q28 -17 44.5 -47t41.5 -74q18 -2 49 -20t50 -19q23 22 78 46.5t77 43.5q39 19 39 70q0 5 -6 53q0 136 -6 231.5 t-25 176.5l17 123l-17 18q-4 4 -30 4h-13q-177 -4 -276 -104q-18 -18 -33 -54t-27 -67.5t-34 -52.5z" />
<glyph unicode="r" horiz-adv-x="936" d="M70 76q0 14 6 49t6 53q-4 23 -4 70q0 88 22 147l58 281q-14 86 -58 237q0 21 7 38t20 36.5t24.5 40t14.5 37.5q22 25 88 37l49 -72q6 -15 6 -33q0 -22 -2 -32q0 -41 17 -54q12 3 19.5 14t15.5 25t20 21q116 69 254 69q99 0 174 -41q44 -26 59 -100q-11 -33 -39 -56.5 t-61 -27.5q-12 0 -21.5 3.5t-14.5 6.5t-23 13q-7 29 -12.5 44t-24.5 23q-31 15 -62 15q-23 0 -45.5 -5.5t-46.5 -14t-43 -13.5q-30 -14 -42.5 -34.5t-27 -60.5t-26.5 -57q0 -33 -23 -67q-6 -8 -32 -21q-21 -11 -25 -24q8 -28 8 -64q0 -31 -11 -95.5t-13 -94.5 q-13 -101 -13 -142q21 -10 25 -26q-4 -15 -4 -43q0 -13 2 -33.5t4 -46.5q4 -30 4 -41q0 -48 -25 -84q-27 -31 -106 -31q-18 7 -29.5 30.5t-21.5 43.5t-29 24q-18 22 -18 56z" />
<glyph unicode="s" horiz-adv-x="928" d="M78 236q0 34 8 59q17 42 76 72q33 0 51.5 -15.5t36 -54.5t18.5 -41q22 -31 37 -41l2 -18q20 -47 61 -76t93 -37q29 10 87 26t85 27q33 10 33 43q0 6 -2 30t-2 44q-16 52 -55.5 87.5t-109.5 74.5t-94 57q-39 0 -70.5 19.5t-75.5 58.5t-67 53q-61 61 -61 162q0 44 12 88 q28 73 83 127.5t128.5 88.5t147.5 48q39 0 86.5 -19t66.5 -20q56 -46 91.5 -84t50.5 -84q51 -51 51 -114q0 -11 -4 -31q-19 -25 -29 -35t-25 -10q-49 0 -71.5 7.5t-40.5 29.5q-8 7 -21 19.5t-16 19.5q-1 2 -2 22.5t-4 32.5q-3 27 -23 43q-40 33 -100 33q-42 0 -86 -21 q-41 -13 -72.5 -40.5t-46.5 -65.5l-4 -58q28 -24 57 -61q41 -43 58 -55q57 -6 110.5 -31.5t128 -74.5t107.5 -66q104 -102 104 -219q0 -16 -4 -50q-3 -60 -30.5 -111t-79.5 -71q-25 -35 -61 -46t-95.5 -11.5t-79.5 -3.5q-118 26 -207 59q-20 14 -58 44.5t-68.5 48.5 t-65.5 26q-39 48 -39 115z" />
<glyph unicode="t" horiz-adv-x="936" d="M88 999q0 11 6 23l62 49l75 -10q23 2 62.5 15.5t66.5 13.5q13 17 13 40q0 19 -6.5 47t-6.5 44q0 27 17 51q0 30 35 67q10 15 14 23q17 0 28.5 -0.5t24.5 -1.5q47 0 76 20q10 0 16 -5.5t12 -13.5t11 -15q-2 -22 -25 -82q-14 -35 -14 -80q2 -4 3 -7t3 -9.5t2 -10.5 q0 -12 -4 -16q-3 -4 -5.5 -7.5t-6.5 -9.5q-7 -5 -15 -14q-8 -8 -8 -16t6 -17q20 -14 43.5 -18t61.5 -4q99 16 113 16q14 1 26 1.5t31 0.5q42 0 63 -16q17 -15 17 -64q-5 -18 -23 -35q-14 -9 -37 -20q-16 4 -47 4q-17 0 -49 -2t-47 -2q-33 0 -51 2q-32 0 -82 -29 q20 -75 20 -137q0 -54 -20 -104q0 -29 -9.5 -88.5t-9.5 -79.5q0 -33 9 -60q0 -39 -0.5 -65t-1.5 -58q0 -120 36 -184q23 -37 60 -48t94 -11h68q23 -7 43 -47q0 -76 -47 -103q-107 -41 -179 -41q-88 0 -139 54q-18 13 -28.5 32.5t-15 38t-11.5 51.5q-7 29 -15 43 q-22 48 -22 115q0 59 22 176q0 56 -8 161t-8 157q0 39 2 57q-6 21 -13 46t-10.5 47t-3.5 36q-13 12 -48 14t-48 9q-8 4 -26 4q-12 -1 -21.5 -1.5t-23.5 -2.5q-19 0 -27 2q-8 11 -25 20q-27 15 -41 26.5t-14 28.5z" />
<glyph unicode="u" horiz-adv-x="920" d="M72 979q0 85 57 115q45 0 55 -4q12 -7 20 -17.5t17 -26t17 -24.5q16 -33 16 -72q0 -33 -25 -131q-6 -27 -6 -55q0 -35 15 -64q5 -20 8 -56t3.5 -63t2.5 -69q4 -42 8 -59l4 -70q0 -40 -0.5 -64.5t-1.5 -54.5q0 -69 19 -112q13 -32 67 -72q18 0 45 -2t51 -4q26 0 47.5 5.5 t36.5 20.5l48 64t48.5 59.5t57.5 55.5q8 24 8 55q0 13 -2 41t-2 41q2 14 3 25.5t3 17.5q-4 45 -7.5 80t-4.5 57q0 90 4 137q0 78 -12 125q-2 18 -4 34t-2 26q0 33 12 63q0 46 14 80q24 20 60 20q17 -1 29.5 -12.5t26 -31t23.5 -29.5q19 -47 19 -115q0 -51 -15 -144t-16 -131 q-1 -23 -9 -51t-15 -55q22 -43 22 -94q0 -29 -5 -88t-5 -90q-14 -68 -14 -121q0 -81 38 -137q0 -25 -4 -35q-4 -9 -18 -27q-21 -14 -74 -14q-29 16 -38 34.5t-28 68.5t-38 71q-90 -105 -228 -105q-3 0 -48.5 4.5t-71 12.5t-45.5 31q-50 21 -64 54.5t-27 103t-36 100.5 q0 22 -14.5 57.5t-16.5 52.5q-4 37 -4 107q0 47 4 138t4 136q0 32 -4 92q0 18 -4 57t-4 58z" />
<glyph unicode="v" horiz-adv-x="940" d="M70 989q0 65 28 78q8 1 25.5 5t23.5 5q13 0 29 -4q59 -33 85.5 -88t43 -160t17.5 -110q0 -87 102 -148q20 -37 20 -112q2 -74 3.5 -126.5t15.5 -95.5q17 0 31 31q12 45 69 158q50 94 58 166q10 68 38 192q27 114 29 197q0 15 -5 40t-5 30q0 20 14 34q27 29 86 29 q28 0 78 -4l14 -23q-2 -22 -2 -67q-4 -42 -10 -64q0 -21 -12 -48t-12 -42q0 -6 4 -18q-20 -45 -38.5 -139.5t-43.5 -141.5q-2 -23 -12.5 -48.5t-28.5 -59.5t-26.5 -56.5t-8.5 -50.5q-2 -61 -43 -141q-10 -22 -30.5 -60.5t-33.5 -72.5q-3 -9 -5.5 -18.5t-6 -18.5t-8.5 -19 q-13 -29 -41 -47q-8 -4 -20 -4q-18 0 -39.5 23t-26.5 26q-13 9 -33 9q-35 29 -53.5 69.5t-37.5 108.5t-32 98q-11 49 -34 150t-31 153q10 12 10 29q0 12 -4 21t-13.5 26t-15.5 29q-35 58 -61 127t-51 153z" />
<glyph unicode="w" horiz-adv-x="1137" d="M70 950q1 13 1.5 24t0.5 40q12 7 34 19t30 15t28.5 8t48.5 5q58 -14 86 -41q10 -16 14 -53q0 -39 2 -62q-26 -21 -26 -57q0 -17 11 -52t15 -51q1 -41 17 -85t38 -96.5t27 -92.5q21 0 37 29q20 35 36.5 98.5t31 113t41.5 83.5q0 16 -5.5 42t-5.5 27q0 22 27 33 q8 5 41 20.5t45 26.5q6 6 14 6q18 0 27 -22q16 -44 16 -99q0 -54 -20 -116q0 -22 5.5 -50.5t15.5 -58t14 -43.5q6 -24 6 -51q13 -19 20.5 -38.5t23 -62t26.5 -61.5q9 -55 14 -80q12 6 12 27q-4 12 -11 32t-7 31q0 12 6 27q33 25 40 56.5t7.5 82.5t9.5 78q8 31 8 96 q0 64 13 93q18 147 18 294q7 22 24.5 38t39.5 22q45 0 61 -17q7 -35 17 -88t22 -98q-27 -241 -55 -367q4 -28 4 -40q0 -34 -11 -74t-22.5 -80t-11.5 -74q-27 -25 -32 -59.5t-11 -79.5t-25 -70q0 -53 -49 -141q-11 -25 -43 -25q-20 0 -31 7q-8 9 -37 36.5t-43.5 49 t-15.5 49.5q-6 35 -7.5 54.5t-4 53.5t-4.5 62q-11 98 -43 159q-3 5 -7 11t-10 12q-7 10 -16 10q-10 -21 -21.5 -60t-19.5 -74t-18.5 -69t-28.5 -61q-36 -74 -65.5 -134.5t-41.5 -84.5q-18 -19 -73 -19q-28 7 -43 37q0 22 8 68q0 39 -19 55q-43 59 -60.5 128t-30 170.5 t-25.5 160.5q0 69 -11 115q-10 47 -10 110q0 25 -8 45t-19.5 39.5t-23.5 43.5t-12 44z" />
<glyph unicode="x" horiz-adv-x="1006" d="M70 -51q0 12 9.5 34t10.5 25q67 92 133 194.5t158 254.5q-1 58 -31.5 113.5t-63 116.5t-34.5 112q-1 41 -17 66t-59.5 84.5t-52.5 97.5q6 53 59 71q22 0 43 -17.5t25 -19.5q70 -16 84 -71q54 -59 90 -150q9 -26 17 -67.5t17.5 -70t30.5 -50.5q33 9 64 57q57 84 79.5 119 t35.5 84q32 26 60.5 55.5t55.5 58t52 48.5q12 6 26 6q24 0 43 -17q25 -19 25 -100q-23 -24 -40.5 -52.5t-41.5 -72.5q-40 -78 -88 -119q-17 -48 -86 -125q-34 -41 -53.5 -66.5t-28.5 -55.5q6 -18 15 -38.5t16.5 -38.5t9.5 -34q17 -10 29 -25t23.5 -37t19.5 -34 q11 -20 22 -31q15 -23 26 -36.5t31 -39.5q36 -45 54 -78q10 -9 36.5 -11t41 -7.5t18.5 -28.5q0 -82 -74 -137q-33 0 -54 2t-41.5 13.5t-31.5 33.5q-20 24 -43 88q-12 19 -34 58t-43 63t-50 37q-4 0 -37 5.5t-49 6.5q-43 0 -61 -30q-17 -22 -40.5 -61.5t-41.5 -67t-41 -50 t-57 -37.5q-30 -38 -46 -52.5t-47 -14.5q-6 2 -31.5 5t-33.5 11q-8 11 -8 23z" />
<glyph unicode="y" horiz-adv-x="999" d="M70 -256q0 17 12 35q2 3 6.5 14.5t9.5 17.5t15 9q26 0 41 2q24 0 39 -4q12 -14 26 -29t30 -24t40 -9q18 3 36 15.5t21 31.5q4 52 4 158q0 102 10 154q-15 60 -61 160t-61 141q-32 84 -49 130t-41.5 118.5t-45.5 136.5q4 14 6.5 39.5t9 41.5t23.5 27q8 3 23.5 10.5 t28.5 8.5q15 0 26 -8q45 -28 58 -66t28 -116t37 -111q7 -90 66 -228q68 -161 84 -219l49 -33q89 120 98 285q11 35 29.5 110t32 123t30.5 91v69q0 54 14 91.5t56 54.5q72 0 98 -45q20 -37 31 -95q-22 -42 -51 -145q-33 -109 -52 -147q-17 -33 -37.5 -95t-37 -108.5 t-41.5 -83.5l-41 -131q-62 -111 -70 -211q-13 -20 -16 -41t-6.5 -49t-12.5 -45q-68 -135 -200 -181q-44 -14 -76 -14q-89 0 -156 64q-3 5 -22.5 26.5t-30 39.5t-10.5 34z" />
<glyph unicode="z" horiz-adv-x="911" d="M72 4q16 43 38.5 83t48.5 76.5t71.5 96t52.5 68.5q13 20 19 45t13.5 53.5t18.5 44.5q18 28 47.5 73.5t50.5 84t35 82.5q68 75 68 139q0 5 -5 33q-25 0 -65 -15q-12 -4 -25 -4q-98 0 -161 39q-7 4 -15 4q-9 0 -24 -10t-25 -10q-4 0 -16 4q-21 10 -47 20.5t-42 20t-30 29.5 q31 94 102 112q25 35 62 47q58 -6 112 -28q76 -28 107 -35q29 0 97 8t114 8q16 -14 41.5 -17t54 -5t47.5 -13q21 -12 25 -59q-12 -65 -86 -154q-12 -15 -36.5 -44.5t-39.5 -50t-27 -48.5q-16 -29 -49.5 -78t-65 -94t-51.5 -82q0 -43 -18 -73.5t-60 -85.5t-55 -89 q48 -53 140 -53q43 0 94 14q14 -6 45 -6q37 0 55 2q74 0 94 -18q36 0 54 -39q4 -12 4 -19q0 -10 -3 -16t-9 -15t-11 -16l-33 -14h-206q-41 -10 -129 -10l-170 -56q-22 -12 -39 -12q-13 0 -27.5 5.5t-35 16t-30.5 13.5q-7 1 -14 1.5t-31 0.5q-16 13 -23 21.5t-7 23.5z" />
<glyph unicode="{" horiz-adv-x="745" d="M70 664q0 23 11.5 41.5t35 46.5t30.5 41q108 64 129 219q7 37 9 68t2.5 59.5t2 61.5t5.5 75q0 32 -29 88q-10 20 -10 37t14 35q26 69 54.5 126.5t73 100t108.5 49.5q34 0 92 10q26 0 38.5 -4.5t20.5 -23.5q5 -20 5 -23q0 -23 -21 -51q-42 -53 -47 -74q-40 -23 -64 -46.5 t-24 -63.5q0 -15 5 -28.5t14.5 -31.5t17.5 -33q14 -24 14 -43q0 -18 -12 -36q-42 -39 -59.5 -90.5t-25.5 -128t-16 -113.5q-18 -67 -47 -103q-6 -16 -6 -53q3 -72 43 -119q31 -63 31 -151q0 -41 -8 -118t-11 -132q0 -149 68 -242q44 -8 73 -37.5t56 -76.5q8 -13 15.5 -25.5 t15.5 -26.5q0 -57 -12 -83.5t-46 -32.5q-19 -11 -41 -11q-18 0 -40 11q-4 1 -20.5 10t-30 17.5t-25.5 15.5q-33 14 -60 14q-23 17 -40 42.5t-26 48.5t-19 58t-21 60q-14 69 -14 182q0 32 2 110t2 126q0 83 -11 143q-7 8 -12.5 17t-13.5 22q-16 25 -41 27q-7 0 -22 -1.5 t-30 -3.5t-22 -2q-36 0 -55 19q-6 15 -6 27z" />
<glyph unicode="|" horiz-adv-x="395" d="M70 256q0 35 9.5 66t24.5 65t31 72q0 30 -10 92t-10 94q0 26 6 53q0 140 -21 236q0 35 -7 86t-7 76q10 52 16.5 117t12.5 126q0 19 10 28t37 28q8 4 24 4q20 0 51 -15.5t37 -17.5l43 -61q19 -42 19 -88q0 -39 -10 -82q4 -26 4 -37q0 -16 -3 -37t-8 -53q5 -75 5 -136 q0 -168 -48 -274q5 -16 5 -49q0 -25 -0.5 -40t-1.5 -34q0 -45 10 -74q-2 -34 -13.5 -97.5t-11.5 -102.5q0 -63 29 -111q0 -3 9.5 -66.5t10.5 -78.5q0 -58 -5.5 -86t-26.5 -31q-111 0 -150 53q-12 12 -12 33q0 11 6 35t6 37q0 8 -4 20q4 20 4 31q0 35 -25 92t-30 76 q-6 27 -6 51z" />
<glyph unicode="}" horiz-adv-x="954" d="M70 -229q2 24 3 44t3 33q7 43 24 60q19 18 37 18q5 0 25 -4q8 -2 24 -10q42 -16 68 -16q34 0 65 28q76 31 93 121q0 4 4 61t10 89q-6 21 -6 41q0 25 6 57q10 65 10 80q0 9 -4 39q0 49 7 90t20.5 90t17.5 67q9 49 12 101q-27 32 -35 66t-8 83q0 31 2.5 63t4.5 64 q0 98 -47 154q-7 86 -13.5 127.5t-31.5 86.5t-78 75q-30 6 -62 49q-25 32 -38.5 47t-35.5 24q-18 19 -18 50q0 14 6 26q2 13 27 23l12 2q34 -12 66 -12q14 0 92 10q59 0 86 -8t45 -31l67 -78q21 -22 42.5 -100.5t48.5 -204.5q29 -143 41 -191q25 -99 49 -122 q10 -14 27.5 -24.5t42 -18t38.5 -11.5q57 -17 66 -63q0 -43 -19 -82q-6 -14 -18 -37t-14 -29q-12 -19 -46 -30q-2 -1 -6 -1.5l-8 -1t-6 -1.5q-27 -8 -45.5 -21t-26.5 -45q-7 -15 -16 -38.5t-21 -53.5q-19 -45 -59 -80q-3 -21 -11 -127.5t-14 -153.5q-18 -158 -57 -249 q-65 -62 -133.5 -98.5t-144.5 -37.5q-32 -36 -90 -36h-35q-35 10 -45 47z" />
<glyph unicode="~" horiz-adv-x="846" d="M70 1294q0 20 10 33q14 20 34 32t47 22.5t42 19.5q13 2 47.5 9t52.5 7q26 0 47 -8q24 -9 67 -39t77.5 -46.5t80.5 -16.5q34 0 86 28.5t78 28.5q21 0 37 -8q8 -11 8 -27q0 -15 -10 -37q-107 -94 -264 -94q-26 3 -55.5 16.5t-50 25t-47.5 21t-50 9.5q-19 -8 -50 -26.5 t-53 -28t-44 -9.5q-30 0 -60 27q-30 23 -30 61z" />
<glyph unicode="&#xa1;" horiz-adv-x="426" d="M16 109q0 41 13 73q20 29 20 74q0 20 -0.5 32t-1.5 27q0 29 4 43q17 61 17 131q0 57 -10.5 150t-10.5 141q0 47 10 105q6 9 13.5 25t15.5 25.5t23 10.5q77 0 129 -86l20 -59q8 -57 8 -129q0 -182 -57 -373q21 -122 51 -172q0 -86 -24 -117q-42 -37 -105 -37q-45 0 -74 27 q-41 45 -41 109zM18 1270q5 4 5 16q0 5 8 8l-6 82q31 42 56.5 66t59.5 24q7 0 23 -4q29 -1 50 -18t52 -53q23 -54 23 -119q0 -73 -31 -125q-30 -37 -82 -37q-54 0 -84 39q-15 11 -25.5 40.5t-19 50.5t-29.5 30z" />
<glyph unicode="&#xa2;" horiz-adv-x="889" d="M70 567q0 275 180 385q17 8 37 15.5t33 16t24 26.5q-2 29 -15.5 79t-13.5 82q0 42 13 70q15 39 34 39q8 0 26 -8t30 -8q11 0 31 12q22 0 41.5 -14.5t23.5 -34.5q0 -45 -11 -97.5t-11 -68.5q0 -24 8 -45q26 -12 55 -28t56.5 -31t50.5 -27t61 -31q20 -14 20 -43 q0 -7 -4 -25q-18 -24 -86 -24q-32 0 -47 -6q-13 -6 -38 -9t-39 -6.5t-23 -19.5q0 -39 -5 -124t-5 -107q0 -77 14 -119q32 -13 70 -13q93 0 137 86q8 17 31 17q21 0 47 -16t26 -31q0 -10 -10 -17q-15 -10 -29.5 -64t-32.5 -85t-65 -35q-25 -1 -67 -10t-80 -17 q-27 -21 -27 -79q0 -13 2 -42t2 -44q0 -46 -14 -68.5t-56 -22.5q-56 15 -63 50q-10 25 -10 69q0 15 2 46t2 48q0 80 -39 119q-86 13 -158.5 67.5t-105.5 131.5q-2 20 -2 61zM172 612q0 -75 39 -118q18 0 56 -20.5t55 -20.5q15 0 26 14q1 20 6.5 85t5.5 99q0 76 -16 140 q-16 34 -41 34q-18 -1 -52.5 -24t-39.5 -25q-39 -84 -39 -164z" />
<glyph unicode="&#xa3;" horiz-adv-x="1036" d="M70 739q0 7 4 23q12 44 59 63q5 2 29.5 4t35.5 9t11 26q1 79 27 154t71 156q92 73 139 99.5t127 26.5q27 -10 67 -24.5t72 -32.5t57 -44t36 -66q8 -15 8 -31q0 -28 -14 -53q-25 -10 -43 -43.5t-32.5 -57t-47.5 -24.5q-19 4 -26 22t-9 52t-5.5 58.5t-14.5 43.5 q-41 39 -89 39q-30 0 -83 -17q-2 -3 -24.5 -20.5t-33.5 -31t-12 -34.5q-4 -44 -4 -75q0 -39 6 -70.5t22.5 -57t45.5 -38.5q23 -9 57 -9q16 1 29.5 1.5t33.5 0.5q48 0 73 -16t28 -65q-18 -37 -76 -37q-20 0 -56 4.5t-65 5.5q-38 0 -55 -12q-23 -45 -23 -158q0 -25 5.5 -127.5 t5.5 -136.5q22 -26 53.5 -46t77 -42.5t73.5 -40.5q49 10 64 30t33.5 72t48.5 88q3 17 5.5 52.5t13.5 59.5t34 34q22 0 35 16t22 16q14 0 29 -10q29 -15 50.5 -38.5t21.5 -47.5q-1 -35 -27.5 -91t-26.5 -87q-25 -20 -49 -70.5t-42 -75.5t-56 -34q-44 -27 -96 -27 q-51 0 -96.5 19t-131.5 65q-20 8 -59 8q-48 0 -115 -18q-12 -10 -34.5 -34.5t-41.5 -37t-42 -12.5t-36 7t-32 24q-8 19 -8 41q0 33 22.5 57.5t65.5 57.5t64.5 59.5t21.5 60.5q0 24 -0.5 38.5t-1.5 43t-2.5 65.5t-1.5 68q0 96 12 146q-5 24 -27 24q-12 0 -42 -10t-46 -10 q-18 0 -28 10q-19 8 -30 26t-11 37z" />
<glyph unicode="&#xa4;" d="M102 811q0 96 36.5 183.5t103.5 154.5t153.5 104t184.5 37q99 0 185.5 -37t153 -103.5t103.5 -153t37 -185.5t-36.5 -184.5t-103 -152.5t-153.5 -103.5t-184 -36.5q-98 0 -184 36t-155 104.5t-105 154.5t-36 182zM246 811q0 -138 98 -236t236 -98q89 0 167 44.5t123 122 t45 167.5t-45 167.5t-123 122t-167 44.5t-166.5 -44.5t-122.5 -122t-45 -167.5z" />
<glyph unicode="&#xa5;" d="M102 811q0 96 36.5 183.5t103.5 154.5t153.5 104t184.5 37q99 0 185.5 -37t153 -103.5t103.5 -153t37 -185.5t-36.5 -184.5t-103 -152.5t-153.5 -103.5t-184 -36.5q-98 0 -184 36t-155 104.5t-105 154.5t-36 182zM246 811q0 -138 98 -236t236 -98q89 0 167 44.5t123 122 t45 167.5t-45 167.5t-123 122t-167 44.5t-166.5 -44.5t-122.5 -122t-45 -167.5z" />
<glyph unicode="&#xa7;" horiz-adv-x="713" d="M63 215q0 21 7 49q11 33 55 60q23 0 37.5 -13t24.5 -36t18 -44q11 -21 26 -34v-15q32 -80 113 -94q22 8 63.5 21.5t63.5 23.5q25 7 25 37q0 5 -2 25t-2 34q-12 44 -40 72.5t-80.5 62.5t-68.5 48q-31 0 -54 17t-55 49t-49 44q-45 55 -45 135q0 37 11 72q27 100 127 164 q-16 14 -46 44t-47 40q-45 55 -45 135q0 36 11 72q25 89 98.5 145.5t163.5 75.5q26 0 61 -16t51 -17q41 -37 63 -63t32 -64q34 -44 34 -121q-11 -18 -63 -18q-14 -2 -23 -4t-12 -2q-16 0 -33 24q-11 20 -20 27l2 4v2h2q-1 10 -2.5 21.5t-3.5 17.5q0 25 -17 35q-22 22 -55 22 q-29 0 -72 -24q-65 -27 -86 -88l-4 -49q25 -25 43 -52q22 -28 41 -45q47 -6 85.5 -27.5t92.5 -61.5t76 -54q78 -81 78 -182q0 -13 -4 -41q-2 -52 -21.5 -93.5t-58.5 -58.5q-17 -27 -49 -41q14 -10 28.5 -19.5t26.5 -19.5q35 -35 56.5 -83.5t21.5 -98.5q0 -13 -4 -41 q-2 -52 -22 -94t-58 -57q-21 -32 -50.5 -41t-76.5 -9q-33 0 -47 -2q-76 19 -152 49q-2 2 -38 33t-58 45.5t-45 20.5q-29 42 -29 96zM225 707l6 -50q9 -9 21 -36t18 -35q11 -13 22.5 -20.5t24.5 -18.5h2q40 -5 84 -31q22 -8 33 -8q18 0 31 8q19 5 27.5 31t13 69t4.5 46 q-11 44 -46 79.5t-85 69.5q-43 0 -68 -14q-63 -24 -88 -90zM317 547h2h-2z" />
<glyph unicode="&#xa8;" horiz-adv-x="690" d="M70 1358q20 55 61 69q20 5 37 5q83 0 137 -66q12 -21 17 -45q0 -11 -7 -27q-19 -42 -57 -51q-15 -6 -31 -6q-21 0 -54 13.5t-50 15.5q-45 43 -53 92zM430 1329q0 20 18.5 52t22.5 44q12 5 39 5q39 0 74 -15q10 -14 18 -24t13.5 -22.5t5.5 -22.5q0 -4 -5 -19 q-35 -48 -94 -70q-81 0 -86 48q-6 12 -6 24z" />
<glyph unicode="&#xa9;" horiz-adv-x="1098" d="M170 1106q0 147 74 276q7 14 29 41t33 46t11 40q0 7 -4 23q3 19 17.5 37.5t31.5 21.5q14 4 15 4q13 0 35 -14t34 -14q28 -6 56 -6q36 0 63 6q20 -7 38.5 -12t34 -15t21.5 -31q5 -19 18.5 -27t40 -17t40.5 -19q76 -50 123 -122.5t53 -158.5q0 -79 -18.5 -133t-65.5 -160 q-20 -24 -45 -41t-60 -34t-59 -31q-77 -18 -141 -18q-147 0 -236 71q-72 59 -127 168q-12 47 -12 119zM279 1114q0 -87 57 -164q73 -96 213 -96q38 0 86 10q69 36 111 72t47 94q3 6 5 26.5t11 28.5q8 28 8 60q0 49 -21.5 95t-56.5 79q-88 38 -153 106l-101 11 q-46 -7 -78.5 -33t-54.5 -65t-36.5 -82t-30.5 -91q-6 -27 -6 -51zM342 1159q0 41 14 76q4 4 35.5 38t53 50t51.5 16q59 0 99 -16t77 -43q10 -10 10 -29q0 -17 -8 -28q-45 -16 -56 -17q-14 0 -26 6q-8 17 -23 17q-10 0 -30.5 -17.5t-32.5 -19.5q-25 -59 -25 -131 q39 -29 74 -29q16 0 25 4q13 2 40 15.5t42 13.5q20 0 30 -23q0 -25 -14.5 -43.5t-40 -38.5t-35.5 -32q-12 -4 -35 -4q-17 0 -33 2.5t-34.5 6t-42.5 5.5q-115 113 -115 221z" />
<glyph unicode="&#xaa;" d="M102 811q0 96 36.5 183.5t103.5 154.5t153.5 104t184.5 37q99 0 185.5 -37t153 -103.5t103.5 -153t37 -185.5t-36.5 -184.5t-103 -152.5t-153.5 -103.5t-184 -36.5q-98 0 -184 36t-155 104.5t-105 154.5t-36 182zM246 811q0 -138 98 -236t236 -98q89 0 167 44.5t123 122 t45 167.5t-45 167.5t-123 122t-167 44.5t-166.5 -44.5t-122.5 -122t-45 -167.5z" />
<glyph unicode="&#xab;" d="M102 811q0 96 36.5 183.5t103.5 154.5t153.5 104t184.5 37q99 0 185.5 -37t153 -103.5t103.5 -153t37 -185.5t-36.5 -184.5t-103 -152.5t-153.5 -103.5t-184 -36.5q-98 0 -184 36t-155 104.5t-105 154.5t-36 182zM246 811q0 -138 98 -236t236 -98q89 0 167 44.5t123 122 t45 167.5t-45 167.5t-123 122t-167 44.5t-166.5 -44.5t-122.5 -122t-45 -167.5z" />
<glyph unicode="&#xac;" d="M102 811q0 96 36.5 183.5t103.5 154.5t153.5 104t184.5 37q99 0 185.5 -37t153 -103.5t103.5 -153t37 -185.5t-36.5 -184.5t-103 -152.5t-153.5 -103.5t-184 -36.5q-98 0 -184 36t-155 104.5t-105 154.5t-36 182zM246 811q0 -138 98 -236t236 -98q89 0 167 44.5t123 122 t45 167.5t-45 167.5t-123 122t-167 44.5t-166.5 -44.5t-122.5 -122t-45 -167.5z" />
<glyph unicode="&#xad;" horiz-adv-x="1071" d="M68 647q0 27 2 41q42 82 143 82q59 0 139 -33q20 0 35 4t35 11.5t29 7.5q17 0 36 -8q146 0 474 -21q37 -27 40 -65q-11 -34 -40 -59t-64 -25q-212 -4 -297 -13q-48 11 -100 11q-37 0 -93.5 -7.5t-99.5 -9.5q-13 0 -30 -3t-40.5 -8t-41.5 -8t-37 -3q-31 0 -58 14 q-32 28 -32 92z" />
<glyph unicode="&#xae;" horiz-adv-x="1063" d="M152 1180q0 83 16 166q23 27 46.5 64t46.5 63.5t52 39.5q14 50 52 50q15 0 59 -11.5t65 -11.5q26 31 74 31q28 0 103 -17q40 -13 79 -73q7 -30 39.5 -67t57.5 -67t26 -65l17 -35q4 -44 4 -67q0 -44 -7.5 -102t-15.5 -99q-18 -31 -48 -61t-66 -68q-13 -1 -41 -18t-43 -21 q-70 -18 -150 -18q-165 0 -258 90q-108 103 -108 297zM270 1114q14 -25 25 -48.5t12 -51.5q67 -76 111 -92q35 -15 80 -15q59 0 114.5 22t130.5 64q33 33 33 94q0 22 -3.5 48.5t-4.5 40.5q8 19 8 41q0 28 -11 51.5t-34.5 61.5t-32.5 61q-4 22 -19.5 34.5t-47 25.5t-37.5 17 q-7 1 -29 14t-33 13q-13 0 -18 -25q-24 -12 -78 -16t-80 -14q-11 -12 -43 -35t-41 -41zM348 1212q7 14 18.5 75t43.5 81q21 -12 43 -12t68 21.5t71 21.5q8 0 24 -4l25 -31q55 -49 55 -123q0 -26 -8 -47q-4 -9 -19 -31.5t-19.5 -31t-4.5 -21.5q0 -19 14 -33q6 -10 22 -21 t22 -17t6 -21q-9 -37 -31 -39q-50 0 -86 22q-13 16 -24 58.5t-36 60.5q-53 0 -61 -8q-13 -15 -19 -54.5t-12 -57t-30 -17.5q-11 0 -29 6q-19 14 -19 45q0 9 2.5 25.5t2.5 30.5q4 16 4 22q0 19 -11 55.5t-12 44.5zM477 1219q12 -13 41 -13h57q22 0 27 43q-23 41 -65 41 q-60 -21 -60 -71z" />
<glyph unicode="&#xaf;" d="M102 811q0 96 36.5 183.5t103.5 154.5t153.5 104t184.5 37q99 0 185.5 -37t153 -103.5t103.5 -153t37 -185.5t-36.5 -184.5t-103 -152.5t-153.5 -103.5t-184 -36.5q-98 0 -184 36t-155 104.5t-105 154.5t-36 182zM246 811q0 -138 98 -236t236 -98q89 0 167 44.5t123 122 t45 167.5t-45 167.5t-123 122t-167 44.5t-166.5 -44.5t-122.5 -122t-45 -167.5z" />
<glyph unicode="&#xb0;" horiz-adv-x="653" d="M70 1417q11 14 33.5 71t54.5 73q20 25 45 30.5t72.5 9.5t72.5 17q69 0 129 -48t88 -114q1 -13 10 -50t9 -56q0 -11 -4 -27q0 -36 -19 -57t-53 -45q-86 -70 -193 -70q-54 0 -98 20q-127 56 -147 246zM227 1356q0 -36 68 -66q9 0 34 -4t38 -4q39 0 47 29q14 20 14 45 q0 13 -20 76q-17 10 -24.5 45t-12.5 47t-27 12q-16 0 -27 -4q-90 -83 -90 -176z" />
<glyph unicode="&#xb1;" d="M102 811q0 96 36.5 183.5t103.5 154.5t153.5 104t184.5 37q99 0 185.5 -37t153 -103.5t103.5 -153t37 -185.5t-36.5 -184.5t-103 -152.5t-153.5 -103.5t-184 -36.5q-98 0 -184 36t-155 104.5t-105 154.5t-36 182zM246 811q0 -138 98 -236t236 -98q89 0 167 44.5t123 122 t45 167.5t-45 167.5t-123 122t-167 44.5t-166.5 -44.5t-122.5 -122t-45 -167.5z" />
<glyph unicode="&#xb4;" horiz-adv-x="492" d="M70 1077q1 43 21.5 88.5t53 96.5t35.5 57q18 40 63 88.5t95 48.5q8 0 24 -4q58 0 60 -33l-6 -30q-40 -64 -64.5 -101.5t-41 -61t-44.5 -56t-59 -60.5q-36 -57 -70 -61q-27 2 -44 7t-23 21z" />
<glyph unicode="&#xb5;" d="M102 811q0 96 36.5 183.5t103.5 154.5t153.5 104t184.5 37q99 0 185.5 -37t153 -103.5t103.5 -153t37 -185.5t-36.5 -184.5t-103 -152.5t-153.5 -103.5t-184 -36.5q-98 0 -184 36t-155 104.5t-105 154.5t-36 182zM246 811q0 -138 98 -236t236 -98q89 0 167 44.5t123 122 t45 167.5t-45 167.5t-123 122t-167 44.5t-166.5 -44.5t-122.5 -122t-45 -167.5z" />
<glyph unicode="&#xb6;" horiz-adv-x="952" d="M68 868q1 17 1.5 32t0.5 52q0 54 12 97.5t32.5 74.5t46 61.5t68.5 82.5q36 15 76.5 33t80.5 29t89 11q18 -18 47 -18q18 0 44.5 7.5t39.5 10.5q25 5 29 5q16 0 56 -7.5t57 -7.5q76 0 103.5 -11.5t31.5 -19.5q4 0 4 -18q0 -24 -19 -39q-9 -26 -46.5 -71.5t-37.5 -55.5 q7 -43 9 -91.5t6 -117.5q-5 -19 -11 -107t-16 -162.5t-24 -109.5q-13 -32 -13 -41q0 -8 5.5 -14.5t9.5 -17.5t4 -41q2 -17 9.5 -100t24.5 -124q5 -23 5 -43q0 -89 -62 -157q-30 -13 -59 -13q-29 21 -29 62q0 26 23 98q-1 21 -11 58t-10 59q-37 25 -37 80q15 30 15 67 q0 9 -2 27.5t-3.5 37t-1.5 34.5l-16 100q1 25 7.5 64.5t10.5 64.5q17 33 17 74q0 29 -8.5 73.5t-8.5 69.5q0 31 5 45q26 53 26 99q0 16 -3.5 33t-8 34.5t-10.5 42.5q-3 8 -17 8q-15 0 -48 -11t-38 -11q-18 -6 -47 -6q-22 0 -67 4t-60 4q-122 -64 -170 -203q0 -43 14 -74.5 t40 -66t38 -53.5q47 -37 91 -53.5t114 -16.5q12 0 27 -8.5t24 -24.5q21 -27 21 -51q0 -23 -25 -31q-4 -1 -7 -1.5t-7 -2.5q0 -24 -10 -47q-4 -24 -4 -39q0 -14 2 -41t2 -41q0 -23 -6 -47q0 -5 -7.5 -31t-7.5 -53q-1 -17 -1.5 -52.5t-2 -62t-4.5 -43.5q0 -5 5 -37.5t5 -54.5 q0 -43 -37 -61q-28 0 -41 4q-14 17 -14 47q0 25 10 45q-14 29 -14 80v49l-10 105q0 6 2 10t2 12q0 22 -5 29.5t-7 21.5q1 20 1.5 35.5t0.5 40.5q0 47 24 143v2q-31 18 -37 19q-24 -4 -32 -4q-61 0 -108 35.5t-112 109.5q-36 37 -36 92z" />
<glyph unicode="&#xb8;" d="M102 811q0 96 36.5 183.5t103.5 154.5t153.5 104t184.5 37q99 0 185.5 -37t153 -103.5t103.5 -153t37 -185.5t-36.5 -184.5t-103 -152.5t-153.5 -103.5t-184 -36.5q-98 0 -184 36t-155 104.5t-105 154.5t-36 182zM246 811q0 -138 98 -236t236 -98q89 0 167 44.5t123 122 t45 167.5t-45 167.5t-123 122t-167 44.5t-166.5 -44.5t-122.5 -122t-45 -167.5z" />
<glyph unicode="&#xba;" d="M102 811q0 96 36.5 183.5t103.5 154.5t153.5 104t184.5 37q99 0 185.5 -37t153 -103.5t103.5 -153t37 -185.5t-36.5 -184.5t-103 -152.5t-153.5 -103.5t-184 -36.5q-98 0 -184 36t-155 104.5t-105 154.5t-36 182zM246 811q0 -138 98 -236t236 -98q89 0 167 44.5t123 122 t45 167.5t-45 167.5t-123 122t-167 44.5t-166.5 -44.5t-122.5 -122t-45 -167.5z" />
<glyph unicode="&#xbb;" d="M102 811q0 96 36.5 183.5t103.5 154.5t153.5 104t184.5 37q99 0 185.5 -37t153 -103.5t103.5 -153t37 -185.5t-36.5 -184.5t-103 -152.5t-153.5 -103.5t-184 -36.5q-98 0 -184 36t-155 104.5t-105 154.5t-36 182zM246 811q0 -138 98 -236t236 -98q89 0 167 44.5t123 122 t45 167.5t-45 167.5t-123 122t-167 44.5t-166.5 -44.5t-122.5 -122t-45 -167.5z" />
<glyph unicode="&#xbf;" horiz-adv-x="944" d="M16 377q0 80 37 182q33 56 122.5 128t130 115t52.5 120q3 11 7 32t14 34t27 18q23 0 59 -23q27 -34 27 -84q0 -20 -3.5 -43.5t-6.5 -39t-5 -32.5q-32 -57 -43 -74t-40.5 -49.5t-57.5 -66.5q-7 -25 -51 -93.5t-64 -104t-20 -66.5q19 -20 41.5 -41.5t48.5 -35t57 -13.5 q22 9 46 14t38.5 6.5t63.5 9.5q17 6 31.5 27t31 51t32 47t34.5 17q3 2 21 18.5t35.5 26.5t33.5 10q29 0 59 -29q4 -4 13 -8.5t14 -9t6 -12.5q-12 -21 -17 -58.5t-11 -60.5t-25 -41q-59 -81 -138 -131t-174 -64q-39 -12 -80 -12q-55 0 -100.5 18t-126.5 60q-15 16 -31 44 t-29.5 51.5t-29.5 39.5q-29 54 -29 123zM317 1223q0 33 22 86.5t26 70.5q13 28 41 50l75 -3q6 -10 27 -27.5t31 -30t10 -32.5q6 -16 6 -65q-23 -54 -37 -80.5t-43 -48.5q-12 0 -32.5 11.5t-24.5 12.5q-9 -1 -30.5 -8.5t-27.5 -7.5q-4 0 -16 4q-27 34 -27 68z" />
<glyph unicode="&#xc0;" horiz-adv-x="1051" d="M74 412q15 59 45 69q12 6 44 11t46 9.5t27 18.5q19 65 56.5 181t72 223.5t59.5 200t35 167.5q65 115 155 115q60 0 103 -37q28 -26 32.5 -90t10.5 -82q11 -80 23.5 -164.5t45.5 -144.5q25 -82 42.5 -175t33 -196.5t29.5 -194t35 -184.5q0 -29 13 -82.5t13 -81.5 q0 -38 -28 -69q-19 -17 -31 -17q-6 0 -12 7q-28 19 -40 46.5t-26 77.5q-23 45 -30 78t-23 123.5t-31 130.5q-22 23 -51 23q-20 0 -52 -9.5t-46 -11.5q-28 -9 -96.5 -18t-99 -14t-60.5 -19q-23 -79 -41.5 -143.5t-44.5 -110.5q-39 -37 -88 -37q-14 0 -27 13.5t-24.5 36 t-16.5 30.5q1 31 9.5 59t20.5 61.5t19 66.5q-10 19 -40 40t-46 39t-16 54zM283 1794q0 32 24 70q5 2 27 20t43 21q19 0 31.5 -13t27 -37.5t23.5 -33.5q7 -12 21 -31t19.5 -34t8.5 -35q15 -24 47 -34t55.5 -19t32.5 -37q4 -9 4 -23q0 -26 -14 -43q-14 -24 -46 -31.5 t-63 -13.5l-86 37q-12 27 -62 83t-71.5 86t-21.5 68zM410 532q22 -22 63 -22q15 0 53 4t64 4q20 4 28 4q9 0 27 -2t27 -2q32 0 53 17q-19 134 -33 206q-71 184 -102 336q-12 -16 -24 -35.5t-26 -37t-34 -29.5q-19 -66 -35 -139.5t-33.5 -166.5t-27.5 -137z" />
<glyph unicode="&#xc1;" horiz-adv-x="1053" d="M74 412q15 59 45 69q12 6 44 11t46 9.5t27 18.5q19 65 56.5 181t72 223.5t59.5 200t35 167.5q65 115 155 115q60 0 103 -37q28 -26 32.5 -90t10.5 -82q11 -80 23.5 -164.5t45.5 -144.5q25 -82 42.5 -175t33 -196.5t29.5 -194t35 -184.5q0 -29 13 -82.5t13 -81.5 q0 -38 -28 -69q-19 -17 -31 -17q-6 0 -12 7q-28 19 -40 46.5t-26 77.5q-23 45 -30 78t-23 123.5t-31 130.5q-22 23 -51 23q-20 0 -52 -9.5t-46 -11.5q-28 -9 -96.5 -18t-99 -14t-60.5 -19q-23 -79 -41.5 -143.5t-44.5 -110.5q-39 -37 -88 -37q-14 0 -27 13.5t-24.5 36 t-16.5 30.5q1 31 9.5 59t20.5 61.5t19 66.5q-10 19 -40 40t-46 39t-16 54zM410 532q22 -22 63 -22q15 0 53 4t64 4q20 4 28 4q9 0 27 -2t27 -2q32 0 53 17q-19 134 -33 206q-71 184 -102 336q-12 -16 -24 -35.5t-26 -37t-34 -29.5q-19 -66 -35 -139.5t-33.5 -166.5 t-27.5 -137zM645 1579q1 43 21.5 88.5t53 96.5t35.5 57q18 40 63 88.5t95 48.5q8 0 24 -4q58 0 60 -33l-6 -30q-40 -64 -64.5 -101.5t-41 -61t-44.5 -56t-59 -60.5q-36 -57 -70 -61q-27 2 -44 7t-23 21z" />
<glyph unicode="&#xc2;" horiz-adv-x="1051" d="M74 412q15 59 45 69q12 6 44 11t46 9.5t27 18.5q19 65 56.5 181t72 223.5t59.5 200t35 167.5q65 115 155 115q60 0 103 -37q28 -26 32.5 -90t10.5 -82q11 -80 23.5 -164.5t45.5 -144.5q25 -82 42.5 -175t33 -196.5t29.5 -194t35 -184.5q0 -29 13 -82.5t13 -81.5 q0 -38 -28 -69q-19 -17 -31 -17q-6 0 -12 7q-28 19 -40 46.5t-26 77.5q-23 45 -30 78t-23 123.5t-31 130.5q-22 23 -51 23q-20 0 -52 -9.5t-46 -11.5q-28 -9 -96.5 -18t-99 -14t-60.5 -19q-23 -79 -41.5 -143.5t-44.5 -110.5q-39 -37 -88 -37q-14 0 -27 13.5t-24.5 36 t-16.5 30.5q1 31 9.5 59t20.5 61.5t19 66.5q-10 19 -40 40t-46 39t-16 54zM332 1538q0 9 9 18.5t17 17.5q0 62 25 86q40 11 59.5 35t43.5 68t50.5 66t73.5 22l43 -8q24 -38 54.5 -68t81 -68.5t78.5 -61.5t48 -46q3 -9 6 -15.5t5 -17.5q0 -10 -5 -20q-11 -14 -29.5 -17.5 t-62.5 -3.5q-23 9 -61 46.5t-58 53t-49 15.5q-16 0 -34 -6q-24 -10 -41.5 -28.5t-35.5 -36.5t-42 -27q-67 -16 -111 -43q-9 4 -23.5 5t-24 5t-13.5 14q-4 8 -4 15zM410 532q22 -22 63 -22q15 0 53 4t64 4q20 4 28 4q9 0 27 -2t27 -2q32 0 53 17q-19 134 -33 206 q-71 184 -102 336q-12 -16 -24 -35.5t-26 -37t-34 -29.5q-19 -66 -35 -139.5t-33.5 -166.5t-27.5 -137z" />
<glyph unicode="&#xc3;" horiz-adv-x="1051" d="M74 412q15 59 45 69q12 6 44 11t46 9.5t27 18.5q19 65 56.5 181t72 223.5t59.5 200t35 167.5q65 115 155 115q60 0 103 -37q28 -26 32.5 -90t10.5 -82q11 -80 23.5 -164.5t45.5 -144.5q25 -82 42.5 -175t33 -196.5t29.5 -194t35 -184.5q0 -29 13 -82.5t13 -81.5 q0 -38 -28 -69q-19 -17 -31 -17q-6 0 -12 7q-28 19 -40 46.5t-26 77.5q-23 45 -30 78t-23 123.5t-31 130.5q-22 23 -51 23q-20 0 -52 -9.5t-46 -11.5q-28 -9 -96.5 -18t-99 -14t-60.5 -19q-23 -79 -41.5 -143.5t-44.5 -110.5q-39 -37 -88 -37q-14 0 -27 13.5t-24.5 36 t-16.5 30.5q1 31 9.5 59t20.5 61.5t19 66.5q-10 19 -40 40t-46 39t-16 54zM283 1603q0 20 10 33q14 20 34 32t47 22.5t42 19.5q13 2 47.5 9t52.5 7q26 0 47 -8q24 -9 67 -39t77.5 -46.5t80.5 -16.5q34 0 86 28.5t78 28.5q21 0 37 -8q8 -11 8 -27q0 -15 -10 -37 q-107 -94 -264 -94q-26 3 -55.5 16.5t-50 25t-47.5 21t-50 9.5q-19 -8 -50 -26.5t-53 -28t-44 -9.5q-30 0 -60 27q-30 23 -30 61zM410 532q22 -22 63 -22q15 0 53 4t64 4q20 4 28 4q9 0 27 -2t27 -2q32 0 53 17q-19 134 -33 206q-71 184 -102 336q-12 -16 -24 -35.5t-26 -37 t-34 -29.5q-19 -66 -35 -139.5t-33.5 -166.5t-27.5 -137z" />
<glyph unicode="&#xc4;" horiz-adv-x="1051" d="M74 412q15 59 45 69q12 6 44 11t46 9.5t27 18.5q19 65 56.5 181t72 223.5t59.5 200t35 167.5q65 115 155 115q60 0 103 -37q28 -26 32.5 -90t10.5 -82q11 -80 23.5 -164.5t45.5 -144.5q25 -82 42.5 -175t33 -196.5t29.5 -194t35 -184.5q0 -29 13 -82.5t13 -81.5 q0 -38 -28 -69q-19 -17 -31 -17q-6 0 -12 7q-28 19 -40 46.5t-26 77.5q-23 45 -30 78t-23 123.5t-31 130.5q-22 23 -51 23q-20 0 -52 -9.5t-46 -11.5q-28 -9 -96.5 -18t-99 -14t-60.5 -19q-23 -79 -41.5 -143.5t-44.5 -110.5q-39 -37 -88 -37q-14 0 -27 13.5t-24.5 36 t-16.5 30.5q1 31 9.5 59t20.5 61.5t19 66.5q-10 19 -40 40t-46 39t-16 54zM318 1651q20 55 61 69q20 5 37 5q83 0 137 -66q12 -21 17 -45q0 -11 -7 -27q-19 -42 -57 -51q-15 -6 -31 -6q-21 0 -54 13.5t-50 15.5q-45 43 -53 92zM410 532q22 -22 63 -22q15 0 53 4t64 4 q20 4 28 4q9 0 27 -2t27 -2q32 0 53 17q-19 134 -33 206q-71 184 -102 336q-12 -16 -24 -35.5t-26 -37t-34 -29.5q-19 -66 -35 -139.5t-33.5 -166.5t-27.5 -137zM678 1622q0 20 18.5 52t22.5 44q12 5 39 5q39 0 74 -15q10 -14 18 -24t13.5 -22.5t5.5 -22.5q0 -4 -5 -19 q-35 -48 -94 -70q-81 0 -86 48q-6 12 -6 24z" />
<glyph unicode="&#xc5;" horiz-adv-x="1051" d="M74 412q15 59 45 69q12 6 44 11t46 9.5t27 18.5q19 65 56.5 181t72 223.5t59.5 200t35 167.5q65 115 155 115q60 0 103 -37q28 -26 32.5 -90t10.5 -82q11 -80 23.5 -164.5t45.5 -144.5q25 -82 42.5 -175t33 -196.5t29.5 -194t35 -184.5q0 -29 13 -82.5t13 -81.5 q0 -38 -28 -69q-19 -17 -31 -17q-6 0 -12 7q-28 19 -40 46.5t-26 77.5q-23 45 -30 78t-23 123.5t-31 130.5q-22 23 -51 23q-20 0 -52 -9.5t-46 -11.5q-28 -9 -96.5 -18t-99 -14t-60.5 -19q-23 -79 -41.5 -143.5t-44.5 -110.5q-39 -37 -88 -37q-14 0 -27 13.5t-24.5 36 t-16.5 30.5q1 31 9.5 59t20.5 61.5t19 66.5q-10 19 -40 40t-46 39t-16 54zM361 1782q9 18 17.5 58.5t20.5 63t42 34.5q92 49 174 49q56 0 94 -25l43 -6q23 -16 38 -39.5t22 -46.5t14 -57t12 -60q-21 -106 -105 -157q-65 -45 -176 -45q-72 15 -125 82.5t-71 148.5zM410 532 q22 -22 63 -22q15 0 53 4t64 4q20 4 28 4q9 0 27 -2t27 -2q32 0 53 17q-19 134 -33 206q-71 184 -102 336q-12 -16 -24 -35.5t-26 -37t-34 -29.5q-19 -66 -35 -139.5t-33.5 -166.5t-27.5 -137zM479 1833q0 -15 4 -29.5t8.5 -28.5t11 -31t7.5 -23q8 -27 31.5 -44.5 t52.5 -17.5q17 0 35 6q25 18 44 31.5t32.5 31.5t13.5 40q0 13 -6 28q-6 30 -23.5 47.5t-40.5 26t-53 8.5q-37 0 -68 -12t-49 -33z" />
<glyph unicode="&#xc6;" horiz-adv-x="1243" d="M70 481q0 32 15.5 46.5t40.5 22.5t54 19.5t39 30.5q10 74 34 143.5t60 139.5q7 105 37 204t82 201q28 49 84 49q33 0 59 -20q19 10 41 10q16 0 49 -8t50 -8q31 0 55 24q53 13 135 13q46 0 108.5 -5.5t96.5 -7.5q55 -45 64 -82q-14 -37 -48 -53q-109 -33 -239 -33 q-91 0 -170 13q-21 -41 -21 -142q6 -12 6 -24q0 -5 -1.5 -15t-3 -19t-1.5 -15q10 -15 12 -45.5t4.5 -53.5t11.5 -38.5t32 -22.5q27 -8 98.5 -16t113 -21t68.5 -51q-4 -58 -24 -82q-38 -21 -101 -21q-20 0 -58 2t-58 2q-43 0 -72 -8q-18 -22 -18 -67v-37q0 -36 -17 -66 q3 -22 6 -50.5t9 -76.5t10 -76.5t8 -52.5q6 -35 28 -47t58 -12q14 1 25.5 1.5t29.5 0.5q37 0 58 -10q14 -4 43 -4q15 0 42 2t39 2q64 0 93 -51q0 -62 -19 -76l-39 -17l-215 -6q-34 17 -82 17q-22 0 -34.5 -0.5t-28.5 -1.5q-59 0 -103 49q-4 31 -21 102t-17 103q0 46 22 71 q-8 11 -8 29q0 1 3 22t3 33q0 32 -37 39q-3 0 -56 9.5t-83 9.5q-36 0 -47 -17q-4 -48 -15.5 -78.5t-39 -94t-33.5 -91.5q8 -11 8 -43q0 -51 -14 -76q-7 -24 -17 -34.5t-31 -24.5q-6 -4 -11 -8t-10.5 -7.5t-14.5 -3.5q-23 0 -54 31q-14 22 -14 45q0 26 26.5 74.5t30.5 71.5 q6 40 12.5 87.5t6.5 84.5q0 17 -4 47q-13 15 -44.5 24.5t-53 16t-33.5 28.5zM457 621q0 -27 14.5 -35.5t42.5 -10.5t39 -6q43 17 43 78q-25 47 -31 146.5t-18 136.5q-2 16 -13 31.5t-28 19.5q-15 -17 -19 -45.5t-9 -62t-19 -52.5z" />
<glyph unicode="&#xc7;" horiz-adv-x="995" d="M70 821q64 116 75 303q31 61 80.5 100.5t112.5 39.5q27 41 47 47q20 4 29 4q37 0 100 -27q50 -19 79.5 -28t61.5 -9q49 -9 80.5 -41.5t71.5 -91.5q20 -30 43 -53q0 -72 -53 -102q-13 -7 -23 -7q-13 0 -31 13q-10 8 -15 13t-13.5 14.5t-16.5 17.5q-19 45 -108 88 q-17 7 -41 24q-72 0 -109.5 -39t-81.5 -122q-28 -54 -45 -72q-45 -134 -65.5 -219t-20.5 -180q31 -185 111 -326q42 -62 121 -96q25 6 47 18q54 28 73.5 37t51.5 10q96 68 194 68q34 0 72 -12q10 -6 18 -33q7 -30 11 -37q-9 -4 -17 -11l-16 -14q-14 -13 -38.5 -37.5 t-45.5 -39.5t-47 -25q-7 -23 -35 -33q-15 -5 -53 -14q-56 -15 -56 -49q0 -11 11 -37q21 -22 90 -70q51 -35 76 -72q4 -20 4 -32q0 -70 -68 -156q-130 -104 -264 -104q-17 0 -49 4q-12 15 -51 32q-29 15 -35 33q15 42 90 66q46 12 75 24t48 35q2 3 4 5.5t4 6.5l12 15 q8 12 8 22q0 9 -6 21q-21 13 -59 16q-28 0 -45 12q-33 28 -33 93q-3 53 -5.5 70.5t-16.5 41.5q-49 14 -95 60q-21 22 -43 46t-41 40q-63 115 -143 340q-4 26 -4 77q2 46 2.5 73t1.5 59q0 135 -16 200z" />
<glyph unicode="&#xc8;" horiz-adv-x="1130" d="M70 1266q0 49 24 102q18 12 30 20.5t28.5 15.5t35.5 7q35 -3 66 -20q31 7 99.5 15t107 16.5t74.5 29.5q22 4 67 4q116 -4 180 -55q93 -4 148 -21q6 -8 6 -22q0 -21 -12 -41q-14 -19 -35.5 -28t-51.5 -14.5t-46 -10.5q-34 2 -60 3t-42.5 2t-49.5 1q-31 0 -61 -6 q-13 -24 -35 -32t-59 -12.5t-56 -13.5q-9 0 -32 2t-36 2q-41 0 -63 -22q25 -73 39 -128t14 -110q0 -33 -6 -63q3 -13 4 -30t4 -30t13 -20q55 0 134 8t111 8q55 0 101 -14q49 -7 77 -17.5t37 -39.5q0 -25 -14 -58q-41 -25 -128.5 -28.5t-107.5 -6.5q-136 -19 -213 -32 q-10 -7 -13 -30t-7 -30q-3 -30 -4.5 -74.5t-2 -104.5t-1.5 -91q7 -18 18.5 -59t20.5 -60q34 0 97 7.5t91 7.5q186 -11 352 -31q12 0 39 7t43 7q4 -10 16 -29t17.5 -31t5.5 -26q0 -6 -4 -22q1 -10 8.5 -18.5t16 -17.5t13.5 -17t5 -23l-4 -8q1 -4 1.5 -6.5t0.5 -8.5 q-1 -10 -10 -15t-12 -7q-8 -21 -29 -25q-11 -19 -16 -22q-22 -13 -43 -13q-19 0 -38.5 9.5t-21.5 15.5q-6 11 -6 12.5t-6 9.5q0 1 -8 9q0 12 2 26t2 19q0 12 -17 20q-85 6 -184 6q-96 0 -182 -6q-37 -11 -90.5 -13t-98.5 -4t-84 -16q-12 -1 -40 -6.5t-35 -5.5q-22 0 -35 8 q-25 22 -25 43q0 13 4 19q19 6 36.5 22t40.5 44t30 34q0 39 16 105q-2 17 -4 90.5t-6 105.5q-25 197 -27 287q-14 9 -14 27q0 5 2 18t2 18q0 7 -4 19q-6 61 -6 125q0 66 4 184v53q-3 20 -15 29.5t-35.5 21t-34 21t-13.5 29.5zM252 1855q0 32 24 70q5 2 27 20t43 21 q19 0 31.5 -13t27 -37.5t23.5 -33.5q7 -12 21 -31t19.5 -34t8.5 -35q15 -24 47 -34t55.5 -19t32.5 -37q4 -9 4 -23q0 -26 -14 -43q-14 -24 -46 -31.5t-63 -13.5l-86 37q-12 27 -62 83t-71.5 86t-21.5 68z" />
<glyph unicode="&#xc9;" horiz-adv-x="1130" d="M70 1266q0 49 24 102q18 12 30 20.5t28.5 15.5t35.5 7q35 -3 66 -20q31 7 99.5 15t107 16.5t74.5 29.5q22 4 67 4q116 -4 180 -55q93 -4 148 -21q6 -8 6 -22q0 -21 -12 -41q-14 -19 -35.5 -28t-51.5 -14.5t-46 -10.5q-34 2 -60 3t-42.5 2t-49.5 1q-31 0 -61 -6 q-13 -24 -35 -32t-59 -12.5t-56 -13.5q-9 0 -32 2t-36 2q-41 0 -63 -22q25 -73 39 -128t14 -110q0 -33 -6 -63q3 -13 4 -30t4 -30t13 -20q55 0 134 8t111 8q55 0 101 -14q49 -7 77 -17.5t37 -39.5q0 -25 -14 -58q-41 -25 -128.5 -28.5t-107.5 -6.5q-136 -19 -213 -32 q-10 -7 -13 -30t-7 -30q-3 -30 -4.5 -74.5t-2 -104.5t-1.5 -91q7 -18 18.5 -59t20.5 -60q34 0 97 7.5t91 7.5q186 -11 352 -31q12 0 39 7t43 7q4 -10 16 -29t17.5 -31t5.5 -26q0 -6 -4 -22q1 -10 8.5 -18.5t16 -17.5t13.5 -17t5 -23l-4 -8q1 -4 1.5 -6.5t0.5 -8.5 q-1 -10 -10 -15t-12 -7q-8 -21 -29 -25q-11 -19 -16 -22q-22 -13 -43 -13q-19 0 -38.5 9.5t-21.5 15.5q-6 11 -6 12.5t-6 9.5q0 1 -8 9q0 12 2 26t2 19q0 12 -17 20q-85 6 -184 6q-96 0 -182 -6q-37 -11 -90.5 -13t-98.5 -4t-84 -16q-12 -1 -40 -6.5t-35 -5.5q-22 0 -35 8 q-25 22 -25 43q0 13 4 19q19 6 36.5 22t40.5 44t30 34q0 39 16 105q-2 17 -4 90.5t-6 105.5q-25 197 -27 287q-14 9 -14 27q0 5 2 18t2 18q0 7 -4 19q-6 61 -6 125q0 66 4 184v53q-3 20 -15 29.5t-35.5 21t-34 21t-13.5 29.5zM441 1612q1 43 21.5 88.5t53 96.5t35.5 57 q18 40 63 88.5t95 48.5q8 0 24 -4q58 0 60 -33l-6 -30q-40 -64 -64.5 -101.5t-41 -61t-44.5 -56t-59 -60.5q-36 -57 -70 -61q-27 2 -44 7t-23 21z" />
<glyph unicode="&#xca;" horiz-adv-x="1130" d="M70 1266q0 49 24 102q18 12 30 20.5t28.5 15.5t35.5 7q35 -3 66 -20q31 7 99.5 15t107 16.5t74.5 29.5q22 4 67 4q116 -4 180 -55q93 -4 148 -21q6 -8 6 -22q0 -21 -12 -41q-14 -19 -35.5 -28t-51.5 -14.5t-46 -10.5q-34 2 -60 3t-42.5 2t-49.5 1q-31 0 -61 -6 q-13 -24 -35 -32t-59 -12.5t-56 -13.5q-9 0 -32 2t-36 2q-41 0 -63 -22q25 -73 39 -128t14 -110q0 -33 -6 -63q3 -13 4 -30t4 -30t13 -20q55 0 134 8t111 8q55 0 101 -14q49 -7 77 -17.5t37 -39.5q0 -25 -14 -58q-41 -25 -128.5 -28.5t-107.5 -6.5q-136 -19 -213 -32 q-10 -7 -13 -30t-7 -30q-3 -30 -4.5 -74.5t-2 -104.5t-1.5 -91q7 -18 18.5 -59t20.5 -60q34 0 97 7.5t91 7.5q186 -11 352 -31q12 0 39 7t43 7q4 -10 16 -29t17.5 -31t5.5 -26q0 -6 -4 -22q1 -10 8.5 -18.5t16 -17.5t13.5 -17t5 -23l-4 -8q1 -4 1.5 -6.5t0.5 -8.5 q-1 -10 -10 -15t-12 -7q-8 -21 -29 -25q-11 -19 -16 -22q-22 -13 -43 -13q-19 0 -38.5 9.5t-21.5 15.5q-6 11 -6 12.5t-6 9.5q0 1 -8 9q0 12 2 26t2 19q0 12 -17 20q-85 6 -184 6q-96 0 -182 -6q-37 -11 -90.5 -13t-98.5 -4t-84 -16q-12 -1 -40 -6.5t-35 -5.5q-22 0 -35 8 q-25 22 -25 43q0 13 4 19q19 6 36.5 22t40.5 44t30 34q0 39 16 105q-2 17 -4 90.5t-6 105.5q-25 197 -27 287q-14 9 -14 27q0 5 2 18t2 18q0 7 -4 19q-6 61 -6 125q0 66 4 184v53q-3 20 -15 29.5t-35.5 21t-34 21t-13.5 29.5zM211 1579q0 9 9 18.5t17 17.5q0 62 25 86 q40 11 59.5 35t43.5 68t50.5 66t73.5 22l43 -8q24 -38 54.5 -68t81 -68.5t78.5 -61.5t48 -46q3 -9 6 -15.5t5 -17.5q0 -10 -5 -20q-11 -14 -29.5 -17.5t-62.5 -3.5q-23 9 -61 46.5t-58 53t-49 15.5q-16 0 -34 -6q-24 -10 -41.5 -28.5t-35.5 -36.5t-42 -27q-67 -16 -111 -43 q-9 4 -23.5 5t-24 5t-13.5 14q-4 8 -4 15z" />
<glyph unicode="&#xcb;" horiz-adv-x="1130" d="M70 1266q0 49 24 102q18 12 30 20.5t28.5 15.5t35.5 7q35 -3 66 -20q31 7 99.5 15t107 16.5t74.5 29.5q22 4 67 4q116 -4 180 -55q93 -4 148 -21q6 -8 6 -22q0 -21 -12 -41q-14 -19 -35.5 -28t-51.5 -14.5t-46 -10.5q-34 2 -60 3t-42.5 2t-49.5 1q-31 0 -61 -6 q-13 -24 -35 -32t-59 -12.5t-56 -13.5q-9 0 -32 2t-36 2q-41 0 -63 -22q25 -73 39 -128t14 -110q0 -33 -6 -63q3 -13 4 -30t4 -30t13 -20q55 0 134 8t111 8q55 0 101 -14q49 -7 77 -17.5t37 -39.5q0 -25 -14 -58q-41 -25 -128.5 -28.5t-107.5 -6.5q-136 -19 -213 -32 q-10 -7 -13 -30t-7 -30q-3 -30 -4.5 -74.5t-2 -104.5t-1.5 -91q7 -18 18.5 -59t20.5 -60q34 0 97 7.5t91 7.5q186 -11 352 -31q12 0 39 7t43 7q4 -10 16 -29t17.5 -31t5.5 -26q0 -6 -4 -22q1 -10 8.5 -18.5t16 -17.5t13.5 -17t5 -23l-4 -8q1 -4 1.5 -6.5t0.5 -8.5 q-1 -10 -10 -15t-12 -7q-8 -21 -29 -25q-11 -19 -16 -22q-22 -13 -43 -13q-19 0 -38.5 9.5t-21.5 15.5q-6 11 -6 12.5t-6 9.5q0 1 -8 9q0 12 2 26t2 19q0 12 -17 20q-85 6 -184 6q-96 0 -182 -6q-37 -11 -90.5 -13t-98.5 -4t-84 -16q-12 -1 -40 -6.5t-35 -5.5q-22 0 -35 8 q-25 22 -25 43q0 13 4 19q19 6 36.5 22t40.5 44t30 34q0 39 16 105q-2 17 -4 90.5t-6 105.5q-25 197 -27 287q-14 9 -14 27q0 5 2 18t2 18q0 7 -4 19q-6 61 -6 125q0 66 4 184v53q-3 20 -15 29.5t-35.5 21t-34 21t-13.5 29.5zM222 1663q20 55 61 69q20 5 37 5q83 0 137 -66 q12 -21 17 -45q0 -11 -7 -27q-19 -42 -57 -51q-15 -6 -31 -6q-21 0 -54 13.5t-50 15.5q-45 43 -53 92zM582 1634q0 20 18.5 52t22.5 44q12 5 39 5q39 0 74 -15q10 -14 18 -24t13.5 -22.5t5.5 -22.5q0 -4 -5 -19q-35 -48 -94 -70q-81 0 -86 48q-6 12 -6 24z" />
<glyph unicode="&#xcc;" horiz-adv-x="639" d="M70 1729q0 33 24 69q9 3 29 19.5t41 19.5q19 0 32 -13.5t27 -37t23 -31.5q7 -12 21 -31t19.5 -34t8.5 -35q14 -23 46.5 -34t56 -21t32.5 -37q4 -9 4 -23q0 -26 -14 -43q-11 -17 -27 -25t-36 -11t-46 -7l-86 37q-12 26 -62 82t-71.5 86.5t-21.5 69.5zM123 -2 q12 23 21 52.5t27 46t71 38.5q16 8 26.5 24t17 37.5t9.5 32.5v230q0 131 20 209q-30 101 -30 151q0 32 8 60q0 40 -16.5 107t-16.5 116q-57 38 -94 86q-4 11 -22.5 36.5t-18.5 55.5q12 7 32 24.5t48 22.5q9 1 27 6t36 9t29 4q20 0 43 -13q27 1 40.5 3.5t55.5 7t70 4.5 q38 0 69 -7q17 -10 17 -41q0 -23 -8 -49q-14 -28 -41.5 -36.5t-67.5 -10.5q-4 -10 -4 -35q0 -19 4 -53q11 -25 13.5 -49t5.5 -69t8 -66q-4 -24 -4 -37q0 -30 12 -87t12 -85q0 -47 -28 -88q-1 -36 -7 -111.5t-6 -111.5q0 -46 6 -88q-10 -18 -10 -31q0 -11 6 -36t6 -42 q-2 -22 -2 -70q6 -5 35.5 -13.5t36.5 -27.5q0 -6 1.5 -17l3 -22t1.5 -18q0 -23 -16 -39q-25 -16 -60 -16q-14 0 -48 4t-58 4q-39 -3 -120.5 -17.5t-100.5 -17.5q-17 0 -39 33z" />
<glyph unicode="&#xcd;" horiz-adv-x="723" d="M102 -2q7 14 19 48t31 51t71 38q16 8 26.5 24t17 37.5t9.5 32.5q0 75 -0.5 125.5t-1.5 110.5q0 124 21 203q-5 21 -13 49.5t-13 55.5t-5 50q0 31 8 56q0 33 -10.5 83.5t-15 73t-4.5 66.5q-59 39 -95 86q-4 9 -16.5 25.5t-18.5 30t-6 36.5q10 6 25 19.5t22.5 18.5t32.5 9 q4 1 41 10t52 9q20 0 40 -13q26 1 59 5.5t56.5 7t52.5 2.5q36 0 68 -7q18 -10 18 -41q0 -27 -10 -49q-14 -28 -41 -36.5t-65 -10.5q-6 -15 -6 -35q0 -19 4 -53q12 -31 16 -95t10 -89q-4 -24 -4 -37q0 -30 12.5 -85t12.5 -87q0 -48 -29 -88q-1 -36 -6.5 -121t-5.5 -102 q0 -46 6 -88q-10 -18 -10 -31q0 -11 6 -36t6 -42q-1 -11 -1 -35t-1 -35q9 -8 27 -12t29 -9t18 -20q0 -6 1.5 -17l3 -22t1.5 -18q0 -26 -17 -39q-24 -16 -61 -16q-13 0 -48 4t-59 4q-38 -3 -111 -16t-110 -19q-14 0 -39 33zM318 1495q1 43 21.5 88.5t53 96.5t35.5 57 q18 40 63 88.5t95 48.5q8 0 24 -4q58 0 60 -33l-6 -30q-40 -64 -64.5 -101.5t-41 -61t-44.5 -56t-59 -60.5q-36 -57 -70 -61q-27 2 -44 7t-23 21z" />
<glyph unicode="&#xce;" horiz-adv-x="715" d="M70 1489q0 11 26 37q0 61 25 86q38 9 58 32.5t44.5 68.5t51 67t73.5 22l43 -10q25 -38 56 -67.5t80.5 -67.5t77.5 -61t48 -46q1 -4 5 -13.5t6 -18.5q0 -11 -5 -21q-10 -13 -29 -16.5t-63 -3.5q-25 8 -65.5 48t-57.5 53t-47 13q-14 0 -32 -6q-22 -8 -41.5 -28t-37.5 -38 t-40 -26q-75 -19 -111 -43q-6 2 -21.5 3.5t-25.5 6t-14 15.5q-4 8 -4 14zM133 -2q7 14 19 48t31 51t71 38q15 7 24.5 22t15.5 33.5t13 38.5q0 75 -0.5 125.5t-1.5 110.5q0 129 21 203q-31 97 -31 151q0 32 8 60q0 40 -16.5 107t-16.5 116q-51 34 -94 86q-3 7 -15.5 25.5 t-18 31t-5.5 35.5q16 9 32.5 25.5t45.5 21.5q7 1 42 10t50 9q20 0 43 -13q27 1 40.5 3.5t55.5 7t70 4.5q38 0 70 -7q18 -10 18 -41q0 -16 -10 -49q-14 -28 -41.5 -36.5t-67.5 -10.5q-4 -10 -4 -33q0 -21 4 -55q11 -25 13 -47.5t5 -67t9 -69.5q-4 -24 -4 -37q0 -30 12 -87 t12 -85q0 -47 -28 -88q-1 -36 -6.5 -121t-5.5 -102q0 -46 6 -88q-11 -20 -11 -31t6.5 -34.5t6.5 -43.5q-2 -22 -2 -70q9 -7 27 -11.5t29 -10t17 -19.5q0 -9 2 -27t2 -28q0 -25 -16 -41q-24 -16 -59 -16q-13 0 -48 4t-59 4q-39 -3 -112 -16t-109 -19q-17 0 -39 33z" />
<glyph unicode="&#xcf;" horiz-adv-x="676" d="M70 1608q20 55 61 69q24 4 37 4q84 0 137 -65q12 -21 17 -45q0 -13 -7 -27q-19 -42 -57 -51q-15 -6 -31 -6q-21 0 -58.5 14t-45.5 15q-45 43 -53 92zM145 -2q7 14 19 48t31 51t71 38q15 7 24.5 22t15.5 33.5t13 38.5q0 75 -0.5 125.5t-1.5 110.5q0 124 21 203 q-31 104 -31 151q0 32 8 60q0 36 -16 105t-16 118q-53 35 -95 86q-6 15 -16.5 29.5t-16 27t-5.5 35.5q15 9 31.5 25.5t45.5 21.5l40 10t52 9q20 0 43 -13q26 1 59 5.5t56 7t51 2.5q38 0 70 -7q18 -10 18 -41q0 -16 -10 -49q-14 -28 -41 -36.5t-67 -10.5q-4 -10 -4 -33 q0 -21 4 -55q12 -31 16 -95t10 -89q-4 -24 -4 -37q0 -30 12.5 -85t12.5 -87q0 -48 -29 -88q-1 -36 -6.5 -121t-5.5 -102q0 -46 6 -88q-10 -18 -10 -31q0 -11 6 -36t6 -42q-2 -22 -2 -70q9 -7 27 -11.5t29 -10t16 -19.5q0 -6 1.5 -17l3 -22t1.5 -18q0 -23 -17 -39 q-24 -16 -59 -16q-13 0 -48 4t-58 4q-39 -3 -116.5 -16.5t-105.5 -18.5q-14 0 -39 33zM430 1579q0 18 18.5 51t22.5 45q12 4 39 4q42 0 74 -14q8 -12 17 -24t14.5 -25t5.5 -23q0 -3 -5 -18q-36 -46 -94 -68q-80 0 -86 47q-6 13 -6 25z" />
<glyph unicode="&#xd1;" horiz-adv-x="934" d="M70 1341q0 92 51 113q8 4 26 4q28 0 68 -20q11 -8 19.5 -19.5t14 -23t15.5 -27.5q55 -30 90 -66.5t35 -95.5q4 -40 15 -72t34.5 -84.5t36 -83.5t17.5 -65q12 -21 27.5 -65.5t28 -82t30.5 -71.5q6 -12 29.5 -66.5t43.5 -91.5q7 5 16 23.5t15 28.5t20 14q9 63 9 149 q0 41 -2.5 94t-9 133t-11.5 140q0 45 7 89.5t24.5 111t21.5 84.5q42 22 88 22q50 -29 50 -92q-29 -119 -29 -260q0 -87 10 -207q1 -39 1.5 -72.5t0.5 -87.5q0 -59 -10 -98q-2 -40 -2 -121.5t-2 -120.5q4 -25 8.5 -107t13.5 -118q0 -12 2 -34.5t3.5 -45.5t1.5 -35 q0 -82 -66 -104q-15 -6 -33 -6q-32 0 -53 18l-59 101q-19 199 -105 313q-16 31 -36 74.5t-46 106.5t-47 112q0 21 -17 39t-20 28q-10 23 -35.5 89.5t-47 109t-50.5 76.5h-4q0 -7 5 -54.5t5 -78.5q0 -33 -8 -58q-6 -19 -14.5 -81.5t-16.5 -82.5l-2 -309q4 -32 4 -51 q0 -16 -2 -53t-2 -56q0 -28 2 -43q8 -19 15.5 -39.5t7.5 -39.5q0 -16 -6 -31q-5 -7 -22.5 -13t-24.5 -14q-61 8 -103 90q-14 38 -14 103q0 20 2 60t2 61q0 60 -12 100q6 40 6 80q0 20 -2 61t-2 62q0 64 14 121q0 39 8 93t8 76q0 41 -16 70q-4 46 -4 70q1 22 2 47t2 48 t1.5 38.5t0.5 44.5q0 87 -22 149zM144 1665q0 20 10 33q14 20 34 32t47 22.5t42 19.5q13 2 47.5 9t52.5 7q26 0 47 -8q24 -9 67 -39t77.5 -46.5t80.5 -16.5q34 0 86 28.5t78 28.5q21 0 37 -8q8 -11 8 -27q0 -15 -10 -37q-107 -94 -264 -94q-26 3 -55.5 16.5t-50 25t-47.5 21 t-50 9.5q-19 -8 -50 -26.5t-53 -28t-44 -9.5q-30 0 -60 27q-30 23 -30 61z" />
<glyph unicode="&#xd2;" horiz-adv-x="1040" d="M70 733q2 21 4 115.5t13 151t46 104.5q10 12 15.5 22.5t14.5 32.5t15 35q0 37 17.5 65.5t48 50.5t68 39.5t61.5 28.5q104 50 233 56q23 0 39 -9t38.5 -27t33.5 -22q25 -39 98 -71q17 -31 58 -78t61 -80t20 -80q27 -98 31 -252q0 -14 -5.5 -25t-15 -24t-18.5 -25 q4 -60 4 -90q0 -143 -43 -268q-18 -135 -56 -228.5t-130 -140.5q-24 -25 -51 -51.5t-56 -32.5q-27 0 -46.5 8t-38.5 24t-35 30q-42 4 -82 23.5t-81.5 48.5t-92.5 63q-97 127 -103 268q-22 47 -33 96.5t-17.5 106.5t-14.5 135zM231 705q0 -79 19 -146q0 -33 11.5 -66.5 t22.5 -67.5t11 -67q3 -43 21 -73.5t46.5 -55.5t59.5 -44.5t67 -43.5q16 0 55.5 -7t47.5 -7q45 0 63 35q11 19 16 27.5t10 19t5 22.5q11 24 14.5 43t5.5 56.5t5 56.5q37 142 37 315q1 26 8.5 64t7.5 63q0 21 -6 39q-4 43 -7.5 97t-8 87.5t-15.5 65.5q-22 37 -51.5 45.5 t-102.5 16.5q-44 -8 -115.5 -54t-109.5 -55q-11 -18 -41.5 -51.5t-46 -56.5t-16.5 -48q-2 -38 -7.5 -101t-5.5 -109zM293 1804q0 32 24 70q5 2 27 20t43 21q19 0 31.5 -13t27 -37.5t23.5 -33.5q7 -12 21 -31t19.5 -34t8.5 -35q15 -24 47 -34t55.5 -19t32.5 -37q4 -9 4 -23 q0 -26 -14 -43q-14 -24 -46 -31.5t-63 -13.5l-86 37q-12 27 -62 83t-71.5 86t-21.5 68z" />
<glyph unicode="&#xd3;" horiz-adv-x="1040" d="M70 733q2 21 4 115.5t13 151t46 104.5q10 12 15.5 22.5t14.5 32.5t15 35q0 37 17.5 65.5t48 50.5t68 39.5t61.5 28.5q104 50 233 56q23 0 39 -9t38.5 -27t33.5 -22q25 -39 98 -71q17 -31 58 -78t61 -80t20 -80q27 -98 31 -252q0 -14 -5.5 -25t-15 -24t-18.5 -25 q4 -60 4 -90q0 -143 -43 -268q-18 -135 -56 -228.5t-130 -140.5q-24 -25 -51 -51.5t-56 -32.5q-27 0 -46.5 8t-38.5 24t-35 30q-42 4 -82 23.5t-81.5 48.5t-92.5 63q-97 127 -103 268q-22 47 -33 96.5t-17.5 106.5t-14.5 135zM231 705q0 -79 19 -146q0 -33 11.5 -66.5 t22.5 -67.5t11 -67q3 -43 21 -73.5t46.5 -55.5t59.5 -44.5t67 -43.5q16 0 55.5 -7t47.5 -7q45 0 63 35q11 19 16 27.5t10 19t5 22.5q11 24 14.5 43t5.5 56.5t5 56.5q37 142 37 315q1 26 8.5 64t7.5 63q0 21 -6 39q-4 43 -7.5 97t-8 87.5t-15.5 65.5q-22 37 -51.5 45.5 t-102.5 16.5q-44 -8 -115.5 -54t-109.5 -55q-11 -18 -41.5 -51.5t-46 -56.5t-16.5 -48q-2 -38 -7.5 -101t-5.5 -109zM582 1612q1 43 21.5 88.5t53 96.5t35.5 57q18 40 63 88.5t95 48.5q8 0 24 -4q58 0 60 -33l-6 -30q-40 -64 -64.5 -101.5t-41 -61t-44.5 -56t-59 -60.5 q-36 -57 -70 -61q-27 2 -44 7t-23 21z" />
<glyph unicode="&#xd4;" horiz-adv-x="1040" d="M70 733q2 21 4 115.5t13 151t46 104.5q10 12 15.5 22.5t14.5 32.5t15 35q0 37 17.5 65.5t48 50.5t68 39.5t61.5 28.5q104 50 233 56q23 0 39 -9t38.5 -27t33.5 -22q25 -39 98 -71q17 -31 58 -78t61 -80t20 -80q27 -98 31 -252q0 -14 -5.5 -25t-15 -24t-18.5 -25 q4 -60 4 -90q0 -143 -43 -268q-18 -135 -56 -228.5t-130 -140.5q-24 -25 -51 -51.5t-56 -32.5q-27 0 -46.5 8t-38.5 24t-35 30q-42 4 -82 23.5t-81.5 48.5t-92.5 63q-97 127 -103 268q-22 47 -33 96.5t-17.5 106.5t-14.5 135zM231 705q0 -79 19 -146q0 -33 11.5 -66.5 t22.5 -67.5t11 -67q3 -43 21 -73.5t46.5 -55.5t59.5 -44.5t67 -43.5q16 0 55.5 -7t47.5 -7q45 0 63 35q11 19 16 27.5t10 19t5 22.5q11 24 14.5 43t5.5 56.5t5 56.5q37 142 37 315q1 26 8.5 64t7.5 63q0 21 -6 39q-4 43 -7.5 97t-8 87.5t-15.5 65.5q-22 37 -51.5 45.5 t-102.5 16.5q-44 -8 -115.5 -54t-109.5 -55q-11 -18 -41.5 -51.5t-46 -56.5t-16.5 -48q-2 -38 -7.5 -101t-5.5 -109zM252 1600q0 9 9 18.5t17 17.5q0 62 25 86q40 11 59.5 35t43.5 68t50.5 66t73.5 22l43 -8q24 -38 54.5 -68t81 -68.5t78.5 -61.5t48 -46q3 -9 6 -15.5 t5 -17.5q0 -10 -5 -20q-11 -14 -29.5 -17.5t-62.5 -3.5q-23 9 -61 46.5t-58 53t-49 15.5q-16 0 -34 -6q-24 -10 -41.5 -28.5t-35.5 -36.5t-42 -27q-67 -16 -111 -43q-9 4 -23.5 5t-24 5t-13.5 14q-4 8 -4 15z" />
<glyph unicode="&#xd5;" horiz-adv-x="1040" d="M70 733q2 21 4 115.5t13 151t46 104.5q10 12 15.5 22.5t14.5 32.5t15 35q0 37 17.5 65.5t48 50.5t68 39.5t61.5 28.5q104 50 233 56q23 0 39 -9t38.5 -27t33.5 -22q25 -39 98 -71q17 -31 58 -78t61 -80t20 -80q27 -98 31 -252q0 -14 -5.5 -25t-15 -24t-18.5 -25 q4 -60 4 -90q0 -143 -43 -268q-18 -135 -56 -228.5t-130 -140.5q-24 -25 -51 -51.5t-56 -32.5q-27 0 -46.5 8t-38.5 24t-35 30q-42 4 -82 23.5t-81.5 48.5t-92.5 63q-97 127 -103 268q-22 47 -33 96.5t-17.5 106.5t-14.5 135zM220 1613q0 20 10 33q14 20 34 32t47 22.5 t42 19.5q13 2 47.5 9t52.5 7q26 0 47 -8q24 -9 67 -39t77.5 -46.5t80.5 -16.5q34 0 86 28.5t78 28.5q21 0 37 -8q8 -11 8 -27q0 -15 -10 -37q-107 -94 -264 -94q-26 3 -55.5 16.5t-50 25t-47.5 21t-50 9.5q-19 -8 -50 -26.5t-53 -28t-44 -9.5q-30 0 -60 27q-30 23 -30 61z M231 705q0 -79 19 -146q0 -33 11.5 -66.5t22.5 -67.5t11 -67q3 -43 21 -73.5t46.5 -55.5t59.5 -44.5t67 -43.5q16 0 55.5 -7t47.5 -7q45 0 63 35q11 19 16 27.5t10 19t5 22.5q11 24 14.5 43t5.5 56.5t5 56.5q37 142 37 315q1 26 8.5 64t7.5 63q0 21 -6 39q-4 43 -7.5 97 t-8 87.5t-15.5 65.5q-22 37 -51.5 45.5t-102.5 16.5q-44 -8 -115.5 -54t-109.5 -55q-11 -18 -41.5 -51.5t-46 -56.5t-16.5 -48q-2 -38 -7.5 -101t-5.5 -109z" />
<glyph unicode="&#xd6;" horiz-adv-x="1040" d="M70 733q2 21 4 115.5t13 151t46 104.5q10 12 15.5 22.5t14.5 32.5t15 35q0 37 17.5 65.5t48 50.5t68 39.5t61.5 28.5q104 50 233 56q23 0 39 -9t38.5 -27t33.5 -22q25 -39 98 -71q17 -31 58 -78t61 -80t20 -80q27 -98 31 -252q0 -14 -5.5 -25t-15 -24t-18.5 -25 q4 -60 4 -90q0 -143 -43 -268q-18 -135 -56 -228.5t-130 -140.5q-24 -25 -51 -51.5t-56 -32.5q-27 0 -46.5 8t-38.5 24t-35 30q-42 4 -82 23.5t-81.5 48.5t-92.5 63q-97 127 -103 268q-22 47 -33 96.5t-17.5 106.5t-14.5 135zM231 705q0 -79 19 -146q0 -33 11.5 -66.5 t22.5 -67.5t11 -67q3 -43 21 -73.5t46.5 -55.5t59.5 -44.5t67 -43.5q16 0 55.5 -7t47.5 -7q45 0 63 35q11 19 16 27.5t10 19t5 22.5q11 24 14.5 43t5.5 56.5t5 56.5q37 142 37 315q1 26 8.5 64t7.5 63q0 21 -6 39q-4 43 -7.5 97t-8 87.5t-15.5 65.5q-22 37 -51.5 45.5 t-102.5 16.5q-44 -8 -115.5 -54t-109.5 -55q-11 -18 -41.5 -51.5t-46 -56.5t-16.5 -48q-2 -38 -7.5 -101t-5.5 -109zM306 1702q20 55 61 69q20 5 37 5q83 0 137 -66q12 -21 17 -45q0 -11 -7 -27q-19 -42 -57 -51q-15 -6 -31 -6q-21 0 -54 13.5t-50 15.5q-45 43 -53 92z M666 1673q0 20 18.5 52t22.5 44q12 5 39 5q39 0 74 -15q10 -14 18 -24t13.5 -22.5t5.5 -22.5q0 -4 -5 -19q-35 -48 -94 -70q-81 0 -86 48q-6 12 -6 24z" />
<glyph unicode="&#xd8;" horiz-adv-x="1214" d="M70 -57l14 63q10 24 27 45t39 42.5t47 45.5q4 12 39 60q-7 24 -20.5 68.5t-22.5 70.5q0 118 16 209q-41 80 -41 186q0 130 70 201q8 13 40 75.5t56.5 98.5t54.5 61q18 14 50.5 45.5t56 50.5t51.5 31q26 8 63.5 22.5t63 22t53.5 7.5q25 0 45 -7q20 -5 42 -12t36.5 -16.5 t26.5 -28.5q44 -46 69 -125l2 6q10 15 36.5 61t37.5 64q32 47 49.5 65.5t34.5 18.5q37 -18 37 -92q-3 -18 -11.5 -29t-30 -34t-28.5 -39q-20 -22 -36 -51t-33 -73t-23 -55q-3 -5 -5.5 -9.5t-6.5 -12.5q75 -91 75 -209q0 -58 -20 -104q0 -95 -12 -136q0 -91 -3 -151t-18 -115 q-23 -85 -46.5 -146t-64.5 -118t-102 -92q-30 -4 -94 -4q-80 0 -143 16q-16 14 -43 16.5t-52 5t-40 19.5q-13 13 -44 31t-46 29.5t-25 29.5q-24 -34 -60 -80q-11 -17 -51.5 -49.5t-50.5 -34.5q-40 3 -59 56zM348 690q0 -24 12 -51q8 -33 11 -56.5t5 -64t2.5 -66.5t0.5 -57 q4 9 9 15.5t8 10.5t5 7q54 76 92 128.5t80 103.5t86 88q17 29 55.5 79.5t53.5 81.5q8 10 15.5 19t15 18.5t14.5 18.5q8 32 8 51q0 23 -10 39q-17 44 -61 53q-12 0 -33 1.5t-42.5 3t-33.5 1.5q-68 0 -92 -55q-35 -21 -60.5 -48t-57.5 -70t-50 -64q4 -22 4 -31q0 -25 -9 -51.5 t-18.5 -53t-9.5 -51.5zM395 199q9 -18 39 -45q10 -11 25 -11q9 0 31.5 9.5t31.5 9.5q14 0 29 -12q0 -15 9.5 -23t30.5 -16t25 -11q22 1 39 2.5t36 3.5t38.5 3.5t44.5 1.5t60 -5l10 9q41 98 41 276q0 121 -2 180q-11 38 -11 66q0 52 23 98q0 60 -39 123q-34 -30 -51 -43 q-15 -21 -55.5 -93.5t-75.5 -107.5q-70 -95 -127 -198q-16 -20 -44 -69t-44 -68q-12 -13 -64 -80z" />
<glyph unicode="&#xd9;" horiz-adv-x="940" d="M70 1135q0 22 3.5 44t8 45t7.5 44t3 35q60 96 162 96q17 -15 31 -55.5t24 -53.5q6 -21 6 -43q0 -18 -4 -52t-4 -50q20 -31 33.5 -63.5t13.5 -77.5q-4 -68 -9 -145.5t-13 -135.5t-29 -121q-1 -44 -6.5 -135t-5.5 -117q10 -5 10 -10q-1 -2 -6.5 -11.5t-5.5 -13.5 q0 -38 18.5 -70.5t47 -57.5t69.5 -54q23 0 55 -14.5t49 -14.5q18 0 33 9q24 10 44 24.5t46.5 37t40.5 32.5q13 18 13 51q1 12 1.5 22.5t0.5 41.5q1 16 1.5 29.5t0.5 37.5q0 67 -21 105q0 60 4 173t4 169q0 59 -2 90q1 38 1.5 70t0.5 85q0 20 -4 62q7 36 15 75t8 68 q0 39 -8 72q0 52 43 69q17 13 38 13q27 0 51 -19.5t38 -46.5l8 -53l-45 -211q0 -104 -11 -143q7 -49 7 -105q0 -32 -3.5 -91t-7.5 -117t-4 -91q0 -72 13 -137q4 -23 4 -64q0 -26 -4 -76.5t-5 -72.5l-51 -119q-20 -14 -60 -47.5t-71 -51t-67 -20.5q-31 -16 -68 -16 q-33 0 -92.5 22.5t-93.5 26.5q-9 9 -41.5 33.5t-49.5 39t-30 38.5q0 13 -10.5 26.5t-10.5 22.5q-3 78 -55 127q0 16 3 65.5t3 73.5t-6 45q-39 76 -39 160q0 43 4 63q-4 17 -4 48q4 52 4 94q0 18 2 57t2 60q0 73 -20 114q-8 28 -8 60zM263 1783q0 32 24 70q5 2 27 20t43 21 q19 0 31.5 -13t27 -37.5t23.5 -33.5q7 -12 21 -31t19.5 -34t8.5 -35q15 -24 47 -34t55.5 -19t32.5 -37q4 -9 4 -23q0 -26 -14 -43q-14 -24 -46 -31.5t-63 -13.5l-86 37q-12 27 -62 83t-71.5 86t-21.5 68z" />
<glyph unicode="&#xda;" horiz-adv-x="940" d="M70 1135q0 22 3.5 44t8 45t7.5 44t3 35q60 96 162 96q17 -15 31 -55.5t24 -53.5q6 -21 6 -43q0 -18 -4 -52t-4 -50q20 -31 33.5 -63.5t13.5 -77.5q-4 -68 -9 -145.5t-13 -135.5t-29 -121q-1 -44 -6.5 -135t-5.5 -117q10 -5 10 -10q-1 -2 -6.5 -11.5t-5.5 -13.5 q0 -38 18.5 -70.5t47 -57.5t69.5 -54q23 0 55 -14.5t49 -14.5q18 0 33 9q24 10 44 24.5t46.5 37t40.5 32.5q13 18 13 51q1 12 1.5 22.5t0.5 41.5q1 16 1.5 29.5t0.5 37.5q0 67 -21 105q0 60 4 173t4 169q0 59 -2 90q1 38 1.5 70t0.5 85q0 20 -4 62q7 36 15 75t8 68 q0 39 -8 72q0 52 43 69q17 13 38 13q27 0 51 -19.5t38 -46.5l8 -53l-45 -211q0 -104 -11 -143q7 -49 7 -105q0 -32 -3.5 -91t-7.5 -117t-4 -91q0 -72 13 -137q4 -23 4 -64q0 -26 -4 -76.5t-5 -72.5l-51 -119q-20 -14 -60 -47.5t-71 -51t-67 -20.5q-31 -16 -68 -16 q-33 0 -92.5 22.5t-93.5 26.5q-9 9 -41.5 33.5t-49.5 39t-30 38.5q0 13 -10.5 26.5t-10.5 22.5q-3 78 -55 127q0 16 3 65.5t3 73.5t-6 45q-39 76 -39 160q0 43 4 63q-4 17 -4 48q4 52 4 94q0 18 2 57t2 60q0 73 -20 114q-8 28 -8 60zM486 1599q1 43 21.5 88.5t53 96.5 t35.5 57q18 40 63 88.5t95 48.5q8 0 24 -4q58 0 60 -33l-6 -30q-40 -64 -64.5 -101.5t-41 -61t-44.5 -56t-59 -60.5q-36 -57 -70 -61q-27 2 -44 7t-23 21z" />
<glyph unicode="&#xdb;" horiz-adv-x="940" d="M70 1135q0 22 3.5 44t8 45t7.5 44t3 35q60 96 162 96q17 -15 31 -55.5t24 -53.5q6 -21 6 -43q0 -18 -4 -52t-4 -50q20 -31 33.5 -63.5t13.5 -77.5q-4 -68 -9 -145.5t-13 -135.5t-29 -121q-1 -44 -6.5 -135t-5.5 -117q10 -5 10 -10q-1 -2 -6.5 -11.5t-5.5 -13.5 q0 -38 18.5 -70.5t47 -57.5t69.5 -54q23 0 55 -14.5t49 -14.5q18 0 33 9q24 10 44 24.5t46.5 37t40.5 32.5q13 18 13 51q1 12 1.5 22.5t0.5 41.5q1 16 1.5 29.5t0.5 37.5q0 67 -21 105q0 60 4 173t4 169q0 59 -2 90q1 38 1.5 70t0.5 85q0 20 -4 62q7 36 15 75t8 68 q0 39 -8 72q0 52 43 69q17 13 38 13q27 0 51 -19.5t38 -46.5l8 -53l-45 -211q0 -104 -11 -143q7 -49 7 -105q0 -32 -3.5 -91t-7.5 -117t-4 -91q0 -72 13 -137q4 -23 4 -64q0 -26 -4 -76.5t-5 -72.5l-51 -119q-20 -14 -60 -47.5t-71 -51t-67 -20.5q-31 -16 -68 -16 q-33 0 -92.5 22.5t-93.5 26.5q-9 9 -41.5 33.5t-49.5 39t-30 38.5q0 13 -10.5 26.5t-10.5 22.5q-3 78 -55 127q0 16 3 65.5t3 73.5t-6 45q-39 76 -39 160q0 43 4 63q-4 17 -4 48q4 52 4 94q0 18 2 57t2 60q0 73 -20 114q-8 28 -8 60zM203 1541q0 9 9 18.5t17 17.5 q0 62 25 86q40 11 59.5 35t43.5 68t50.5 66t73.5 22l43 -8q24 -38 54.5 -68t81 -68.5t78.5 -61.5t48 -46q3 -9 6 -15.5t5 -17.5q0 -10 -5 -20q-11 -14 -29.5 -17.5t-62.5 -3.5q-23 9 -61 46.5t-58 53t-49 15.5q-16 0 -34 -6q-24 -10 -41.5 -28.5t-35.5 -36.5t-42 -27 q-67 -16 -111 -43q-9 4 -23.5 5t-24 5t-13.5 14q-4 8 -4 15z" />
<glyph unicode="&#xdc;" horiz-adv-x="940" d="M70 1135q0 22 3.5 44t8 45t7.5 44t3 35q60 96 162 96q17 -15 31 -55.5t24 -53.5q6 -21 6 -43q0 -18 -4 -52t-4 -50q20 -31 33.5 -63.5t13.5 -77.5q-4 -68 -9 -145.5t-13 -135.5t-29 -121q-1 -44 -6.5 -135t-5.5 -117q10 -5 10 -10q-1 -2 -6.5 -11.5t-5.5 -13.5 q0 -38 18.5 -70.5t47 -57.5t69.5 -54q23 0 55 -14.5t49 -14.5q18 0 33 9q24 10 44 24.5t46.5 37t40.5 32.5q13 18 13 51q1 12 1.5 22.5t0.5 41.5q1 16 1.5 29.5t0.5 37.5q0 67 -21 105q0 60 4 173t4 169q0 59 -2 90q1 38 1.5 70t0.5 85q0 20 -4 62q7 36 15 75t8 68 q0 39 -8 72q0 52 43 69q17 13 38 13q27 0 51 -19.5t38 -46.5l8 -53l-45 -211q0 -104 -11 -143q7 -49 7 -105q0 -32 -3.5 -91t-7.5 -117t-4 -91q0 -72 13 -137q4 -23 4 -64q0 -26 -4 -76.5t-5 -72.5l-51 -119q-20 -14 -60 -47.5t-71 -51t-67 -20.5q-31 -16 -68 -16 q-33 0 -92.5 22.5t-93.5 26.5q-9 9 -41.5 33.5t-49.5 39t-30 38.5q0 13 -10.5 26.5t-10.5 22.5q-3 78 -55 127q0 16 3 65.5t3 73.5t-6 45q-39 76 -39 160q0 43 4 63q-4 17 -4 48q4 52 4 94q0 18 2 57t2 60q0 73 -20 114q-8 28 -8 60zM230 1651q20 55 61 69q20 5 37 5 q83 0 137 -66q12 -21 17 -45q0 -11 -7 -27q-19 -42 -57 -51q-15 -6 -31 -6q-21 0 -54 13.5t-50 15.5q-45 43 -53 92zM590 1622q0 20 18.5 52t22.5 44q12 5 39 5q39 0 74 -15q10 -14 18 -24t13.5 -22.5t5.5 -22.5q0 -4 -5 -19q-35 -48 -94 -70q-81 0 -86 48q-6 12 -6 24z" />
<glyph unicode="&#xdf;" horiz-adv-x="944" d="M63 115q0 22 7 71l34 84l-8 353q6 29 19.5 80.5t20.5 91t7 73.5q0 15 -4 47q-4 38 -4 54q0 140 117 278q18 18 45 21.5t62 5.5t53 16l157 -39q70 -37 104 -119t34 -165q0 -54 -15 -93q-16 -35 -16 -65q0 -28 12.5 -50.5t48 -66.5t37.5 -47q100 -112 100 -254 q0 -76 -30 -172q-16 -32 -62 -81.5t-53 -57.5q-27 -7 -63.5 -23.5t-60 -25t-50.5 -8.5q-26 0 -47 8q-10 -2 -27 -13.5t-30 -11.5q-10 0 -21 8q-48 25 -65 46t-17 30q4 48 14.5 80t16.5 43q16 16 43 16q22 0 45 -10q23 -37 53 -37q14 0 31.5 7t46 21.5t44 21t36.5 6.5 q33 18 44.5 59t13 95.5t1.5 94.5q-20 33 -29.5 74t-24.5 60.5t-73 48.5q-10 5 -34 11t-39.5 10t-28.5 11q-25 17 -25 39q0 10 3.5 18.5t8.5 18t9 17.5q32 17 46 41.5t18 58t7 63.5q-11 23 -23.5 48.5t-30 44.5t-42.5 26q-23 51 -76 51q-50 0 -77 -43q-22 -32 -27.5 -67.5 t-5.5 -85.5q1 -27 14.5 -45t42.5 -41q10 -10 10 -35q0 -8 -2 -20t-4 -21.5t-4 -21.5q-56 -49 -76.5 -113t-37.5 -176q5 -51 17.5 -121t12.5 -84q0 -7 3 -24t3 -35q0 -7 2 -17t3.5 -21t1.5 -20q-9 -8 -9 -26q0 -17 4 -45q-37 -84 -127 -84q-45 0 -73 59q-11 29 -11 74z" />
<glyph unicode="&#xe0;" horiz-adv-x="879" d="M66 608q0 20 4 66q16 41 24 79t8 93q0 32 30.5 70.5t33.5 58.5q69 102 205 102q45 13 90 13q91 0 180 -37q8 -2 21 -2q14 0 22 2q3 4 6.5 27.5t18.5 27.5q28 0 51 -13.5t33 -39.5q-5 -103 -5 -123q0 -64 3.5 -140t6.5 -129.5t5 -117.5q0 -16 -2 -49t-2 -52q0 -32 4 -49 q-4 -28 -4 -41q0 -30 6.5 -59t19.5 -80q-14 -36 -14 -94q0 -14 2 -47t2 -49q-9 -27 -32.5 -45t-53.5 -19q-30 13 -42.5 66.5t-14.5 56.5q-28 -12 -76.5 -48t-80.5 -55.5t-69 -23.5q-18 0 -58 -4t-62 -4q-51 0 -88 20q-123 117 -152 303q2 17 2 52q0 49 -12 151 q-10 113 -10 133zM191 1501q0 32 24 70q5 2 27 20t43 21q19 0 31.5 -13t27 -37.5t23.5 -33.5q7 -12 21 -31t19.5 -34t8.5 -35q15 -24 47 -34t55.5 -19t32.5 -37q4 -9 4 -23q0 -26 -14 -43q-14 -24 -46 -31.5t-63 -13.5l-86 37q-12 27 -62 83t-71.5 86t-21.5 68zM238 741 q0 -23 22 -71q5 -15 8 -35q-4 -24 -4 -35q0 -13 2 -37t2 -35q0 -40 -16 -69q0 -85 6.5 -153t28.5 -126q9 -25 32.5 -39t51.5 -14q16 -4 24 -4q19 0 39 9t43.5 26t44.5 29.5t41 15.5q17 6 53 6q33 0 43 16q13 78 13 197q0 54 -4 164t-4 164q0 79 4 120q-34 10 -60 43 q-21 6 -49 17t-49.5 16.5t-42.5 5.5q-13 0 -33 -4q-8 -6 -27.5 -12t-25.5 -12q-18 -13 -28 -26t-19 -29t-17 -31q-18 -32 -33.5 -48.5t-41.5 -23.5q-4 -8 -4 -25z" />
<glyph unicode="&#xe1;" horiz-adv-x="879" d="M66 608q0 20 4 66q16 41 24 79t8 93q0 32 30.5 70.5t33.5 58.5q69 102 205 102q45 13 90 13q91 0 180 -37q8 -2 21 -2q14 0 22 2q3 4 6.5 27.5t18.5 27.5q28 0 51 -13.5t33 -39.5q-5 -103 -5 -123q0 -64 3.5 -140t6.5 -129.5t5 -117.5q0 -16 -2 -49t-2 -52q0 -32 4 -49 q-4 -28 -4 -41q0 -30 6.5 -59t19.5 -80q-14 -36 -14 -94q0 -14 2 -47t2 -49q-9 -27 -32.5 -45t-53.5 -19q-30 13 -42.5 66.5t-14.5 56.5q-28 -12 -76.5 -48t-80.5 -55.5t-69 -23.5q-18 0 -58 -4t-62 -4q-51 0 -88 20q-123 117 -152 303q2 17 2 52q0 49 -12 151 q-10 113 -10 133zM238 741q0 -23 22 -71q5 -15 8 -35q-4 -24 -4 -35q0 -13 2 -37t2 -35q0 -40 -16 -69q0 -85 6.5 -153t28.5 -126q9 -25 32.5 -39t51.5 -14q16 -4 24 -4q19 0 39 9t43.5 26t44.5 29.5t41 15.5q17 6 53 6q33 0 43 16q13 78 13 197q0 54 -4 164t-4 164 q0 79 4 120q-34 10 -60 43q-21 6 -49 17t-49.5 16.5t-42.5 5.5q-13 0 -33 -4q-8 -6 -27.5 -12t-25.5 -12q-18 -13 -28 -26t-19 -29t-17 -31q-18 -32 -33.5 -48.5t-41.5 -23.5q-4 -8 -4 -25zM465 1280q1 43 21.5 88.5t53 96.5t35.5 57q18 40 63 88.5t95 48.5q8 0 24 -4 q58 0 60 -33l-6 -30q-40 -64 -64.5 -101.5t-41 -61t-44.5 -56t-59 -60.5q-36 -57 -70 -61q-27 2 -44 7t-23 21z" />
<glyph unicode="&#xe2;" horiz-adv-x="879" d="M66 608q0 20 4 66q16 41 24 79t8 93q0 32 30.5 70.5t33.5 58.5q69 102 205 102q45 13 90 13q91 0 180 -37q8 -2 21 -2q14 0 22 2q3 4 6.5 27.5t18.5 27.5q28 0 51 -13.5t33 -39.5q-5 -103 -5 -123q0 -64 3.5 -140t6.5 -129.5t5 -117.5q0 -16 -2 -49t-2 -52q0 -32 4 -49 q-4 -28 -4 -41q0 -30 6.5 -59t19.5 -80q-14 -36 -14 -94q0 -14 2 -47t2 -49q-9 -27 -32.5 -45t-53.5 -19q-30 13 -42.5 66.5t-14.5 56.5q-28 -12 -76.5 -48t-80.5 -55.5t-69 -23.5q-18 0 -58 -4t-62 -4q-51 0 -88 20q-123 117 -152 303q2 17 2 52q0 49 -12 151 q-10 113 -10 133zM181 1299q0 9 9 18.5t17 17.5q0 62 25 86q40 11 59.5 35t43.5 68t50.5 66t73.5 22l43 -8q24 -38 54.5 -68t81 -68.5t78.5 -61.5t48 -46q3 -9 6 -15.5t5 -17.5q0 -10 -5 -20q-11 -14 -29.5 -17.5t-62.5 -3.5q-23 9 -61 46.5t-58 53t-49 15.5q-16 0 -34 -6 q-24 -10 -41.5 -28.5t-35.5 -36.5t-42 -27q-67 -16 -111 -43q-9 4 -23.5 5t-24 5t-13.5 14q-4 8 -4 15zM238 741q0 -23 22 -71q5 -15 8 -35q-4 -24 -4 -35q0 -13 2 -37t2 -35q0 -40 -16 -69q0 -85 6.5 -153t28.5 -126q9 -25 32.5 -39t51.5 -14q16 -4 24 -4q19 0 39 9 t43.5 26t44.5 29.5t41 15.5q17 6 53 6q33 0 43 16q13 78 13 197q0 54 -4 164t-4 164q0 79 4 120q-34 10 -60 43q-21 6 -49 17t-49.5 16.5t-42.5 5.5q-13 0 -33 -4q-8 -6 -27.5 -12t-25.5 -12q-18 -13 -28 -26t-19 -29t-17 -31q-18 -32 -33.5 -48.5t-41.5 -23.5q-4 -8 -4 -25 z" />
<glyph unicode="&#xe3;" horiz-adv-x="879" d="M66 608q0 20 4 66q16 41 24 79t8 93q0 32 30.5 70.5t33.5 58.5q69 102 205 102q45 13 90 13q91 0 180 -37q8 -2 21 -2q14 0 22 2q3 4 6.5 27.5t18.5 27.5q28 0 51 -13.5t33 -39.5q-5 -103 -5 -123q0 -64 3.5 -140t6.5 -129.5t5 -117.5q0 -16 -2 -49t-2 -52q0 -32 4 -49 q-4 -28 -4 -41q0 -30 6.5 -59t19.5 -80q-14 -36 -14 -94q0 -14 2 -47t2 -49q-9 -27 -32.5 -45t-53.5 -19q-30 13 -42.5 66.5t-14.5 56.5q-28 -12 -76.5 -48t-80.5 -55.5t-69 -23.5q-18 0 -58 -4t-62 -4q-51 0 -88 20q-123 117 -152 303q2 17 2 52q0 49 -12 151 q-10 113 -10 133zM113 1357q0 20 10 33q14 20 34 32t47 22.5t42 19.5q13 2 47.5 9t52.5 7q26 0 47 -8q24 -9 67 -39t77.5 -46.5t80.5 -16.5q34 0 86 28.5t78 28.5q21 0 37 -8q8 -11 8 -27q0 -15 -10 -37q-107 -94 -264 -94q-26 3 -55.5 16.5t-50 25t-47.5 21t-50 9.5 q-19 -8 -50 -26.5t-53 -28t-44 -9.5q-30 0 -60 27q-30 23 -30 61zM238 741q0 -23 22 -71q5 -15 8 -35q-4 -24 -4 -35q0 -13 2 -37t2 -35q0 -40 -16 -69q0 -85 6.5 -153t28.5 -126q9 -25 32.5 -39t51.5 -14q16 -4 24 -4q19 0 39 9t43.5 26t44.5 29.5t41 15.5q17 6 53 6 q33 0 43 16q13 78 13 197q0 54 -4 164t-4 164q0 79 4 120q-34 10 -60 43q-21 6 -49 17t-49.5 16.5t-42.5 5.5q-13 0 -33 -4q-8 -6 -27.5 -12t-25.5 -12q-18 -13 -28 -26t-19 -29t-17 -31q-18 -32 -33.5 -48.5t-41.5 -23.5q-4 -8 -4 -25z" />
<glyph unicode="&#xe4;" horiz-adv-x="879" d="M66 608q0 20 4 66q16 41 24 79t8 93q0 32 30.5 70.5t33.5 58.5q69 102 205 102q45 13 90 13q91 0 180 -37q8 -2 21 -2q14 0 22 2q3 4 6.5 27.5t18.5 27.5q28 0 51 -13.5t33 -39.5q-5 -103 -5 -123q0 -64 3.5 -140t6.5 -129.5t5 -117.5q0 -16 -2 -49t-2 -52q0 -32 4 -49 q-4 -28 -4 -41q0 -30 6.5 -59t19.5 -80q-14 -36 -14 -94q0 -14 2 -47t2 -49q-9 -27 -32.5 -45t-53.5 -19q-30 13 -42.5 66.5t-14.5 56.5q-28 -12 -76.5 -48t-80.5 -55.5t-69 -23.5q-18 0 -58 -4t-62 -4q-51 0 -88 20q-123 117 -152 303q2 17 2 52q0 49 -12 151 q-10 113 -10 133zM238 741q0 -23 22 -71q5 -15 8 -35q-4 -24 -4 -35q0 -13 2 -37t2 -35q0 -40 -16 -69q0 -85 6.5 -153t28.5 -126q9 -25 32.5 -39t51.5 -14q16 -4 24 -4q19 0 39 9t43.5 26t44.5 29.5t41 15.5q17 6 53 6q33 0 43 16q13 78 13 197q0 54 -4 164t-4 164 q0 79 4 120q-34 10 -60 43q-21 6 -49 17t-49.5 16.5t-42.5 5.5q-13 0 -33 -4q-8 -6 -27.5 -12t-25.5 -12q-18 -13 -28 -26t-19 -29t-17 -31q-18 -32 -33.5 -48.5t-41.5 -23.5q-4 -8 -4 -25zM242 1391q20 55 61 69q20 5 37 5q83 0 137 -66q12 -21 17 -45q0 -11 -7 -27 q-19 -42 -57 -51q-15 -6 -31 -6q-21 0 -54 13.5t-50 15.5q-45 43 -53 92zM602 1362q0 20 18.5 52t22.5 44q12 5 39 5q39 0 74 -15q10 -14 18 -24t13.5 -22.5t5.5 -22.5q0 -4 -5 -19q-35 -48 -94 -70q-81 0 -86 48q-6 12 -6 24z" />
<glyph unicode="&#xe5;" horiz-adv-x="879" d="M66 608q0 20 4 66q16 41 24 79t8 93q0 32 30.5 70.5t33.5 58.5q69 102 205 102q45 13 90 13q91 0 180 -37q8 -2 21 -2q14 0 22 2q3 4 6.5 27.5t18.5 27.5q28 0 51 -13.5t33 -39.5q-5 -103 -5 -123q0 -64 3.5 -140t6.5 -129.5t5 -117.5q0 -16 -2 -49t-2 -52q0 -32 4 -49 q-4 -28 -4 -41q0 -30 6.5 -59t19.5 -80q-14 -36 -14 -94q0 -14 2 -47t2 -49q-9 -27 -32.5 -45t-53.5 -19q-30 13 -42.5 66.5t-14.5 56.5q-28 -12 -76.5 -48t-80.5 -55.5t-69 -23.5q-18 0 -58 -4t-62 -4q-51 0 -88 20q-123 117 -152 303q2 17 2 52q0 49 -12 151 q-10 113 -10 133zM236 1522q9 18 17.5 58.5t20.5 63t42 34.5q92 49 174 49q56 0 94 -25l43 -6q23 -16 38 -39.5t22 -46.5t14 -57t12 -60q-21 -106 -105 -157q-65 -45 -176 -45q-72 15 -125 82.5t-71 148.5zM238 741q0 -23 22 -71q5 -15 8 -35q-4 -24 -4 -35q0 -13 2 -37 t2 -35q0 -40 -16 -69q0 -85 6.5 -153t28.5 -126q9 -25 32.5 -39t51.5 -14q16 -4 24 -4q19 0 39 9t43.5 26t44.5 29.5t41 15.5q17 6 53 6q33 0 43 16q13 78 13 197q0 54 -4 164t-4 164q0 79 4 120q-34 10 -60 43q-21 6 -49 17t-49.5 16.5t-42.5 5.5q-13 0 -33 -4 q-8 -6 -27.5 -12t-25.5 -12q-18 -13 -28 -26t-19 -29t-17 -31q-18 -32 -33.5 -48.5t-41.5 -23.5q-4 -8 -4 -25zM354 1573q0 -15 4 -29.5t8.5 -28.5t11 -31t7.5 -23q8 -27 31.5 -44.5t52.5 -17.5q17 0 35 6q25 18 44 31.5t32.5 31.5t13.5 40q0 13 -6 28q-6 30 -23.5 47.5 t-40.5 26t-53 8.5q-37 0 -68 -12t-49 -33z" />
<glyph unicode="&#xe6;" horiz-adv-x="1262" d="M70 315q0 34 10 87l10 53q-10 102 -10 116q0 34 8 99q13 90 33.5 160.5t64.5 126t119 75.5q5 4 41.5 24.5t54 39.5t17.5 49q27 31 74.5 47t97.5 16q44 0 59 -12q6 -4 14.5 -22t8.5 -54q0 -11 -4 -45q70 -7 135.5 -14t115.5 -19.5t90 -41.5t46 -76q10 -33 36.5 -75.5 t37 -65.5t10.5 -66q8 -8 8 -27q0 -16 -5 -46t-5 -36q0 -17 -23 -27.5t-72.5 -22t-50.5 -11.5q-58 18 -86 18q-24 0 -72.5 -16t-93.5 -21l-18 -10q0 -22 -4 -69t-4 -72q0 -77 35 -119q11 -7 21.5 -33t18.5 -35q14 -3 47 -14.5t52 -11.5q26 0 45 16q48 19 72.5 62.5t52 96.5 t67.5 73q48 0 68 -43q0 -25 -23.5 -56.5t-27.5 -46.5q-14 -23 -34.5 -85t-43 -98t-68.5 -56q-38 -19 -86 -19q-82 0 -159 51q-15 33 -33 35q-15 0 -23 -10q0 -14 6.5 -32.5t6.5 -35.5q0 -9 -5 -22q-4 -26 -5 -29t-17 -10q-18 -6 -37 -6q-34 0 -55 18l-14.5 29t-12.5 24 q-29 0 -73 -16t-64 -16q-18 0 -33 6q-28 12 -80 14.5t-83 10.5t-54 40q-30 32 -41.5 58t-27.5 79t-31 83q-4 20 -4 36zM221 377q0 -16 4 -58q11 -19 31 -57t41 -60.5t55 -33.5q12 -6 25 -6q32 0 113 40t116 52q17 64 17 129q0 108 -39 303t-45 195q0 28 -36 43.5t-102 15.5 q-119 -96 -147 -180q6 -34 6 -70q0 -39 -4.5 -68.5t-13.5 -77t-15 -94t-6 -73.5zM702 899q0 -176 15 -256q29 25 63 34.5t86.5 14.5t79.5 8q10 6 31 8t34 6t23 19q0 3 2 15t2 18q0 18 -6 27q-52 36 -90 120q-27 35 -108 35q-24 0 -38 -0.5t-30 -1.5q-42 -13 -64 -47z" />
<glyph unicode="&#xe7;" horiz-adv-x="887" d="M70 434q0 32 7.5 70t20.5 88q23 80 23 137q0 46 -10 82q-9 15 -9 41q0 49 33 92q61 34 103 98q78 82 231 82q37 0 111 -8l43 -20q16 -30 37.5 -54t53 -52t48.5 -44q28 -24 47 -49q0 -16 -6.5 -20.5t-7.5 -4.5l-9 -4q-6 -2 -9 -4t-7 -4q-24 0 -46 7.5t-41.5 18.5t-47.5 29 q-61 39 -109 39q-26 0 -51 -8q-69 -11 -124.5 -71t-84.5 -136q0 -49 -12 -102q-6 -34 -6 -113q36 -57 55 -132t29 -165q41 -64 129 -84q78 4 162 88q56 53 80 72t57 29q37 -3 51 -41q6 -18 6 -33q0 -34 -37 -78q-18 -22 -31.5 -37t-25.5 -32.5t-18 -34.5q-21 -14 -44 -30 t-41.5 -26t-46.5 -18q-10 -13 -10 -27q0 -15 10 -28q119 -31 220 -174q4 -9 4 -25q0 -33 -43 -82q-11 -10 -29 -28q-55 -40 -125 -64.5t-137 -24.5q-72 0 -146 31q-22 9 -22 35q0 13 10 25q24 22 54.5 29t84.5 14q50 4 86 16.5t62 46.5q0 32 -29 55l-8 6q-2 3 -8 9 q-68 2 -114 16.5t-68 52.5v29q6 30 6 35q0 49 -33 61q-50 6 -74.5 32.5t-40.5 78.5q-13 53 -24 103t-29 81q-73 20 -96 82q-4 32 -4 47z" />
<glyph unicode="&#xe8;" horiz-adv-x="963" d="M70 516q4 55 34 88q14 77 22 120.5t27.5 91t51.5 83.5q19 0 26.5 7.5t26.5 31.5q11 15 16 18q11 9 52 46t73 59t68 33q126 -5 224 -48t138 -145q36 -51 50 -76q16 -32 16 -90q0 -30 2 -47q10 -60 10 -74q0 -40 -28 -63q-28 -20 -95 -26t-69 -7q-17 2 -49 2q-15 0 -56 -2 t-73 -2q-38 0 -61.5 -0.5t-51.5 -1.5q-35 0 -51 4q-27 0 -47 -14q5 -42 5 -106.5t4 -111.5t19 -87q42 -42 82 -64t94 -22q122 21 166 106q42 35 72 35q13 0 27 -6q50 -22 65 -64q6 -12 6 -22q0 -12 -6 -32t-6 -32q-12 -21 -30 -37.5t-42.5 -33t-48.5 -33.5 q-115 -35 -215 -35q-140 0 -242 66q-27 13 -45.5 36t-35.5 61.5t-25 53.5q-14 33 -35 53q-11 31 -21 106t-16.5 110t-27.5 71zM224 1480q0 32 24 70q5 2 27 20t43 21q19 0 31.5 -13t27 -37.5t23.5 -33.5q7 -12 21 -31t19.5 -34t8.5 -35q15 -24 47 -34t55.5 -19t32.5 -37 q4 -9 4 -23q0 -26 -14 -43q-14 -24 -46 -31.5t-63 -13.5l-86 37q-12 27 -62 83t-71.5 86t-21.5 68zM326 666q0 -20 10 -43q78 -5 94 -5q57 0 98.5 3t100.5 9t110 11l17 10q4 13 4 35q0 50 -31 92q-12 21 -36.5 52.5l-45.5 58.5q-20 16 -42 21.5t-75 13.5q-29 0 -55 -11.5 t-44.5 -28t-41 -42t-37.5 -43.5q-1 -27 -13.5 -69t-12.5 -64z" />
<glyph unicode="&#xe9;" horiz-adv-x="963" d="M70 516q4 55 34 88q14 77 22 120.5t27.5 91t51.5 83.5q19 0 26.5 7.5t26.5 31.5q11 15 16 18q11 9 52 46t73 59t68 33q126 -5 224 -48t138 -145q36 -51 50 -76q16 -32 16 -90q0 -30 2 -47q10 -60 10 -74q0 -40 -28 -63q-28 -20 -95 -26t-69 -7q-17 2 -49 2q-15 0 -56 -2 t-73 -2q-38 0 -61.5 -0.5t-51.5 -1.5q-35 0 -51 4q-27 0 -47 -14q5 -42 5 -106.5t4 -111.5t19 -87q42 -42 82 -64t94 -22q122 21 166 106q42 35 72 35q13 0 27 -6q50 -22 65 -64q6 -12 6 -22q0 -12 -6 -32t-6 -32q-12 -21 -30 -37.5t-42.5 -33t-48.5 -33.5 q-115 -35 -215 -35q-140 0 -242 66q-27 13 -45.5 36t-35.5 61.5t-25 53.5q-14 33 -35 53q-11 31 -21 106t-16.5 110t-27.5 71zM326 666q0 -20 10 -43q78 -5 94 -5q57 0 98.5 3t100.5 9t110 11l17 10q4 13 4 35q0 50 -31 92q-12 21 -36.5 52.5l-45.5 58.5q-20 16 -42 21.5 t-75 13.5q-29 0 -55 -11.5t-44.5 -28t-41 -42t-37.5 -43.5q-1 -27 -13.5 -69t-12.5 -64zM519 1247q1 43 21.5 88.5t53 96.5t35.5 57q18 40 63 88.5t95 48.5q8 0 24 -4q58 0 60 -33l-6 -30q-40 -64 -64.5 -101.5t-41 -61t-44.5 -56t-59 -60.5q-36 -57 -70 -61q-27 2 -44 7 t-23 21z" />
<glyph unicode="&#xea;" horiz-adv-x="963" d="M70 516q4 55 34 88q14 77 22 120.5t27.5 91t51.5 83.5q19 0 26.5 7.5t26.5 31.5q11 15 16 18q11 9 52 46t73 59t68 33q126 -5 224 -48t138 -145q36 -51 50 -76q16 -32 16 -90q0 -30 2 -47q10 -60 10 -74q0 -40 -28 -63q-28 -20 -95 -26t-69 -7q-17 2 -49 2q-15 0 -56 -2 t-73 -2q-38 0 -61.5 -0.5t-51.5 -1.5q-35 0 -51 4q-27 0 -47 -14q5 -42 5 -106.5t4 -111.5t19 -87q42 -42 82 -64t94 -22q122 21 166 106q42 35 72 35q13 0 27 -6q50 -22 65 -64q6 -12 6 -22q0 -12 -6 -32t-6 -32q-12 -21 -30 -37.5t-42.5 -33t-48.5 -33.5 q-115 -35 -215 -35q-140 0 -242 66q-27 13 -45.5 36t-35.5 61.5t-25 53.5q-14 33 -35 53q-11 31 -21 106t-16.5 110t-27.5 71zM211 1217q0 9 9 18.5t17 17.5q0 62 25 86q40 11 59.5 35t43.5 68t50.5 66t73.5 22l43 -8q24 -38 54.5 -68t81 -68.5t78.5 -61.5t48 -46 q3 -9 6 -15.5t5 -17.5q0 -10 -5 -20q-11 -14 -29.5 -17.5t-62.5 -3.5q-23 9 -61 46.5t-58 53t-49 15.5q-16 0 -34 -6q-24 -10 -41.5 -28.5t-35.5 -36.5t-42 -27q-67 -16 -111 -43q-9 4 -23.5 5t-24 5t-13.5 14q-4 8 -4 15zM326 666q0 -20 10 -43q78 -5 94 -5q57 0 98.5 3 t100.5 9t110 11l17 10q4 13 4 35q0 50 -31 92q-12 21 -36.5 52.5l-45.5 58.5q-20 16 -42 21.5t-75 13.5q-29 0 -55 -11.5t-44.5 -28t-41 -42t-37.5 -43.5q-1 -27 -13.5 -69t-12.5 -64z" />
<glyph unicode="&#xeb;" horiz-adv-x="963" d="M70 516q4 55 34 88q14 77 22 120.5t27.5 91t51.5 83.5q19 0 26.5 7.5t26.5 31.5q11 15 16 18q11 9 52 46t73 59t68 33q126 -5 224 -48t138 -145q36 -51 50 -76q16 -32 16 -90q0 -30 2 -47q10 -60 10 -74q0 -40 -28 -63q-28 -20 -95 -26t-69 -7q-17 2 -49 2q-15 0 -56 -2 t-73 -2q-38 0 -61.5 -0.5t-51.5 -1.5q-35 0 -51 4q-27 0 -47 -14q5 -42 5 -106.5t4 -111.5t19 -87q42 -42 82 -64t94 -22q122 21 166 106q42 35 72 35q13 0 27 -6q50 -22 65 -64q6 -12 6 -22q0 -12 -6 -32t-6 -32q-12 -21 -30 -37.5t-42.5 -33t-48.5 -33.5 q-115 -35 -215 -35q-140 0 -242 66q-27 13 -45.5 36t-35.5 61.5t-25 53.5q-14 33 -35 53q-11 31 -21 106t-16.5 110t-27.5 71zM265 1358q20 55 61 69q20 5 37 5q83 0 137 -66q12 -21 17 -45q0 -11 -7 -27q-19 -42 -57 -51q-15 -6 -31 -6q-21 0 -54 13.5t-50 15.5 q-45 43 -53 92zM326 666q0 -20 10 -43q78 -5 94 -5q57 0 98.5 3t100.5 9t110 11l17 10q4 13 4 35q0 50 -31 92q-12 21 -36.5 52.5l-45.5 58.5q-20 16 -42 21.5t-75 13.5q-29 0 -55 -11.5t-44.5 -28t-41 -42t-37.5 -43.5q-1 -27 -13.5 -69t-12.5 -64zM625 1329q0 20 18.5 52 t22.5 44q12 5 39 5q39 0 74 -15q10 -14 18 -24t13.5 -22.5t5.5 -22.5q0 -4 -5 -19q-35 -48 -94 -70q-81 0 -86 48q-6 12 -6 24z" />
<glyph unicode="&#xec;" horiz-adv-x="676" d="M84 41q7 3 39 27q16 8 22 8q10 0 21 -8q21 1 75 12t89 12q6 28 6 55q0 42 -14.5 111.5t-16.5 97.5q0 60 2 93q0 24 -2 72t-2 71q0 75 14 121q-5 51 -10 69q-10 38 -37 52q-14 -7 -32 -7q-14 0 -47 10.5t-41 12.5q-54 42 -54 121q18 14 38 28.5t43.5 24.5t53.5 10 q29 9 68.5 12.5t85.5 8.5q44 0 70 -45q0 -27 10 -91t10 -112q10 -29 10 -66q0 -32 -14.5 -100.5t-15.5 -97.5q-4 -4 -4 -15q0 -10 4 -26q0 -10 -2 -17q-7 -14 -7 -43q1 -21 2 -47.5t1 -58.5q14 -63 14 -84q0 -23 -4 -35l18 -131q19 -8 68 -8q51 0 76 -4q10 -10 10 -25 q0 -13 -10 -43q-12 -10 -18.5 -17.5t-20.5 -19.5q-20 -16 -47 -16q-78 8 -121 8q-59 0 -105 -14q-23 16 -69 16q-23 0 -37 -0.5t-31 -1.5q-45 0 -70 23q-18 16 -18 57zM94 1501q0 33 25 70q7 3 27.5 19.5t41.5 19.5q19 0 33 -14t30.5 -40t18.5 -28q17 -25 25.5 -36.5 t14 -24.5t9.5 -40q15 -25 47 -34t56 -18t33 -38q4 -8 4 -24q0 -23 -13 -43q-12 -17 -27.5 -24t-43.5 -12t-39 -7l-86 37q-12 26 -60.5 80t-72 86.5t-23.5 70.5z" />
<glyph unicode="&#xed;" horiz-adv-x="705" d="M84 41q7 3 39 27q16 8 22 8q10 0 21 -8q21 1 75 12t89 12q6 28 6 55q0 42 -14.5 111.5t-16.5 97.5q0 60 2 93q0 24 -2 72t-2 71q0 75 14 121q-5 51 -10 69q-10 38 -37 52q-14 -7 -32 -7q-14 0 -47 10.5t-41 12.5q-54 42 -54 121q18 14 38 28.5t43.5 24.5t53.5 10 q29 9 68.5 12.5t85.5 8.5q44 0 70 -45q0 -27 10 -91t10 -112q10 -29 10 -66q0 -32 -14.5 -100.5t-15.5 -97.5q-4 -4 -4 -15q0 -10 4 -26q0 -10 -2 -17q-7 -14 -7 -43q1 -21 2 -47.5t1 -58.5q14 -63 14 -84q0 -23 -4 -35l18 -131q19 -8 68 -8q51 0 76 -4q10 -10 10 -25 q0 -13 -10 -43q-12 -10 -18.5 -17.5t-20.5 -19.5q-20 -16 -47 -16q-78 8 -121 8q-59 0 -105 -14q-23 16 -69 16q-23 0 -37 -0.5t-31 -1.5q-45 0 -70 23q-18 16 -18 57zM297 1237q1 44 21 88t51.5 93t36.5 61q8 17 34.5 53t59.5 61t65 25q9 0 25 -4q54 0 59 -35l-6 -31 q-57 -91 -105.5 -159.5t-103.5 -118.5q-34 -57 -69 -62q-29 2 -45.5 7t-22.5 22z" />
<glyph unicode="&#xee;" horiz-adv-x="741" d="M70 1178q0 9 9 18.5t17 17.5q0 60 25 84q39 10 59 35t44 69t51 65.5t73 21.5l43 -8q24 -38 55.5 -68t81 -68t76 -59t49.5 -47q0 -2 5 -13.5t6 -21.5q0 -8 -5 -18q-17 -23 -51 -23q-9 1 -17.5 1.5t-23.5 0.5q-24 9 -62 46t-57.5 52t-48.5 15q-16 0 -34 -6 q-25 -9 -41.5 -27t-36 -37.5t-41.5 -27.5q-72 -17 -111 -41q-6 2 -22 3.5t-25.5 5.5t-13.5 15q-4 8 -4 15zM150 41q5 2 38 27q18 8 25 8q10 0 18 -8q24 1 77.5 12t86.5 12q6 31 6 60q0 33 -4 57t-14 76t-12 71q0 60 2 93q0 23 -2 69t-2 68q0 72 16 127q-3 18 -6 38.5 t-6 30.5q-10 37 -37 52q-14 -7 -33 -7q-15 0 -48.5 11t-37.5 12q-55 40 -55 121q18 14 38.5 29t43.5 24.5t53 9.5q30 9 69.5 12.5t86.5 8.5q43 0 67 -45q0 -27 10.5 -88.5t10.5 -114.5q10 -29 10 -66q0 -34 -14.5 -103.5t-16.5 -94.5q-4 -4 -4 -15q0 -10 4 -26v-17 q-8 -19 -8 -43q0 -7 1.5 -22t3 -30.5t1.5 -22.5q0 -11 -4 -31q16 -54 16 -86q0 -23 -4 -33l17 -131q20 -8 69 -8q50 0 74 -4q10 -10 10 -25q0 -13 -10 -43q-9 -7 -20 -19t-19 -18q-16 -16 -47 -16q-78 8 -121 8q-56 0 -102 -14q-24 16 -70 16q-22 0 -36 -0.5t-31 -1.5 q-48 0 -72 23q-18 18 -18 57z" />
<glyph unicode="&#xef;" horiz-adv-x="729" d="M84 1335q19 55 61 70q26 4 37 4q38 0 75 -17t62 -49q14 -20 17 -45q0 -14 -6 -26q-18 -38 -58 -51q-17 -7 -30 -7q-21 0 -54 13.5t-51 15.5q-45 47 -53 92zM137 41q6 3 39 27q16 8 25 8q10 0 18 -8q21 1 76 12t88 12q6 31 6 58q0 44 -13 106t-18 100q0 60 2 93 q0 23 -2 69t-2 68q0 73 17 127q-2 16 -4 27.5t-3.5 19.5t-5.5 22q-10 38 -36 52q-15 -7 -33 -7q-9 0 -22 3t-31.5 9.5t-32.5 10.5q-55 40 -55 121q14 11 36.5 27.5t45 26t53.5 9.5q30 9 69.5 12.5t85.5 8.5q44 0 68 -45q0 -27 10 -91t10 -112q11 -28 11 -66 q0 -34 -14.5 -103.5t-16.5 -94.5q-4 -4 -4 -15q0 -10 4 -26v-17q-8 -19 -8 -43q0 -7 1.5 -22t3 -30.5t1.5 -22.5q0 -11 -4 -31q16 -54 16 -86q0 -13 -4 -33l16 -131q21 -8 70 -8t74 -4q10 -10 10 -25q0 -13 -10 -43q-6 -5 -15.5 -15t-23.5 -22q-16 -16 -47 -16q-78 8 -121 8 q-57 0 -102 -14q-24 16 -70 16q-23 0 -37 -0.5t-31 -1.5q-47 0 -71 23q-19 18 -19 57zM444 1307q0 18 18.5 51t22.5 45q13 4 39 4q42 0 74 -14q8 -12 17.5 -24.5t14.5 -24.5t5 -21q0 -6 -4 -18q-38 -50 -94 -70q-81 0 -86 47q-7 11 -7 25z" />
<glyph unicode="&#xf1;" horiz-adv-x="907" d="M70 975q0 9 15 25t19 24v25q3 8 5 14.5t4 14.5t4 18q10 28 37 39q31 -20 43 -28t20 -28q0 -26 2 -41q5 -16 17 -41q6 -4 24 -26q7 -10 27 -10q44 44 91.5 62.5t153.5 49.5q15 -4 46 -6t45 -4q51 -4 77 -41q67 -27 89 -89t30 -163q25 -51 25 -121q0 -40 -6 -84 q-9 -88 -9 -119q0 -42 13 -92q-3 -76 -6 -144.5t-11 -109.5q0 -24 13.5 -67t13.5 -62q0 -25 -21 -49q-27 -18 -49 -18q-16 0 -24 4q-11 1 -33 10.5t-45 9.5q-2 2 -2 19l2 2q4 4 4 10q-4 18 -7.5 29.5t-6 24.5t-2.5 28q0 13 6 33q-12 33 -12 65q0 16 3.5 40t9 48t11.5 56 q2 24 2 73q-8 60 -8 133q1 34 1.5 63.5t0.5 94.5q-8 21 -17.5 86.5t-21.5 103t-43 66.5q-27 10 -51 10q-13 0 -30.5 -3t-41.5 -8.5t-39 -8.5q-27 -6 -55 -6q-23 -21 -61 -29q-3 -17 -23 -57t-29.5 -66.5t-9.5 -64.5q0 -28 2.5 -55.5t6 -57.5t5.5 -72q0 -61 -12 -98 q-3 -54 -7.5 -110t-4.5 -105q0 -46 6 -96q-9 -12 -12 -30t-5.5 -36t-11 -30.5t-28.5 -16.5q-37 0 -52 21t-30 63q-15 30 -19 35q-10 58 -10 106q0 53 12 103q0 33 -4 51q0 10 1.5 27t4.5 22q-4 27 -4 78q2 46 2.5 71.5t1.5 57.5v23q0 73 -12 120q-16 66 -16 129q0 42 6 84 q-10 15 -10 21zM133 1284q0 20 10 33q14 20 34 32t47 22.5t42 19.5q13 2 47.5 9t52.5 7q26 0 47 -8q24 -9 67 -39t77.5 -46.5t80.5 -16.5q34 0 86 28.5t78 28.5q21 0 37 -8q8 -11 8 -27q0 -15 -10 -37q-107 -94 -264 -94q-26 3 -55.5 16.5t-50 25t-47.5 21t-50 9.5 q-19 -8 -50 -26.5t-53 -28t-44 -9.5q-30 0 -60 27q-30 23 -30 61z" />
<glyph unicode="&#xf2;" horiz-adv-x="965" d="M70 504q0 19 9 100t9 148q7 40 25.5 73t43 61t58.5 68q33 42 41 68q25 22 57 22q14 0 40 -4t38 -4q34 0 55 25q79 22 132 22q62 0 110 -30q15 -17 40 -38t34 -30q25 -29 40 -67.5t29 -96.5q7 -29 13.5 -58.5t15 -57t21.5 -52.5q3 -23 7.5 -67t13.5 -77t22 -58 q2 -17 2 -48q0 -94 -31 -178q-7 -56 -47 -119q-26 -34 -41 -53t-35 -49q-36 -25 -118.5 -29.5t-94.5 -7.5q-29 -24 -76 -24q-9 0 -39 4q-47 9 -116 41q-114 51 -180 177t-66 259q-12 40 -12 80zM211 1431q0 32 24 70q5 2 27 20t43 21q19 0 31.5 -13t27 -37.5t23.5 -33.5 q7 -12 21 -31t19.5 -34t8.5 -35q15 -24 47 -34t55.5 -19t32.5 -37q4 -9 4 -23q0 -26 -14 -43q-14 -24 -46 -31.5t-63 -13.5l-86 37q-12 27 -62 83t-71.5 86t-21.5 68zM264 616q0 -23 2 -56t4 -75q6 -22 8 -70t5 -71q7 -84 57 -129q90 -86 172 -86q21 0 39 6q84 26 144 82 t81 135q-14 52 -14 113q0 16 2 41t4 59q0 47 -9.5 96.5t-30 110.5t-26.5 84q-35 40 -50.5 55.5t-37.5 26.5q-29 16 -67 16q-47 0 -129 -36q-23 -108 -103 -138q-30 -30 -39.5 -69t-11.5 -95z" />
<glyph unicode="&#xf3;" horiz-adv-x="965" d="M70 504q0 19 9 100t9 148q7 40 25.5 73t43 61t58.5 68q33 42 41 68q25 22 57 22q14 0 40 -4t38 -4q34 0 55 25q79 22 132 22q62 0 110 -30q15 -17 40 -38t34 -30q25 -29 40 -67.5t29 -96.5q7 -29 13.5 -58.5t15 -57t21.5 -52.5q3 -23 7.5 -67t13.5 -77t22 -58 q2 -17 2 -48q0 -94 -31 -178q-7 -56 -47 -119q-26 -34 -41 -53t-35 -49q-36 -25 -118.5 -29.5t-94.5 -7.5q-29 -24 -76 -24q-9 0 -39 4q-47 9 -116 41q-114 51 -180 177t-66 259q-12 40 -12 80zM264 616q0 -23 2 -56t4 -75q6 -22 8 -70t5 -71q7 -84 57 -129q90 -86 172 -86 q21 0 39 6q84 26 144 82t81 135q-14 52 -14 113q0 16 2 41t4 59q0 47 -9.5 96.5t-30 110.5t-26.5 84q-35 40 -50.5 55.5t-37.5 26.5q-29 16 -67 16q-47 0 -129 -36q-23 -108 -103 -138q-30 -30 -39.5 -69t-11.5 -95zM476 1206q1 43 21.5 88.5t53 96.5t35.5 57q18 40 63 88.5 t95 48.5q8 0 24 -4q58 0 60 -33l-6 -30q-40 -64 -64.5 -101.5t-41 -61t-44.5 -56t-59 -60.5q-36 -57 -70 -61q-27 2 -44 7t-23 21z" />
<glyph unicode="&#xf4;" horiz-adv-x="965" d="M70 504q0 19 9 100t9 148q7 40 25.5 73t43 61t58.5 68q33 42 41 68q25 22 57 22q14 0 40 -4t38 -4q34 0 55 25q79 22 132 22q62 0 110 -30q15 -17 40 -38t34 -30q25 -29 40 -67.5t29 -96.5q7 -29 13.5 -58.5t15 -57t21.5 -52.5q3 -23 7.5 -67t13.5 -77t22 -58 q2 -17 2 -48q0 -94 -31 -178q-7 -56 -47 -119q-26 -34 -41 -53t-35 -49q-36 -25 -118.5 -29.5t-94.5 -7.5q-29 -24 -76 -24q-9 0 -39 4q-47 9 -116 41q-114 51 -180 177t-66 259q-12 40 -12 80zM191 1145q0 9 9 18.5t17 17.5q0 62 25 86q40 11 59.5 35t43.5 68t50.5 66 t73.5 22l43 -8q24 -38 54.5 -68t81 -68.5t78.5 -61.5t48 -46q3 -9 6 -15.5t5 -17.5q0 -10 -5 -20q-11 -14 -29.5 -17.5t-62.5 -3.5q-23 9 -61 46.5t-58 53t-49 15.5q-16 0 -34 -6q-24 -10 -41.5 -28.5t-35.5 -36.5t-42 -27q-67 -16 -111 -43q-9 4 -23.5 5t-24 5t-13.5 14 q-4 8 -4 15zM264 616q0 -23 2 -56t4 -75q6 -22 8 -70t5 -71q7 -84 57 -129q90 -86 172 -86q21 0 39 6q84 26 144 82t81 135q-14 52 -14 113q0 16 2 41t4 59q0 47 -9.5 96.5t-30 110.5t-26.5 84q-35 40 -50.5 55.5t-37.5 26.5q-29 16 -67 16q-47 0 -129 -36 q-23 -108 -103 -138q-30 -30 -39.5 -69t-11.5 -95z" />
<glyph unicode="&#xf5;" horiz-adv-x="965" d="M70 504q0 19 9 100t9 148q7 40 25.5 73t43 61t58.5 68q33 42 41 68q25 22 57 22q14 0 40 -4t38 -4q34 0 55 25q79 22 132 22q62 0 110 -30q15 -17 40 -38t34 -30q25 -29 40 -67.5t29 -96.5q7 -29 13.5 -58.5t15 -57t21.5 -52.5q3 -23 7.5 -67t13.5 -77t22 -58 q2 -17 2 -48q0 -94 -31 -178q-7 -56 -47 -119q-26 -34 -41 -53t-35 -49q-36 -25 -118.5 -29.5t-94.5 -7.5q-29 -24 -76 -24q-9 0 -39 4q-47 9 -116 41q-114 51 -180 177t-66 259q-12 40 -12 80zM154 1251q0 20 10 33q14 20 34 32t47 22.5t42 19.5q13 2 47.5 9t52.5 7 q26 0 47 -8q24 -9 67 -39t77.5 -46.5t80.5 -16.5q34 0 86 28.5t78 28.5q21 0 37 -8q8 -11 8 -27q0 -15 -10 -37q-107 -94 -264 -94q-26 3 -55.5 16.5t-50 25t-47.5 21t-50 9.5q-19 -8 -50 -26.5t-53 -28t-44 -9.5q-30 0 -60 27q-30 23 -30 61zM264 616q0 -23 2 -56t4 -75 q6 -22 8 -70t5 -71q7 -84 57 -129q90 -86 172 -86q21 0 39 6q84 26 144 82t81 135q-14 52 -14 113q0 16 2 41t4 59q0 47 -9.5 96.5t-30 110.5t-26.5 84q-35 40 -50.5 55.5t-37.5 26.5q-29 16 -67 16q-47 0 -129 -36q-23 -108 -103 -138q-30 -30 -39.5 -69t-11.5 -95z" />
<glyph unicode="&#xf6;" horiz-adv-x="965" d="M70 504q0 19 9 100t9 148q7 40 25.5 73t43 61t58.5 68q33 42 41 68q25 22 57 22q14 0 40 -4t38 -4q34 0 55 25q79 22 132 22q62 0 110 -30q15 -17 40 -38t34 -30q25 -29 40 -67.5t29 -96.5q7 -29 13.5 -58.5t15 -57t21.5 -52.5q3 -23 7.5 -67t13.5 -77t22 -58 q2 -17 2 -48q0 -94 -31 -178q-7 -56 -47 -119q-26 -34 -41 -53t-35 -49q-36 -25 -118.5 -29.5t-94.5 -7.5q-29 -24 -76 -24q-9 0 -39 4q-47 9 -116 41q-114 51 -180 177t-66 259q-12 40 -12 80zM264 616q0 -23 2 -56t4 -75q6 -22 8 -70t5 -71q7 -84 57 -129q90 -86 172 -86 q21 0 39 6q84 26 144 82t81 135q-14 52 -14 113q0 16 2 41t4 59q0 47 -9.5 96.5t-30 110.5t-26.5 84q-35 40 -50.5 55.5t-37.5 26.5q-29 16 -67 16q-47 0 -129 -36q-23 -108 -103 -138q-30 -30 -39.5 -69t-11.5 -95zM275 1358q20 55 61 69q20 5 37 5q83 0 137 -66 q12 -21 17 -45q0 -11 -7 -27q-19 -42 -57 -51q-15 -6 -31 -6q-21 0 -54 13.5t-50 15.5q-45 43 -53 92zM635 1329q0 20 18.5 52t22.5 44q12 5 39 5q39 0 74 -15q10 -14 18 -24t13.5 -22.5t5.5 -22.5q0 -4 -5 -19q-35 -48 -94 -70q-81 0 -86 48q-6 12 -6 24z" />
<glyph unicode="&#xf7;" d="M102 811q0 96 36.5 183.5t103.5 154.5t153.5 104t184.5 37q99 0 185.5 -37t153 -103.5t103.5 -153t37 -185.5t-36.5 -184.5t-103 -152.5t-153.5 -103.5t-184 -36.5q-98 0 -184 36t-155 104.5t-105 154.5t-36 182zM246 811q0 -138 98 -236t236 -98q89 0 167 44.5t123 122 t45 167.5t-45 167.5t-123 122t-167 44.5t-166.5 -44.5t-122.5 -122t-45 -167.5z" />
<glyph unicode="&#xf8;" horiz-adv-x="1096" d="M70 -18q0 10 4 30q2 17 11 28t30.5 33t29.5 40q24 23 50 71q-36 58 -55 131.5t-19 161.5q-8 28 -8 66q0 28 13 111.5t13 142.5q7 29 21 56t29.5 45.5t35 39.5l45.5 49q31 34 43 64q22 18 52 18q18 0 46.5 -5t34.5 -5q29 0 52 22q74 17 118 17q69 0 117 -35 q18 -20 27.5 -28.5t27.5 -26.5q45 48 150 176q13 17 55 28q20 -1 24.5 -21.5t8.5 -39.5l-16 -64q-27 -65 -99 -137q-12 -25 -57 -76q3 -11 8 -40q6 -29 13 -63t13 -55.5t17 -47.5q5 -85 9 -119t24 -78q0 -137 -37 -217q-10 -55 -51 -115q-10 -15 -37 -46t-41 -50 q-47 -25 -156 -25q-32 0 -49 -2q-29 -20 -67 -20q-26 0 -47 6q-23 5 -111 43q-49 25 -84 59q-39 -65 -65 -104q-59 -82 -84 -82q-39 16 -39 64zM305 637q1 -27 1.5 -50t0.5 -57q2 -22 2 -68t2 -69l2 -12q11 11 49.5 42t57.5 48q24 31 50 75t45 71.5t42 50.5q77 104 133 196 q17 23 27 37q-37 41 -60 55q-32 19 -71 19q-52 0 -119 -31q-31 -106 -107 -129q-32 -30 -43.5 -74.5t-11.5 -103.5zM360 266l2 -2q90 -88 168 -88q13 0 33 4q83 21 143.5 72.5t84.5 128.5q-9 35 -9 86q0 57 11 121q0 88 -23 178q-47 -63 -98 -124t-105 -105 q-12 -19 -39.5 -56t-44 -59t-28.5 -47q-16 -20 -95 -109z" />
<glyph unicode="&#xf9;" horiz-adv-x="905" d="M72 979q0 85 57 115q45 0 55 -4q12 -7 20 -17.5t17 -26t17 -24.5q16 -33 16 -72q0 -33 -25 -131q-6 -27 -6 -55q0 -35 15 -64q5 -20 8 -56t3.5 -63t2.5 -69q4 -42 8 -59l4 -70q0 -40 -0.5 -64.5t-1.5 -54.5q0 -69 19 -112q13 -32 67 -72q18 0 45 -2t51 -4q26 0 47.5 5.5 t36.5 20.5l48 64t48.5 59.5t57.5 55.5q8 24 8 55q0 13 -2 41t-2 41q2 14 3 25.5t3 17.5q-4 45 -7.5 80t-4.5 57q0 90 4 137q0 78 -12 125q-2 18 -4 34t-2 26q0 33 12 63q0 46 14 80q24 20 60 20q17 -1 29.5 -12.5t26 -31t23.5 -29.5q19 -47 19 -115q0 -51 -15 -144t-16 -131 q-1 -23 -9 -51t-15 -55q22 -43 22 -94q0 -29 -5 -88t-5 -90q-14 -68 -14 -121q0 -81 38 -137q0 -25 -4 -35q-4 -9 -18 -27q-21 -14 -74 -14q-29 16 -38 34.5t-28 68.5t-38 71q-90 -105 -228 -105q-3 0 -48.5 4.5t-71 12.5t-45.5 31q-50 21 -64 54.5t-27 103t-36 100.5 q0 22 -14.5 57.5t-16.5 52.5q-4 37 -4 107q0 47 4 138t4 136q0 32 -4 92q0 18 -4 57t-4 58zM211 1439q0 32 24 70q5 2 27 20t43 21q19 0 31.5 -13t27 -37.5t23.5 -33.5q7 -12 21 -31t19.5 -34t8.5 -35q15 -24 47 -34t55.5 -19t32.5 -37q4 -9 4 -23q0 -26 -14 -43 q-14 -24 -46 -31.5t-63 -13.5l-86 37q-12 27 -62 83t-71.5 86t-21.5 68z" />
<glyph unicode="&#xfa;" horiz-adv-x="905" d="M72 979q0 85 57 115q45 0 55 -4q12 -7 20 -17.5t17 -26t17 -24.5q16 -33 16 -72q0 -33 -25 -131q-6 -27 -6 -55q0 -35 15 -64q5 -20 8 -56t3.5 -63t2.5 -69q4 -42 8 -59l4 -70q0 -40 -0.5 -64.5t-1.5 -54.5q0 -69 19 -112q13 -32 67 -72q18 0 45 -2t51 -4q26 0 47.5 5.5 t36.5 20.5l48 64t48.5 59.5t57.5 55.5q8 24 8 55q0 13 -2 41t-2 41q2 14 3 25.5t3 17.5q-4 45 -7.5 80t-4.5 57q0 90 4 137q0 78 -12 125q-2 18 -4 34t-2 26q0 33 12 63q0 46 14 80q24 20 60 20q17 -1 29.5 -12.5t26 -31t23.5 -29.5q19 -47 19 -115q0 -51 -15 -144t-16 -131 q-1 -23 -9 -51t-15 -55q22 -43 22 -94q0 -29 -5 -88t-5 -90q-14 -68 -14 -121q0 -81 38 -137q0 -25 -4 -35q-4 -9 -18 -27q-21 -14 -74 -14q-29 16 -38 34.5t-28 68.5t-38 71q-90 -105 -228 -105q-3 0 -48.5 4.5t-71 12.5t-45.5 31q-50 21 -64 54.5t-27 103t-36 100.5 q0 22 -14.5 57.5t-16.5 52.5q-4 37 -4 107q0 47 4 138t4 136q0 32 -4 92q0 18 -4 57t-4 58zM379 1216q1 43 21.5 88.5t53 96.5t35.5 57q18 40 63 88.5t95 48.5q8 0 24 -4q58 0 60 -33l-6 -30q-40 -64 -64.5 -101.5t-41 -61t-44.5 -56t-59 -60.5q-36 -57 -70 -61q-27 2 -44 7 t-23 21z" />
<glyph unicode="&#xfb;" horiz-adv-x="905" d="M72 979q0 85 57 115q45 0 55 -4q12 -7 20 -17.5t17 -26t17 -24.5q16 -33 16 -72q0 -33 -25 -131q-6 -27 -6 -55q0 -35 15 -64q5 -20 8 -56t3.5 -63t2.5 -69q4 -42 8 -59l4 -70q0 -40 -0.5 -64.5t-1.5 -54.5q0 -69 19 -112q13 -32 67 -72q18 0 45 -2t51 -4q26 0 47.5 5.5 t36.5 20.5l48 64t48.5 59.5t57.5 55.5q8 24 8 55q0 13 -2 41t-2 41q2 14 3 25.5t3 17.5q-4 45 -7.5 80t-4.5 57q0 90 4 137q0 78 -12 125q-2 18 -4 34t-2 26q0 33 12 63q0 46 14 80q24 20 60 20q17 -1 29.5 -12.5t26 -31t23.5 -29.5q19 -47 19 -115q0 -51 -15 -144t-16 -131 q-1 -23 -9 -51t-15 -55q22 -43 22 -94q0 -29 -5 -88t-5 -90q-14 -68 -14 -121q0 -81 38 -137q0 -25 -4 -35q-4 -9 -18 -27q-21 -14 -74 -14q-29 16 -38 34.5t-28 68.5t-38 71q-90 -105 -228 -105q-3 0 -48.5 4.5t-71 12.5t-45.5 31q-50 21 -64 54.5t-27 103t-36 100.5 q0 22 -14.5 57.5t-16.5 52.5q-4 37 -4 107q0 47 4 138t4 136q0 32 -4 92q0 18 -4 57t-4 58zM170 1186q0 9 9 18.5t17 17.5q0 62 25 86q40 11 59.5 35t43.5 68t50.5 66t73.5 22l43 -8q24 -38 54.5 -68t81 -68.5t78.5 -61.5t48 -46q3 -9 6 -15.5t5 -17.5q0 -10 -5 -20 q-11 -14 -29.5 -17.5t-62.5 -3.5q-23 9 -61 46.5t-58 53t-49 15.5q-16 0 -34 -6q-24 -10 -41.5 -28.5t-35.5 -36.5t-42 -27q-67 -16 -111 -43q-9 4 -23.5 5t-24 5t-13.5 14q-4 8 -4 15z" />
<glyph unicode="&#xfc;" horiz-adv-x="905" d="M72 979q0 85 57 115q45 0 55 -4q12 -7 20 -17.5t17 -26t17 -24.5q16 -33 16 -72q0 -33 -25 -131q-6 -27 -6 -55q0 -35 15 -64q5 -20 8 -56t3.5 -63t2.5 -69q4 -42 8 -59l4 -70q0 -40 -0.5 -64.5t-1.5 -54.5q0 -69 19 -112q13 -32 67 -72q18 0 45 -2t51 -4q26 0 47.5 5.5 t36.5 20.5l48 64t48.5 59.5t57.5 55.5q8 24 8 55q0 13 -2 41t-2 41q2 14 3 25.5t3 17.5q-4 45 -7.5 80t-4.5 57q0 90 4 137q0 78 -12 125q-2 18 -4 34t-2 26q0 33 12 63q0 46 14 80q24 20 60 20q17 -1 29.5 -12.5t26 -31t23.5 -29.5q19 -47 19 -115q0 -51 -15 -144t-16 -131 q-1 -23 -9 -51t-15 -55q22 -43 22 -94q0 -29 -5 -88t-5 -90q-14 -68 -14 -121q0 -81 38 -137q0 -25 -4 -35q-4 -9 -18 -27q-21 -14 -74 -14q-29 16 -38 34.5t-28 68.5t-38 71q-90 -105 -228 -105q-3 0 -48.5 4.5t-71 12.5t-45.5 31q-50 21 -64 54.5t-27 103t-36 100.5 q0 22 -14.5 57.5t-16.5 52.5q-4 37 -4 107q0 47 4 138t4 136q0 32 -4 92q0 18 -4 57t-4 58zM179 1391q20 55 61 69q20 5 37 5q83 0 137 -66q12 -21 17 -45q0 -11 -7 -27q-19 -42 -57 -51q-15 -6 -31 -6q-21 0 -54 13.5t-50 15.5q-45 43 -53 92zM539 1362q0 20 18.5 52 t22.5 44q12 5 39 5q39 0 74 -15q10 -14 18 -24t13.5 -22.5t5.5 -22.5q0 -4 -5 -19q-35 -48 -94 -70q-81 0 -86 48q-6 12 -6 24z" />
<glyph unicode="&#xff;" horiz-adv-x="985" d="M70 -256q0 17 12 35q2 3 6.5 14.5t9.5 17.5t15 9q26 0 41 2q24 0 39 -4q12 -14 26 -29t30 -24t40 -9q18 3 36 15.5t21 31.5q4 52 4 158q0 102 10 154q-15 60 -61 160t-61 141q-32 84 -49 130t-41.5 118.5t-45.5 136.5q4 14 6.5 39.5t9 41.5t23.5 27q8 3 23.5 10.5 t28.5 8.5q15 0 26 -8q45 -28 58 -66t28 -116t37 -111q7 -90 66 -228q68 -161 84 -219l49 -33q89 120 98 285q11 35 29.5 110t32 123t30.5 91v69q0 54 14 91.5t56 54.5q72 0 98 -45q20 -37 31 -95q-22 -42 -51 -145q-33 -109 -52 -147q-17 -33 -37.5 -95t-37 -108.5 t-41.5 -83.5l-41 -131q-62 -111 -70 -211q-13 -20 -16 -41t-6.5 -49t-12.5 -45q-68 -135 -200 -181q-44 -14 -76 -14q-89 0 -156 64q-3 5 -22.5 26.5t-30 39.5t-10.5 34zM242 1401q20 55 61 69q20 5 37 5q83 0 137 -66q12 -21 17 -45q0 -11 -7 -27q-19 -42 -57 -51 q-15 -6 -31 -6q-21 0 -54 13.5t-50 15.5q-45 43 -53 92zM602 1372q0 20 18.5 52t22.5 44q12 5 39 5q39 0 74 -15q10 -14 18 -24t13.5 -22.5t5.5 -22.5q0 -4 -5 -19q-35 -48 -94 -70q-81 0 -86 48q-6 12 -6 24z" />
<glyph unicode="&#x152;" horiz-adv-x="1720" d="M70 766q2 20 3.5 109.5t13 148.5t44.5 102q10 14 22 39.5t23 48.5q0 69 47.5 103.5t141.5 77.5q106 49 229 55q36 0 72 -33q174 -17 184 -22q22 5 92.5 13.5t109.5 17t72 28.5q23 4 68 4q112 -4 174 -53q104 -8 143 -23q9 -8 9 -22q0 -17 -13 -39q-12 -19 -33 -27.5 t-54.5 -14.5t-43.5 -9q-36 2 -79.5 4t-67.5 2q-28 0 -60 -6q-11 -23 -32.5 -31t-58.5 -13t-56 -14q-10 0 -30 2.5t-40 2.5q-36 0 -57 -21q21 -61 36 -118t15 -113q0 -30 -6 -62q3 -15 4 -32t4.5 -29t11.5 -19q40 0 115 8.5t123 8.5q56 0 100 -15q98 -9 113 -55 q0 -25 -14 -57q-29 -18 -60 -23t-84 -6t-86 -6q-35 -5 -115.5 -15.5t-93.5 -13.5q-10 -7 -13 -30.5t-7 -30.5q-3 -29 -4.5 -71.5t-2 -101t-1.5 -89.5q8 -18 19.5 -58.5t19.5 -58.5q30 0 88 7t96 7q151 -8 344 -28q14 0 40 6t40 6q3 -9 20 -36t17 -48q0 -5 -4 -23 q1 -9 22 -29t21 -42l-6 -2q-1 -3 -1 -13t-2 -14q-10 0 -10 -4v-4q-12 0 -18 -9t-10 -10l2 -12h-9q-1 -4 -1 -13t-1 -14q-2 9 -49 9v6l-57 2q-18 24 -21 26q0 2 -2.5 2t-3.5 1q0 11 2 25t2 18q0 12 -16 20q-88 6 -193 6q-59 0 -165 -4q-33 -11 -84 -14t-99 -5.5t-82 -15.5 q-21 -2 -44.5 -6t-34.5 -4q-31 -6 -86 -11.5t-60 -6.5q-27 0 -48 9t-38 23.5t-33 28.5q-41 4 -80 22.5t-97.5 59.5t-72.5 49q-95 126 -100 262q-21 42 -32.5 95t-17 106t-13.5 129zM227 737q0 -81 19 -141q0 -34 21.5 -96.5t21.5 -100.5q3 -49 30.5 -86.5t57 -58 t102.5 -66.5q12 0 67.5 -6.5t74.5 -7.5q73 0 92 35q8 14 13.5 24t10 21t4.5 22q11 23 15 47t5 52.5t5 52.5q6 27 6 53q0 45 -20.5 127t-20.5 127q0 22 8.5 62t8.5 63q0 16 -7 37q-4 43 -7.5 95t-7 84t-15.5 65q-20 36 -50 44.5t-100 16.5q-34 -6 -72.5 -29t-76.5 -46.5 t-70 -30.5q-13 -21 -43 -53.5t-44 -52.5t-15 -46q-2 -38 -7.5 -100t-5.5 -107z" />
<glyph unicode="&#x153;" horiz-adv-x="1524" d="M70 522q0 25 11 105.5t11 142.5q11 56 51 104t78 91q29 31 41 63q22 21 55 21q18 0 42 -4.5t36 -4.5q32 0 51 23q70 18 123 18q66 0 113 -32q8 -10 16.5 -18.5t16.5 -15t19 -15t20 -17.5q32 -45 47 -98q5 7 11 15t9 11q8 14 17 19q44 38 90.5 78t95.5 53q79 -3 148.5 -20 t124 -57t81.5 -110q38 -54 47 -73q17 -29 17 -90q0 -29 2 -43q10 -58 10 -72q0 -38 -29 -61q-27 -20 -65.5 -23.5t-93.5 -9.5q-17 2 -49 2q-13 0 -53 -2t-72 -2q-36 0 -58.5 -0.5t-50.5 -1.5q-35 0 -51 4q-26 0 -45 -15q5 -41 5.5 -108t4 -106t18.5 -83q76 -84 172 -84 q116 19 162 103q41 35 68 35q14 0 26 -6q53 -24 66 -62q4 -8 4 -20t-6 -32t-6 -32q-13 -22 -29 -37.5t-40 -31.5t-48 -33q-105 -33 -209 -33q-141 0 -237 61q-34 20 -60 60q-6 -7 -39 -47q-35 -27 -110 -27h-43q-16 0 -54 -4q-29 -23 -71 -23q-6 0 -41 5q-48 12 -111 43 q-56 27 -98.5 71.5t-71.5 103t-44 123t-15 130.5q-10 37 -10 69zM260 621q0 -20 2 -58t2 -55q4 -22 5 -68t3 -69q7 -83 54 -127q86 -86 168 -86q10 0 34 4q65 17 118 56t83 93q-1 31 -1 64t-6 62t-22 55q4 60 27 86q4 20 4 61q0 31 -0.5 51.5t-1.5 44.5q-6 21 -19.5 61.5 t-19.5 59.5q-54 70 -82 84q-29 16 -69 16q-43 0 -121 -32q-30 -107 -105 -129q-30 -30 -40.5 -72t-12.5 -102zM887 645q0 -20 10 -43q58 -4 86 -4q51 0 104.5 3.5t101.5 8.5t101 11l17 10q4 12 4 35q0 43 -31 90q-7 11 -27.5 38t-52.5 70q-15 12 -31 17t-39 8.5t-43 7.5 q-55 0 -86.5 -28.5t-87.5 -94.5q-1 -27 -13.5 -67t-12.5 -62z" />
<glyph unicode="&#x178;" horiz-adv-x="1047" d="M70 1272q0 8 4 28q15 35 63 52q70 0 103 -37q45 -134 106 -199q6 -9 32 -67t48 -89t59 -49q75 0 125 33q11 44 29 101t25 90q1 9 5.5 22.5t13 30.5t11.5 24q0 56 25 129q16 19 37.5 27.5t49.5 19.5t44 27q10 4 31 4q17 0 67 -10l15 -16q0 -15 12 -31t14 -23 q0 -131 -65 -288q-34 -21 -54 -87t-30 -83q-14 -41 -68 -100t-70 -83q-24 -27 -32 -52.5t-20 -90.5t-25 -94q0 -148 -2 -221q0 -20 6 -69t6 -75q0 -83 -64 -119q-5 -36 -61 -53q-21 5 -32.5 10.5t-14.5 22.5q4 16 4 27q0 18 -10 56.5t-11 45.5q0 30 -0.5 46t-1.5 40 t-2.5 53.5t-1.5 53.5q0 30 2 45q-3 10 -4 22t-1.5 20.5t-2.5 32.5q-6 9 -6 74q0 20 -6.5 42t-7.5 34q-3 17 -29.5 47.5t-26.5 52.5q-20 26 -26 52t-15.5 82t-23.5 85q-31 101 -47.5 142t-61.5 77q-13 19 -46 56.5t-50.5 66t-17.5 62.5zM230 1604q20 55 61 69q20 5 37 5 q83 0 137 -66q12 -21 17 -45q0 -11 -7 -27q-19 -42 -57 -51q-15 -6 -31 -6q-21 0 -54 13.5t-50 15.5q-45 43 -53 92zM590 1575q0 20 18.5 52t22.5 44q12 5 39 5q39 0 74 -15q10 -14 18 -24t13.5 -22.5t5.5 -22.5q0 -4 -5 -19q-35 -48 -94 -70q-81 0 -86 48q-6 12 -6 24z" />
<glyph unicode="&#x2c6;" d="M102 811q0 96 36.5 183.5t103.5 154.5t153.5 104t184.5 37q99 0 185.5 -37t153 -103.5t103.5 -153t37 -185.5t-36.5 -184.5t-103 -152.5t-153.5 -103.5t-184 -36.5q-98 0 -184 36t-155 104.5t-105 154.5t-36 182zM246 811q0 -138 98 -236t236 -98q89 0 167 44.5t123 122 t45 167.5t-45 167.5t-123 122t-167 44.5t-166.5 -44.5t-122.5 -122t-45 -167.5z" />
<glyph unicode="&#x2dc;" d="M102 811q0 96 36.5 183.5t103.5 154.5t153.5 104t184.5 37q99 0 185.5 -37t153 -103.5t103.5 -153t37 -185.5t-36.5 -184.5t-103 -152.5t-153.5 -103.5t-184 -36.5q-98 0 -184 36t-155 104.5t-105 154.5t-36 182zM246 811q0 -138 98 -236t236 -98q89 0 167 44.5t123 122 t45 167.5t-45 167.5t-123 122t-167 44.5t-166.5 -44.5t-122.5 -122t-45 -167.5z" />
<glyph unicode="&#x2000;" horiz-adv-x="995" />
<glyph unicode="&#x2001;" horiz-adv-x="1991" />
<glyph unicode="&#x2002;" horiz-adv-x="995" />
<glyph unicode="&#x2003;" horiz-adv-x="1991" />
<glyph unicode="&#x2004;" horiz-adv-x="663" />
<glyph unicode="&#x2005;" horiz-adv-x="497" />
<glyph unicode="&#x2006;" horiz-adv-x="331" />
<glyph unicode="&#x2007;" horiz-adv-x="331" />
<glyph unicode="&#x2008;" horiz-adv-x="248" />
<glyph unicode="&#x2009;" horiz-adv-x="398" />
<glyph unicode="&#x200a;" horiz-adv-x="110" />
<glyph unicode="&#x2010;" horiz-adv-x="1071" d="M68 647q0 27 2 41q42 82 143 82q59 0 139 -33q20 0 35 4t35 11.5t29 7.5q17 0 36 -8q146 0 474 -21q37 -27 40 -65q-11 -34 -40 -59t-64 -25q-212 -4 -297 -13q-48 11 -100 11q-37 0 -93.5 -7.5t-99.5 -9.5q-13 0 -30 -3t-40.5 -8t-41.5 -8t-37 -3q-31 0 -58 14 q-32 28 -32 92z" />
<glyph unicode="&#x2011;" horiz-adv-x="1071" d="M68 647q0 27 2 41q42 82 143 82q59 0 139 -33q20 0 35 4t35 11.5t29 7.5q17 0 36 -8q146 0 474 -21q37 -27 40 -65q-11 -34 -40 -59t-64 -25q-212 -4 -297 -13q-48 11 -100 11q-37 0 -93.5 -7.5t-99.5 -9.5q-13 0 -30 -3t-40.5 -8t-41.5 -8t-37 -3q-31 0 -58 14 q-32 28 -32 92z" />
<glyph unicode="&#x2012;" horiz-adv-x="1071" d="M68 647q0 27 2 41q42 82 143 82q59 0 139 -33q20 0 35 4t35 11.5t29 7.5q17 0 36 -8q146 0 474 -21q37 -27 40 -65q-11 -34 -40 -59t-64 -25q-212 -4 -297 -13q-48 11 -100 11q-37 0 -93.5 -7.5t-99.5 -9.5q-13 0 -30 -3t-40.5 -8t-41.5 -8t-37 -3q-31 0 -58 14 q-32 28 -32 92z" />
<glyph unicode="&#x2013;" horiz-adv-x="1184" d="M70 588q9 54 41.5 72t95.5 30.5t86 28.5q31 -5 96 -7t107.5 -5t83.5 -17q74 15 137 15h65q64 0 109 8q15 0 47 2t47 2q74 0 111 -35q24 -24 24 -66q0 -22 -6 -45q-10 -37 -84 -77q-81 1 -155.5 6.5t-148 10.5t-124 8t-133.5 3q-28 0 -46 -0.5t-40 -1.5q-19 12 -55 12 q-29 0 -90 -16t-88 -16q-32 0 -52.5 19t-27.5 69z" />
<glyph unicode="&#x2014;" horiz-adv-x="1618" d="M63 551q0 42 18.5 79t55.5 48q17 10 31 10q15 0 44.5 -9t45.5 -9q20 -28 46.5 -37.5t62.5 -9.5q21 1 38.5 1.5t55.5 0.5q63 12 148.5 20t159.5 11.5t154 6t160 5.5q17 2 49 11t56 16t44.5 11.5t47.5 4.5q25 0 49 -6q45 18 86 18q67 0 98 -35q29 -31 29 -115 q-13 -20 -23 -36t-23.5 -27.5t-33.5 -11.5q-32 -13 -67 -13q-31 0 -60.5 8t-70 24t-66.5 26q-135 -7 -205.5 -14.5t-138.5 -36.5q-59 18 -102 18q-52 0 -88 -29q-50 0 -152 4t-152 4q-81 0 -161 -6q-9 3 -45.5 12.5t-57 20.5t-33.5 35z" />
<glyph unicode="&#x2018;" horiz-adv-x="373" d="M70 1307q0 31 18 102q2 31 5.5 59.5t6.5 41t15 31.5t30 28q16 6 31 6q14 0 21 -6q24 -23 24 -53q0 -19 -7 -50.5t-7 -40.5q0 -39 31 -59q67 -62 67 -115q0 -48 -61 -84q-9 -12 -31 -12q-47 0 -74 27q-46 56 -57.5 75.5t-11.5 49.5z" />
<glyph unicode="&#x2019;" horiz-adv-x="414" d="M57 1161q0 23 13 45q59 68 59 135q0 25 -10 71t-10 69q0 8 4 32q10 19 53.5 34.5t75.5 15.5q62 0 88 -50q14 -39 14 -83q0 -125 -111 -252q-58 -56 -118 -56q-24 0 -43 8q-15 10 -15 31z" />
<glyph unicode="&#x201a;" d="M102 811q0 96 36.5 183.5t103.5 154.5t153.5 104t184.5 37q99 0 185.5 -37t153 -103.5t103.5 -153t37 -185.5t-36.5 -184.5t-103 -152.5t-153.5 -103.5t-184 -36.5q-98 0 -184 36t-155 104.5t-105 154.5t-36 182zM246 811q0 -138 98 -236t236 -98q89 0 167 44.5t123 122 t45 167.5t-45 167.5t-123 122t-167 44.5t-166.5 -44.5t-122.5 -122t-45 -167.5z" />
<glyph unicode="&#x201c;" horiz-adv-x="764" d="M70 1286q2 27 28 64q47 57 60.5 79t24 50t20.5 51q15 5 44.5 21t53.5 25t55 9q27 -18 27 -47q0 -10 -6 -22q-80 -140 -80 -238q0 -37 12 -78q-3 -8 -10 -23.5t-15.5 -24t-21.5 -11.5q-33 -15 -63 -15q-41 0 -66.5 30.5t-56.5 100.5q-6 16 -6 29zM410 1321q0 71 26 127 q41 91 199 145q39 -7 51 -45q-1 -24 -15.5 -41.5t-30.5 -35t-17 -41.5q-41 -48 -41 -123q98 -63 98 -129q0 -9 -4 -25q-21 -46 -80 -53q-23 0 -41.5 5t-34.5 14.5t-32.5 22t-26.5 19.5q-51 63 -51 160z" />
<glyph unicode="&#x201d;" horiz-adv-x="739" d="M70 1130q6 31 29.5 68.5t42 67t22.5 63.5q-4 13 -42 74t-38 92q0 29 25 47q25 31 73 31q24 0 62 -8q26 -22 63 -25q10 -20 10 -53q0 -15 -0.5 -25t-1.5 -22q0 -25 4 -37q0 -80 -14 -132.5t-61 -88.5q-23 -2 -67 -38t-66 -36t-41 22zM397 1130q1 22 9.5 40t24.5 42t22 37 q3 17 8 40t7.5 40t2.5 37q0 41 -18 68q0 16 -0.5 25.5t-1.5 21.5q0 39 22 61q40 38 57 50t45 12q46 0 64 -19l4 4q7 -10 10 -42t17 -48q-1 -51 -1.5 -105t-10 -99t-37.5 -81.5t-82 -56.5q-11 -1 -45.5 -26t-55.5 -25t-41 24z" />
<glyph unicode="&#x201e;" d="M102 811q0 96 36.5 183.5t103.5 154.5t153.5 104t184.5 37q99 0 185.5 -37t153 -103.5t103.5 -153t37 -185.5t-36.5 -184.5t-103 -152.5t-153.5 -103.5t-184 -36.5q-98 0 -184 36t-155 104.5t-105 154.5t-36 182zM246 811q0 -138 98 -236t236 -98q89 0 167 44.5t123 122 t45 167.5t-45 167.5t-123 122t-167 44.5t-166.5 -44.5t-122.5 -122t-45 -167.5z" />
<glyph unicode="&#x2022;" horiz-adv-x="631" d="M70 676q0 11 4 37q1 25 15.5 46.5t33.5 37t41 32.5q31 0 57.5 12t70.5 40t62 38.5t39 10.5q45 0 66 -92l71 -64q31 -52 31 -145q-25 -70 -48.5 -110t-72.5 -48q-72 0 -170.5 33t-128.5 37q-71 53 -71 135z" />
<glyph unicode="&#x2026;" horiz-adv-x="1624" d="M41 164q18 42 34.5 66.5t47.5 27.5q34 0 59.5 -8.5t60.5 -25t66 -23.5q41 -34 41 -80q0 -18 -6 -33q-1 -15 -11 -28t-23.5 -23t-26.5 -19l-23 5q-20 0 -49 -12.5t-47 -12.5q-31 0 -68 29l-43 43q-12 30 -12 94zM653 113q0 56 39 90q21 21 45.5 27.5t61.5 9.5t59 10 q73 -24 111 -76q0 -41 -5.5 -67t-25.5 -46q-61 -45 -139 -45q-49 0 -94 21q-19 10 -35.5 32t-16.5 44zM1305 119q0 28 26 76.5t31 66.5q22 10 59 10q48 0 109 -22q7 -11 23.5 -35t23 -39.5t6.5 -30.5q0 -13 -6 -28q-58 -71 -139 -103q-120 0 -125 70q-8 16 -8 35z" />
<glyph unicode="&#x202f;" horiz-adv-x="398" />
<glyph unicode="&#x2039;" d="M102 811q0 96 36.5 183.5t103.5 154.5t153.5 104t184.5 37q99 0 185.5 -37t153 -103.5t103.5 -153t37 -185.5t-36.5 -184.5t-103 -152.5t-153.5 -103.5t-184 -36.5q-98 0 -184 36t-155 104.5t-105 154.5t-36 182zM246 811q0 -138 98 -236t236 -98q89 0 167 44.5t123 122 t45 167.5t-45 167.5t-123 122t-167 44.5t-166.5 -44.5t-122.5 -122t-45 -167.5z" />
<glyph unicode="&#x203a;" d="M102 811q0 96 36.5 183.5t103.5 154.5t153.5 104t184.5 37q99 0 185.5 -37t153 -103.5t103.5 -153t37 -185.5t-36.5 -184.5t-103 -152.5t-153.5 -103.5t-184 -36.5q-98 0 -184 36t-155 104.5t-105 154.5t-36 182zM246 811q0 -138 98 -236t236 -98q89 0 167 44.5t123 122 t45 167.5t-45 167.5t-123 122t-167 44.5t-166.5 -44.5t-122.5 -122t-45 -167.5z" />
<glyph unicode="&#x205f;" horiz-adv-x="497" />
<glyph unicode="&#x2122;" horiz-adv-x="1167" d="M70 1389q0 52 28 65q46 0 111.5 -13.5t83.5 -13.5q44 0 82 31q20 0 30 -9.5t21.5 -31.5t13.5 -24q6 -11 6 -29q0 -6 -2 -14.5t-4.5 -16.5t-3.5 -14q-3 -8 -14 -8q-4 0 -30.5 7t-43.5 7q-8 -21 -8 -59q0 -14 1.5 -32t2.5 -34.5t1.5 -27.5t0.5 -35q-1 -12 -4 -37t-11.5 -40 t-27.5 -20q-12 0 -24 -2t-15 -2q-10 0 -26 17q-13 20 -13 39q0 14 15.5 53.5t15.5 58.5q0 26 -20 49q-12 35 -34 47.5t-69 12.5q-18 9 -36 33t-27 43zM477 1337q0 90 64 90q10 5 16 5q8 0 24 -6t25 -7q24 -21 43 -37t27 -49q10 -30 43.5 -53t68.5 -23q2 2 54 63t93.5 90.5 t88.5 29.5q11 0 35 -4q22 -5 22 -62q0 -22 -4 -70t-4 -69q0 -29 4 -39q2 -20 10.5 -77t8.5 -79q0 -31 -15 -34q-28 -23 -73 -23q-27 0 -37 4q-17 6 -21 55q1 13 1.5 23t0.5 27q11 40 11 69q0 36 -17 60q-7 10 -20 10q-15 0 -31 -12q-9 -27 -34 -61t-50 -42q-25 0 -43.5 12 t-40 35t-40.5 37t-40 14q-6 -9 -10 -53q1 -12 1.5 -22.5t0.5 -26.5q0 -31 -6 -41q-4 -38 -66 -51q-47 0 -61 33q-12 26 -12 82v104q-17 41 -17 98z" />
<glyph unicode="&#xe000;" horiz-adv-x="1120" d="M0 0v1120h1120v-1120h-1120z" />
</font>
</defs>
</svg>
