<?xml version="1.0" standalone="no"?>
<!DOCTYPE svg PUBLIC "-//W3C//DTD SVG 1.1//EN" "http://www.w3.org/Graphics/SVG/1.1/DTD/svg11.dtd" >
<svg xmlns="http://www.w3.org/2000/svg">
<metadata></metadata>
<defs>
<font id="crackhouseregular" horiz-adv-x="720" >
<font-face units-per-em="2048" ascent="1638" descent="-410" />
<missing-glyph horiz-adv-x="374" />
<glyph horiz-adv-x="2048" />
<glyph horiz-adv-x="2048" />
<glyph unicode="&#xd;" horiz-adv-x="2048" />
<glyph unicode=" "  horiz-adv-x="374" />
<glyph unicode="&#x09;" horiz-adv-x="374" />
<glyph unicode="&#xa0;" horiz-adv-x="374" />
<glyph unicode="!" horiz-adv-x="417" d="M76 1417q10 -180 19 -355t22 -353q12 -4 28.5 0t24.5 -17q-12 -8 -13 -21.5t-1 -27.5q0 -12 -4.5 -24.5t-22.5 -18.5q-4 -39 2 -76t27 -67l51 26q16 -8 11 -24.5t-3 -30.5q14 -10 25.5 -20.5t31.5 -4.5q2 82 11.5 166t18.5 168t13.5 166t-4.5 162q-10 12 -6 26.5t10.5 29 t8.5 29.5t-17 30q20 8 17.5 24.5t1.5 30.5v-2q2 23 8 47.5t10 49t1 48t-21 41.5q-16 12 -41 13q-23 0 -39 -15l-13 17q-20 -18 -39.5 -16.5t-39 7t-39 7.5t-39.5 -15zM88 129q14 -18 32.5 -20.5t35.5 10.5q18 -35 29.5 -73t33.5 -60l17 14q20 -2 39.5 -3t35.5 -13 q18 27 24.5 60.5t6.5 68.5t-5 69.5t-11 65.5q-47 4 -79 -2t-69 -13q-10 6 -36.5 2t-51.5 -2zM166 711l41 63h26zM217 1014q-6 12 0 22q-4 -10 0 -22z" />
<glyph unicode="&#x22;" horiz-adv-x="688" d="M82 1333l8 -459q18 -2 37.5 2.5t37 5.5t33 -6.5t23.5 -29.5q23 53 28 113.5t4 124t-6 128t-1 125.5zM410 1307q0 -37 1 -79t2 -83t2 -76t1 -57q6 -43 3 -92.5t4 -89t34.5 -62.5t95.5 -14q20 66 25.5 138.5t3.5 148t-7.5 152t-1.5 150.5z" />
<glyph unicode="#" horiz-adv-x="798" d="M47 354l115 -86q10 -53 6 -100t-14.5 -92t-22.5 -89t-18 -91q53 18 81.5 54t44 80t24.5 92t29.5 91t56.5 77t102 48q-25 16 -65 19t-75 -6t-55 -28.5t-6 -50.5l-66 68q-6 23 12.5 30t30.5 23q57 23 72.5 62t17.5 84t4.5 89t34.5 74q20 8 30.5 -4t27.5 -22q10 20 24.5 21 t29.5 -7t30.5 -21.5t29.5 -21.5l-28 -29q-20 -31 -25.5 -69.5t3.5 -75.5t31.5 -66.5t53.5 -41.5q4 18 -7 30.5t-26 26.5q14 35 22.5 74t18 75.5t24.5 72.5t46 65q14 -27 37 -27h49v57q-33 10 -62.5 18.5t-52.5 37.5l111 88l-29 28l-28 -30q-18 -8 -33 5t-25 23 q10 12 22.5 24.5t6.5 33.5q-61 6 -86 -3.5t-30 -29t1 -46t8 -54t-9 -54t-52 -47.5q-57 6 -83 34t-33 65.5t-1 83t14.5 91.5t12.5 86t-6 68q-23 -4 -47.5 -3t-34.5 -25q2 -18 -5 -40t-14.5 -42.5t-6.5 -38t20 -27.5q-6 -18 -14.5 -23.5t-18.5 -5.5q-8 0 -19.5 2.5t-25.5 -2.5 q27 -12 39 -30.5t17 -41t4 -47t1 -49.5q-16 -20 -36.5 -26t-43.5 -6t-47 1t-45 -3v-58q18 -2 39 1t40.5 4t36.5 -4t30 -23q6 -43 -5.5 -78t-21.5 -70q20 10 32.5 -2t24.5 -22q-37 -18 -63.5 -43t-51 -47.5t-50 -39t-60.5 -18.5zM371 -98l86 4q10 43 22.5 87t20.5 90t11 94.5 t-5 101.5q-49 -16 -70.5 -59.5t-30 -98.5t-13.5 -114.5t-21 -104.5zM540 1092.5q7 -13.5 24.5 -19.5t38 -9t32.5 -11q27 12 25.5 36.5t-1.5 49.5q-6 16 -22 23t-34.5 6t-35 -9t-22.5 -24q-12 -29 -5 -42.5z" />
<glyph unicode="$" horiz-adv-x="831" d="M88 229q12 -29 29.5 -49t35 -38.5t36 -38t34.5 -46.5q20 -4 40 -1t38 8.5t34.5 8.5t31.5 -3q-12 -10 -19.5 -19.5t-14.5 -16.5t-17.5 -11.5t-28.5 -4.5v-26q23 -6 48 -19.5t46 7.5l39 -224q10 -8 19.5 -3t16.5 10.5t15 6.5t16 -14q4 10 15.5 11.5t23.5 1.5q-4 53 0 108 t-12 103q2 20 13.5 28t26.5 9t32.5 -1t31.5 2q-4 18 0.5 37t6.5 37.5t-4.5 35.5t-28.5 34q-8 -2 -17.5 0t-19.5 2q-8 0 -16.5 -2t-12.5 -10q-18 72 -14 153.5t0 159.5q8 12 10 29.5t2 33.5t-1 31.5t1 24.5l15 14q12 4 20 -7t21 -18q-16 -45 -15.5 -88t3.5 -86t2 -85t-19 -85 q27 4 45 -7t34.5 -21.5t35 -13.5t45.5 16q20 80 33.5 168t-9.5 174q-16 18 -27.5 44.5t-24.5 48t-31.5 35t-47.5 5.5l-92 65q10 68 -4 123.5t-30.5 108.5t-24 108.5t17.5 122.5l29 -28l12 12q12 -37 33.5 -44t48.5 -2t57.5 11t59.5 -4l-2 27q-33 49 -79 84.5t-120 31.5 q8 39 -4 56.5t-36 23.5t-52.5 3t-52.5 -5q6 -31 -5.5 -47t-31 -27.5t-42 -19.5t-40.5 -21q-10 -16 -23.5 -35.5t-23 -39t-9.5 -37.5t21 -33l12 10q10 4 15.5 -1t11.5 -9q6 -16 -6.5 -27.5t-7.5 -25.5q2 -12 -0.5 -29.5t-2.5 -34.5q0 -14 5.5 -26.5t23.5 -14.5 q-18 -18 -31.5 -15t-27 12.5t-27.5 16.5t-33 -1v-80q23 -55 38.5 -117.5t54.5 -103.5q6 -6 9 -15.5t8 -17.5t12 -11.5t20 3.5q72 -23 94 -80.5t21 -129t-13 -146t-8 -132.5l-25 27q-29 4 -50 -6.5t-44 -22.5q-18 20 -10 28.5t21.5 15.5t22.5 17.5t-5 32.5q-4 16 -10.5 36 t-15.5 36t-22.5 25.5t-31.5 7.5q-12 -16 -38 -20.5t-48.5 -10.5t-34.5 -21.5t0 -52.5zM260 967q25 10 35 28.5t14 41t7 46t12 41.5l12 -12q20 12 27 31l-2 2q0 -72 3 -145.5t-14 -139.5q-14 25 -18 51.5t-33 42.5q-12 0 -24.5 -1t-18.5 14z" />
<glyph unicode="%" horiz-adv-x="987" d="M74 1026q10 -20 25.5 -26.5t33 -5.5t34.5 3t34 -2q0 29 -1 56.5t-30 38.5q29 20 29 57t-3 73.5t6 63.5t56 31q33 -66 53.5 -137.5t20.5 -141.5t-21.5 -136t-70.5 -124q-20 14 -27.5 42t-17 51.5t-27.5 34.5t-59 -5l4 -94q20 -18 39.5 -40t42 -37t48 -20.5t60.5 5.5 q6 29 26.5 57.5t37 56t19.5 54t-24 53.5q0 33 9.5 83t17.5 105.5t10 108.5t-13 91t-52 55.5t-107 -1.5q-55 -8 -78.5 -47t-34 -91t-16.5 -109.5t-24 -102.5zM193 14l30 -28q59 31 98 87t62 125.5t35 147.5t18 152q37 33 65.5 84t49 108.5t29 114.5t6.5 104q43 49 71.5 104.5 t51 113t42 117t48.5 114.5l-127 28l-154 -413q25 8 39 -6.5t25 -24.5q-14 -33 -41 -33h-52q-37 -113 -67.5 -227.5t-63 -228t-71.5 -224t-94 -215.5zM598 215q6 -47 21.5 -90t43 -74t66.5 -46t94 -9q63 49 82 118.5t16 146.5t-12.5 156.5t0.5 151.5q-6 41 -29.5 60.5t-56 26 t-69.5 5t-70 -1.5q-117 -201 -86 -444zM717 332.5q-2 70.5 12 134t53 100.5l-22 -477q-16 41 -28.5 106.5t-14.5 136z" />
<glyph unicode="&#x26;" horiz-adv-x="991" d="M84 256q23 -66 37 -135.5t53 -128.5q23 2 37 -10.5t25.5 -24.5t24.5 -18.5t32 4.5l26 -68q23 6 46.5 10t46.5 17q12 -10 16 -23.5t5 -28t4 -29t12 -26.5q35 2 63.5 17.5t53 38t45 50t38.5 54.5q0 6 -4 13t-7 14.5t-2 13.5t13 10q29 -25 34 -60.5t19 -68.5q25 6 46.5 -4 t44 -22.5t49 -19.5t57.5 5l12 199q-68 20 -93 52t-25 71t16 83t35.5 89t34 91t6.5 87q-6 16 -22.5 25.5t-38 15.5t-44 11t-41.5 13q-18 -55 -32.5 -113.5t-42.5 -111.5q-8 59 -38 108.5t-42 104.5q-31 23 -68 8.5t-53 -34.5q-29 -39 -35 -86.5t-4 -100.5q29 -25 45 -58.5 t28.5 -70.5t22.5 -75t25 -72q-16 -37 -36 -46.5t-41.5 -5t-43 13.5t-43 12t-39.5 -6t-35 -46l-16 12q-12 35 -4 57.5t23.5 39t31.5 33t16 40.5q-31 55 -27.5 106.5t20 100.5t33.5 99t15 106l27 -27l104 78l13 -14l12 14l14 -14q10 29 29.5 53t39 49t34 51.5t14.5 61.5 q-8 -4 -13 1l-11 11q12 4 26 17.5t27 -7.5q27 20 42 51t22 66t9.5 73t6.5 72q-10 25 -19.5 50.5t-23 48t-32 42t-44.5 31.5q-23 18 -43.5 23.5t-40 4.5t-41 -7t-47.5 -8q-47 10 -99.5 -8.5t-85.5 -69.5q-47 -102 -58 -211t30 -211q31 -53 32 -95t-17.5 -76t-48.5 -63.5 t-61.5 -60.5t-56 -64.5t-33.5 -76.5q2 -29 3 -62q0 -33 -25 -55zM463 930q2 25 2 53q0 31 4 61.5t14.5 58t34.5 50.5l-2 39q14 -4 21.5 7t17.5 18v40q12 -47 14 -91t1 -88t-4 -88t1 -87q-8 0 -27.5 -4t-23.5 -22l2 -39q-23 0 -26 14t-1.5 30.5t-3 31t-24.5 16.5z" />
<glyph unicode="'" horiz-adv-x="335" d="M80 1528q0 -37 1 -79t2 -83t2 -76t1 -57q6 -43 3 -92t4 -89t35 -62.5t95 -14.5q20 66 25.5 138.5t3.5 148t-7 152.5t-1 151z" />
<glyph unicode="(" horiz-adv-x="473" d="M14 629.5q4 -29.5 20.5 -52t40 -43t39 -44t15.5 -54.5q0 -29 -31 -74q-10 -35 8.5 -60.5t43.5 -33.5q-12 -31 -4 -58.5t24 -54t32.5 -54t16.5 -58.5q23 6 36 23.5t25.5 36t28 33t41.5 14.5q-47 131 -74.5 267t-56.5 273l10 12q-16 55 -13 108.5t12.5 107t17.5 105.5 t0 101q6 4 9 13.5t8 16.5t12.5 10t21.5 -3l-12 43q-29 4 -50.5 -6t-44.5 -20q-16 10 -12 28.5t0 34.5q8 12 18.5 28.5t25 28t29.5 13.5t34 -15q4 49 25.5 90t47 80t47 80t25.5 90q-29 27 -55.5 52.5t-63.5 27.5q-166 -205 -241.5 -466t-34.5 -548q-25 -43 -21 -72.5z M243 -1.5q5 -10.5 14 -19t21.5 -16.5t18.5 -22q-12 -8 -13 -19.5t-1 -21.5q16 -10 22 -27.5t12.5 -33t17.5 -22.5t42 5q14 6 33.5 14t36 19.5t24.5 29t-4 41.5h2q-23 49 -43 84t-37 88q-25 20 -43 14t-33.5 -24t-31 -37.5t-35.5 -21.5q-8 -20 -3 -30.5z" />
<glyph unicode=")" horiz-adv-x="471" d="M16 1581q16 -31 42 -62.5t49.5 -65.5t40 -70.5t14.5 -79.5q23 18 45 19t45.5 -2t46 -4t47.5 13q-16 45 -28.5 88t-38.5 84l-117 185q-49 -16 -80 -44t-66 -61zM45 -41q8 -12 24.5 -17t32 -10.5t25.5 -15.5t8 -33h53q35 31 47.5 77t6.5 81l51 51q0 6 4 13.5t8 14.5t3 13 t-13 10q55 92 91 199t52.5 219.5t16.5 226.5q0 115 -15 226h-2q-18 23 -26.5 54.5t-13.5 66t-11 67.5t-21.5 56.5t-45 34t-78.5 -0.5q-25 -6 -50.5 -26.5t-27.5 -40.5q6 -10 17.5 -12.5t21.5 -2.5t21.5 -1t17.5 -11q-2 -18 7 -31.5t19.5 -26t15.5 -26.5t-3 -35 q-33 -70 -39 -142.5t-4 -147t4 -150.5t-15 -152q-29 -141 -82 -268t-100 -260z" />
<glyph unicode="*" horiz-adv-x="409" d="M68 1360.5q8 -19.5 26.5 -31.5t41 -22.5t36.5 -24.5q-20 -35 -46 -76t-46 -55l196 -31q8 23 -6 37t-28 27l98 67l-131 31q12 14 25.5 27.5t35.5 7.5v98q-29 -2 -55 -2q-27 0 -43 -33q-8 16 -19.5 22.5t-24.5 8.5t-26.5 1t-27.5 1q-14 -33 -6 -52.5z" />
<glyph unicode="+" horiz-adv-x="798" d="M49 688q0 -14 2 -28.5t0 -26.5l82 2q27 -8 53.5 -2t51 12t45 3t34.5 -30l80 62l9 -8q4 -4 8 -6l26 -25q31 20 61.5 21.5t61.5 -6t61.5 -17.5t61.5 -12q14 8 17.5 19t3.5 26q0 14 -2 28.5t0 26.5l-205 -22q-16 -16 -33.5 -35t-46.5 -8q-4 0 -6 2l-8 8q-8 10 -7.5 23.5 t-1.5 25.5q27 25 34 57.5t6 67.5t-5 71.5t0 69.5l-123 -2q25 -55 27 -131t-21 -133q-35 -10 -64.5 -6t-58 11t-58.5 12t-64 -3q-14 -8 -17.5 -20.5t-3.5 -26.5zM317 530q0 -10 4.5 -19t18.5 -15q-14 -10 -17.5 -25.5t-3.5 -32.5q0 -16 2.5 -33.5t0.5 -31.5l102 2v94 q0 49 16 90q-4 37 -16 39t-28.5 -7t-37 -18.5t-41.5 5.5q2 -10 1 -22.5t-1 -25.5z" />
<glyph unicode="," horiz-adv-x="356" d="M14 233q18 -29 15.5 -66.5t-3.5 -74.5t9 -67.5t53 -49.5q-25 -63 -36 -131.5t-23 -138.5q43 -20 68.5 -17t40 19.5t19.5 42t8 54t9 55t21 43.5q45 43 54 101t12 118.5t16.5 118t66.5 98.5v-2q-10 29 -21.5 37t-35.5 22l-17 -14q10 -49 0 -72.5t-32.5 -34t-53 -11.5 t-63.5 -1q-31 0 -59.5 -5t-47.5 -24z" />
<glyph unicode="-" d="M39 662l649 -9v33q-31 -16 -50.5 -7t-32.5 27.5t-23.5 41t-24.5 36.5q-84 18 -136 16.5t-102.5 -12t-113 -21.5t-166.5 -11v-94z" />
<glyph unicode="." horiz-adv-x="251" d="M35 68q12 -6 13 -19.5t1 -25.5t5 -21.5t24 -9.5q18 4 37.5 -2t39 -11.5t38 -4t36.5 19.5q-10 31 -12 57.5t-2 50.5q0 27 1 54.5t-1 62.5h-149q-29 -16 -30 -33.5t5 -38t10 -41t-16 -38.5z" />
<glyph unicode="/" horiz-adv-x="675" d="M90 176q2 -45 35 -90q-23 -12 -28 -31.5t-4 -42t4 -45t-1 -43.5h66q14 53 22.5 109.5t19.5 112t28.5 107.5t50.5 97q-10 80 -1 146.5t28.5 125t46 114t51 112.5t41 120.5t18.5 139.5l-98 29l-217 -688q-4 -45 -21.5 -90.5t-30 -91.5t-10.5 -91zM395 1300q12 -23 21.5 -44 t23 -35.5t34 -19.5t54.5 5q16 29 25.5 58.5t18 60.5t19.5 59.5t34 53.5l-168 30q-20 -16 -26.5 -37.5t-9.5 -44t-7 -45t-19 -41.5z" />
<glyph unicode="0" horiz-adv-x="727" d="M52 719q-5 -127 5.5 -253t34.5 -241q23 -29 37 -60.5t16 -70.5q33 -39 65 -67.5t66.5 -47t76.5 -25.5t96 -3q70 25 93 91.5t11 143.5q4 33 24.5 43.5t42 16.5t35 19.5t2.5 51.5v2q-16 12 -19 31t1 38.5t11 38.5t9 38q-29 39 -31.5 82t6.5 87t22.5 89t17.5 88t-8.5 82 t-57.5 72q-43 8 -58 34.5t-19.5 62.5t-4.5 73q0 39 -12 69q4 12 13.5 22.5t16.5 22t10 25.5t-3 33q-16 23 -36.5 32t-45.5 14t-50.5 8t-49.5 11q-76 -4 -140.5 -53t-95.5 -117q-35 -111 -55.5 -233.5t-25.5 -249.5zM301 639q0 102 4 201.5t12 189.5q-4 31 5.5 55.5t19.5 50 t16.5 52t-2.5 61.5q8 -27 23.5 -53.5t30 -54t23.5 -58t3 -65.5l25 -31l-27 -24q0 -111 1 -215.5t-4 -206t-18.5 -199.5t-43.5 -197h-27q14 12 11 22.5t-12 22t-17.5 22.5t-6.5 26q-8 96 -12 197.5t-4 203.5z" />
<glyph unicode="1" horiz-adv-x="657" d="M49 33q-4 -49 12 -92q14 -14 31 -12.5t33 7t30.5 10.5t26.5 -3q23 4 49.5 -1t42.5 15q27 0 60 -1t67.5 -2t69.5 2t66 13q37 -20 46 -8t8 37t-3 51.5t14 38.5q6 43 -10.5 54.5t-44 12.5t-57 -1t-48.5 14q-8 104 -14 185t-9 158t-6 160t-5 189q-31 2 -74 1t-75 -14t-42 -41 t21 -79q-4 -25 -20.5 -49.5t-41.5 -30.5q-2 -45 2 -66.5t8 -37t5.5 -36t-7.5 -63.5q-8 -23 -4 -41t9.5 -35.5t6.5 -35t-14 -35.5q14 -12 12.5 -25.5t-7 -27t-7.5 -26.5t17 -28q2 -35 -15.5 -43t-42 -7t-50.5 2t-40 -15q4 -45 0 -94zM82 1188q18 6 30.5 3t25 -10t23.5 -13.5 t27 -4.5q14 20 35 28.5t42.5 14.5t43 12.5t39.5 22.5l37 -39q18 2 42 -2t38 12v2q12 41 12 97q0 57 -14 100q-72 20 -141.5 -14.5t-122.5 -89.5q-6 0 -16.5 1t-23 0t-23.5 -7.5t-17 -20.5q12 -23 6 -32t-18.5 -15t-22.5 -15.5t-2 -29.5zM184 1042.5q4 -16.5 9.5 -33t8.5 -35 t-3 -38.5q25 4 49 17.5t47.5 24.5t48.5 14t53 -15q27 -4 34 8t7 33q0 20 -3 41.5t3 36.5v-2q-31 -12 -51 -5t-35.5 21t-29 29.5t-29.5 21.5q2 -25 -10.5 -37t-29.5 -19t-35.5 -12.5t-31.5 -15.5q-6 -18 -2 -34.5z" />
<glyph unicode="2" horiz-adv-x="827" d="M74.5 164q5.5 -47 19.5 -103q25 6 54.5 2t60.5 -8t61.5 -5t59.5 13q33 -4 70.5 -10t62.5 -4l10 12l14 -12q8 -2 14.5 4t12.5 10l12 -14q37 -16 89.5 -12t82.5 0q8 25 11.5 54.5t2.5 60t-2 58.5t-1 50h2q-35 2 -76 8t-82 7t-79 -7t-66 -35q-12 4 -29 0t-25 13 q20 25 23.5 49t5.5 47t7 45.5t30 44.5q14 10 34.5 18.5t32.5 -6.5q31 20 56.5 40t19.5 65q-12 53 -59 88t-94 47q-43 -51 -80 -107.5t-72 -111.5t-71.5 -107.5t-82.5 -97.5q-35 -49 -29.5 -96zM143 995q23 -6 47.5 -19t47.5 7q12 -4 24 -10t24.5 -11.5t26 -7.5t29.5 2 q16 80 45 156t76 145q33 -35 53.5 -88t24.5 -108q-27 -84 -62 -162t-47 -170q29 8 51.5 -2t41 -29.5t34.5 -41t33 -31.5q35 25 45 57.5t20 65.5q41 37 64.5 79.5t38 90t24 98.5t19.5 100v-2q0 12 -21.5 22.5t-44 21.5t-39 22.5t-8.5 27.5q-29 72 -72 109t-97 46t-113.5 -6.5 t-116.5 -45.5q-70 -57 -110 -139t-38 -177z" />
<glyph unicode="3" horiz-adv-x="763" d="M53 264q-6 -53 5.5 -98t35.5 -88q37 -63 107.5 -106.5t156.5 -37.5q29 6 39.5 24.5t24.5 43.5q6 -14 18.5 -13t24.5 -1q25 4 42 24.5t7 53.5q4 27 14.5 32.5t23.5 1.5t27.5 -12t26.5 -10q25 18 32 39.5t21 42.5q4 31 13.5 63.5t17.5 64t11.5 62.5t-3.5 62v-2q14 12 15 24 q0 12 -6.5 24.5t-11.5 26t3 29.5q-2 37 -30.5 52.5t-58 27.5t-47 30.5t4.5 61.5q27 6 42.5 26.5t24.5 46t16 52.5t22 49q6 45 11 95.5t1 99.5t-21.5 93t-56.5 79q-16 8 -30.5 20.5t-30 22.5t-31.5 16t-37 4q-90 14 -164.5 2t-142.5 -65q-31 -57 -54.5 -123t-9.5 -129 q14 -8 35 -10t39 -2q20 0 39 1t31 -1q29 10 37 22t4 43q14 8 17 22.5t7 29t12.5 22.5t30.5 2q2 16 -3 33.5t16 23.5q43 -35 57 -81t13 -97t-12 -104.5t-21 -102.5q-23 -37 -68 -53t-90 -25q4 -23 2 -48t-2 -50t5 -47.5t24 -40.5q10 2 21 3t17 13q41 -4 73 -25.5t61 -51.5 q-8 -43 -11.5 -89.5t-12.5 -89.5t-30.5 -79.5t-66.5 -59.5q-29 27 -33 62.5t-18 68.5q-23 12 -52 12t-58.5 -4l-59 -8t-56.5 0z" />
<glyph unicode="4" horiz-adv-x="763" d="M50 356.5q-3 -55.5 22 -116.5q41 4 76.5 3t68.5 0t64.5 8t66.5 25q10 -23 13.5 -48t4.5 -53t1 -52q0 -25 2 -43q-18 -20 -12.5 -49t3.5 -54q57 10 106.5 -3t102.5 -19q14 57 19.5 110.5t6.5 106.5t3 106.5t10 112.5q10 -4 11.5 -16.5t1.5 -24.5q45 -45 96 -47l18 160 l-119 20l25 781q-27 14 -63 14q-35 0 -58 -6q-35 -4 -72.5 6t-82.5 2q-31 -49 -52.5 -102.5t-19.5 -112.5q-31 -41 -50.5 -90t-37 -100.5t-35.5 -102.5t-49 -96q-6 -53 -23.5 -105.5t-31 -105.5t-16.5 -108.5zM236 418q10 78 30.5 150.5t43 144t43 143.5t30.5 150 q-25 8 -28 15t3.5 15t15.5 18.5t13 26.5h-2q14 -84 10 -167t-11 -166.5t-11 -168.5t10 -169q-37 4 -68.5 9t-78.5 -1z" />
<glyph unicode="5" horiz-adv-x="751" d="M55 223q10 -59 35 -109.5t47 -103.5q27 -47 71 -67.5t95 -23.5t103.5 5t97.5 15q68 31 104.5 82t54 112.5t23.5 127t12 126.5v-2q-25 31 -67 16q-18 20 -40 26.5t-46 6.5q-23 0 -47.5 -2t-46.5 2q-12 -39 -10.5 -81t2.5 -85t-5 -84t-37 -75q-8 -14 -17 -16.5t-19.5 2.5 t-21.5 11.5t-21 6.5q-16 25 -21.5 58.5t8.5 57.5q-23 23 -54.5 28t-66 0t-70.5 -15.5t-63 -18.5zM78 935q-2 -87 5 -173t32 -172q-8 -8 -14.5 -20.5t-20.5 -10.5q8 -16 25.5 -24.5t39 -12.5t45 -6t43.5 -4q20 18 24.5 40.5t14.5 45.5q14 -14 26.5 -12t25 9t24.5 13t31 2 q18 0 27.5 -8t13.5 -21.5t6 -28.5l4 -30q31 -29 53.5 -21.5t42 28t39 44t43.5 27.5q16 37 6 67.5t-26 65.5q-29 29 -74 47.5t-92 7.5q-23 2 -43.5 -4l-41 -12t-37.5 -7t-34 15q16 86 10 174t-4 174q20 8 28.5 1t11.5 -20t6.5 -26.5t15.5 -13.5q12 16 24 16t25.5 -3t26.5 -3 q14 0 28 15q25 -20 47.5 -18.5t45 9t47 10.5t49.5 -16l12 199q-23 18 -50.5 19t-56 -3t-57.5 -7t-53 7q-72 -20 -160 -16t-170 0q-2 -84 -7 -170t-7 -173z" />
<glyph unicode="6" horiz-adv-x="749" d="M49 532q0 -88 11.5 -175t37 -169t74.5 -151q20 -53 60 -74.5t86.5 -32t93.5 -18.5t86 -33q12 23 29.5 37t34 27.5t31.5 29t25 37.5q-16 18 -14 33.5t12.5 30t23.5 28t17 27.5q16 25 13.5 55.5t-8 60t-2 55.5t33.5 40h2q2 66 1 130.5t-15 123.5t-45 111.5t-86 95.5h-131 l-107 -78q-16 27 -13 66.5t1 62.5q-4 68 6 146.5t33 146.5q16 -6 23.5 -3t12.5 8t10 11t20 6q27 -18 35 -44.5t11 -55.5t5 -57.5t16 -53.5q49 12 97 21.5t100 19.5q16 92 -16.5 162t-88.5 129l-80 41q-20 2 -49.5 8t-59.5 7.5t-51.5 -10t-23.5 -46.5q-78 -45 -125 -109.5 t-72.5 -141t-36 -161.5t-14.5 -167q-4 -86 -4 -177zM311 616q12 -12 33 -3.5t35 18.5v12l12 -12l12 24q14 -74 21.5 -138t8.5 -128.5t-4 -131.5t-13 -142h2q-27 -10 -42.5 0t-25.5 28.5t-15 40t-9 37.5q-18 94 -14.5 201.5t-0.5 193.5zM333 3.5q7 10.5 19.5 17t24.5 11.5 t12 17q16 6 31.5 12.5t36.5 4.5v-3q-35 -12 -70 -31.5t-51 -58.5q-10 20 -3 30.5z" />
<glyph unicode="7" horiz-adv-x="716" d="M51 1192q2 -27 18.5 -37t40 -13t47 -5t42.5 -13q6 0 13 5.5t13 8.5t12.5 2t10.5 -14q14 14 27.5 13.5t25.5 -5t25.5 -6.5t29.5 11q-10 4 -11 10t3 13t10.5 15.5t10.5 14.5q29 -39 27.5 -76t-16.5 -72.5t-35.5 -71.5t-29.5 -71q-29 -115 -67.5 -223.5t-73.5 -219 t-58.5 -226t-23.5 -240.5l12 -10q18 14 47 12t57 -3t48 8t20 46q14 -12 13.5 -25.5t-7 -25.5t-13.5 -25.5t-5 -27.5q23 -16 60 -17q37 0 59 17q16 29 13 69.5t-1 63.5l13 10l-15 16l15 13q-16 66 -15.5 135t11 140t25.5 141.5t32 136.5q4 16 8 37.5t5 43t-4 42t-21 34.5 l24 144l14 -13q8 4 10.5 14.5t3.5 19.5t5 15.5t18 4.5q-6 61 14.5 110t45 97.5t43 99.5t6.5 115v-3q-20 8 -48 20.5t-54.5 17.5t-49 -1t-35.5 -37q29 -35 36 -85t5 -87l-55 80q-14 -4 -30.5 1t-22.5 -11l-10 10l-13 -12q-14 4 -31.5 0t-23.5 12q-8 -16 -16.5 -14t-16.5 8 t-16 8t-16 -14q-12 10 -27.5 12t-32.5 2q-14 0 -29.5 2t-27.5 11q-16 -39 -41 -76t-27 -82z" />
<glyph unicode="8" horiz-adv-x="712" d="M56 1031q-5 -46 1 -89t35 -80q-8 -41 5.5 -71.5t35 -59.5t42 -60.5t26.5 -72.5q-76 -131 -105.5 -288.5t-15.5 -313.5q25 -31 56.5 -44t67.5 -17.5t71.5 -7.5t68.5 -13q14 18 34.5 30.5t40 24t36 23.5t22.5 31q-2 25 6.5 34t20.5 9q14 0 30.5 -3.5t32.5 -3.5l51 148 q20 57 21 117q0 61 -15.5 117.5t-47 104.5t-76.5 79q6 20 -5.5 40.5t-20.5 37t-7 31t33 26.5l-11 12l13 12q27 -12 46 -0.5t34.5 33t31 47t33.5 39.5q6 45 11.5 96.5t0 100.5t-23 94t-53.5 78q-29 25 -61 37t-66.5 20t-70.5 15.5t-69 21.5q-39 -4 -69.5 -17.5t-56 -35 t-49 -49t-48.5 -58.5q-6 -41 -18.5 -85t-17.5 -90zM209 272q0 43 9 86t22 82q2 31 17 45.5t33.5 23.5t35 19.5t20.5 32.5q-10 4 -15 13.5t-16 11.5h-8h6q20 2 25.5 16t6.5 32.5l2 37t11 30.5q4 -18 2 -37.5t-2 -39.5q0 -18 5.5 -35t23.5 -29l12 12q2 -16 -10 -26t-4 -27 q-8 -10 -19.5 -11t-22.5 -2t-21.5 -6t-16.5 -20q68 -66 83 -146.5t9 -184.5h2l-14 16q-16 -10 -28.5 -19.5t-25 -15.5t-27.5 -8t-38 2q-33 29 -45 67.5t-12 79.5zM289.5 1057.5q5.5 60.5 17.5 107.5q10 6 22.5 7.5t25 3.5t23.5 8t19 22q-6 -43 25 -65l12 12 q10 -94 -10.5 -193.5t-79.5 -171.5q8 14 3 35t-13 42.5t-15.5 45t-1.5 45.5q-33 41 -27.5 101.5zM305 584h6h2h-8zM328 772h6l-2 2l-2 -2h-2zM342 -31l29 125l12 -76q-4 -27 -19.5 -35t-21.5 -14z" />
<glyph unicode="9" horiz-adv-x="718" d="M51 250q-4 -16 8.5 -23.5t18.5 -17.5q-4 -37 14.5 -67.5t44 -57.5t54 -50.5t47.5 -47.5q10 -6 26.5 -10.5t32.5 -5.5t31.5 4.5t23.5 21.5l15 -10q8 12 18 11t21 -1q14 10 36.5 18.5t41 19.5t28.5 27t0 43q-31 6 -39 18.5t-6 30t7 38t-1 42.5q-29 -4 -47 -4q-16 0 -45 7 q-12 -14 -11 -34t-16 -34q-35 0 -50 20.5t-21.5 49t-9.5 59.5t-11 55q-119 12 -211 -37q4 -16 1 -32.5t14 -24.5zM51 1128l51 -471q27 16 64 13.5t57 -25.5q-4 6 2 12.5t13 12.5q43 -12 45 -49t-9 -72q10 -16 17.5 -31.5t36.5 -7.5q14 8 21 20.5t12.5 24.5t8.5 24.5t11 24.5 q51 -98 25 -213q8 -12 23 -11t30.5 2t27 -3t11.5 -25q35 -23 69.5 -9.5t63.5 36.5l39 262l-11 14q12 66 13 131q0 66 -6.5 131.5t-13.5 131t-9 131.5q-16 16 -32.5 33.5t-45.5 7.5l-33.5 33.5t-7.5 46.5q-12 39 -39.5 55t-61.5 20t-69 4t-65 9q-94 -25 -151.5 -94.5 t-86.5 -168.5zM271 981q-5 14 3 33q2 78 26 147.5t40 143.5q18 -35 42 -67t24 -71l-11 -12l11 -12l-11 -13l25 -329q27 -4 36 -28.5t3 -53.5v2q-8 -18 -23.5 -22.5t-32 -3.5t-32.5 1t-29 -12q-29 51 -44 106.5t-24 114.5q14 12 13.5 24.5t-6 25t-10.5 26.5z" />
<glyph unicode=":" horiz-adv-x="321" d="M29 45q0 -31 10 -61q27 12 59.5 14t65.5 2q35 0 68.5 1t62.5 13v2v62q-4 18 -1 43.5t3 54.5t-6 54.5t-27 43.5q-23 -25 -47 -29.5t-49 -1.5t-49.5 9t-50.5 6q-8 -2 -13.5 -11t-15.5 -5q6 -35 2 -68t-8 -65.5t-4 -63.5zM37 903q0 -29 5 -54.5t28 -43.5q23 25 47 30t48.5 2 t50.5 -9.5t52 -6.5q4 6 10.5 12.5t16.5 2.5v2q-6 33 -3 66.5t7 66.5t4 63q0 31 -10 62q-29 -12 -60.5 -14.5t-66.5 -2.5q-33 0 -66.5 -1t-62.5 -13l2 -64q4 -18 1 -43.5t-3 -54.5z" />
<glyph unicode=";" horiz-adv-x="313" d="M20 930q0 -29 5.5 -54.5t27.5 -44.5q23 25 47.5 30t49 2t50 -9t52.5 -6q4 6 10 12t17 2v2q-6 33 -3 67t7 66.5t4 63.5t-11 61q-27 -12 -58.5 -14t-65.5 -2q-33 0 -67 -1t-62 -13v-64q4 -18 0.5 -44t-3.5 -54zM29 295q18 -29 15 -67t-4 -74.5t9 -67.5t53 -49 q-23 -63 -34 -132t-23 -138q43 -20 68.5 -17.5t39 19t18.5 42t9 54.5t9.5 55.5t19.5 42.5q45 43 54 101.5t13.5 119t17.5 117.5t66 98q-10 29 -21 36t-36 22l-16 -15q8 -49 -2.5 -72.5t-33 -33.5t-53 -11t-63.5 -1q-31 0 -59.5 -5.5t-46.5 -23.5z" />
<glyph unicode="&#x3c;" horiz-adv-x="749" d="M61 700q-18 -63 4.5 -84.5t60.5 -28.5t80 -11.5t64 -34.5q4 31 -5 57.5t-38 42.5q33 16 53.5 45t42 53.5t49 35.5t77.5 -7q25 37 70.5 51.5t86.5 29.5t68.5 42t15.5 86l-244 -107q-31 -43 -76.5 -67.5t-98 -39.5t-106.5 -28.5t-104 -34.5zM330 561l2 -61q41 -29 86 -42.5 t91 -26.5t91 -31.5t82 -55.5q27 12 20.5 37t-2.5 45q-49 8 -94 27.5t-90 41t-90 41t-96 25.5z" />
<glyph unicode="=" horiz-adv-x="1163" d="M78 547l37 -29q8 -25 -4.5 -39t-28.5 -30q16 -12 29.5 -25.5t35.5 -3.5q6 31 35 46t63 16t63.5 -14t35.5 -46q33 8 76 3t82 -5t68.5 13t35.5 59q47 -43 106.5 -54.5t125 -9.5t132 8t128.5 0l28 133q-55 -18 -105 -9t-97 20.5t-93.5 12.5t-97.5 -34l37 -29l-29.5 -29.5 t-35.5 -6.5q-33 16 -33 43q0 29 -4 55q-18 -4 -42 -2t-48 2q-23 0 -42.5 -6t-31.5 -29q-45 16 -100.5 24.5t-111.5 7.5t-111.5 -11.5t-102.5 -30.5zM109 874l978 -12v33q-31 -16 -50 -7t-32.5 27.5t-23.5 41t-25 36.5q-84 18 -187 17.5t-215 -11t-226.5 -20.5t-218.5 -10 v-95z" />
<glyph unicode="&#x3e;" horiz-adv-x="749" d="M43 393l20 -22q-8 -8 -16 -16.5t-2 -24.5q39 20 89 33.5t96 30t84 40t55 66.5q10 -18 27.5 -17.5t33.5 -1.5q35 27 82 43.5t91 35t75 48t33 84.5q-164 66 -326 132.5t-332 119.5q-6 -14 -3 -23.5t9.5 -18.5t11.5 -18.5t3 -21.5q150 -16 271.5 -83.5t223.5 -151.5 q-33 -12 -63.5 -29.5t-62 -34t-65.5 -29t-71 -14.5q-23 -39 -59.5 -53t-74.5 -22.5t-74 -16.5t-56 -35z" />
<glyph unicode="?" horiz-adv-x="632" d="M61 1200q61 12 117.5 48t93.5 83l-88 55q-14 -16 -36.5 -36.5t-42 -45t-34 -51t-10.5 -53.5zM197 221l12 -233q23 -4 50.5 -1t41.5 -1q12 2 23.5 1t17.5 13l10 -12q23 2 49.5 -3t42.5 15q2 33 1 60.5t-1 54.5t2.5 52t12.5 56l-27 25q-27 -10 -58.5 -12.5t-63 -1t-61.5 -1 t-52 -12.5zM233 567q20 -8 28.5 -24.5t10.5 -33.5t0 -33.5t-2 -26.5q-18 -16 -6 -39t25 -29q8 14 16 14q10 0 18.5 -5t18.5 -10t23 3q-4 10 2 16.5t12 12.5q10 -8 17 -19.5t22 -7.5q0 10 1 21.5t13 17.5q-18 35 -14 77t0 81q8 49 24.5 88t38 75.5t46 72.5t51.5 79h-3 q-16 90 -39.5 175t-25.5 179q-23 2 -41 -7t-35.5 -19.5t-37 -15.5t-46.5 5v-55q31 -80 13.5 -150.5t-49 -141t-60.5 -143.5t-21 -157z" />
<glyph unicode="@" horiz-adv-x="1048" d="M96 641q2 -43 17.5 -81t38 -72.5t48 -68.5t50.5 -67q8 -16 21.5 -20t27.5 -4q16 0 31.5 1t25.5 -3l17 -21q2 -6 2 -24q63 -14 135 -19.5t139.5 4.5t129 39t108.5 84l-25 25q-90 0 -145 -76q-37 -18 -83 -23.5t-93 -6.5t-91 0t-77 -3q-2 14 -17 21q-33 39 -67.5 82t-62 92 t-44 103t-12.5 116q-6 106 51.5 189t136.5 157q74 12 154 9t156.5 -25.5t143.5 -63.5t114 -104q4 43 -15.5 77.5t-51.5 64.5t-67.5 54.5t-64.5 44.5q-47 10 -103.5 17.5t-112.5 6.5t-108.5 -13.5t-93.5 -42.5q-106 -78 -161.5 -196t-51.5 -253zM276.5 730 q2.5 -32 15.5 -63.5t22.5 -62.5t9.5 -57q0 -27 -27 -47l172 -70q18 6 37.5 20.5t39 21.5t37 1t33.5 -39q25 2 51.5 0t53.5 -2t50.5 5t41.5 24q125 151 139 346q-37 -16 -57.5 -52t-37.5 -80t-36.5 -89t-56.5 -76q-47 16 -63.5 42t-14.5 57.5t16.5 67.5t28.5 73.5t23.5 76.5 t-0.5 76q-23 12 -38.5 4t-28.5 -19t-26.5 -13.5t-27.5 26.5q-35 20 -72 21.5t-71.5 -9t-67.5 -30t-60 -39.5q-51 -25 -69.5 -53.5t-16 -60.5zM389 680q8 37 29.5 68.5t52.5 57.5t64 42q78 -18 93 -63.5t-3.5 -94.5t-58.5 -95t-72 -67q-12 8 -31 12.5t-35 9.5t-26.5 16.5 t-10.5 33.5q-10 43 -2 80z" />
<glyph unicode="A" horiz-adv-x="835" d="M53 -25l13 -36q29 2 60.5 -2.5t53.5 12.5l-12 14q14 6 21.5 18.5t13.5 24.5t15 19.5t28 3.5q41 41 46 98q4 41 4 83q0 17 -1 34q14 10 34.5 13l41 6t41 8t39.5 22q10 -10 14 -22.5t5 -27t4 -27.5t11 -23q-45 -27 -42 -38.5t23.5 -20.5t39 -22.5t4.5 -43.5 q16 -63 21.5 -127t33.5 -119q27 2 53.5 9t53 12t53.5 5q26 0 55 -12q5 30 5 60q0 18 -2 38q-5 50 -15 99t-22.5 98t-18.5 98q-8 27 -10 56.5t-5 58.5t-9.5 55.5t-24.5 49.5q-47 -20 -92 -35t-86 -43q-25 10 -26 31.5t-1 43.5q-12 12 -23.5 22.5t-27.5 4.5q-18 -10 -41 -12 t-41 6t-28.5 25.5t-6.5 44.5l53 585q37 -147 52.5 -302.5t38.5 -309.5q61 4 120.5 7t110.5 32q3 31 3 61q-1 58 -11 113q-16 82 -36 162q-20 79 -36 159q-12 58 -12 121q0 23 2 47q1 14 1 26q1 50 -13 76q-16 32 -48 39q-14 3 -29 3q-19 0 -42 -4q-41 -8 -85 -17.5 t-85 -11.5h-7q-36 0 -65 18q-29 -13 -36 -47q-5 -26 -5 -52v-15q-8 -35 -8 -76v-66l-12 -14zM156 -164q8 -20 20 -25.5t29 -13.5q41 2 69 28q21 19 22 51q0 11 -3 24q-12 51 -31 51q-16 0 -36.5 -22.5t-39 -53.5t-30.5 -39z" />
<glyph unicode="B" horiz-adv-x="870" d="M53 827q0 -109 3 -219t12 -225q47 -31 65.5 -81t22.5 -106q2 -32 2 -65q0 -24 -1 -48.5t-1 -48.5q0 -31 2 -59l215 2q16 14 30.5 12.5t30 -7t31.5 -10.5q6 -2 13 -2q11 0 22 5q43 2 79.5 16.5t67.5 37t58.5 49t52.5 53.5q25 55 41 120.5t16 131.5q0 68 -19.5 130 t-64.5 114q-23 0 -34 -8.5t-21 -18.5t-20.5 -21.5t-28.5 -15.5q-10 23 -25.5 31t-33 11t-36 6t-32.5 18q-4 6 2 12l12 12l11 -11t16 -1q39 33 73.5 77t58 96t33.5 108q5 29 6 58q0 27 -5 54q-8 37 -25.5 77t-42.5 74t-57.5 58.5t-69.5 32.5q-110 6 -222 12q-30 2 -62 2 q-83 0 -173 -12q0 -117 -1 -228.5t-1 -222.5zM317 502q7 20 17 35q-2 -10 4 -15.5t10 -11.5q10 2 21.5 3t17.5 13l-2 25q27 -14 57.5 -10t46.5 34q-4 -20 5.5 -35.5t21.5 -28.5t23.5 -28.5t11.5 -33.5h2q-10 -33 -11 -70t-6.5 -73t-17.5 -65.5t-43 -47.5q-23 -2 -42 1t-38 3 q-18 0 -33.5 -9.5t-29.5 -33.5q-8 33 -9 74.5t-1 84.5q0 45 1 86v27q0 26 -1 49q-8 5 -8 15q0 5 3 12zM322 727q2 53 2 100t-1 93.5t-1 91.5q0 47 2 100q10 2 19 2q16 0 29 -7q19 -11 32.5 -29.5t24.5 -41t22 -41.5q-2 -16 12 -26.5t24 -24.5l15 12h-2q28 -18 28 -39 q0 -19 -10 -37q-10 -20 -24.5 -38.5t-18.5 -36.5q-29 14 -43 5t-24.5 -24.5t-22.5 -28t-39 -3.5z" />
<glyph unicode="C" horiz-adv-x="864" d="M47 557q10 -23 27.5 -25t34.5 11q20 -41 27 -87t14.5 -92.5t18.5 -90.5t38 -83q-2 -25 8 -45t27.5 -38.5t37 -34t35.5 -29.5q29 -8 67 -20.5t77 -17.5q16 -2 32 -2q23 0 43 4q36 7 62 38q51 12 75.5 45t45.5 80l14 -16q25 39 36 84t17.5 93t11.5 96t15 93v-2 q-51 18 -113 22l-32 2q-45 0 -84 -10q4 -14 -1.5 -30.5t11.5 -24.5q-18 -31 -19 -59q0 -29 9.5 -57.5t21.5 -56.5t14 -58q-12 -14 -14 -35t-2 -43q0 -20 -5 -39.5t-26 -32.5q-16 8 -11 23.5t1 30.5q-4 20 -13 40.5t-24.5 34t-36 17.5t-47.5 -9q-27 16 -27 52q0 6 1 12 q-16 29 -18 67l-2 34q0 21 2 41q3 38 4 75v7q0 33 -9 57l15 12q6 18 -0.5 25.5t-17.5 10.5t-24.5 6t-19.5 13q2 154 11.5 297t31.5 299q31 -8 34 -21.5t0 -31t-3 -35.5q0 -16 24 -31l43 27q17 -39 19 -83q0 -15 1 -30q0 -30 -2 -60q-2 -34 -2 -68v-23q1 -45 19 -82l139 6 q8 27 27 56.5t53 25.5q8 45 8 87q0 123 -67 224q-18 18 -35.5 40t-37 38t-41 25.5t-48.5 7.5q-30 16 -66 16h-8q-10 -1 -20 -1q-30 0 -59 5q-76 -23 -134.5 -79t-91.5 -128q-12 -14 -13 -32.5t-2 -39t-6 -38t-24 -29.5q-4 -78 -16 -153.5t-27 -149.5q16 -14 14 -28.5t-8 -29 t-9 -28.5t13 -29z" />
<glyph unicode="D" horiz-adv-x="815" d="M54 1368q5 -25 14.5 -50.5t7.5 -47.5q-1 -29 -1 -57q0 -71 7 -135q10 -90 33 -191q-6 -12 -17.5 -13.5t-23.5 -1.5q14 -30 15 -66q0 -18 0.5 -36t-0.5 -35v-14q0 -29 3 -55q4 -34 23 -60l-25 -26q10 -33 10 -66q0 -31 -1 -60.5t1 -58t15 -57.5q6 -12 12 -12t13 3t14.5 7 t13.5 4q35 -31 73 -59.5t81 -44.5q20 16 31.5 38.5t4.5 51.5v204q-6 12 -10 25.5t-10 25t-16.5 19.5t-28.5 8q6 16 22.5 12t30.5 1q-2 24 -2 50t2 53q1 11 1 21q0 42 -13 78q14 8 12 15.5t-8 15.5t-13.5 16.5t-5.5 18.5q14 18 20.5 43.5t6.5 52.5q0 29 -5 56.5t-9 50.5 q12 16 13 33.5t-4 35t-12 35.5t-10 37q0 6 3.5 12t6.5 12.5t2 12.5t-12 10q8 14 15 14q8 0 16 -6t16.5 -13t18.5 -5l25 49l12 -12q-3 -15 -3 -28q1 -25 13 -43q20 -26 31 -56q2 2 8 9t13.5 11t15.5 4t14 -14l-53 -47q-5 -20 -5 -38q0 -29 14 -54q22 -41 52 -64 q-6 -16 -22.5 -12t-28.5 0q23 -164 37 -335q5 -66 5 -133q0 -104 -13 -208q2 -10 -6.5 -17.5t-15.5 -15.5t-8 -15t15 -15q8 -4 14.5 1t12.5 11q16 -47 34.5 -92t55.5 -86l74 63q64 193 84 412q7 73 6 145q0 144 -27 285l-24 26l12 13q-11 25 -11 59v5q0 9 1 19q0 27 -3 53 q-3 34 -21.5 57.5t-67.5 23.5l51 26q8 27 -5.5 46.5t-21.5 42.5l-127 100q-49 13 -101 13h-7q-56 -1 -111 -6t-109 -9q-22 -2 -44 -2q-32 0 -62 4q-29 -12 -34 -32q-2 -10 -2 -22t2 -24zM76 211q12 -37 12 -72t1 -67.5t8 -64.5t30 -62q29 -4 56.5 0t47.5 -13q20 12 40 13.5 t38.5 -0.5t38 1t37.5 21q27 -13 55 -13q22 0 44 8q50 18 94 46h-3q-14 45 -39.5 89t-50.5 75q-10 4 -18 10t-15.5 9.5t-15.5 -1t-14 -18.5q-23 -23 -49.5 -9.5t-40.5 36.5h-9q-29 0 -55 11q-30 13 -59 30.5t-57.5 32t-63.5 14.5q-12 -10 -12 -33q0 -20 14 -31zM563 1231 q10 -2 18.5 -1t16.5 -5zM606 1223l8 8l13 -12z" />
<glyph unicode="E" horiz-adv-x="712" d="M47 33q14 -10 13 -21.5t-5 -24t-6 -23.5t10 -19q16 -12 40 -14.5t38 14.5q20 -8 46 -10.5t53 -2.5t51 1t43 -1q-4 10 1 15.5t11 11.5l39 -41q35 8 64.5 11t58.5 3q30 0 62 -1h22q23 0 49 1q1 13 1 27q0 33 -4 71q-1 10 -1 21q0 40 16 74v-2q-72 15 -137 15q-14 0 -28 -1 q-39 -2 -78 -2t-78 2q-14 94 -14 180v27q1 54 2 110q0 45 -1 91q10 14 20.5 12t20 -7t19.5 -7t20 14q29 -4 74 -4q47 0 78 2q-8 16 -11.5 34.5t-8.5 37t-16 34t-32 25.5q-18 25 -39 25q-18 0 -37.5 -11.5t-38 -28t-36.5 -24.5l-13 12q-12 -8 -19 -21t-12 -29.5t-9.5 -34 t-10.5 -31.5l-12 14q-18 8 -42 26.5t-49.5 32t-52 15.5t-51.5 -23q13 -78 15 -148q0 -15 1 -31q-1 -55 -5 -109q-6 -70 -12.5 -139.5t-8.5 -147.5zM84 1104q0 -102 14 -219l13 18l26 -29q-12 -6 -11 -16t1 -20q8 -8 24.5 -17.5t33 -17.5t31.5 -12.5t24 -4.5l12 -12l12 12 q0 -16 8.5 -30.5t21.5 -26.5t26.5 -21.5t21.5 -11.5q0 10 1 22.5t13 18.5q-4 8 -2 25.5t2 36.5q0 18 -5 35.5t-23 27.5q1 16 1 33.5t-1 35.5q-2 36 -2 70q0 35 5 67t23 60q31 -2 66 -8t72.5 -10t74.5 -7q16 -1 31 -1q20 0 39 2q0 27 7 56l12 56q3 17 4 32q0 10 -2 20 q-4 24 -23 43q-42 1 -83 1q-102 0 -196 -4q-26 -1 -52 -1q-105 0 -208 16q-12 -117 -12 -219z" />
<glyph unicode="F" horiz-adv-x="694" d="M53 1227l23 -830l39 13q23 6 44 -2.5t42.5 -21.5t44 -23.5t49.5 -6.5q16 18 13 49t-1 44q-2 17 -2 35q0 26 4 53q6 45 47 65q18 -14 17 -27q39 0 68.5 3.5t43.5 48.5q10 -14 23.5 -18.5t30.5 -8.5l12 180q-14 25 -31 25q-16 0 -32.5 -6t-34 -9.5t-31.5 15.5 q-6 -10 -17.5 -11t-21.5 -1t-21.5 -1t-17.5 -10q-16 45 -22 88q-5 36 -4 73v14q2 43 4 91q1 16 0 33q0 33 -3 68q-2 10 -9 20.5t-12 19.5t-5 19t12 21l27 22q18 -10 14 -28.5t0 -34.5q0 -23 7 -26t17.5 3t20.5 14.5t19 8.5q26 -13 61 -13q9 0 18 1q23 2 41.5 2t32.5 -2 q16 -12 33.5 -10.5t30.5 22.5h-2q-10 29 -3 58.5t13 57.5q3 15 3 28q0 12 -2 22q-5 22 -38 39l-10 -13q-16 -6 -32.5 -3t-32 6t-29 1t-21.5 -20q-49 6 -104.5 11t-109.5 6h-15q-46 0 -92 -5q-54 -6 -99 -20v-129zM68 14h36q31 8 43.5 -4t17.5 -31.5t6 -43t11 -37.5 q21 4 43 4q15 0 30 -2q8 -1 15 -1q29 0 52 13q4 68 5 141q0 25 -1 51q-2 102 -17 193h-39q-8 0 -17 -1t-16.5 1t-12.5 7t-5 15q-33 16 -78 17q-43 0 -73 -17v-305z" />
<glyph unicode="G" horiz-adv-x="796" d="M46 662v-13q0 -152 22 -321q-16 -31 -13.5 -59.5t13 -56.5t24.5 -53.5t21 -47.5q-16 -14 -14.5 -32t11 -37t20.5 -39.5t11 -41.5q14 -6 31.5 -12t33 -15.5t27 -24.5t11.5 -36q18 -2 36.5 -5t37.5 -4h10q14 0 28 2q17 3 33 13q37 -16 55.5 -5t34 31.5t33.5 42t51 27.5 q8 -27 22.5 -49t6.5 -55l100 6q12 170 27 324.5t31 328.5q-12 0 -25.5 6.5t-26 11.5t-26 4t-25.5 -15l-11 11t-1 15q-51 -2 -101 -3h-7q-45 0 -87 11l-8 -79q-8 -14 -3 -26.5t11 -24t5 -20.5t-23 -18q4 -12 -1 -28.5t11 -22.5q8 12 19.5 13.5t21.5 1.5q0 10 1 21t13 20 q14 -61 14 -125q0 -16 -1 -32q-4 -81 -58 -140q-31 -33 -47 -37t-26.5 8t-18.5 33.5t-19.5 42t-30.5 33t-52 4.5q10 16 28.5 14t34.5 2q-3 70 -3 143v37v9q0 87 -19 167l24 25q-6 25 -3 51.5t6 51t0 48t-21 41.5q23 45 29 99.5t11 107.5t16 103.5t46 87.5l37 -13 q-2 8 4 14.5t11 12.5q18 -4 27 -14.5t15.5 -24.5t13.5 -27.5t21 -21.5q-8 -63 -8 -117q0 -53 2 -125q18 8 32.5 4t29 -9t28 -6t27.5 13q18 -8 35.5 -17t40.5 -7q25 20 33 52q7 28 7 60v8q-1 35 -8.5 72t-11.5 66l10 12q-12 14 -13 33.5t-1 40.5q0 20 -4 37.5t-25 29.5 q-23 47 -56.5 72t-74.5 37t-84 18.5t-84 16.5q-63 -23 -123.5 -67t-99.5 -95v-27q-55 -35 -74 -97q-12 -40 -12 -84q0 -23 4 -48q-49 -160 -50 -319z" />
<glyph unicode="H" horiz-adv-x="788" d="M53 12q8 -28 13 -63q29 -13 56 -13h4q28 1 56 6q30 5 60 9q12 2 25 2q19 0 40 -4q10 96 10 190v187q0 92 7.5 183t33.5 181q8 -14 10.5 -31.5t5.5 -35t9 -30.5t23 -20q2 12 3 23.5t-14 17.5l13 11q2 -27 18 -49.5t30.5 -46t18.5 -49t-16 -60.5q-2 -46 -2 -96 q0 -52 2 -106q1 -21 1 -41q0 -87 -14 -167q6 -12 8.5 -25.5t7.5 -24.5t15 -15t33 4q20 16 45 14t51.5 -7t54 -8t54.5 13v588q2 31 0 57.5t-2 50.5q0 25 5 48.5t23 48.5h-2q-14 135 -14 280t14 281l-39 37q-27 -12 -50 -14.5t-47.5 -1.5t-50.5 3t-56 0q-12 -14 -18.5 -32.5 t-8.5 -38t0 -39t4 -33.5l-2 -391q-12 -16 -30.5 -22.5t-41.5 -6.5q-20 0 -40.5 5t-36.5 12q-6 56 -6 108v32q2 66 8 129.5t7 127.5v10q0 60 -12 127h-192q-18 -16 -37.5 -45t-26.5 -57q2 -49 2 -93t-2 -83q-1 -15 -1 -30q0 -65 14 -138q-6 -25 -1 -53.5t9 -58.5t5 -57.5 t-11 -47.5l12 -13q-18 -27 -22 -59q-3 -24 -4 -50v-16q2 -34 2 -69t-13 -64l10 -12q-2 -16 0.5 -39t2.5 -47q0 -25 -2.5 -48.5t-10.5 -43.5q14 -14 12 -30.5t-6 -32.5q-6 -26 -6 -38q0 -14 10 -26q-12 -24 -12 -45q0 -10 2 -19z" />
<glyph unicode="I" horiz-adv-x="444" d="M102 270q4 -41 9.5 -84t6.5 -86v-5q0 -40 -14 -79q6 -31 18.5 -33.5t30 0.5t35 4t31.5 -20q31 -10 52 -10q20 -1 31 9q22 20 27 56q4 30 4 65v14v6q0 38 13 65q-16 12 -14 25.5t8 26t8 25.5t-14 25l12 13l39 1020l-39 24q-20 -23 -45 -24.5t-53.5 4.5t-58 11t-60.5 -3 q-4 -14 1 -28.5t-11 -22.5l10 -13q-16 -18 -13 -37.5t8 -39t7 -39t-12 -37.5q14 -12 12 -25.5t-7 -26t-8 -25.5t13 -28l-10 -12q-9 -78 -13 -159q-3 -63 -3 -126v-36q1 -82 2 -162t1 -154q-5 -25 -5 -51q0 -13 1 -27z" />
<glyph unicode="J" horiz-adv-x="538" d="M53 156q20 -28 20 -69l-1 -14q0 -35 3 -66q3 -36 23 -59q13 -14 43 -14q17 0 39 5q16 12 45 12t52.5 4t36 18.5t-6.5 55.5q33 27 74 32t80 19q8 12 11 27.5t3 31.5q0 18 -1 32.5t-1 23.5q8 12 10 27.5t2 31.5q0 18 -1 32.5t1 22.5q-10 27 -3 57.5t13.5 58.5t-1 48.5 t-48.5 26.5q-27 -6 -48 -28.5t-42.5 -43t-45 -32t-54.5 2.5q-4 -6 -10 -11t-17 -1v-168q-16 -25 -38.5 -33t-47 -10t-48 -4t-42.5 -16zM229 618q-1 -18 -1 -34q0 -72 14 -138q29 -22 50 -22q7 0 12 2q24 10 43.5 34.5t39 54.5t49.5 46l13 -10q4 4 10 9t14 1q14 49 14 111 q0 61 -14 108q6 23 7 47.5t-34 28.5l15 14q18 70 22 140.5t4 140.5v143q1 74 13 150l-39 39q-27 -10 -57.5 -12.5t-63.5 -2.5q-31 0 -59.5 -1t-51.5 -11q2 -39 2 -83t-2 -93q-1 -19 -1 -37q0 -77 14 -145q-12 -16 -13 -45q0 -27 15 -43l-15 -13v-39q0 -20 3.5 -41.5t8.5 -41 t17 -31.5q29 23 58 34q20 7 43 7q14 0 28 -2q16 -4 29.5 -18.5t29.5 -20.5q-10 -8 -24 -20.5t-25 7.5q-25 14 -46 13.5t-41.5 -10t-40 -22.5t-40.5 -19q2 -43 2 -87t-2 -88z" />
<glyph unicode="K" horiz-adv-x="786" d="M43 76q0 -37 27 -66q23 -26 49 -26h4q24 0 50 6q28 6 56.5 10t57.5 -14q14 16 13 31.5t-6 30.5t-9 31.5t2 35.5q15 44 16 83q0 7 -1 13q-3 45 -9 88q-4 29 -4 57q0 14 1 28q3 42 34 87q27 41 28.5 60.5t-13.5 28.5t-42 9q-25 0 -50.5 3t-46 10.5t-26.5 29.5 q6 16 13.5 14.5t15.5 -8t16 -8.5t17 15q20 -6 36.5 -20.5t38.5 -6.5q29 20 53.5 35.5t24.5 54.5l25 -39q-1 -21 -1 -43q0 -45 5 -96q8 -76 35 -139q18 -45 21 -99.5t7 -106.5t18.5 -99.5t55.5 -77.5q12 8 27.5 10t31.5 2q18 0 33 -1t23 1l12 -12l12 12q6 -12 17.5 -13 t23.5 -1l-2 2q5 29 5 58q0 18 -2 37q-5 48 -14 96t-21.5 96.5t-18.5 97.5q-4 88 -27.5 173t-48 170t-36.5 169q-4 30 -5 60q0 55 15 112q53 59 82.5 129.5t58.5 140.5l12 -2v39l-205 27q-20 -14 -30.5 -37t-19.5 -48.5t-20.5 -51t-31.5 -44.5q5 -21 5 -40q-1 -28 -11 -51 q-18 -40 -41 -76.5t-43 -74.5q-14 -28 -14 -62q0 -12 2 -25q-16 6 -12.5 21.5t-0.5 27.5q-13 41 -13 84q0 10 1 22q4 56 13.5 111t19.5 113q8 48 8 96v20l-244 15q-2 -55 -9 -104.5t-13 -95.5q-5 -39 -5 -80v-13q1 -47 13 -103q6 -26 6 -52q0 -16 -2 -31q-6 -42 -11 -80 q-3 -21 -3 -43q0 -17 2 -33q4 -37 35 -68q-8 -16 -22.5 -13t-29.5 1q-2 -41 -2 -83q0 -51 3 -105q1 -23 1 -46q0 -71 -12 -135q13 -30 13 -61q0 -8 -1 -16q-4 -40 -10 -78.5t-6 -75.5z" />
<glyph unicode="L" horiz-adv-x="665" d="M53 432q49 0 59 -28q6 -17 5 -37q0 -13 -2 -28q-5 -38 -15 -79q-4 -17 -4 -31q0 -21 8 -36q-10 -30 -10 -54q0 -13 3 -24q9 -31 28.5 -55.5t41 -50t28.5 -62.5q43 25 96 27h21q44 0 88 -5q56 -6 110 -11q21 -2 41 -2q32 0 63 5q-2 33 0 60.5t2 52.5q0 27 -3 51.5 t-13 54.5q-29 4 -60.5 -4t-54.5 4q-27 -16 -53 -15t-54 7t-54.5 8t-53.5 -14q-18 -8 -38.5 -22.5t-36.5 -2.5q13 29 37 53q22 23 61 23h6q-8 12 -4 22.5t9 19.5t6 17.5t-13 18.5q7 157 21 309q8 96 9 196q0 59 -3 120q-13 1 -25 1l-45 -3q-35 -4 -59 14q8 8 20 11t24.5 6 t21.5 9.5t11 22.5q20 2 60 0h8q34 0 59 14l39 369q-55 18 -133 21t-151 4q-14 -127 -15 -242q0 -113 17 -242q-49 0 -103 -39v-434z" />
<glyph unicode="M" horiz-adv-x="1017" d="M43 1225l55 -662q-20 -14 -16 -28.5t13 -27.5t13.5 -25.5t-20.5 -22.5q1 -12 1 -26q0 -21 -2 -45q-3 -40 -3 -81t5 -81t24 -72q-11 -57 -17 -129q-1 -10 -1 -20q0 -59 28 -105q25 12 45 12h41q20 0 39.5 4t40.5 23q-2 44 -2 87q0 54 3 107q1 18 1 37q0 77 -17 152l15 12 l-15 12q3 38 3 81v21q-1 56 -1 113t4.5 112.5t22.5 104.5q10 -12 11 -26.5t1 -30.5t1 -30.5t12 -26.5q-10 -12 -7 -23.5t10 -24t14 -25.5t7 -28q-3 -21 -3 -44q1 -37 9 -79q14 -66 19 -131q2 -16 9 -30.5t12 -28.5t5 -29q0 -14 -12 -28q14 -31 20.5 -67t11.5 -73t10 -72.5 t22 -66.5l141 25q-7 26 -7 50q0 13 2 23q5 34 15 64t20 62q8 26 7 55v12q-2 33 -15.5 37t-33 -2.5t-41 -10.5t-37.5 15l26 24q8 -2 16.5 6.5t16.5 14.5t15.5 7t15.5 -13q16 2 23.5 8t10.5 14t6 19.5t11 21.5q4 70 9.5 143.5t14.5 147.5t24.5 145.5t41.5 137.5q3 -29 3 -59 q0 -25 -2 -49l-10 -112t-6 -114v-8q0 -54 13 -105l-12 -12q13 -93 13 -191v-36q-1 -50 -1 -100q0 -66 2 -132q8 -16 12.5 -33.5t12.5 -30t21.5 -17.5t41.5 5q29 78 53 162q15 53 14 111q0 35 -5 71q29 41 35 94.5t6 108.5t-1 109v7q0 49 13 89q8 16 10 37.5t2 42.5 q0 23 -1 41t1 30q16 23 17 58q0 35 -17 57q12 41 14 82v15q0 33 -6 67q-6 41 -13 80t-9 74l-317 -13l-39 -266q-18 -78 -38 -153.5t-40 -151.5q-27 61 -39 130t-19.5 139.5t-15.5 141t-27 136.5l-38 37q-8 -12 -14.5 -11.5t-13.5 7t-15 10.5q-3 1 -7 1q-6 0 -14 -5 q-29 -12 -63 -14q-20 -1 -40 0h-28h-14q-28 0 -54 -3q-32 -4 -59 -22z" />
<glyph unicode="N" horiz-adv-x="776" d="M51 50q-1 -5 -1 -11q0 -21 13 -37q12 2 23 2q12 0 18 10l76 -63q0 16 11.5 26.5t26.5 17.5t32.5 11t32.5 8h-2q-16 16 -13.5 34t8 34t5.5 31q0 16 -25 28q-10 4 -15 -1t-12 -11q-23 10 -44 8t-42.5 -9t-44 -15.5t-47.5 -8.5q4 -27 0 -54zM63 1303q-1 -65 -1 -129 q0 -80 2 -156q2 -138 6 -275t12 -273t20 -277q23 -4 48.5 1t42.5 -12q51 8 73.5 32t27.5 56q2 14 2 29q0 19 -3 40q-7 38 -13 78q-6 35 -5 67v10q1 38 21 71q12 -29 39 -43l54 -28q27 -12 45 -34q13 -16 14 -42q0 -10 -2 -21q14 6 25.5 3t19 -11t11.5 -16t8 -13l14 13 q27 -35 28 -89v-20q0 -40 -3 -71q4 -20 4 -39q1 -32 -11 -62q-18 -46 -46 -88q4 -16 15 -27.5t24.5 -17.5t26.5 -11t26 -9q18 18 38.5 14t40 -8t36 -1.5t24.5 33.5v228l-12 14l12 1059q-38 13 -67 13h-11q-33 -3 -78 -15q-8 8 -14 19.5t-20 7.5q-8 -27 -22.5 -49.5 t-6.5 -53.5q-6 -23 -1 -44t9 -41.5t5 -40t-13 -40.5q17 -67 17 -139q0 -14 -1 -29q-2 -44 -2 -87.5t2 -86.5q-2 -10 5.5 -18t13.5 -16.5t7 -16.5t-13 -18l-41 43q2 14 2 26q0 42 -20 75q-26 42 -67.5 72.5t-89 55.5t-77.5 51q-8 20 0 26.5t20 8.5t22.5 6t9.5 23 q41 -39 79.5 -82t85.5 -72v90q-33 57 -55.5 117.5t-32.5 126.5l-77 137q-27 -10 -57 -11t-61 -1q-29 0 -58.5 -1t-56.5 -11z" />
<glyph unicode="O" horiz-adv-x="839" d="M51 767q2 -91 12.5 -182t25.5 -179.5t26 -167.5q11 -1 21 -1q24 0 42 7q24 10 43 26.5t37 36t47 33.5l12 -12l27 26l-39 662q14 20 22.5 37.5t41.5 13.5q4 23 0 48.5t12 41.5l39 -63q2 10 -2 26.5t16 24.5q41 -98 54.5 -210t16.5 -227.5t6 -229t26 -216.5l-17 -10 q-4 -27 5.5 -42t24.5 -24.5t34.5 -16.5t38.5 -19q31 25 41 17.5t17 -25t17.5 -32t40.5 -1.5q27 86 32 179t20 183l-3 -2l-12 12q-8 98 -9 208t-16.5 214.5t-57.5 196.5t-134 157q-20 -2 -36.5 4.5t-28.5 26.5q-10 -6 -26.5 -2t-23.5 -16q-31 14 -59.5 13t-56 -10t-56 -21.5 t-55.5 -18.5q-66 -57 -102.5 -131t-50.5 -159q-13 -75 -13 -154v-22zM114 162q-3 -4 -4 -11q0 -10 7 -26q6 -27 18 -35t27.5 -6t33 8t35.5 10q12 -8 26.5 -11t28 -6t27 -10t21.5 -26q-8 -27 -31.5 -42t-46.5 -21q0 -10 1 -21.5t13 -15.5q8 -4 13.5 1t11.5 11l12 -12 q16 2 34.5 -3t29.5 15q16 -16 14 -27q10 4 26.5 1t24.5 14q8 -10 19.5 -12.5t23.5 -2.5q14 0 25.5 -1t19.5 -11l27 51q16 16 33.5 19.5t37 1.5t38.5 -6t42 0q-14 27 -21 58.5t-30 55.5q-23 -8 -39 -4t-30.5 13.5t-28.5 18.5t-33 9q-25 -4 -30 -29.5t-17 -46.5 q-43 6 -61.5 31t-25.5 57.5t-10 67.5t-18 62h-9q-21 1 -39 -7q-21 -10 -40.5 -25.5t-38 -31.5t-38.5 -27q-8 -10 -24.5 -11t-31.5 -4t-23 -13z" />
<glyph unicode="P" horiz-adv-x="729" d="M47 76q-2 -9 -2 -19q0 -15 4 -30q6 -10 10 -21.5t10.5 -21t16.5 -12.5t27 3q27 -6 51 -5t46.5 2t43 0t39.5 -11q13 78 13 164q0 22 -1 44q-2 55 -2 105.5t2 96.5v-2q-29 12 -42 33.5t-22.5 47t-16.5 52t-21 49.5q-6 23 -23.5 37t-40 24.5t-46 18.5t-44.5 20l12 -422 l-12 -10q14 -25 13 -48.5t-6 -47t-9 -47.5zM80 1254q6 -32 14 -64.5t-4 -54.5q2 -16 -1 -35t13 -29q-16 -59 -16 -104q0 -43 16 -103q1 -16 1 -31q0 -30 -3 -59q-1 -8 -1 -17q0 -37 14 -81q18 6 27.5 -4t25.5 -10q-2 12 -1 23t-11 20q31 14 36 0.5t6 -34t7 -38t41 -8.5 q-4 10 1 16t9 12q18 -27 22.5 -60.5t8.5 -66t15 -58.5t44 -36l-2 14q10 18 11 45t4 50.5t16.5 41t48.5 17.5q10 -23 29.5 -26t40 -2t39 -1t30.5 -22q23 35 38 74t52 67q-6 10 -2 20.5t9.5 19.5t5.5 18q0 8 -15 16q7 53 21 101q9 28 8 60q0 22 -4 44h2q-16 94 -70.5 161.5 t-136.5 106.5q-18 14 -49 14t-53 -14q-14 14 -36 20.5t-46 6.5q-25 0 -49.5 -4.5t-42.5 -10.5q-29 18 -39.5 44t-26.5 48q-41 -7 -47 -31q-3 -12 -3 -26t3 -30zM354 1098l13 12q10 -49 20 -92q9 -43 15 -85q4 -33 5 -67q-1 -9 -1 -19q-2 -44 -11 -95h-28q-13 66 -13 141v34 q2 44 2 85q0 45 -2 86z" />
<glyph unicode="Q" horiz-adv-x="845" d="M51 498l27 -64q2 -18 0 -42.5t-2 -51.5t2 -51.5t10 -44.5q25 -16 33 -43t16 -52.5t20.5 -43t47.5 -17.5q10 10 20.5 21.5t3.5 31.5q14 10 24.5 24.5t27.5 12.5l2 25q6 6 9 15t8 16.5t12 11.5t22 0q2 16 -4 29.5t-11 29.5q1 38 1 74.5t-1 70.5q-2 70 -2 136q0 68 5.5 134 t23.5 136q-4 34 -4 72v26q2 52 8 104t14.5 101t16.5 92q12 -14 20.5 -33.5t-6.5 -29.5q-4 -10 2 -16.5t13 -12.5q6 10 7 16.5t7 12.5q14 -18 41 -41t57 -27q16 -68 17 -127q0 -57 -17 -127q0 -12 4 -23.5t7.5 -22.5t2.5 -22.5t-14 -21.5l13 -10q-14 -76 -15 -162 q0 -86 15 -160q-27 -59 -32 -129.5t-20 -138.5q-16 -29 -30.5 -23.5t-28.5 20.5t-31.5 31.5t-38.5 10.5q-6 -25 -22.5 -45t-33.5 -39.5t-30.5 -41t-11.5 -48.5q10 -25 31.5 -38t48 -20.5t55.5 -11.5t55 -8q49 -41 52 -92q18 -41 47.5 -64.5t65.5 -36t76 -17.5t79 -9 q27 41 27 96q0 8 -1 16q-4 66 -14 119q-12 2 -25.5 0t-25.5 -2t-22.5 5.5t-16.5 21.5q2 37 2 74.5t-2 75.5q-1 15 -1 29q0 60 13 114q-12 4 -26.5 -1t-22.5 11q-4 10 1 16.5t12 12.5q6 -12 17 -11t21 -2q-4 12 6.5 19.5t18.5 17.5q23 45 32 99.5t14 114t7 120t11 115.5v-2 q-16 14 -13.5 29.5t8 31t5.5 29.5t-25 25q12 31 0 54t-25.5 45.5t-16.5 44t28 48.5q-16 27 -28.5 58.5t-29 61.5t-39 54.5t-57.5 40.5q-18 -6 -32.5 2t-30 16.5t-31.5 10.5h-3q-14 0 -30 -15q-14 2 -30 2q-29 0 -61 -7q-50 -11 -97 -21q-98 -66 -141.5 -160t-57.5 -204.5 t-16 -227.5t-17 -223z" />
<glyph unicode="R" horiz-adv-x="727" d="M47 1241q10 -51 12 -112.5t2 -124.5t1 -125t12 -111l-15 -764q18 -27 49 -34q27 -6 57 -6h9q35 1 72 4q16 1 30 1q19 0 37 -2v37q17 100 17 193v33q-2 51 -2 102q0 59 2 119q-12 10 -13.5 23t0.5 26.5t3.5 27t-9.5 23.5q23 10 26 28.5t3 36.5q0 20 5 38t34 26l14 -14 q4 -12 1 -19.5t-9 -13.5t-12 -10.5t-6 -8.5l14 15q8 -12 10 -27.5t2 -34.5q0 -16 -1 -30.5t1 -22.5q23 -136 32 -272q5 -82 5 -166q0 -56 -2 -113q43 -12 88 -16t80 -33q12 10 12 25q0 14 -1 29.5t3 28.5t23 21q6 -8 12 -13t14 -1q1 11 0 24q0 26 -2 61q-1 10 -1 19 q0 40 14 72h2q-37 53 -53.5 115.5t-25.5 128t-18.5 131.5t-31.5 125l104 100q8 53 19 119q12 65 13 131v8q-1 62 -17 117q-18 59 -66 100q-25 4 -42 15.5t-33.5 24t-34 22.5t-44.5 10q-20 -37 -52 -46q-29 -8 -60 -8h-6q-34 1 -72 3h-9q-32 0 -57 -12q-14 4 -35.5 10t-43 7 t-39 -7t-21.5 -33zM304 1082q-1 5 -1 10q0 7 3 15q5 13 12.5 27.5t7.5 28.5q14 -4 21 7.5t18 17.5v26q10 -23 11 -50t6 -52t17.5 -44t42.5 -21q14 20 20 45.5t10.5 51t10.5 50.5t21 47q18 -16 23 -38.5t5 -47.5t-3 -49.5t1 -46.5l-2 2q-37 -35 -44 -93.5t-15 -112.5 q-7 -54 -35 -89q-20 -26 -71 -26q-17 0 -37 3q1 22 1 43.5t-1 40.5q-2 39 -4.5 77t-2.5 75q0 39 7 82q-18 9 -22 21z" />
<glyph unicode="S" horiz-adv-x="757" d="M50 1008q-3 -26 -3 -52q0 -58 14 -114q2 -6 8.5 -12.5t9.5 -12.5t3 -14q0 -6 -10 -12q12 -10 20 -25.5t17.5 -30t21.5 -24t33 -9.5l-14 -12q39 -37 76.5 -74.5l76.5 -76.5q6 -14 21.5 -17.5t29 -6.5t22.5 -11t5 -31l102 -100q12 -18 13 -45q0 -25 -1 -50.5t3 -48 t22 -34.5q-4 -12 -2 -27.5t2 -30.5q0 -14 -5 -26.5t-23 -20.5q6 43 -4.5 59.5t-29 18.5t-42 -5t-47 -8t-41 8t-25.5 42q-6 16 -13 35.5t13 31.5q-23 8 -25 17.5t4.5 19.5t11.5 23.5t-3 27.5q-43 -12 -95.5 -13t-86.5 -1q-16 6 -24.5 -3t-25.5 -9v-13q1 -51 15 -103 q16 -58 43.5 -109.5t65.5 -92.5t81 -63q16 10 34.5 8t31.5 -22q39 18 88 26t97 21.5t91 39t68 78.5l10 -14q10 -2 16.5 4t12.5 10h-2q-23 23 -25 48.5t3 52t13.5 54.5t8.5 52q-10 12 -24.5 15.5t-29 4.5t-28 6t-21.5 23q27 12 34 32t6 41.5t-2 45t11 47.5q-29 70 -71.5 121 t-114.5 84q-31 35 -71 66.5t-72 68.5t-48 80q-9 23 -8 50q0 25 7 53q-6 33 11 42t37.5 13t35 14t4.5 47q18 -10 22 -21t8 -24q37 -10 49.5 -34.5t13.5 -56.5v-32v-33q-1 -32 9 -59q53 15 100 23q18 3 37 3q31 0 66 -9q-2 20 0 41.5t2 42.5q0 23 -2 43t-10 38 q-16 78 -76 132.5t-129 83.5l-54 -13q-24 9 -44.5 9t-36.5 -9q-32 -18 -59 -50t-57 -63.5t-71 -39.5q-4 6 -9 11t-3 15h-25q-39 -71 -48 -155z" />
<glyph unicode="T" horiz-adv-x="987" d="M49 1149q0 -29 7 -58.5t22 -50.5q23 12 44 13.5t42.5 3.5t42 8t41.5 25q8 -150 16 -288t14.5 -275.5t10.5 -277.5t4 -292q11 -11 23 -21q7 -7 19 -6q6 0 13 2q-4 14 6.5 21.5t18.5 17.5q39 -23 85 -34q16 -4 32 -4q30 0 61 14q4 33 4 66q0 23 -2 45q-4 56 -10 108.5 t-7 102.5v6q0 47 15 92q-10 83 -10 174q0 51 3 105q9 150 17 292l-10 14q-4 10 1 15.5t11 11.5l-12 10q-1 7 -1 14q0 33 25 52q25 -7 53 -7q18 0 38 3q29 5 58 5q22 0 44 -3l-2 2q-2 23 -2 46q0 29 3 57q1 12 1 24q0 39 -12 75q-24 -13 -51 -13q-10 0 -21 2q-39 7 -72 14 q-16 -6 -21 -18.5t-4 -27t3 -30t-2 -27.5q-4 -25 -19.5 -37t-34 -19t-36 -14.5t-27.5 -21.5q2 27 -9 38t-28.5 14t-39 2t-36.5 1q-31 14 -31.5 32.5t5.5 37t9 36t-19 34.5q-12 0 -23.5 -1.5t-17.5 -13.5q-18 2 -44 1t-55 -1q-27 0 -54.5 2t-49.5 13q-14 -23 -21.5 -51.5 t-7.5 -59.5zM884 1218q1 -14 1 -24q6 -16 5 -35.5t-3 -40t-1 -41t13 -39.5q10 4 21 4q12 0 18 13h-2v37q-4 23 -2 46q2 24 5 46q2 14 2 25q0 9 -1 17q-2 20 -16 34q-7 2 -12 2q-8 0 -14 -4q-8 -6 -12 -17q-2 -8 -2 -17v-6z" />
<glyph unicode="U" horiz-adv-x="968" d="M96 555q-1 -9 -1 -19q0 -16 4 -34q7 -28 13.5 -57t8.5 -60t-10 -57q0 -125 56 -220.5t163 -150.5q0 12 -4 30.5t-6.5 37t-1.5 36t12 27.5q6 -29 25.5 -67.5t33.5 -63.5q35 2 60 2q27 0 43 37q6 -6 11 -15.5t9 -16.5t11 -11q3 -2 7 -2q6 0 13 4q16 10 13 24.5t1 28.5h-2 q-20 16 -25.5 40t-7.5 48.5t-7 47t-23 40.5l-50 -49q-20 35 -24 71t-4 70q0 35 -3 70t-22 70q-12 -4 -28.5 -1t-22.5 -14q2 -10 1 -21t13 -18l-12 -12l12 -12q-4 -23 0 -48.5t-12 -41.5q-12 6 -16.5 14t-6.5 17.5t-5 18.5t-11 15q2 17 2 32q0 29 -7 55q-11 40 -26.5 79 t-27.5 79q-7 25 -6 53q0 17 2 36q-4 20 6 36.5t22.5 32t17.5 32t-10 34.5l13 15q-8 25 -3 41t17 28.5t28.5 19.5t32.5 13q-12 23 -9 45.5t7 44t1 41t-23 37.5q2 27 9 60.5t10 66.5t-2 62.5t-27 52.5q-23 -10 -38.5 -12.5t-31.5 -2.5q-14 0 -31.5 1t-40.5 -1q-6 8 -28.5 1 t-41 -15t-20.5 -10l15 -13q-6 -27 -2 -53t9 -51t6 -47.5t-13 -40.5q-2 -74 -2 -147q0 -55 1 -111v-39q0 -108 -14 -213zM553 98q10 -16 19.5 -38.5t19.5 -42t25.5 -33t37.5 -13.5q6 20 19.5 31.5t30 19t34 12.5t33.5 13q47 45 70 101q22 58 30 122q5 44 5 89q1 21 -1 43 q-4 68 -6 138q-1 27 -1 54q0 40 2 80q3 66 24 125l-12 14q10 123 20 247t23 249l-2 2l-41 12q-18 -6 -43 -5t-49.5 2t-50 0t-48.5 -11l-49 -1047l-39 -112l-11 11t-3 13h-37v-76z" />
<glyph unicode="V" horiz-adv-x="774" d="M47 1382q8 -84 21.5 -163.5t28 -159.5t25.5 -161t15 -165q7 -59 23 -123q10 -42 11 -79q0 -19 -3 -37q8 -10 21.5 -18.5t9.5 -24.5q23 0 39 8t29.5 20.5t24.5 24.5t27 22l15 -16q20 0 31.5 17.5t27.5 29.5v-2q4 25 4 49q0 12 -1 24q-3 36 -9 69.5t-10 65.5t2 62 q-33 133 -39 275.5t-23 281.5l-45 31zM168 317l74 -393q8 2 16 1t16 -1q10 0 17.5 3t11.5 14l16 -17q8 2 19.5 1t19.5 -1q10 0 19.5 3t15.5 14q14 -18 29.5 -16.5t31 9t30 9.5t30.5 -17q25 125 41 254t33 258v-2q-4 25 -19.5 28t-36 2t-39 2t-26.5 28q-23 8 -44.5 -5.5 t-29.5 -23.5q-8 -43 -36.5 -62.5t-64.5 -29.5t-71 -20.5t-53 -37.5zM438 600q44 -17 79 -17h10q38 3 91 19q4 102 19.5 200.5t33 196t33 196t19.5 202.5q-21 -2 -43 -2q-32 0 -66 4q-11 1 -22 1q-43 0 -80 -18q-18 -197 -45 -389t-29 -393z" />
<glyph unicode="W" horiz-adv-x="1216" d="M45 1193q-1 -23 -1 -45q0 -44 3 -88q4 -66 13.5 -127t25.5 -112q-6 -60 -6 -119q0 -36 2 -71q6 -94 18.5 -189.5t22.5 -191.5q8 -80 8 -163v-34q-14 -14 -16 -31.5t4 -35t17 -30.5t24 -19q20 -2 50 -1t60 1q31 0 60.5 -3.5t54.5 -13.5q-4 10 3 17.5t13 13.5l-14 14 q55 193 84 395.5t68 401.5q8 -14 21 -31.5t-7 -30.5q17 -24 17 -56q0 -6 -1 -14q-2 -20 -2 -40t2 -39q0 -47 31 -83t76 -52q-3 -49 -3 -97q0 -65 6 -127q11 -108 40 -210q33 10 62.5 8t58 -6t57.5 -4q31 0 61 16q-4 18 -0.5 36.5t5.5 36t2 31.5q0 16 -7 29 q23 141 45.5 279.5t45.5 277.5q39 72 61.5 149.5t36.5 159.5t25.5 164t29.5 162l-2 -2q-16 20 -38.5 25.5t-47.5 5.5t-49.5 -3.5t-46.5 1.5q-29 -174 -73 -341t-91 -337l-14 16q-12 2 -18.5 -2t-9.5 -12t-6 -17.5t-11 -13.5q-82 297 -95 633q-22 -2 -43 -2q-32 0 -63 4 q-51 6 -105 12q-47 -46 -53 -110q-4 -48 -4 -98v-33q-27 -39 -39 -83t-17 -91.5t-8 -95.5t-14 -93l-26 -43q-10 166 -22.5 332t-24.5 332q-29 18 -56.5 15t-56.5 -9t-57.5 -8.5t-55.5 16.5q-8 -59 -10 -126z" />
<glyph unicode="X" horiz-adv-x="825" d="M49 1256q4 -32 17.5 -62.5t30 -61t24.5 -63.5q-3 -18 -3 -34q0 -45 20 -82q28 -50 60 -97q30 -47 50 -98q9 -23 9 -49q0 -32 -13 -68q1 -19 1 -37q-1 -52 -9 -98q-12 -62 -29 -122t-38.5 -120.5t-39.5 -126.5q-25 -16 -35 -38.5t-14 -47t-6 -50.5t-11 -48q12 -2 19.5 4 t13.5 14q23 -10 47.5 -22t55.5 -2q23 -8 36 -3t19 18t6 32q0 16 -2 31q18 8 23.5 25.5t10.5 33.5t15 27.5t37 7.5q0 70 26.5 134t69.5 112q-1 -20 -1 -40q-1 -93 15 -191q18 -120 64 -222h15q27 0 51 -5q32 -7 64 -14.5t64 -9.5h7q28 0 55 13h2q-27 70 -43 145.5t-31.5 152 t-32 152.5t-42.5 146q-18 -16 -50 -18.5t-55 13.5q6 8 12.5 13.5t16.5 1.5q-23 55 -23 108q0 55 11.5 106.5t31 100.5t37.5 96q14 37 24.5 75t23 75t31 72.5t46.5 66.5q-10 16 -5 31.5t11 30t3 25.5t-29 20q-14 0 -36 -2t-45.5 -3t-46 1t-40.5 12h-25q-4 -14 -11 -24.5 t7 -39.5q-33 -63 -50 -130.5t-56 -129.5l-45 43q-16 72 -31 142.5t-29 142.5q-59 0 -123 -7q-20 -2 -39 -2q-43 0 -80 11q-15 -29 -15 -55q0 -6 1 -12zM498 502h6h2h-8z" />
<glyph unicode="Y" horiz-adv-x="798" d="M47 1243q18 -16 25.5 -38.5t9.5 -47t5 -48.5t15 -44q55 -90 92 -187.5t76 -197.5q10 -18 14.5 -43t10.5 -48.5t18.5 -40t38.5 -16.5q-4 10 2 18.5t13 14.5q9 -64 9 -130v-13q-1 -74 -3 -148.5t-3 -149.5v-14q0 -67 9 -130q12 2 43 -1.5t61 -3.5q23 0 41.5 2.5t24.5 12.5 q-6 18 -17.5 38.5t-17.5 42t-4 45t25 48.5q6 2 5 13t-4.5 22.5t-5.5 19.5t2 6q33 27 30 48.5t-17.5 43t-26.5 47t4 58.5q12 8 20.5 22.5t24.5 12.5q10 39 13.5 82t25.5 82q-22 40 -22 83v6q2 46 11 95t21.5 98t16.5 98q14 10 19 26.5t8.5 33t11.5 30t33 17.5q6 6 16 8 t18.5 5t12.5 9q1 3 1 6q0 6 -5 17h-3q-23 18 -48 44t-53 47.5t-60 32.5q-18 6 -36 6q-16 0 -34 -5v-9q0 -44 35 -65q-23 -102 -35 -206.5t-53 -202.5q-39 45 -58.5 100t-31 113.5t-20.5 118t-29 114.5q-20 27 -56 37q-27 8 -56 8q-9 0 -18 -1q-40 -3 -79 -14t-66 -28z" />
<glyph unicode="Z" horiz-adv-x="704" d="M51 1253l12 -223q57 0 89 49l16 -16q12 23 22.5 19.5t20.5 -13.5t21.5 -18.5t27.5 2.5q29 8 37 30.5t12 47t13.5 47t37.5 32.5l-2 -2l-4 43q-62 10 -114 10q-20 0 -36 -1q-66 -5 -153 -7zM55 -115q39 7 81 17q30 7 53 7q10 0 18 -1q37 -12 50 -4t17.5 25.5t8.5 39 t24 35.5v-8q-1 -48 23 -64t59 -15h4q37 1 77 5q8 1 15 1q30 0 52 -13q8 -4 14 0t11 8t10.5 5t11.5 -11q25 -10 45 5t28 28v-2l-16 14q13 33 13 72q0 10 -1 20q-4 51 -20 90q-35 -4 -63.5 -5t-54.5 -2t-51.5 -4t-55.5 -15q-20 -8 -29.5 -2t-14 18t-4.5 29v28q25 117 59 231.5 t42 239.5q43 70 64.5 147t33.5 156.5t22.5 160.5t28.5 159q23 8 37.5 29.5t3.5 50.5q2 37 -13 50t-40 13t-52.5 -9t-45.5 -17q2 -33 -5.5 -62.5t-18.5 -59.5t-19 -59.5t-4 -62.5q-41 -23 -64.5 -60.5t-36 -82.5t-16.5 -95.5t-6 -97.5q-31 -14 -37 -39.5t-9 -52.5t-14.5 -45 t-52.5 -18q-20 -98 -47 -192.5t-51.5 -190t-43 -193.5t-20.5 -201z" />
<glyph unicode="[" horiz-adv-x="411" d="M68 111l69 -64l-33 -35q12 -23 32 -27.5t42.5 -3.5t45 4t44.5 1l6 1175q-37 27 -34.5 56.5t12.5 60.5t14 59.5t-28 53.5l65 65q25 6 49.5 23.5t49 32t49 13.5t49.5 -32l-2 98q-55 -2 -114.5 -3t-116 -2t-107.5 -1h-88q4 -18 2 -37.5t-3 -37t6 -33t29 -23.5zM72 -84 l2 -100l131 2q-8 25 5 39t26 26q16 -37 42.5 -49t57.5 -12q33 0 66.5 4t64.5 -2q-4 82 -23.5 108.5t-50.5 22.5t-70.5 -27.5t-81.5 -41t-86 -16.5t-83 46z" />
<glyph unicode="\" horiz-adv-x="675" d="M45 1425q20 -25 32.5 -53.5t20.5 -59t17.5 -60t25.5 -58.5q80 -23 103.5 -25t23.5 13q0 14 -7 41.5t15 66.5l-2 -2q-14 18 -18 41t-7 45.5t-9.5 44t-26.5 37.5zM201 1094q0 -76 17.5 -139.5t42 -121t51 -112.5t46 -113.5t28.5 -125t-1 -146.5q33 -45 50.5 -97.5 t28.5 -107.5t19.5 -111.5t22.5 -109.5h65q-4 20 -1 42.5t4 45t-5 42t-26 32.5q33 45 34 90t-11.5 91t-29 91t-20.5 90l-217 688z" />
<glyph unicode="]" horiz-adv-x="419" d="M-119 -63v-103q39 -4 93.5 0t112.5 6t115.5 -2t104.5 -26v98q0 221 3 429t7.5 415t9.5 418t9 438l-455 -41q29 -16 31 -42t2 -54q33 -4 68.5 -1t70.5 5t67 -4.5t56 -28.5l-33 -33l-32 -1472z" />
<glyph unicode="^" horiz-adv-x="602" d="M63 1337l132 4q8 80 23 108t35.5 22.5t46.5 -32t55.5 -52t62 -40.5t67.5 1q0 35 -11 63.5t-26.5 56t-33 53t-29.5 54.5q-88 29 -131 10.5t-69.5 -61.5t-50 -95.5t-71.5 -91.5z" />
<glyph unicode="_" horiz-adv-x="1413" d="M39 -164q47 -20 102.5 -30.5t111.5 -11.5t111.5 7.5t100.5 24.5q12 -23 31.5 -29t42.5 -6q25 0 48 2t42 -2q4 27 4 55q0 27 33 43q23 6 36 -7l29 -29l-37 -29q33 -23 87.5 -30t119 -4t135 11.5t136 13.5t121.5 6t93 -11l-28 133q-41 -4 -106.5 -2t-143.5 6t-160 6 t-156.5 -2t-134 -17.5t-90.5 -42.5q-6 45 -35.5 58.5t-68.5 13.5t-82 -5t-76 3q-6 -31 -35.5 -46t-63.5 -14t-62.5 16t-34.5 46q-23 10 -36.5 -3t-29.5 -26q16 -16 28.5 -30.5t4.5 -38.5z" />
<glyph unicode="`" horiz-adv-x="196" d="M-111 1597l131 -61q10 -23 -4 -37t-26 -29q20 -12 36.5 -33.5t35 -40t40 -26.5t52.5 4v66q-55 6 -68.5 28.5t-12.5 51t3 60.5t-23 56q-23 -4 -50.5 -2t-51.5 2q-25 0 -43.5 -7t-18.5 -32z" />
<glyph unicode="a" horiz-adv-x="735" d="M52 188q5 -36 21.5 -70t41 -63.5t49.5 -58.5q39 -15 78 -15q34 1 66 11q72 22 126 67q6 -35 21.5 -47t36 -13t45 5t49 9t47.5 -1.5t41 -27.5q7 20 7 45v6q-1 28 -4 57t-5 55.5t2 49.5q0 10 1 22t-16 21q10 68 13.5 141.5t3.5 146.5q0 74 -1 146v47q0 46 1 90 q-29 -18 -48.5 -43t-37 -53.5t-33.5 -58t-35 -56.5l-12 16q-27 -4 -56.5 0.5t-50.5 -16.5q-15 2 -32 2q-31 0 -66 -7q-55 -11 -96 -40q-86 -43 -118 -121t-34 -164q-7 -30 -7 -56q0 -14 2 -26zM90 737q44 -17 79 -17h10q38 3 89 17l15 -16q8 25 17 51.5t22.5 50t33 42 t47.5 24.5q23 -16 29 -37t4 -43q10 -14 11.5 -40t6.5 -48.5t18 -33.5t50 3q20 8 27.5 22.5t12.5 30t12.5 30t25.5 22.5q22 42 22 78q0 22 -8 42q-20 54 -59 107l14 14l-14 14q-3 3 -9 3q-4 0 -9 -2q8 -16 4 -24.5t-12.5 -13.5t-18.5 -10.5t-16 -11.5q-20 18 -48 25l-28 6 q-53 -8 -95 -16.5t-102 -14.5q-43 -14 -67.5 -40.5t-37 -61.5t-17.5 -74t-9 -78zM328 240q-2 21 -2 41q0 43 9 83q13 58 23 117q18 -2 30.5 4.5t29.5 26.5v-2l-15 -330q-12 -5 -22 -6q-5 0 -9 2q-12 4 -20 14.5t-13 24.5t-11 25z" />
<glyph unicode="b" horiz-adv-x="759" d="M49 6l17 -14q-14 -8 -15.5 -20.5t-1.5 -26.5q4 -41 32 -63q18 -14 44 -13q14 0 31 4q25 33 40 78q5 16 6 32q0 28 -18 56q27 8 39.5 26.5t17.5 42t8 49t13 48.5q-12 10 -31.5 12t-37 6t-26.5 15.5t3 42.5q8 4 14 9t18 1q0 31 9.5 63.5t10.5 59t-15.5 44t-67.5 17.5l31 27 q14 0 26.5 1t20.5 -16l45 62q-6 27 -11 56.5t-15 52.5q-12 24 -34 36q-14 7 -35 7q-13 0 -28 -3q-5 26 -5 50q0 26 6 48q10 44 30 83t46 76.5t46.5 76.5t29.5 83q4 21 4 44q0 25 -5 53v-2q-18 31 -43 39t-53 8q-29 0 -62 -4q-16 -2 -33 -2t-34 2q-17 -150 -17 -292 q1 -11 1 -23q2 -154 8 -306q6 -154 8 -308v-36q0 -137 -17 -282zM272 96q-3 -6 -3 -11q-1 -9 7 -17q12 -12 37 -21.5t48.5 -23t39 -32t9.5 -46.5q39 6 77.5 10t73.5 20q39 10 59.5 38t32 63t19.5 72.5t24 68.5v-2q2 89 12 189q7 70 6 139q0 29 -1 58q-4 97 -33 184t-102 153 q-35 15 -66 15q-7 0 -13 -1q-36 -4 -67 -20.5t-61.5 -35.5t-65.5 -32q-16 -47 -16 -106t16 -107h31q14 14 14 35v43q0 23 4 42.5t27 31.5l45 -31q16 -76 34 -162q20 -86 26 -173q2 -31 2 -62q0 -55 -8 -109q-12 -84 -54 -155q-25 12 -48.5 24t-55.5 4q-42 -27 -50 -43z" />
<glyph unicode="c" horiz-adv-x="722" d="M55 662q10 -49 11.5 -93.5t1.5 -87.5t2 -88t12 -94q20 -29 33.5 -63.5t28 -68.5t38 -59.5t66.5 -33.5v16q12 63 27.5 128t25.5 130.5t11 133.5v7q0 64 -15 127q-8 16 -4 31t9 27t6 24.5t-13 24.5q14 20 14 53v64t10.5 53.5t49.5 24.5q20 35 20 63q-1 5 -1 11 q-6 32 -27 48.5t-58 16.5q-35 0 -72 -21q-96 -54 -139 -156q-38 -90 -38 -190q0 -14 1 -28zM324 0q18 -10 40.5 -13t45.5 -3q25 0 46 1t36 -1q55 18 76.5 59t25.5 91q2 25 2 51.5t-2 55t-2 55t2 50.5h2l-29 60q-39 2 -55 -12.5t-20.5 -36t-2 -50t1 -56.5t-10.5 -51.5 t-36 -35.5q-18 20 -36.5 38.5t-51.5 8.5q-22 -49 -28 -103q-4 -39 -5 -79q0 -14 1 -29zM424 880q6 -46 18.5 -89t25.5 -86t21 -89q18 14 46 15.5t53.5 0.5t48 3t33.5 27h-2q-4 39 -9.5 77.5t-16.5 75.5t-28.5 71t-48.5 62q-20 -4 -36.5 8.5t-32.5 23.5q-14 11 -32 15 q-3 1 -6 1q-15 0 -32 -17q-5 -30 -5 -58q0 -21 3 -41z" />
<glyph unicode="d" horiz-adv-x="716" d="M51 393l10 -12q-11 -46 -11 -91q0 -56 17 -110q31 -96 91 -174q35 -16 79 -21q24 -3 44 -3q16 0 28 2l15 -13q16 2 24 10.5t12.5 20.5t8.5 24.5t10 22.5l18 -14l13 16q16 -8 15 -20.5t1 -24.5q12 -23 27.5 -48.5t36 -44.5t46.5 -27q11 -4 24 -4q18 0 40 7q-7 44 -7 84v9 q1 44 5 87.5t9 88.5t7 98q-10 18 -25.5 45t5.5 59q-8 14 -23.5 22.5t-33 12.5t-36 8.5t-34.5 10.5q31 8 57 26q18 12 41 12q11 0 23 -3q8 -6 13 -15.5t11 -17.5t14.5 -12.5t22.5 4.5q17 104 17 206v17q-2 110 -8 222q-7 113 -8 223v11q0 105 18 211l-2 -2q-83 35 -183 35 q-23 0 -47 -2l-20 -149q-8 -14 -2 -23.5t13 -18t9 -16.5t-14 -18q-4 -18 -1 -44t5 -53.5t-3 -54t-24 -45.5l-49 45q-18 0 -36.5 7.5t-37 12.5t-37 4t-36.5 -15q-61 -47 -93 -113t-44.5 -141.5t-13.5 -156.5t-1 -157zM297 575q5 51 19 101q7 25 7 52t-6 56q10 -2 16.5 4.5 t12.5 14.5l-4 43q10 -14 23.5 -13t25.5 3l15 28q-8 -25 -3 -45t12 -39.5t9 -39t-12 -40.5q8 -27 8 -55q0 -9 -1 -17q-3 -36 -8 -75q-4 -28 -4 -56q0 -11 1 -23q2 -40 20 -77q-15 -30 -15 -67v-12q1 -8 1 -16q0 -35 -11 -69q-12 -2 -25 -3t-20 -15l21 -88q-43 35 -57.5 90 t-16.5 119q-1 32 -1 64q0 30 1 62v21q0 51 -8 92z" />
<glyph unicode="e" horiz-adv-x="716" d="M45 586q12 -16 15 -37t3 -43q0 -20 -1 -40t1 -32q12 -10 13 -26v-35q0 -16 4 -29.5t26 -13.5l-16 -15q23 -8 17.5 -26.5t-1.5 -32.5q8 -37 29 -58.5t43.5 -39t44 -36t33.5 -48.5q37 0 60.5 -20.5t43.5 -37.5q20 -18 44 -20h3q23 0 60 33q27 10 40 24.5t22.5 30.5 t21.5 32.5t37 33.5q-8 25 6 47t26.5 42.5t10.5 40t-43 37.5q-36 35 -63 35q-3 0 -7 -1q-29 -5 -48 -31.5t-33.5 -64.5t-28.5 -62q-27 -23 -58 -8.5t-47 42.5q17 29 17 59q0 6 -1 12q-4 36 -11 73q-6 32 -6 63v8q1 34 30 66l30 -45l15 16q2 -4 14 -4h29q16 0 30.5 2t20.5 2 q-2 14 -21.5 48t-21.5 110l88 -143q23 -12 34 -10.5t20.5 7t21.5 9.5t41 -4q12 25 14 44t2 38q0 20 1.5 39.5t13.5 44.5q-12 170 -93 317q-35 20 -77 39q-44 18 -90 24q-17 2 -33 3q-30 1 -59 -7q-46 -12 -87 -49q-12 4 -23 4q-30 1 -52 -29q-28 -40 -47 -104.5 t-31.5 -140.5t-26.5 -133zM315 631q4 29 2 59.5t-2 59.5q0 31 5.5 57.5t25.5 46.5v47q6 -6 13.5 -12t19.5 -4l14 16v-11q1 -30 9 -64q10 -40 16 -78q3 -19 3 -36t-3 -33q-6 -32 -41 -50z" />
<glyph unicode="f" horiz-adv-x="585" d="M49 825q0 -20 3 -39.5t14 -37.5q14 0 23 8t14.5 20t9.5 24.5t12 22.5l29 -75q1 -61 1 -126v-64q-1 -99 -1 -200q0 -100 3 -200.5t13 -194.5l12 17q47 -12 94 -22q33 -8 63 -8q12 0 23 1q16 104 17 217q0 113 -1 224v25q0 99 7 197q8 109 41 207q8 -10 11 -26.5t8.5 -30.5 t17.5 -21.5t37 5.5q8 18 13 43.5t5 50.5q0 27 -5 49t-13 37q-10 16 -20.5 15t-20.5 -7t-22.5 -11t-26.5 3q-6 20 -12.5 46.5t-6.5 53.5q0 29 7.5 53.5t25.5 42.5q16 4 39.5 12.5t38.5 -14.5q18 16 24 40q5 21 5 42v6q-1 25 -6 50.5t-11 44.5l2 -2q-25 -8 -44 -3t-37.5 12 t-36.5 8h-1q-17 0 -35 -17q-6 6 -16 6t-21.5 -2t-24.5 -5.5t-26 1.5q-55 -29 -77.5 -75t-31.5 -100.5t-14.5 -109.5t-25.5 -105q-10 18 -18.5 21.5t-17.5 -0.5t-19.5 -11.5t-20.5 -9.5q2 -20 1 -42.5t-1 -45.5z" />
<glyph unicode="g" horiz-adv-x="821" d="M35 6q6 -74 59 -124t123 -70q12 -10 30.5 -12.5t37.5 -2.5q20 0 37.5 1t27.5 -1q17 -7 28 -7q9 0 14 5q11 10 16.5 27.5t10.5 37t23 27.5q6 -6 12.5 -13t4.5 -19q18 -6 34.5 -2t31 10t27.5 10t26 -2q43 14 79.5 42t69.5 64q25 57 41 124q6 26 6 51q0 41 -16 81 q-23 53 -68 83t-84 67h-45q0 -29 -9 -60.5t-15.5 -62.5t-2 -60.5t28.5 -56.5q-2 -15 -2 -31.5t2 -33.5q4 -33 -16 -55q-45 12 -54.5 -4.5t-8.5 -43t0 -53t-27 -37.5q-10 4 -13.5 12.5t-3.5 16.5t1 17.5t-1 17.5h-166q-41 20 -43 43.5t10.5 49.5t31 51.5t20.5 49.5l12 -12 t19 -2q-2 12 -3.5 24.5t13.5 20.5l61 -61q37 2 52.5 22.5t21.5 48t8 57t12 54.5q-10 23 -28.5 31t-43 9t-49 0t-45 4t-34 21.5t-13.5 53.5q10 8 19.5 21.5t26.5 6.5q2 23 2 45q0 44 -8 87q-11 67 -19 132q-5 41 -5 80q0 24 2 48q5 63 42 120l29 -30q4 14 3 27.5t13 19.5 q-2 -27 8 -43.5t22.5 -31.5t21.5 -32.5t9 -44.5q10 0 23.5 1t21.5 16q11 -29 11 -55q0 -16 -4 -31q-11 -39 -31.5 -76t-43 -74t-24.5 -80q19 -3 39 -3q36 0 76 9q63 15 111 54q47 68 67 146q12 44 12 94q0 36 -6 75q-4 23 -9 42t-6 37.5t5 36t27 36.5q8 -8 13 -14.5t1 -16.5 h47q-8 27 -3 49t12 43q9 27 9 47.5t-18 40.5q-66 -23 -117 -50.5t-80 -86.5q-14 -16 -14 -39v-47q0 -23 -4 -43.5t-27 -34.5q-20 16 -15 42t1 48q-10 35 -34.5 45t-55.5 10q-29 0 -57.5 -5t-46.5 -3l-17 15q-63 -8 -117.5 -58.5t-76.5 -109.5q-4 -33 -11.5 -74t-8.5 -81v-7 q0 -36 9 -68q11 -35 39 -55q25 -41 25 -84q0 -11 -2 -22q-8 -56 -68 -89q-20 -32 -20 -60v-13q6 -33 23.5 -65t36 -61.5t22.5 -58.5q-6 -4 -13.5 -10t-19.5 -2q-37 -25 -59.5 -50.5t-28.5 -72.5z" />
<glyph unicode="h" horiz-adv-x="729" d="M47 25q23 0 49.5 -10.5t52 -16.5t47 0t31.5 41q0 16 -11 24.5t-22.5 15.5t-17.5 17t4 33q16 23 28.5 44.5t49.5 16.5q8 74 12 155t8.5 164t12.5 166t24 161q31 2 55.5 -15.5t49.5 -27.5q16 20 25.5 45.5t15.5 53.5t10 55.5t12 53.5h-2q-49 -4 -93 -29.5t-73 -60.5 q-14 53 -14 105q0 53 6 106.5t14.5 105.5t10.5 105q-12 31 -40 40t-61 9q-31 0 -65.5 -4t-61.5 2q-29 -176 -36 -361t-21 -366l16 -12q2 -10 -4 -16.5t-12 -14.5v-585zM420 131q0 -47 6 -91t27 -75q20 18 42.5 16.5t44.5 -9.5q22 -7 46 -9h5q21 0 42 17q14 113 23.5 220 t15.5 214.5t7 217.5v76q0 76 -1 158q-35 102 -139 135q-63 -158 -88 -331.5t-31 -358.5q3 -25 3 -54q0 -15 -1 -30q-2 -47 -2 -96z" />
<glyph unicode="i" horiz-adv-x="364" d="M53 -27q31 -16 68 -16q9 0 19 1q27 3 52 3q21 0 41 -2q43 14 53 50q10 33 10 73v8q-1 45 -4 91v13q0 38 15 68q2 8 -3 15.5t-9 15.5t-3 15t13 14q-12 12 -11 24t7 24q6 14 10 28q1 5 1 10q0 10 -5 22q-18 27 -16 54.5t9 55t9 54.5t-16 55q16 30 16 59v7q-2 33 -9 65 q-7 30 -9 62v7q0 28 16 56q-11 31 -39 41q-26 9 -58 9h-6q-36 -1 -73 -8t-63 -11q-1 -53 -1 -106t1 -106q2 -106 2 -212t-3.5 -214t-13.5 -218q16 -20 17 -53q0 -33 -17 -54zM67 1242q1 -32 4 -64.5t-1 -59.5q35 2 62.5 1t51.5 -1q27 0 53.5 3.5t57.5 13.5q-2 25 3 49t8 48 q2 18 2 38v12q-1 25 -15 47q-29 -6 -54.5 -2t-50.5 9q-24 6 -46 10q-9 2 -18 1q-14 0 -28 -4q-20 -17 -25 -43q-4 -22 -4 -47v-11z" />
<glyph unicode="j" horiz-adv-x="405" d="M-4 -281q0 -25 3 -46t13 -40l195 29q47 45 74.5 110.5t44.5 131.5q-14 12 -12.5 25.5t7 26.5t6.5 26.5t-18 25.5q23 12 19 36t0 44q2 87 2 174q0 108 -3 218q-1 39 -1 78q0 156 16 308q5 12 5 22q0 6 -2 12q-5 13 -17.5 19.5t-29.5 7.5t-32 -1q-25 -10 -49 -11 q-25 0 -47.5 1.5t-43 -2t-40.5 -17.5q10 -104 13 -214t3 -220q0 -109 -1 -217v-70q0 -70 1 -137q-14 -29 -14 -66t-5 -70.5t-21.5 -59t-63.5 -29.5q2 -23 0 -47.5t-2 -47.5zM96 1206q0 -31 6.5 -61.5t12.5 -52.5q27 -18 53.5 -16.5t53 8t52 8.5t52.5 -17h-2q18 51 18 115 q0 63 -16 115h-197q-18 -14 -25.5 -41t-7.5 -58z" />
<glyph unicode="k" horiz-adv-x="684" d="M51 -57l225 -31q14 47 15.5 100.5t1.5 106.5t4 104t27 94q29 -63 38 -135q5 -43 5 -88q0 -30 -2 -61q12 -31 30.5 -37t39 -1t39 15t32.5 10q-27 30 -27 66q0 6 1 12q5 43 52 72v82q0 43 -6 81t-21 73.5t-46 64.5q35 33 41 70q4 28 5 56q0 9 -1 19q-1 19 -1 38.5t1 39.5 q2 39 28 78q2 27 21.5 47.5t40.5 42.5q22 22 36 46q10 17 11 39q0 9 -2 20h-2q-25 -4 -45.5 -2t-41 8t-38.5 13t-39 11q-39 -23 -53 -66.5t-25 -84.5q-8 -31 -30.5 -61.5t-40.5 -62.5q-20 -36 -19 -68q0 -31 33 -64l-31 -31q-11 2 -21 2q-24 0 -42 -11q-24 -15 -45 -38 t-43.5 -45.5t-57.5 -28.5zM68 569q21 -19 36 -19h6q17 4 29.5 20t20.5 37.5t14 37.5q53 25 80 64t38 85t13 98t4 105.5t10.5 105.5t34.5 99v2q54 22 58 50q1 5 1 10q1 24 -13 48q-16 30 -36 63q-13 22 -13 45q0 12 3 24q-12 10 -31.5 13t-39.5 3q-18 0 -36 -1t-28 1 q-18 14 -47 15q-27 0 -43 -15q-10 -23 -13 -49.5t-4 -54t0 -52t1 -42.5q-29 -166 -39 -338q-7 -117 -8 -238q0 -58 2 -117z" />
<glyph unicode="l" horiz-adv-x="360" d="M51 1122q0 -39 17 -67q-14 -18 -15 -41q0 -20 4 -42t5 -42.5t-9 -36.5q12 -109 13.5 -228.5t1.5 -242.5q0 -121 1 -244t13 -237q12 2 25.5 3t19.5 15l16 -16q8 2 17.5 1t17.5 -1t15.5 3t11.5 13l12 -16q29 4 58.5 16t35.5 45h-2q-18 345 -18 683t18 669q-14 29 -24.5 40 t-38.5 21q-18 -18 -51 -16t-65 3t-54.5 -9.5t-22.5 -55.5q10 -14 13.5 -33.5t3.5 -41.5q0 -20 -2 -40t2 -32q-18 -29 -19 -70z" />
<glyph unicode="m" horiz-adv-x="1013" d="M49 715q0 -131 17 -248v-258q-4 -39 2 -53.5t20 -13.5t34.5 12.5t44 20.5t48.5 13.5t47 -8.5q30 91 30 186v6q-1 98 -8.5 199t-8.5 200v6q0 96 30 188l2 -2h-16q-20 16 -15 41.5t0 48.5q-23 10 -48 9t-50.5 -5t-54.5 -7t-57 1q-12 -14 -15.5 -43t17.5 -45 q-18 -117 -19 -248zM66 49q16 -25 38.5 -35t49 -11t54.5 0t52 -1q-2 8 3 16.5t8 15.5t2 15t-15 14q20 8 16 26t0 34q-16 20 -41.5 15t-48.5 -1q-16 -12 -38.5 -18t-42 -13.5t-31.5 -19.5q-8 -8 -9 -21q0 -7 3 -16zM332 1010q2 -25 1 -50.5t2 -47t15 -37t43 -19.5l17 -465 q-33 -23 -38 -53.5t-2 -62t6 -64.5t-11 -59q12 -10 26.5 -24.5t24.5 -32t14 -38t-4 -43.5q47 0 92 -1h5q42 0 81 16q4 37 4 72q0 18 -1 35q-3 52 -9 103.5t-10 103.5q-2 21 -2 42q0 32 4 66l-76 30q20 18 39.5 36t50.5 5q14 48 16 100q1 26 0.5 52t-0.5 52q0 11 -1 22 q1 40 5 80q6 50 27 90q43 0 63.5 -16.5t27 -43.5t4 -61.5t-4.5 -69.5q-1 -23 -1 -46v-23q1 -34 16 -56q-25 -27 -10.5 -55.5t26.5 -50.5l-47 -31q1 -28 1 -56q0 -29 -1 -57q-2 -58 -2 -114q0 -57 3 -113.5t13 -110.5q27 -2 50.5 8.5t29.5 38.5q20 8 37.5 2t33 -13t30 -12 t30.5 7v510l-28 31q-14 0 -26.5 1t-21.5 -16q-4 8 -10 14.5t-2 16.5q27 8 49.5 23.5t55.5 7.5h-2v313q-10 25 -22.5 49.5t-30.5 42.5q-16 17 -40 26q-14 5 -31 5q-11 0 -24 -2q-12 2 -24 2q-21 0 -39 -7q-28 -11 -51 -31.5t-44.5 -43t-40.5 -39.5q-10 12 -22 25.5t-6 36.5 q-25 27 -58.5 41t-70.5 14q-35 0 -70 -14.5t-59 -40.5z" />
<glyph unicode="n" horiz-adv-x="665" d="M45 412q45 -43 46 -87v-7q0 -42 -11 -84q-12 -46 -24 -95q-4 -19 -4 -39q0 -31 11 -63q18 -10 42 -13.5t49 -3.5q27 0 49 1.5t39 -1.5q16 28 16 55v6q-2 30 -9 59.5t-9 59.5v7q0 27 16 55l2 166q-2 10 -1 22.5t-15 20.5l16 16q-2 12 -1 24.5t-15 18.5l16 15q0 49 -1 98 v19q0 39 3 76q4 46 15.5 89t39.5 80q33 -55 42.5 -112.5t9.5 -116.5q-1 -60 -5 -122q-2 -24 -1 -49q0 -39 4 -81l43 -29l-46 -30l15 -347q12 8 22.5 3t19.5 -12t18 -8h1q9 0 19 17l10 -14q12 6 29.5 4t36 -4t37 -1t32.5 13l16 363q-10 14 -13 33.5t-3 38.5q0 20 2 37.5 t0 27.5q-12 53 -15 102.5t-3 96.5q0 49 1 99v34q0 35 -1 74q-6 25 -22.5 40t-37 24t-43 15.5t-43.5 12.5q-47 -16 -88 -46t-65 -63q-20 12 -15.5 34t0.5 42q-10 18 -27.5 25.5t-37.5 7.5q-18 0 -37.5 -6t-34.5 -13l33 -196q-10 -16 -13 -39t-8.5 -44.5t-16.5 -35.5t-38 -14 q2 -24 2 -47q0 -115 -49 -209z" />
<glyph unicode="o" horiz-adv-x="710" d="M50 504q5 -123 41 -236.5t102 -193.5q27 -2 40 10t24 29.5t22.5 36t33.5 28.5q-16 88 -25 188q-8 98 -10 198q0 11 -1 23q1 88 11 174q12 97 38 183l30 -74l31 31q23 -8 27 -23.5t4 -33.5v-35q0 -16 14 -29q-16 -145 -23.5 -291.5t-37.5 -283.5q14 4 26.5 3t18.5 13 q-2 -25 11 -36t32.5 -16t40 -8t37.5 -14q51 86 83 196q34 111 42 225q2 32 2 63q0 81 -16 161q-22 110 -79 199q-43 39 -99 53q-40 10 -81 11q-17 0 -35 -2q-60 -6 -114 -31t-93 -61q-55 -94 -79 -214q-19 -99 -19 -200q0 -21 1 -43zM299 -61q27 -15 61 -15h2q32 0 60 -14 q-4 10 2 16.5t12 12.5q-18 12 -24 30.5t-12.5 37t-16.5 29.5q-8 9 -29 10q-4 0 -8 -1q-29 -20 -42 -46q-8 -16 -8 -35q0 -12 3 -25z" />
<glyph unicode="p" horiz-adv-x="763" d="M49 430q23 0 40 -13.5t33.5 -28.5t34 -26.5t42.5 -7.5q-6 -29 -18.5 -29.5t-28 6.5t-32 10t-30.5 -17q-2 -8 5 -14.5t14 -14.5l-17 -14q2 -8 1 -16.5t-1 -16.5t3 -15.5t14 -11.5l-17 -16q16 -8 15 -20.5t-1 -26.5q-4 -41 -6 -92.5t-4 -105.5t-3 -107.5t-1 -98.5 q25 -10 55.5 -12t61.5 -2q33 0 61.5 1t51.5 -1q2 10 -4.5 16t-12.5 15l17 14q-5 36 -5 69q0 9 1 17q1 41 6.5 82t12.5 84t11 94q8 -16 12.5 -34.5t10.5 -36t14 -32t25 -20.5l16 17l29 -29q41 10 85 15t81 28q55 100 77 220q15 78 15 154q0 41 -4 81l2 -2q8 26 8 53v11 q-2 32 -11.5 63.5t-21.5 61.5t-22 52q4 27 4 55q0 51 -14 104q-21 83 -81 142q-23 -8 -43 6.5t-38.5 26.5t-36 9t-31.5 -44l-29 31l-76 -62l-45 93q-18 -2 -47.5 0t-60.5 2t-59.5 -3t-43.5 -14q-2 -69 -2 -137q0 -94 3 -186q2 -32 2 -66q0 -127 -17 -260zM287 236 q4 27 9 63.5t7 74.5q1 15 1 30q0 23 -2 46q-3 39 -13 72q14 57 14 123t4 128.5t24.5 118.5t78.5 97q-14 -32 -14 -62v-9q3 -35 12.5 -71t19.5 -72q8 -30 8 -61v-12q14 2 26.5 1t20.5 16h-16v45h16q-2 -12 -1 -25.5t16 -19.5h16h-2q-31 -18 -43 -46t-15 -59.5t-2 -63.5 t-1 -54q16 -29 14 -55.5t-6 -53.5t-6 -52.5t14 -51.5q-10 -16 -13 -37t-8.5 -40.5t-16.5 -31.5t-38 -10l-29 -31q-10 12 -13 31.5t-8 36t-16.5 28t-37.5 7.5z" />
<glyph unicode="q" horiz-adv-x="702" d="M50 650q-1 -27 -1 -55q0 -101 15 -203q18 -130 36 -240q39 -12 56.5 -48t34 -67t43.5 -47q11 -5 25 -5q26 0 65 17q8 6 13 16.5t11 18.5t14.5 12t24.5 -4q12 -41 13 -85t1 -89t1 -89t14 -83h223l-12 377l12 14l-12 16l12 15q-10 14 -12 34.5t-1 42t2 41t1 31.5 q12 8 11 21.5t-1 25.5q-16 8 -19.5 25.5t0 36t9.5 38t10 36.5q-4 20 0 48.5t3 53.5t-13.5 42t-48.5 17q10 16 22 15.5t27 -0.5q10 53 11 102t1 96t1 95.5t13 101.5v-2v7q0 12 -6 17q-8 7 -19.5 8t-25.5 -1t-24 0q-23 4 -34 -5.5t-17.5 -24.5t-10.5 -31.5t-12 -28.5l-62 59 q-8 25 -32.5 41t-55.5 25q-27 7 -56 7h-7q-33 -1 -60 -12q-98 -78 -138 -191.5t-45 -241.5zM233 154l33 43q8 -12 20.5 -13.5t24.5 -1.5q10 23 9 48.5t-6 52t-8 51t3 45.5q2 36 2 76q0 29 -1 61q-3 74 -3 148q0 76 5 148.5t28 137.5l16 -16q4 4 8.5 8t8.5 8q33 -37 37 -81 q2 -19 2 -38q0 -26 -4 -54q-5 -48 -8 -96v-11q0 -42 18 -80q-16 -53 -17 -115q0 -59 1 -119v-14q0 -53 -7 -104q-8 -56 -41 -101q-8 20 -23.5 26.5t-31.5 4.5t-33.5 -7t-32.5 -7zM371 952q12 10 16 35q0 -10 -1 -20.5t-15 -14.5z" />
<glyph unicode="r" horiz-adv-x="571" d="M47 981l43 -555q14 0 27.5 -1t19.5 -15l-78 -43q17 -31 17 -69v-13q-2 -21 -2 -41q0 -23 2 -43q37 -8 61.5 -4t46 16t42 28.5t46.5 34.5q16 37 17 89q0 53 -17 92q-14 0 -26.5 -1t-20.5 15l33 29l14 -17q12 39 13.5 83t6.5 85t19.5 77t50.5 58q16 1 32 1q27 0 53 -4 q40 -7 81 -13v272q-12 2 -23 1q-31 0 -55 -12q-32 -17 -57.5 -43.5t-47 -58.5t-44.5 -55q-29 14 -29 31q0 18 6.5 37t6.5 37t-29 33q-18 -4 -39.5 0t-34.5 -17q-19 5 -46 5q-10 0 -20 -1q-40 -2 -69 -18zM90 23q0 -14 3 -26.5t13 -23.5q16 2 24.5 10.5t15 20.5t10.5 24.5 t12 22.5q18 -4 25.5 -17.5t12.5 -28.5t12 -29.5t26 -16.5q18 18 25 43q6 22 6 46v6q-1 28 -7 54t-12 46q-11 3 -20 3q-16 -1 -28 -9q-18 -14 -35 -32t-36.5 -32t-46.5 -6q2 -12 1 -26.5t-1 -28.5z" />
<glyph unicode="s" horiz-adv-x="649" d="M51 246q-1 -11 -1 -20q0 -28 8 -48q12 -26 29 -51t36.5 -49.5t34.5 -57.5q25 2 45 -8t40.5 -21t40.5 -19q8 -3 15 -2q13 0 27 7q8 -1 18 -1q22 0 52 6q44 8 77 28q6 6 11 15.5t11.5 18.5t14.5 12t22 -3q34 59 54 126q13 44 13 93q0 25 -3 52h-2q0 55 -25.5 84.5t-60.5 50 t-71 42t-56 64.5q-2 43 -28.5 62.5t-59.5 42.5q-22 44 -23 89q0 5 1 11q3 51 38 94q29 -6 44.5 -26.5t23.5 -47t15 -55t22 -51.5l135 16q5 28 5 53q0 47 -16 87q-26 62 -79 116q-47 18 -98.5 22.5t-98.5 20.5q-47 -23 -94 -53.5t-70 -83.5q-10 -45 -14 -97q-2 -23 -2 -46 q0 -29 3 -57q5 -52 22.5 -98t50.5 -77q6 -12 34.5 -9t61.5 11.5t61.5 14.5t35.5 -2t-14.5 -34t-88.5 -83q8 0 16 -5t16.5 -8t15.5 -2t13 15l29 -31q25 -10 38 -27.5t18 -41t5 -47.5v-50q-2 -20 -12 -28t-24.5 -11.5t-30 -6.5t-25.5 -11q-27 35 -48 73q-14 26 -14 58 q0 16 3 33q-31 8 -55.5 3t-47 -16.5t-45 -22.5t-49.5 -13z" />
<glyph unicode="t" horiz-adv-x="579" d="M48 906q-1 -7 -1 -14q0 -17 5 -35q7 -26 16.5 -50.5t9.5 -48.5q10 -2 19 6t18.5 16t18.5 9.5t20 -17.5q3 -64 3 -129q-1 -125 -11 -253q-16 -194 -23 -388q27 -12 27 -37q0 -27 2 -51q29 -18 53 -7t44.5 22.5t37 10.5t30.5 -42l15 16l30 -61q16 3 34 -3q4 -1 7 -1 q12 0 19 18q6 29 -4 58.5t-39 35.5l43 43q6 -6 12 -13t2 -20q10 -29 26.5 -38t49.5 -3q3 21 3 41q0 31 -7 59q-12 46 -25 93q-18 10 -31.5 4t-23.5 -15.5t-21.5 -16.5t-27.5 -1q-17 72 -27 144q-3 22 -3 46q0 52 16 111q0 31 -4.5 62.5t-8.5 63.5t-2 63.5t15 66.5 q6 18 1.5 37t-8.5 37t-2 33.5t23 25.5q10 4 16 -2t15 -12q12 10 24 10q14 0 29.5 -4t31 -7t31.5 3v20q0 32 4 62q6 39 13 80v2q-14 25 -32.5 28t-38 -3.5t-40 -16.5t-39.5 -10q-15 44 -15 88v5q1 46 7 93q6 48 10 96q2 19 2 38q0 29 -4 59l-45 14q-58 19 -95 19 q-15 0 -26 -2q-41 -10 -58 -43t-17 -84q0 -49 1 -101v-19q1 -42 -3 -82q-4 -48 -27 -79l-47 14q-25 -20 -28 -44zM379 858l14 -14v-47z" />
<glyph unicode="u" horiz-adv-x="733" d="M51 940l17 -678q0 -35 -1 -75v-16q0 -33 3 -65q4 -40 16 -78t39 -67q23 -6 44 -6q11 0 23 2q30 6 59.5 17.5t58 21.5t59.5 10q8 2 15 -3t15.5 -8t15.5 -2t13 15q20 -10 16 -28.5t0 -32.5q-4 -12 -3 -27.5t7.5 -27t15.5 -17.5t23 -2q42 -12 72 -12q17 0 30 4 q36 10 53 36.5t21.5 67.5t4.5 86t1 88t13 76h2l-16 14l16 15q2 12 2 23q0 21 -8 41q-12 30 -41 40q8 8 14 13.5t19 1.5q5 44 5 87q0 27 -2 53q-5 68 -11 136q-7 69 -9 135v14q0 60 15 119q-68 16 -121 17q-53 0 -121 -17l2 -198q17 -118 17 -245q0 -25 -1 -51 q-2 -78 -2 -153.5t2 -150.5l-32 -29q-16 16 -29.5 15t-28 -9t-30 -17.5t-33.5 -4.5q-10 12 -8 26.5t6 30.5t4 33q0 16 -14 30q1 53 1 113v61q-1 94 -1 191q0 98 2 197.5t12 189.5l-29 29q-31 -12 -56.5 -13.5t-49.5 -1.5q-25 0 -50.5 -1t-56.5 -13z" />
<glyph unicode="v" horiz-adv-x="643" d="M51 1071q-1 -19 -1 -37q0 -120 22 -248q26 -148 55 -286q-15 -37 -15 -73.5t7 -81.5q6 -38 11 -78q2 -15 2 -31q0 -25 -5 -52q-10 -30 -10 -52q-1 -24 11 -38q22 -26 60.5 -36.5t86 -11.5t77.5 -11q37 117 62.5 238.5t52.5 243.5t55.5 241.5t71.5 236.5q-12 2 -23.5 10.5 t-22.5 14.5t-24 6q-10 0 -22 -14q-10 20 -31.5 16t-42.5 0q-41 -37 -53.5 -88t-16.5 -108.5t-12 -112.5t-39 -98q-10 113 -20.5 224t-22.5 226h-213zM213 508q27 12 37 32q9 19 27 19h4h-2q-11 -21 -21 -41q-7 -14 -25 -13q-9 0 -20 3z" />
<glyph unicode="w" horiz-adv-x="905" d="M44 954q-2 -5 -2 -9q0 -13 15 -23q25 -113 33 -226.5t12 -227.5t11.5 -227.5t33.5 -228.5q63 -21 105 -21q22 -1 38 5q48 16 68.5 60t22.5 106.5t3 128t9 126t43 97.5q20 0 24.5 -12.5t6.5 -27.5t8 -26.5t29 -11.5q-10 -8 -17.5 -18t-23.5 -6q6 -53 10 -107.5t9 -107 t13.5 -102.5t22.5 -93q41 -14 96 -14t101 14q2 29 8 59.5t11 61.5t7 60.5t-2 56.5q21 32 27 68q5 28 4 57v18q-16 6 -36.5 14.5t-33.5 -14.5q0 12 -9 24.5t-14 24.5t-2 23.5t25 19.5q10 -16 31 -12t37 0q45 139 73.5 283.5t45.5 295.5l-2 -2h-170q-23 -55 -33 -114.5 t-15 -122t-8.5 -125t-11.5 -123.5q-25 10 -24 33v45q-33 23 -70 33t-77 14t-81 6t-78 10q2 -10 1 -21t-13 -18q-16 33 -19 75t-4 87t-6.5 90t-23.5 82q-12 4 -31.5 11.5t-34.5 -13.5q-27 14 -65 15q-37 0 -66 -15q-4 -17 -11 -35zM346 762q6 -35 23.5 -37t38 4t40 10 t29.5 -14q25 10 36 4t19.5 -16.5t18.5 -20.5q7 -7 21 -7q6 0 12 1q-4 14 7 21.5t17 17.5q3 31 3 60q0 52 -9 101q-14 77 -20 154q-23 4 -46.5 2t-46.5 -2t-43 4.5t-34 22.5q-31 -25 -41.5 -61.5t-11.5 -78.5t-1 -85t-12 -80z" />
<glyph unicode="x" horiz-adv-x="724" d="M41 47q14 -4 15 -16.5t1 -24.5q21 2 42 2q25 0 51 -3q46 -5 92 -11q-6 12 -3 22.5t8 18.5t8 17t-1 22q16 53 46 101t58 95q14 -27 21.5 -57.5t12.5 -61t11.5 -60.5t22.5 -56q10 8 18.5 3t15.5 -11.5t14 -7.5t15 16q35 -15 81 -17q8 0 16 -1q36 0 61 6q-16 72 -39.5 141 t-23.5 147q-48 55 -62 107q-8 32 -9 63q0 21 4 42q9 52 33.5 103.5t52.5 101.5t53.5 101.5t33.5 102.5h-2q-16 2 -35.5 14t-31.5 -4q-40 23 -64 23q-9 1 -15 -3q-24 -12 -36 -42.5t-24.5 -67.5t-43.5 -55q-29 43 -33 97t-20 101q-33 -8 -62.5 -3t-59.5 10q-29 6 -57 7h-4 q-26 0 -55 -14q49 -117 75 -240.5t61 -246.5q-39 -55 -69 -112.5t-57.5 -116t-55 -118t-60.5 -114.5z" />
<glyph unicode="y" horiz-adv-x="684" d="M-26 -142q1 -28 7.5 -55.5t10.5 -42.5q35 -12 63.5 -13t57.5 -1q13 -13 29 -13h2q18 1 35.5 7t33.5 10t31 -2q33 20 60.5 50t47 66t29.5 77q7 29 7 60q0 12 -1 24q20 39 31.5 80.5t21 83.5t19.5 84t30 81q25 160 69 312.5t81 306.5l-2 -2q-18 31 -41 36t-47.5 1 t-50 -11.5t-45.5 0.5q-16 -49 -24.5 -101t-17 -104.5t-19.5 -103.5t-32 -98q-4 33 -19 68q-9 22 -9 41q0 12 4 24q-12 78 -22.5 159t-32.5 156h-197q-12 -18 -13 -41.5t5 -50t13 -54.5t9 -52q8 -18 11.5 -41t3.5 -47q0 -23 -1 -45.5t-1 -36.5q2 -43 10 -81t17 -77t17.5 -77 t8.5 -81q25 -10 31 -24.5t3 -30.5t-10.5 -32.5t-11.5 -30.5q15 -40 15 -91v-17q-2 -37 -2 -68q0 -20 1 -37q12 -10 13.5 -19.5t-4.5 -20t-13.5 -20.5t-9.5 -20q-39 -29 -78 -29q-37 0 -82 16q-25 -4 -34 -24q-8 -19 -8 -43v-5z" />
<glyph unicode="z" horiz-adv-x="735" d="M55 -70q92 14 197 15q104 0 197 -17q8 4 17 10.5t17.5 9.5t15.5 0t15 -20q18 20 45 15.5t49 -2.5h-2q14 25 13 46t-6 44.5l-10 47t3 50.5q-28 2 -54 3q-48 0 -94 -8q-70 -11 -141 -24q-4 25 -4 49q1 35 9 69q14 58 36.5 114.5t46 114t33.5 116.5q-22 29 -60 29h-9 q-12 4 -27.5 5t-29 4t-25 11.5t-13.5 26.5q-23 8 -35 -5t-26 -20q-6 -41 -20.5 -81.5t-26.5 -81.5t-16 -82q-1 -9 -2 -19q0 -32 12 -65q-6 -12 -17.5 -13.5t-21.5 -1.5q-39 -76 -59 -165q-12 -53 -13 -105q0 -35 6 -70zM146 878q8 -50 14 -96q16 -4 34.5 -11t30.5 13 q20 -14 43 -13t45.5 6t43 10.5t38.5 -3.5q18 -6 22.5 -17t0.5 -25.5t-14.5 -28t-20.5 -23.5q4 -18 -1 -39.5t11 -36.5q12 0 24.5 -1t18.5 14q23 -18 52.5 -29.5t41.5 -36.5l11 12q6 -10 17 -11t22 -1q16 53 40.5 102.5t24.5 108.5q37 27 38 71t3 87q-12 18 -25.5 20t-28 -2 t-29.5 -8t-34 4q-22 1 -46.5 1t-51.5 -1q-53 -2 -107 -3h-19q-45 0 -89 4q-53 5 -98 24q-14 -29 -14 -63q0 -14 2 -28z" />
<glyph unicode="{" horiz-adv-x="419" d="M-27 766q8 -2 11.5 -8t5.5 -12.5t5 -10.5t11 -4t28.5 3t44 7t43 8.5t25.5 8.5q39 8 60.5 25.5t32 36t14.5 34.5t10 25q49 45 68.5 128t26 176t9.5 182t18 147.5t52 70.5t111 -47l-2 98q-145 29 -226 13.5t-117 -62.5t-39 -118.5t5 -154.5t16.5 -169t-5 -161t-60.5 -132 t-148 -84zM-25 678q76 -16 115 -57t53.5 -98.5t12.5 -125t-7.5 -138.5t-7.5 -139.5t13 -125.5q31 -57 73.5 -81t92 -35t100.5 -16t96 -26l31 98q-70 -16 -123 9.5t-107 52.5q-20 33 -30.5 76t-11.5 88t8.5 87t27.5 77q-27 49 -34 112.5t-19 119.5t-42 93t-101 35z" />
<glyph unicode="|" horiz-adv-x="329" d="M70 96q0 -25 2 -47t0 -33q25 4 52.5 2t53.5 -2q29 0 51.5 5.5t38.5 21.5q-39 111 -40 242t9.5 268t18.5 271t-12 249l28 25q-37 37 -34.5 71.5t14.5 70.5t22.5 73t-8.5 80l-196 -2q18 -41 29.5 -96.5t12.5 -114t-6.5 -113.5t-23.5 -96q39 -86 38 -173t-12.5 -174 t-19.5 -177.5t14 -184.5l99 -47q-16 -25 -45 -25q-27 0 -54 -4q-20 -16 -26 -40.5t-6 -49.5z" />
<glyph unicode="}" horiz-adv-x="419" d="M-113 -127q8 -45 38 -57.5t70 -10.5t82 8.5t73 -1.5q59 20 88.5 57t40 83t7.5 100t-10.5 109.5t-10.5 109t7 100.5q10 45 26.5 95t42.5 93t63 74t90 37q-72 35 -112 85t-59.5 111.5t-22.5 131t1 141t9 143.5t3 137q-18 66 -60 99.5t-96.5 47t-117 12.5t-119.5 -5v-98 q61 27 109.5 13.5t88.5 -44.5t72.5 -68t61.5 -57l-29 -33q-18 12 -31.5 25.5t-37.5 3.5q8 -27 5 -55.5t-8.5 -54t-5.5 -48.5t15 -39q8 -23 -6.5 -36t-26.5 -29q14 -53 25.5 -107.5t32 -106t53 -96.5t92.5 -77q-92 -16 -135 -61.5t-57.5 -107t-8.5 -135t13.5 -148.5t6 -145.5 t-31.5 -125.5q-14 -10 -31.5 -25.5t-35 -26t-34 -9.5t-30.5 24q-27 0 -54.5 -2t-44.5 -31z" />
<glyph unicode="~" horiz-adv-x="970" d="M55 1456l293 72q47 -8 92 -38t89 -58.5t88.5 -42t91.5 13.5q14 -12 28.5 -25.5t36.5 -3.5q45 10 86 44t60.5 74t10 79.5t-62.5 64.5q-33 -80 -69.5 -117.5t-75.5 -45t-82 8t-88 41t-94 54.5t-99.5 48.5t-103.5 21.5t-109 -25q-53 -14 -82.5 -59t-9.5 -107z" />
<glyph horiz-adv-x="716" d="M-33 -125l4 -98q41 -27 85 -30t87 10.5t82 38t70 52.5q23 240 41 475.5t41 475.5q18 43 54 50t79 1t86 -17.5t74 -5.5v66q-14 0 -44 1t-62 0t-58.5 -6t-32.5 -20l-65 62q20 37 24 87t3 102t1 103.5t19.5 91.5t56.5 61.5t115 17.5l-4 131l-230 -4q-74 -39 -105.5 -102.5 t-40.5 -139.5t-5 -159t2 -161q-2 -41 -14.5 -59t-33 -25.5t-46 -5.5t-50 4t-48 1t-38.5 -15l35 -33q29 2 54.5 3t41.5 32l68 -65q-4 -16 -1 -35t4 -37t-5 -34.5t-27 -24.5l33 -33q-8 -39 -22.5 -81t-23.5 -85t-7 -84t26 -78q-23 -8 -28.5 -23.5t-4.5 -34t3 -38t-2 -35.5 q-16 -25 -20.5 -59.5t-7.5 -70.5t-9 -70.5t-21.5 -60.5t-47.5 -36t-85 0z" />
<glyph unicode="&#xa2;" horiz-adv-x="722" d="M57 659q10 -47 11.5 -91t1.5 -87t2 -88t12 -94q20 -29 33.5 -63.5t28 -68.5t38 -59.5t66.5 -33.5v16q12 63 27.5 128t25.5 130.5t11 133t-15 134.5q-8 16 -4 31t9 27t6 24.5t-13 24.5q14 20 14 53v64t10.5 53.5t49.5 24.5q20 37 20 63q0 29 -15.5 47.5t-41 24.5t-55.5 0 q-4 27 -10.5 55.5t-11.5 63t-8 77.5t-3 101q-20 12 -41 21t-35 11t-21.5 -4t-1.5 -26l-4 -391q-47 -59 -68.5 -138.5t-17.5 -163.5zM324 0q18 -10 40.5 -13t45.5 -3q25 0 46 1t36 -1q4 -14 0.5 -23.5t-8.5 -19t-8 -22.5t1 -34q-8 -29 -11 -46t4 -18t30.5 18.5t68.5 66.5 l-12 123q25 29 32 66.5t7 80.5t-2 87t2 83l-29 60q-39 2 -55 -12.5t-20.5 -36t-2 -50t1 -56.5t-10.5 -51.5t-36 -35.5q-18 20 -36.5 38.5t-51.5 8.5q-23 -49 -28.5 -102.5t-3.5 -108.5zM424 880q6 -46 18.5 -89t25.5 -86t21 -89q18 14 46 15.5t53.5 0.5t48 3t33.5 27h-2 q-4 39 -9.5 77.5t-16.5 75.5t-28.5 71t-48.5 62q-20 -4 -36.5 8.5t-32 23.5t-33 15t-37.5 -16q-8 -53 -2 -99z" />
<glyph unicode="&#xa4;" horiz-adv-x="798" d="M68 975q23 -8 41 -27.5t36 -36.5l-61 -69q8 -43 3 -94.5t-5 -100.5q0 -47 14.5 -90t59.5 -72q29 -10 50 -4t39.5 19.5t36 29t37.5 23.5q-25 49 -32.5 110.5t-7.5 124.5t1 121t-6 101q29 37 21 83t-16.5 92t5 87t85.5 67q18 6 30.5 0t23.5 -17t21.5 -25.5t22.5 -22.5 q31 -68 35 -140.5t-7.5 -144t-34 -140.5t-48.5 -132q51 -4 72.5 -28.5t27.5 -57.5t5 -72t4 -72.5t24.5 -58.5t68.5 -31q-10 -10 -20 -23.5t-20.5 -24.5t-23.5 -18t-30 -3l4 -131q-31 -29 -58.5 -55.5t-72.5 -14.5l2 -127q53 0 104.5 2t92.5 35q57 10 81.5 44t34 78t14.5 91 t23 84q-16 -4 -29.5 1t-24.5 16t-21.5 23.5t-22.5 22.5q12 8 22.5 21.5t20.5 25t23.5 18.5t31.5 3q2 57 -19 102t-54 86t-69 81t-60 85l96 70l-33 29q12 16 26.5 29.5t39.5 6.5q-10 55 -6 119t4 123q0 61 -14.5 116.5t-59.5 96.5q-55 10 -130 23.5t-147.5 10.5t-131 -34 t-81.5 -109h56q29 0 43 -28l-127 -168l65 -62q-18 -18 -35.5 -37.5t-39.5 -29.5zM90 387q-6 -25 7.5 -38t29.5 -27q-23 -35 -28 -75t-4 -83t5 -86t0 -84l197 2l-10 426z" />
<glyph unicode="&#xa9;" horiz-adv-x="1378" d="M100 639q-4 -84 19.5 -154.5t66.5 -133t100.5 -119t119.5 -111.5q55 -31 121.5 -49.5t135 -24.5t137 -2t130.5 21q106 27 180 93t121 154t72.5 188.5t37.5 192.5q2 74 -19.5 135.5t-58 116.5t-86 105.5t-104.5 99.5q-78 51 -157.5 64.5t-161.5 5t-166 -26.5t-170 -27 q-66 -47 -128.5 -102t-108.5 -120.5t-69.5 -141.5t-11.5 -164zM229 709q29 45 49.5 100t45 106.5t61.5 93.5t98 62q57 18 127 31.5t140 13.5q72 0 139 -15.5t119 -51.5q74 -53 111.5 -128t52 -158t7 -169t-25.5 -164q-12 -35 -34.5 -64.5t-49.5 -57t-55.5 -54.5t-50.5 -53 q-57 -23 -122 -33t-131.5 -9t-129 16t-113.5 44q-63 35 -104 89t-68 120t-41 137.5t-25 143.5zM402.5 668.5q-3.5 -95.5 29.5 -187.5q12 -55 39 -85.5t62.5 -45t78.5 -19.5t86 -7t85 -7.5t77 -21.5q25 10 53.5 28.5t50 43t29.5 56.5t-8 69h-94q0 -29 -2 -55.5t-31 -43.5 q-37 -29 -76 -33t-77.5 7.5t-75.5 35t-66 50.5q-12 45 -28.5 105t-18.5 120.5t19.5 114t85.5 86.5q51 41 104 37.5t100 -29t87 -64.5t69 -69q25 61 -1 116.5t-70 86t-93 28.5t-72 -55q-41 -16 -81.5 -12t-78.5 6t-71 -12.5t-57 -69.5q-51 -78 -54.5 -173.5z" />
<glyph unicode="&#xab;" horiz-adv-x="880" d="M4 301q39 -4 79 0t79 5t74.5 -5t66.5 -29l-29 -290l197 2v96q-20 84 5.5 131t72.5 73.5t105.5 38t103.5 25.5l-262 60q-18 66 -6 94t41.5 37.5t70.5 6.5t79 -2t67.5 13t35.5 53l-229 62q33 201 105.5 383t205.5 342l-225 -37l33 -33q-61 -59 -90 -132t-51.5 -147.5 t-52 -147.5t-91.5 -132q-41 72 -58.5 155t-29.5 169t-29.5 168.5t-56.5 154.5q-25 -4 -52.5 -1t-53.5 3q-27 0 -50.5 -7t-40.5 -30q47 -82 80 -170t59.5 -179t50 -183t52.5 -182q-18 -23 -46 -30t-58 -7q-29 0 -61 2t-60 -2v-99q29 6 60.5 3t62.5 -3t58.5 7.5t47.5 29.5 q23 -12 29 -31.5t6 -41.5q0 -23 -2 -46.5t2 -44.5q-29 -23 -64.5 -29.5t-74.5 -6.5t-79 2t-77 -2v-66z" />
<glyph unicode="&#xac;" horiz-adv-x="1353" d="M83 763q-7 -89 11.5 -179t54 -176t70.5 -160q57 -35 116.5 -86t127 -92t146.5 -57.5t173 16.5q-2 29 -4 56.5t-30 41.5q-18 6 -30.5 -1t-24 -18.5t-20.5 -24.5t-22 -22q-14 12 -28.5 26.5t-6.5 39.5q-47 -6 -87 5t-74.5 34.5t-67.5 53.5t-65 61q-68 61 -89.5 124.5 t-22.5 131t5 141.5t-8 158q45 94 113.5 159.5t152.5 104.5t181.5 49t203.5 -6q121 -57 213 -154.5t121 -228.5q-4 -70 -17.5 -150t-42 -159.5t-73.5 -153.5t-115 -133q-16 -12 -38.5 -16.5t-41 -11.5t-27 -22.5t8.5 -47.5q43 -14 76.5 -5t63.5 28.5t57.5 42t60.5 34.5 q57 80 101 171t67.5 187.5t21.5 198t-39 201.5q-115 199 -305 279.5t-424 31.5q-53 -23 -109.5 -49.5t-108.5 -62.5t-96 -82t-71 -107q-51 -82 -58 -171zM449 317q61 -33 90.5 -28.5t39 30t5.5 68.5t-7.5 87t1 83t28.5 59q74 -18 110 -66t59.5 -103.5t50 -107.5t81.5 -77 l33 33q-57 63 -84 139t-53 152q59 14 73.5 50t8.5 82t-20.5 98t-10.5 97l-344 56q-10 -25 -15.5 -58.5t-5.5 -68.5t5.5 -69t13.5 -58q-27 -43 -30 -95.5t-1 -105.5t0 -104.5t-28 -92.5zM601 803.5q-1 21.5 5 41t29 34.5l121 -33l8 -189q-12 8 -31.5 19.5t-43 22t-46 15.5 t-41.5 1q6 20 3 43.5t-4 45z" />
<glyph unicode="&#xad;" d="M39 662l649 -9v33q-31 -16 -50.5 -7t-32.5 27.5t-23.5 41t-24.5 36.5q-84 18 -136 16.5t-102.5 -12t-113 -21.5t-166.5 -11v-94z" />
<glyph unicode="&#xb4;" horiz-adv-x="653" d="M35 760.5q6 -19.5 33 -43.5q-18 -29 -4 -57.5t35.5 -53t34.5 -44t-5 -32.5l375 -49q14 39 -12.5 61.5t-53.5 43.5v-2l187 110l-45 78q8 8 -0.5 14.5t-23.5 10.5t-33.5 6t-30.5 2v153q-27 -2 -53.5 -1t-51.5 -3t-46.5 -15t-35.5 -38q-16 27 -37.5 37t-46 13t-50.5 2t-52 1 q-29 -53 -50.5 -88t-30.5 -60.5t-3 -45z" />
<glyph unicode="&#xc0;" horiz-adv-x="774" d="M-4 23h65q49 41 86 47t68 -5.5t59.5 -31t59.5 -32.5t67.5 -9t85.5 41q29 31 51.5 51t42 40.5t36 44.5t30.5 60q49 78 57.5 151t-4 141.5t-34 134t-32.5 131t-1 130t63 132.5q-25 -18 -54.5 -34t-57 -20t-50 6.5t-34.5 45.5q-29 23 -61.5 27.5t-67.5 -1.5t-69 -16t-64 -19 q-55 -31 -88 -79t-51.5 -106t-29 -120.5t-20.5 -120.5q-16 -55 -11 -109t17.5 -106.5t24.5 -102.5t12 -97t-21.5 -91.5t-74.5 -82.5zM255 579.5q3 57.5 20.5 122t39 129t25.5 113.5q59 14 77.5 -2t19.5 -47t-6 -67.5t3 -67.5q-10 -23 -27.5 -55.5t-37 -69.5t-42 -76 t-42.5 -74q-33 37 -30 94.5zM282 280.5q5 57.5 32.5 111.5t65.5 102.5t60 89.5l2 4l-2 -4q-23 -41 -25.5 -83t-0.5 -84t6 -81t-2 -72t-27.5 -59.5t-68.5 -42.5q-45 61 -40 118.5z" />
<glyph unicode="&#xc2;" horiz-adv-x="602" d="M51 1333l4 -131q47 10 85 -2t79 -22q23 12 29 31.5t4 41t-5 44t1 42.5zM379 1245q18 -31 41.5 -44t49.5 -17t54.5 -2t55.5 2l-5 65q-23 -8 -36 4.5t-29 24.5l65 65l-196 -2v-96z" />
<glyph unicode="&#xca;" horiz-adv-x="897" d="M29 889q92 -4 176 8t170 25q29 -88 27.5 -175.5t-9.5 -175.5t-14 -178t10 -184l74 -45q-12 -25 -35 -25q-20 0 -41 -4q-14 -16 -18 -41.5t-4 -50.5t2 -47.5t0 -32.5q18 4 39.5 2t39.5 -2q20 0 38 5t30 22q-31 111 -31 219q0 109 7.5 217.5t13.5 220t-8 225.5 q37 43 79.5 49.5t87 -3t90.5 -23.5t89 -12q16 8 20 22.5t3 31.5t-4 34t-1 33q-41 -10 -90 -20.5t-99 -11.5t-96.5 9t-80.5 39l22 24q-29 37 -26.5 72t11.5 71t17 72.5t-6 79.5l-147 -2q14 -39 22 -86t9 -96t-5 -97t-18 -89l-344 18v-98z" />
<glyph unicode="&#xcd;" horiz-adv-x="389" d="M51 1405q74 -23 91.5 -71t5 -105.5t-41 -115.5t-45.5 -101h95q14 74 51 137t69.5 127.5t48 136.5t-15.5 160q-33 -8 -60.5 -12.5t-53 -5.5t-53 3.5t-62.5 10.5z" />
<glyph unicode="&#xce;" horiz-adv-x="774" d="M72 166q-25 -178 104 -293q45 -18 72.5 -7t41 38.5t16.5 64.5t-3 68q-49 -41 -72.5 -43t-34 17.5t-14.5 52t-13 60.5t-30.5 43t-66.5 -1zM127 258q8 -25 38 -43t63.5 -34.5t39.5 -45.5q8 135 123 230q31 0 57.5 2t40.5 -31l-28 -33l33 -33q-41 -70 -36 -106.5t35.5 -60 t77.5 -41t91 -48.5v105q-1 51 28 92q-29 -4 -55.5 -2t-42.5 31q70 96 83 213.5t5 244.5q10 70 -22.5 87.5t-80 14.5t-95.5 -12.5t-66 3.5q14 16 28.5 29.5t4.5 35.5l-162 -2q-39 -10 -66.5 -34.5t-46 -56.5t-30 -69t-17.5 -69q57 -12 87 -5t50.5 26.5t37.5 49t50 62.5 q66 8 90.5 -19.5t33.5 -70.5t14.5 -90.5t29.5 -77.5q-33 -47 -81 -59.5t-98 -19.5t-97 -23.5t-78 -67.5q-47 -47 -39 -72zM281 1182q-10 -47 5 -86t27 -76q45 -37 87 -42t76 11.5t56.5 49t28.5 71.5t-6 76.5t-49 66.5q-29 -6 -62.5 -3t-64.5 1t-57.5 -16t-40.5 -53z M375 1151l98 -33l-61 -65q-33 16 -33 43q0 29 -4 55z" />
<glyph unicode="&#xe2;" horiz-adv-x="706" d="M51 895q0 -102 2 -202.5t16.5 -196t44 -184.5t85.5 -167q-10 25 3 38.5t25 29.5q23 -37 40.5 -83t25.5 -93t3 -94t-30 -90q18 -4 38 -1t38 5t33.5 -4.5t25.5 -28.5q4 -18 -2 -30.5t-17 -24t-24.5 -22.5t-21.5 -26l-33 33q-25 8 -38 -6t-27 -27l32 -32q20 -20 48 -28.5 t56.5 -3.5t53.5 21.5t39 47.5q16 88 -16.5 154.5t-85.5 103.5q53 29 103 55.5t91 79.5q-2 14 -3 30.5t-4 31t-11.5 26.5t-22.5 20q-29 -10 -46 4.5t-17 18.5h2l-66 -70q-49 27 -70.5 68t-29.5 92t-6 108.5t2 112.5q0 57 -6.5 110.5t-30.5 96.5q25 25 28 62.5t8 74.5 t21.5 63.5t67.5 30.5q14 -12 29.5 -25t26.5 -28.5t15.5 -33t-2.5 -40.5q45 -16 72.5 10.5t58.5 55.5q6 23 1 41t-16 32.5t-25.5 28t-28.5 25.5q-63 27 -133 31t-134.5 -16.5t-114.5 -66.5t-73 -118zM485 414q-6 -49 13.5 -82t56.5 -82q31 -8 51.5 6t32.5 41t14 58.5t-4 60.5 z" />
<glyph unicode="&#xe5;" horiz-adv-x="1177" d="M84 709l131 4q23 -8 29 -1t7 21.5t5 27.5t25 17q51 -39 117.5 -53t138 -12t141.5 14t127 29q59 -6 90 -33t42 -68t10 -91t-6 -102t-6 -103.5t11 -92.5q86 2 121 33t39 80t-11.5 111.5t-27.5 128t-10 129t39 112.5q-43 16 -81 4t-73 -26.5t-68.5 -17.5t-72.5 34 q-74 -2 -162 -4t-181 -3t-188.5 -3t-185.5 -4v-131z" />
<glyph unicode="&#xe6;" horiz-adv-x="514" />
<glyph unicode="&#xee;" horiz-adv-x="706" d="M25 1049q16 -23 39.5 -28t47 3t44 25.5t32.5 40.5q-10 43 -0.5 82.5t26.5 75.5t36.5 72t30 71.5t4.5 74.5t-41 82q-53 -4 -107 -4q-51 0 -90 29q8 -31 3 -73t-5 -81t14.5 -68.5t59.5 -35.5q14 -43 6 -78t-26.5 -65.5t-40 -60.5t-33.5 -62zM410 1386q53 -12 75.5 -34.5 t25.5 -52t-7 -64.5t-23.5 -72t-24 -71.5t-5.5 -65.5l65 4q14 49 40 94t48.5 92.5t34.5 97.5t0 109q12 43 4 79t-31.5 59.5t-59.5 29.5t-79 -8q-14 -10 -24.5 -32.5t-18.5 -50t-13 -57.5t-7 -57z" />
<glyph unicode="&#xef;" horiz-adv-x="389" d="M46 1095.5q-15 -71.5 15 -159.5q33 8 59.5 12t53.5 5t54.5 -3t62.5 -10l28 164q-74 20 -91 69.5t-4.5 106.5t41 115.5t44.5 101.5h-94q-14 -74 -51 -137.5t-70 -128t-48 -136z" />
<glyph unicode="&#xf1;" horiz-adv-x="706" d="M62 1095q8 -36 31.5 -59.5t59 -30t78.5 8.5q14 10 24.5 32.5t18 50t12.5 57t9 56.5q-53 10 -75.5 34t-26 53.5t7 64.5t24 71.5t23.5 71.5t6 66l-66 -4q-16 -49 -40.5 -94.5t-47 -92.5t-35 -97t0.5 -109q-12 -43 -4 -79zM420 1130.5q6 -38.5 41 -81.5q53 4 104 4 q53 0 92 -29q-8 31 -4 73t4 81t-13 68.5t-58 35.5q-14 43 -6 77t26.5 64.5t40 60t33.5 64.5q-16 23 -40 28t-47.5 -3t-44 -25.5t-32.5 -40.5q10 -45 1 -84t-26.5 -74.5t-37 -71.5t-29.5 -72t-4 -74.5z" />
<glyph unicode="&#x2000;" horiz-adv-x="858" />
<glyph unicode="&#x2001;" horiz-adv-x="1716" />
<glyph unicode="&#x2002;" horiz-adv-x="858" />
<glyph unicode="&#x2003;" horiz-adv-x="1716" />
<glyph unicode="&#x2004;" horiz-adv-x="572" />
<glyph unicode="&#x2005;" horiz-adv-x="429" />
<glyph unicode="&#x2006;" horiz-adv-x="286" />
<glyph unicode="&#x2007;" horiz-adv-x="286" />
<glyph unicode="&#x2008;" horiz-adv-x="214" />
<glyph unicode="&#x2009;" horiz-adv-x="343" />
<glyph unicode="&#x200a;" horiz-adv-x="95" />
<glyph unicode="&#x2010;" d="M39 662l649 -9v33q-31 -16 -50.5 -7t-32.5 27.5t-23.5 41t-24.5 36.5q-84 18 -136 16.5t-102.5 -12t-113 -21.5t-166.5 -11v-94z" />
<glyph unicode="&#x2011;" d="M39 662l649 -9v33q-31 -16 -50.5 -7t-32.5 27.5t-23.5 41t-24.5 36.5q-84 18 -136 16.5t-102.5 -12t-113 -21.5t-166.5 -11v-94z" />
<glyph unicode="&#x2012;" d="M39 662l649 -9v33q-31 -16 -50.5 -7t-32.5 27.5t-23.5 41t-24.5 36.5q-84 18 -136 16.5t-102.5 -12t-113 -21.5t-166.5 -11v-94z" />
<glyph unicode="&#x2013;" horiz-adv-x="1095" d="M39 662l1024 -9v33q-49 -16 -79.5 -7t-51 27.5t-37.5 41t-39 36.5q-132 18 -214 16.5t-162 -12t-178.5 -21.5t-262.5 -11v-94z" />
<glyph unicode="&#x2014;" horiz-adv-x="2119" d="M39 662l2048 -9v33q-98 -16 -159.5 -7t-102.5 27.5t-74 41t-77 36.5q-265 18 -429.5 16.5t-323.5 -12t-356.5 -21.5t-525.5 -11v-94z" />
<glyph unicode="&#x201e;" horiz-adv-x="1069" d="M27 662l1015 -9v33q-49 -16 -78.5 -7t-50 27.5t-37 41t-38.5 36.5q-88 12 -151.5 15.5t-118 0.5t-104.5 -11.5t-110.5 -15.5t-139.5 -12t-187 -5v-94z" />
<glyph unicode="&#x2026;" horiz-adv-x="972" d="M72 702l4 -127q86 -4 169 1.5t163.5 15.5t160.5 22.5t160 24.5l53 -51q33 -10 52.5 -4t31 23.5t15.5 40.5t4 48q-96 16 -200.5 18.5t-211 -0.5t-209 -8.5t-192.5 -3.5zM341 276.5q-1 -32.5 3 -63.5q18 -6 35.5 -17.5t36 -21.5t39 -15t45.5 5h2q14 12 28.5 37.5t21.5 56.5 t8 62.5t-10 53t-37 29t-71 -7.5q-37 2 -58.5 -14t-31.5 -44t-11 -60.5zM380 977q1 -31 1 -57q14 -25 32.5 -35.5t40 -13.5t43 -1t44.5 2q20 41 40.5 84.5t6.5 98.5q-23 35 -56.5 45t-74.5 4q-35 -4 -51.5 -23.5t-21.5 -46t-4 -57.5z" />
<glyph unicode="&#x202f;" horiz-adv-x="343" />
<glyph unicode="&#x205f;" horiz-adv-x="429" />
<glyph unicode="&#xe000;" horiz-adv-x="1013" d="M0 0v1014h1014v-1014h-1014z" />
</font>
</defs>
</svg>
